<svg version="1.1" id="Слой_1" xmlns="http://www.w3.org/2000/svg" xmlns:xlink="http://www.w3.org/1999/xlink" x="0px" y="0px" viewBox="0 0 306.8 60.8" enable-background="new 0 0 306.8 60.8" xml:space="preserve">
    <symbol id="interface" viewBox="0 0 17 17" xmlns="http://www.w3.org/2000/svg">
        <path d="M15.4062 2.83329C15.378 2.83329 15.3496 2.84756 15.3213 2.85456C15.2859 2.84756 15.2575 2.83329 15.2292 2.83329H14.5208V0.70829C14.5208 0.318802 14.2021 0 13.8125 0H3.1875C2.13914 0 1.26794 0.764969 1.09791 1.77079C1.07664 1.82747 1.0625 1.88415 1.0625 1.94796V15.052C1.0625 16.1288 1.93369 17 3.01046 17H15.4062C15.6966 17 15.9375 16.7591 15.9375 16.4688V3.36454C15.9375 3.07414 15.6966 2.83329 15.4062 2.83329ZM8.5 14.5208C5.96411 14.5208 3.89579 12.4525 3.89579 9.91671C3.89579 7.38082 5.96411 5.3125 8.5 5.3125C11.0359 5.3125 13.1042 7.38082 13.1042 9.91671C13.1042 12.4525 11.0359 14.5208 8.5 14.5208ZM13.1042 2.83329H3.1875C2.79788 2.83329 2.47921 2.51462 2.47921 2.125C2.47921 1.73538 2.79788 1.41671 3.1875 1.41671H13.1042V2.83329Z"/>
        <path d="M9.56181 11.6875C9.38049 11.6875 9.19917 11.6181 9.06104 11.4799L7.99854 10.4174C7.86533 10.285 7.79102 10.105 7.79102 9.91667V7.79167C7.79102 7.39998 8.10826 7.08325 8.49931 7.08325C8.89035 7.08325 9.2076 7.39998 9.2076 7.79167V9.62342L10.0626 10.4784C10.3396 10.7553 10.3396 11.2029 10.0626 11.4799C9.92445 11.6181 9.74313 11.6875 9.56181 11.6875Z"/>
    </symbol>
    <symbol id="card-right" viewBox="0 0 17 19" xmlns="http://www.w3.org/2000/svg">
        <path d="M0 8.34799V13.2652C0 14.6812 1.02705 15.8291 2.294 15.8291H14.706C15.973 15.8291 17 14.6812 17 13.2652V8.34799C17 8.10175 16.8214 7.9021 16.601 7.9021H0.398956C0.178633 7.9021 0 8.10175 0 8.34799ZM4.24446 11.4692H3.18058C2.79499 11.4692 2.48241 11.1199 2.48241 10.6889C2.48241 10.258 2.79499 9.90862 3.18058 9.90862H4.24446C4.63006 9.90862 4.94264 10.258 4.94264 10.6889C4.94264 11.1199 4.63006 11.4692 4.24446 11.4692Z"/>
        <path d="M17 5.89579V5.73478C17 4.31877 15.973 3.1709 14.706 3.1709H2.294C1.02705 3.1709 0 4.31877 0 5.73478V5.89579C0 6.14203 0.178633 6.34168 0.398956 6.34168H16.601C16.8214 6.34168 17 6.14203 17 5.89579Z"/>
    </symbol>
    <symbol id="card-up" viewBox="0 0 17 19" fill="none" xmlns="http://www.w3.org/2000/svg">
        <path d="M0 8.34799V13.2652C0 14.6812 1.02705 15.8291 2.294 15.8291H14.706C15.973 15.8291 17 14.6812 17 13.2652V8.34799C17 8.10175 16.8214 7.9021 16.601 7.9021H0.398956C0.178633 7.9021 0 8.10175 0 8.34799ZM4.24446 11.4692H3.18058C2.79499 11.4692 2.48241 11.1199 2.48241 10.6889C2.48241 10.258 2.79499 9.90862 3.18058 9.90862H4.24446C4.63006 9.90862 4.94264 10.258 4.94264 10.6889C4.94264 11.1199 4.63006 11.4692 4.24446 11.4692Z" fill="#A1BCDC"/>
        <path d="M17 5.89579V5.73478C17 4.31877 15.973 3.1709 14.706 3.1709H2.294C1.02705 3.1709 0 4.31877 0 5.73478V5.89579C0 6.14203 0.178633 6.34168 0.398956 6.34168H16.601C16.8214 6.34168 17 6.14203 17 5.89579Z" fill="#A1BCDC"/>
        <path d="M14.0494 10.7698L14.0495 10.7699L17.3549 15.0475C17.517 15.257 17.5456 15.5404 17.4291 15.778L14.0494 10.7698ZM14.0494 10.7698C13.9168 10.5982 13.7116 10.5002 13.5007 10.5C13.2892 10.4998 13.0835 10.5979 12.9506 10.7698L12.9506 10.7699L9.64511 15.0475M14.0494 10.7698L9.64511 15.0475M9.64511 15.0475C9.64506 15.0475 9.64501 15.0476 9.64496 15.0477L9.64511 15.0475ZM11.4444 16.1667H10.1944C9.92949 16.1667 9.6879 16.0161 9.57118 15.7785C9.5711 15.7783 9.57102 15.7781 9.57094 15.778L11.4444 16.1667ZM11.4444 16.1667V17.5574C11.4444 17.941 11.7553 18.2519 12.1389 18.2519H14.8611C15.2448 18.2519 15.5556 17.941 15.5556 17.5574V16.1667H16.8056C17.0706 16.1667 17.3122 16.0161 17.4289 15.7783L11.4444 16.1667Z" fill="#A1BCDC" stroke="white"/>
    </symbol>
    <symbol id="setting" viewBox="0 0 17 17" xmlns="http://www.w3.org/2000/svg">
        <path d="M16.4905 10.3629L14.9279 9.14105C14.9477 8.95263 14.9647 8.73236 14.9647 8.4993C14.9647 8.26625 14.9484 8.04598 14.9279 7.85755L16.4919 6.63498C16.7823 6.40548 16.8617 5.99818 16.6768 5.65891L15.0519 2.8475C14.8783 2.53018 14.4979 2.36725 14.1119 2.50962L12.2681 3.24982C11.9147 2.99482 11.5442 2.7795 11.161 2.60737L10.8805 0.651678C10.8344 0.2805 10.5114 0 10.1297 0H6.87134C6.48954 0 6.16727 0.2805 6.12191 0.646L5.84072 2.6088C5.46954 2.77598 5.10477 2.98848 4.73572 3.25125L2.88697 2.50893C2.54056 2.37505 2.12618 2.5252 1.95406 2.84113L0.327038 5.65605C0.135091 5.98048 0.214413 6.40193 0.511216 6.63711L2.07379 7.85898C2.04899 8.09768 2.03697 8.30523 2.03697 8.50003C2.03697 8.69484 2.04902 8.90236 2.07379 9.14178L0.509788 10.3644C0.21936 10.5946 0.140735 11.0019 0.32561 11.3404L1.95054 14.1518C2.12409 14.4684 2.50091 14.6327 2.89049 14.4897L4.73429 13.7495C5.08704 14.0038 5.45749 14.2191 5.84072 14.3919L6.12122 16.3469C6.16723 16.7195 6.48954 17 6.87204 17H10.1304C10.5122 17 10.8352 16.7195 10.8805 16.354L11.1617 14.3919C11.5329 14.2241 11.8969 14.0122 12.2667 13.7487L14.1154 14.4911C14.2047 14.5258 14.2975 14.5435 14.3931 14.5435C14.6679 14.5435 14.9208 14.3933 15.0483 14.1596L16.6803 11.3333C16.8617 11.0018 16.7823 10.5946 16.4905 10.3629ZM8.50049 11.3333C6.93791 11.3333 5.66716 10.0626 5.66716 8.5C5.66716 6.93743 6.93791 5.66668 8.50049 5.66668C10.0631 5.66668 11.3338 6.93743 11.3338 8.5C11.3338 10.0626 10.0631 11.3333 8.50049 11.3333Z"/>
    </symbol>
    <symbol id="exit" viewBox="0 0 17 17" xmlns="http://www.w3.org/2000/svg">
        <path d="M10.6249 9.20844C10.2332 9.20844 9.91661 9.52581 9.91661 9.91672V12.7501C9.91661 13.1404 9.59923 13.4584 9.20819 13.4584H7.08322V2.8335C7.08322 2.22859 6.69788 1.68814 6.11852 1.48698L5.9088 1.41681H9.20819C9.59923 1.41681 9.91661 1.73483 9.91661 2.12522V4.2502C9.91661 4.64111 10.2332 4.95848 10.6249 4.95848C11.0166 4.95848 11.3332 4.64111 11.3332 4.2502V2.12522C11.3332 0.953657 10.3798 0.000244141 9.20819 0.000244141H1.59373C1.56676 0.000244141 1.54419 0.0123061 1.51799 0.0158079C1.48388 0.0129546 1.45132 0.000244141 1.4167 0.000244141C0.635392 0.000244141 0 0.635507 0 1.41681V14.1667C0 14.7716 0.385334 15.312 0.964696 15.5132L5.22749 16.9342C5.37198 16.9788 5.51568 17.0001 5.66665 17.0001C6.44795 17.0001 7.08322 16.3647 7.08322 15.5834V14.8751H9.20819C10.3798 14.8751 11.3332 13.9217 11.3332 12.7501V9.91672C11.3332 9.52581 11.0166 9.20844 10.6249 9.20844Z" fill="#ACC4E0"/>
        <path d="M16.7931 6.58274L13.9597 3.74948C13.7572 3.54689 13.4526 3.48593 13.1877 3.59566C12.9235 3.70551 12.7507 3.964 12.7507 4.25025V6.37522H9.9174C9.52636 6.37522 9.20898 6.69247 9.20898 7.08351C9.20898 7.47455 9.52636 7.79179 9.9174 7.79179H12.7507V9.91677C12.7507 10.203 12.9235 10.4615 13.1877 10.5714C13.4526 10.6811 13.7572 10.6201 13.9597 10.4177L16.7931 7.58427C17.07 7.30737 17.07 6.85965 16.7931 6.58274Z" fill="#ACC4E0"/>
    </symbol>
    <symbol id="info" viewBox="0 0 17 17" xmlns="http://www.w3.org/2000/svg">
        <path d="M8.5 0C3.81291 0 0 3.81291 0 8.5C0 13.1871 3.81291 17 8.5 17C13.1871 17 17 13.1871 17 8.5C17 3.81291 13.1871 0 8.5 0ZM8.5 13.4583C8.10896 13.4583 7.79171 13.141 7.79171 12.75C7.79171 12.359 8.10896 12.0417 8.5 12.0417C8.89104 12.0417 9.20829 12.359 9.20829 12.75C9.20829 13.141 8.89104 13.4583 8.5 13.4583ZM9.62125 8.95473C9.37054 9.07016 9.20829 9.32307 9.20829 9.59869V9.91671C9.20829 10.3076 8.89169 10.625 8.5 10.625C8.10831 10.625 7.79171 10.3076 7.79171 9.91671V9.59869C7.79171 8.77198 8.27757 8.01414 9.02775 7.66772C9.74953 7.33556 10.2708 6.4536 10.2708 6.02079C10.2708 5.0448 9.47677 4.25 8.5 4.25C7.52323 4.25 6.72921 5.0448 6.72921 6.02079C6.72921 6.41183 6.41248 6.72921 6.02079 6.72921C5.6291 6.72921 5.3125 6.41183 5.3125 6.02079C5.3125 4.26349 6.74257 2.83329 8.5 2.83329C10.2574 2.83329 11.6875 4.26349 11.6875 6.02079C11.6875 6.97784 10.8573 8.38457 9.62125 8.95473Z"/>
    </symbol>
    <symbol id="support" viewBox="0 0 17 17" xmlns="http://www.w3.org/2000/svg">
        <path d="M8.50003 0C4.91604 0 2 2.91604 2 6.50003V12.4999C2 13.3272 2.67288 14 3.49998 14C4.3272 14 5.00008 13.3272 5.00008 12.4999V7.50002C5.00008 6.67292 4.3272 6.00004 3.49998 6.00004C3.33163 6.00004 3.17236 6.03415 3.021 6.08551C3.23435 3.24625 5.6076 0.999985 8.50003 0.999985C11.3909 0.999985 13.7635 3.24418 13.9788 6.08149C13.8284 6.03 13.6682 6.00004 13.5001 6.00004C12.6729 6.00004 12 6.67292 12 7.50002V12.4999C12 13.3272 12.6729 14 13.5001 14C13.6762 14 13.8429 13.964 14.0001 13.908V14.5C14.0001 14.7759 13.7754 15 13.5001 15H9.90792C9.70079 14.4192 9.15099 14 8.50003 14C7.67294 14 7.00005 14.6729 7.00005 15.5C7.00005 16.3271 7.67294 17 8.50003 17C9.15099 17 9.70079 16.5807 9.90792 16H13.5001C14.3272 16 15.0001 15.3271 15.0001 14.5C15.0001 11.4926 15.0001 9.51075 15.0001 6.50003C15.0001 2.91604 12.084 0 8.50003 0V0Z"/>
        <path d="M16 7.0918V12.9075C16.5807 12.7005 17 12.1507 17 11.4996V8.49969C17 7.84872 16.5807 7.29893 16 7.0918Z"/>
        <path d="M0 8.49969V11.4996C0 12.1507 0.419319 12.7005 0.999985 12.9075V7.0918C0.419319 7.29893 0 7.84872 0 8.49969Z"/>
    </symbol>
    <symbol id="profile" viewBox="0 0 20 20" xmlns="http://www.w3.org/2000/svg">
        <path d="M10 0C7.09223 0 4.72656 2.36566 4.72656 5.27344C4.72656 8.18121 7.09223 10.5469 10 10.5469C12.9078 10.5469 15.2734 8.18121 15.2734 5.27344C15.2734 2.36566 12.9078 0 10 0Z"/>
        <path d="M16.5612 13.992C15.1174 12.5261 13.2035 11.7188 11.1719 11.7188H8.82812C6.79656 11.7188 4.88258 12.5261 3.43883 13.992C2.00215 15.4507 1.21094 17.3763 1.21094 19.4141C1.21094 19.7377 1.47328 20 1.79688 20H18.2031C18.5267 20 18.7891 19.7377 18.7891 19.4141C18.7891 17.3763 17.9979 15.4507 16.5612 13.992Z"/>
    </symbol>
    <symbol id="menu" viewBox="0 0 19 19" xmlns="http://www.w3.org/2000/svg">
        <rect width="19" height="3" rx="1.5"/>
        <rect y="8" width="11" height="3" rx="1.5"/>
        <rect y="16" width="19" height="3" rx="1.5"/>
    </symbol>

</svg>
