<svg version="1.1" id="Слой_1" xmlns="http://www.w3.org/2000/svg" xmlns:xlink="http://www.w3.org/1999/xlink" x="0px" y="0px" viewBox="0 0 306.8 60.8" enable-background="new 0 0 306.8 60.8" xml:space="preserve">
    <symbol id="business" viewBox="0 0 20 20" xmlns="http://www.w3.org/2000/svg">
        <path d="M19 4H14.6667V2.66667C14.6655 1.74658 13.9201 1.00114 13 1H7C6.07992 1.00114 5.33447 1.74658 5.33333 2.66667V4H1C0.447754 4 0 4.44775 0 5V12.4199C0.00211588 12.8428 0.268555 13.2189 0.666667 13.361V18C0.666667 18.5522 1.11442 19 1.66667 19H18.3333C18.8856 19 19.3333 18.5522 19.3333 18V13.3613C19.7314 13.2191 19.998 12.8428 20 12.4199V5C20 4.44775 19.5522 4 19 4ZM6 2.66667C6 2.11442 6.44775 1.66667 7 1.66667H13C13.5522 1.66667 14 2.11442 14 2.66667V4H13.3333V2.66667C13.3333 2.48258 13.1841 2.33333 13 2.33333H7C6.81592 2.33333 6.66667 2.48258 6.66667 2.66667V4H6V2.66667ZM12.6667 4H7.33333V3H12.6667V4ZM18.6667 18C18.6667 18.1841 18.5174 18.3333 18.3333 18.3333H1.66667C1.48258 18.3333 1.33333 18.1841 1.33333 18V13.4756L8.66667 14.487V15.3333C8.66667 15.8856 9.11442 16.3333 9.66667 16.3333H10.3333C10.8856 16.3333 11.3333 15.8856 11.3333 15.3333V14.487L18.6667 13.4756V18ZM10.6667 15.3333C10.6667 15.5174 10.5174 15.6667 10.3333 15.6667H9.66667C9.48258 15.6667 9.33333 15.5174 9.33333 15.3333V13.3333C9.33333 13.1492 9.48258 13 9.66667 13H10.3333C10.5174 13 10.6667 13.1492 10.6667 13.3333V15.3333ZM19.3333 12.4199C19.3335 12.5861 19.2113 12.727 19.0467 12.7503L18.9543 12.763L11.3333 13.814V13.3333C11.3333 12.7811 10.8856 12.3333 10.3333 12.3333H9.66667C9.11442 12.3333 8.66667 12.7811 8.66667 13.3333V13.814L0.953613 12.7503C0.789062 12.7272 0.666504 12.5863 0.666667 12.4199V5C0.666667 4.81592 0.815918 4.66667 1 4.66667H19C19.1841 4.66667 19.3333 4.81592 19.3333 5V12.4199Z"/>
    </symbol>
    <symbol id="willness" viewBox="0 0 23 23" xmlns="http://www.w3.org/2000/svg">
        <path d="M4.38192 12.2967C4.6746 12.9518 5.31324 13.3846 6.03025 13.4137C6.1316 13.4327 6.20854 13.5159 6.21962 13.6184C6.47803 15.1223 7.61779 16.322 9.1065 16.6571C9.18947 16.6736 9.26642 16.7123 9.32922 16.769C9.38503 16.8285 9.44416 16.8848 9.50632 16.9377C9.46476 17.0446 9.41662 17.1488 9.36218 17.2497H8.05003C6.14561 17.252 4.60236 18.7953 4.60003 20.6997V21.8497C4.60003 22.4848 5.1149 22.9997 5.75003 22.9997H17.25C17.8852 22.9997 18.4 22.4848 18.4 21.8497V20.6997C18.3977 18.7953 16.8545 17.252 14.95 17.2497H13.6363C13.5819 17.1488 13.5338 17.0446 13.4922 16.9377C13.5544 16.8848 13.6135 16.8285 13.6693 16.769C13.7322 16.7122 13.8093 16.6736 13.8924 16.6571C15.3811 16.3218 16.5207 15.122 16.7789 13.618C16.7918 13.5108 16.8761 13.4262 16.9832 13.4129C17.6956 13.3804 18.3285 12.9483 18.6182 12.2967C18.9001 11.6592 18.8167 10.9192 18.4 10.3604V8.43303C18.3954 6.12636 17.1757 3.99278 15.1904 2.81835C14.7368 1.15388 13.2252 -0.000976562 11.5 -0.000976562C9.77487 -0.000976562 8.26323 1.15388 7.80968 2.81835C5.82419 3.99261 4.60447 6.1263 4.60003 8.43303V10.3604C4.18329 10.9192 4.09993 11.6592 4.38192 12.2967ZM5.3667 21.8497V20.6997C5.36839 19.2184 6.56877 18.0181 8.05003 18.0164H9.20885C9.24028 18.8501 9.38825 20.8496 10.0618 22.233H8.05003V20.3164C8.05003 20.1047 7.87841 19.933 7.6667 19.933C7.45499 19.933 7.28337 20.1047 7.28337 20.3164V22.233H5.75003C5.53832 22.233 5.3667 22.0614 5.3667 21.8497ZM10.0943 19.3964C11.0204 19.5998 11.9796 19.5998 12.9057 19.3964C12.8203 20.3897 12.5325 21.3551 12.0601 22.233H10.94C10.4676 21.3551 10.1798 20.3897 10.0943 19.3964ZM17.6334 20.6997V21.8497C17.6334 22.0614 17.4617 22.233 17.25 22.233H15.7167V20.3164C15.7167 20.1047 15.5451 19.933 15.3334 19.933C15.1217 19.933 14.95 20.1047 14.95 20.3164V22.233H12.9383C13.6118 20.8496 13.7598 18.8501 13.7912 18.0164H14.95C16.4313 18.0181 17.6317 19.2184 17.6334 20.6997ZM13.0334 17.7258C13.0307 17.8684 13.0211 18.1766 12.99 18.5814C12.0159 18.8502 10.9872 18.8502 10.0131 18.5814C9.98203 18.1766 9.97245 17.8684 9.96977 17.7258C10.0423 17.6045 10.108 17.4794 10.1668 17.3509C11.0168 17.7273 11.9863 17.7273 12.8363 17.3509C12.8951 17.4794 12.9609 17.6045 13.0334 17.7258ZM17.9132 12C17.7348 12.3864 17.3527 12.6382 16.9273 12.6497C16.4714 12.6844 16.0985 13.0268 16.0253 13.4781C15.8186 14.691 14.8957 15.6566 13.6935 15.918C13.47 15.9698 13.2663 16.085 13.1066 16.2496C12.6768 16.6645 12.097 16.8871 11.5 16.8664C10.9028 16.8867 10.323 16.6635 9.89348 16.2481C9.73395 16.0835 9.53029 15.9685 9.30698 15.9169C8.10531 15.6547 7.18322 14.689 6.9767 13.4766C6.9017 13.0216 6.52331 12.6781 6.06322 12.6474C5.64262 12.6331 5.26619 12.3825 5.0907 12C4.89688 11.5811 4.96842 11.0873 5.27317 10.7407C5.49064 10.4932 5.80386 10.3508 6.13337 10.3497V11.1164C6.13337 11.9632 6.81986 12.6497 7.6667 12.6497H9.58337C10.4302 12.6497 11.1167 11.9632 11.1167 11.1164V10.3497H11.8834V11.1164C11.8834 11.9632 12.5699 12.6497 13.4167 12.6497H15.3334C16.1802 12.6497 16.8667 11.9632 16.8667 11.1164V10.3497C17.1965 10.3503 17.5102 10.4924 17.7281 10.7399C18.0332 11.0866 18.1052 11.5806 17.9117 12H17.9132ZM12.65 9.96905V9.96637C12.65 9.75466 12.8217 9.58304 13.0334 9.58304H16.1V11.1164C16.1 11.5398 15.7568 11.883 15.3334 11.883H13.4167C12.9933 11.883 12.65 11.5398 12.65 11.1164V9.96905ZM16.1 8.81637H13.0334C12.5478 8.81838 12.1158 9.1252 11.9539 9.58304H11.0462C10.8843 9.1252 10.4523 8.81838 9.9667 8.81637H6.90003V8.31037C6.89822 7.6309 7.16836 6.97895 7.65022 6.49989C8.51951 5.61545 9.90141 5.49067 10.9151 6.2051C11.2697 6.44088 11.7311 6.44088 12.0858 6.2051L12.1241 6.18018C12.9576 5.61996 14.043 5.60374 14.8929 6.13878C15.6598 6.64033 16.1156 7.50037 16.1 8.41655V8.81637ZM6.90003 9.96637V9.58304H9.9667C10.1784 9.58304 10.35 9.75466 10.35 9.96637V11.1164C10.35 11.5398 10.0068 11.883 9.58337 11.883H7.6667C7.24328 11.883 6.90003 11.5398 6.90003 11.1164V9.96637ZM11.5 0.766367C12.6058 0.772588 13.6237 1.37015 14.168 2.33267C13.4374 2.05862 12.6637 1.91763 11.8834 1.91637H11.1167C10.3364 1.91763 9.56263 2.05862 8.83203 2.33267C9.37633 1.37009 10.3942 0.772508 11.5 0.766367ZM8.25972 3.44127C9.12983 2.94421 10.1146 2.68285 11.1167 2.68303H11.8834C13.4088 2.68171 14.8721 3.28709 15.9507 4.36571C17.0293 5.44433 17.6347 6.90763 17.6334 8.43303V9.7448C17.3917 9.63866 17.1307 9.58359 16.8667 9.58304V8.41655C16.8814 7.23447 16.2879 6.1277 15.295 5.48597C14.1906 4.79105 12.7801 4.81299 11.6978 5.54193L11.6614 5.56608C11.5636 5.63103 11.4364 5.63103 11.3386 5.56608C10.3204 4.86894 8.99993 4.7928 7.90833 5.36831C6.81673 5.94381 6.13346 7.07635 6.13337 8.31037V9.58304C5.86935 9.58348 5.60829 9.63869 5.3667 9.74518V8.43303C5.37027 6.37183 6.47304 4.46906 8.25972 3.44127Z"/>
    </symbol>
    <symbol id="mother" viewBox="0 0 23 23" xmlns="http://www.w3.org/2000/svg">
        <path d="M10.7994 10.9013C10.6812 10.7576 10.4689 10.7368 10.3252 10.855C10.0868 11.0509 9.7439 11.1633 9.3843 11.1633C9.02474 11.1633 8.68181 11.0509 8.44341 10.855C8.29962 10.7368 8.08732 10.7576 7.96922 10.9013C7.85107 11.0451 7.87183 11.2574 8.01558 11.3755C8.37774 11.6732 8.86379 11.8371 9.3843 11.8371C9.90481 11.8371 10.3909 11.6732 10.753 11.3755C10.8968 11.2574 10.9176 11.0451 10.7994 10.9013Z"/>
        <path d="M7.45996 8.46875C7.27389 8.46875 7.12305 8.6196 7.12305 8.80566V9.1906C7.12305 9.37667 7.27389 9.52751 7.45996 9.52751C7.64603 9.52751 7.79687 9.37667 7.79687 9.1906V8.80566C7.79687 8.6196 7.64603 8.46875 7.45996 8.46875Z"/>
        <path d="M11.3076 8.46875C11.1216 8.46875 10.9707 8.6196 10.9707 8.80566V9.1906C10.9707 9.37671 11.1216 9.52751 11.3076 9.52751C11.4937 9.52751 11.6445 9.37667 11.6445 9.1906V8.80566C11.6445 8.6196 11.4937 8.46875 11.3076 8.46875Z"/>
        <path d="M12.0224 2.238C12.0282 2.18185 12.0312 2.12547 12.0312 2.06923C12.0312 0.928219 10.844 0 9.38467 0C7.92538 0 6.73814 0.928219 6.73814 2.06914C6.73814 2.12543 6.74102 2.1819 6.74681 2.238C5.13363 3.15814 4.04365 4.8945 4.04365 6.88081V8.80548C4.04365 9.30159 4.3718 9.72256 4.82241 9.86267C4.90129 11.1319 5.501 12.3057 6.49507 13.1175C6.69358 13.2796 6.90386 13.4229 7.12308 13.5476V14.2507C7.12308 14.5625 6.94986 14.8428 6.67099 14.9823L3.32849 16.6535C2.81984 16.9078 2.50391 17.4191 2.50391 17.9877V19.5836C2.50391 19.86 2.66019 20.1003 2.88884 20.2215V22.663C2.88884 22.8491 3.03969 23 3.22575 23C3.41182 23 3.56267 22.8491 3.56267 22.663V20.3054H4.81352V22.663C4.81352 22.8491 4.96436 23 5.15043 23C5.33649 23 5.48734 22.8491 5.48734 22.663V19.1986C5.48734 19.0126 5.33649 18.8617 5.15043 18.8617C4.96436 18.8617 4.81352 19.0126 4.81352 19.1986V19.6316H3.22575C3.1993 19.6316 3.17773 19.6101 3.17773 19.5836V17.9877C3.17773 17.6759 3.35095 17.3956 3.62983 17.2561L6.08134 16.0304C6.58415 16.9295 7.5701 17.8629 7.61403 17.9043C7.67908 17.9655 7.76205 17.9958 7.84488 17.9958C7.93455 17.9958 8.02399 17.9603 8.09029 17.8898C8.21782 17.7543 8.21135 17.5411 8.07587 17.4136C8.06599 17.4043 7.14046 16.5285 6.68455 15.7288L6.97232 15.5849C7.48097 15.3306 7.79691 14.8193 7.79691 14.2507V13.8606C8.30439 14.0478 8.84394 14.1451 9.39311 14.1451C9.70824 14.1451 10.0266 14.1133 10.3434 14.0487C11.3576 13.8419 12.2803 13.2734 12.9415 12.448C13.5986 11.6278 13.9588 10.6037 13.9558 9.56443C13.9502 7.57071 12.4368 7.21781 10.6845 6.8092C9.83146 6.61029 8.86461 6.38487 7.90112 5.94796C7.57998 5.80237 7.20349 5.90389 7.00579 6.18941C6.35137 7.13448 5.65778 7.69874 5.15043 7.69874C4.99684 7.69874 4.85053 7.73023 4.71747 7.78701V6.88085C4.71747 4.30733 6.81119 2.21366 9.38471 2.21366C11.9582 2.21366 14.0519 4.30737 14.0519 6.88085V7.65072C14.0519 7.83678 14.2027 7.98763 14.3888 7.98763C14.5749 7.98763 14.7257 7.83678 14.7257 7.65072V6.88085C14.7257 4.8945 13.6357 3.15809 12.0224 2.238ZM5.15043 8.37248C6.16252 8.37248 7.09437 7.24499 7.55976 6.57296C7.56843 6.56042 7.58173 6.55544 7.59548 6.55544C7.60482 6.55544 7.61434 6.55773 7.62283 6.56159C8.64687 7.02595 9.64809 7.25941 10.5315 7.46542C12.3863 7.89792 13.2781 8.1679 13.282 9.56632C13.2845 10.4524 12.9768 11.3261 12.4156 12.0267C11.8526 12.7295 11.0689 13.2131 10.2088 13.3885C9.03068 13.6286 7.83244 13.3397 6.92129 12.5956C6.01001 11.8514 5.48734 10.7505 5.48734 9.5753C5.48734 9.38924 5.33649 9.23839 5.15043 9.23839C4.91171 9.23839 4.71747 9.04415 4.71747 8.80543C4.71747 8.56672 4.91171 8.37248 5.15043 8.37248ZM9.38467 1.53974C8.69314 1.53974 8.03189 1.6719 7.42482 1.91219C7.53546 1.21644 8.37199 0.673827 9.38467 0.673827C10.3974 0.673827 11.2339 1.21648 11.3446 1.91219C10.7375 1.6719 10.0762 1.53974 9.38467 1.53974Z"/>
        <path d="M19.3858 12.2766C17.9037 10.7945 15.4921 10.7945 14.0099 12.2766L9.77564 16.5109C8.29354 17.9931 8.29354 20.4046 9.77564 21.8868C10.5167 22.6279 11.4901 22.9984 12.4635 22.9984C13.4144 22.9984 14.3648 22.6438 15.0991 21.9366L15.639 22.8366C15.7347 22.9961 15.9417 23.0478 16.1013 22.9521C16.2608 22.8564 16.3126 22.6494 16.2168 22.4899L15.1742 20.7521C15.0444 20.5359 14.8073 20.4016 14.5552 20.4016H14.0033C13.6652 20.4016 13.3406 20.258 13.113 20.0076C12.8823 19.7539 12.7733 19.4242 12.8062 19.0795C12.8641 18.472 13.419 17.996 14.0694 17.996H14.7783C15.3633 17.996 15.8989 18.316 16.1763 18.831L18.3258 22.8229C18.3867 22.9359 18.5027 23.0002 18.6227 23.0002C18.6767 23.0002 18.7313 22.9872 18.7821 22.9598C18.946 22.8716 19.0073 22.6673 18.9191 22.5035L17.3845 19.6536L19.3857 17.6525C20.8679 16.1704 20.8679 13.7587 19.3858 12.2766ZM12.1354 19.0155C12.085 19.5438 12.2596 20.0707 12.6144 20.4609C12.9695 20.8514 13.4758 21.0755 14.0033 21.0755H14.5552C14.572 21.0755 14.5878 21.0844 14.5964 21.0988L14.7427 21.3426L14.6751 21.4103C13.4556 22.6297 11.4715 22.6297 10.2521 21.4103C9.03272 20.1909 9.03272 18.2068 10.2521 16.9874L11.2523 15.9872C11.5937 16.326 12.2637 16.964 13.0701 17.5931C12.5573 17.8922 12.193 18.4121 12.1354 19.0155ZM17.0511 19.0343L16.7697 18.5115C16.3747 17.7779 15.6116 17.3222 14.7784 17.3222H14.0695C13.994 17.3222 13.9195 17.327 13.8459 17.3353C12.9197 16.6553 12.1096 15.8869 11.7292 15.5103L14.4864 12.7531C15.7058 11.5337 17.6899 11.5337 18.9093 12.7531C19.5 13.3437 19.8253 14.1292 19.8253 14.9645C19.8253 15.7999 19.5 16.5853 18.9093 17.176L17.0511 19.0343Z"/>
        <path d="M18.2972 13.3655C17.4154 12.4836 15.9806 12.4836 15.0988 13.3655C14.2171 14.2472 14.2171 15.682 15.0988 16.5638C15.5397 17.0047 16.1189 17.2251 16.698 17.2251C17.2771 17.2251 17.8563 17.0047 18.2972 16.5638C19.179 15.682 19.179 14.2473 18.2972 13.3655ZM17.8207 16.0874C17.2017 16.7064 16.1944 16.7064 15.5753 16.0874C14.9562 15.4683 14.9562 14.461 15.5753 13.8419C15.8849 13.5324 16.2914 13.3777 16.698 13.3777C17.1047 13.3777 17.5112 13.5324 17.8208 13.8419C18.4398 14.461 18.4398 15.4683 17.8207 16.0874Z"/>
        <path d="M16.1514 14.7568C16.3374 14.7568 16.4883 14.606 16.4883 14.4199C16.4883 14.2338 16.3374 14.083 16.1514 14.083C15.9653 14.083 15.8145 14.2338 15.8145 14.4199C15.8145 14.606 15.9653 14.7568 16.1514 14.7568Z"/>
        <path d="M17.2393 15.8428C17.4253 15.8428 17.5762 15.6919 17.5762 15.5059C17.5762 15.3198 17.4253 15.1689 17.2393 15.1689C17.0532 15.1689 16.9023 15.3198 16.9023 15.5059C16.9023 15.6919 17.0532 15.8428 17.2393 15.8428Z"/>
    </symbol>
    <symbol id="saved" viewBox="0 0 20 20" xmlns="http://www.w3.org/2000/svg">
        <path d="M16.5049 10.5703C16.3441 10.5703 16.2138 10.7006 16.2138 10.8614C16.2138 11.0652 16.048 11.2309 15.8443 11.2309C15.6405 11.2309 15.4747 11.0652 15.4747 10.8614C15.4747 10.7006 15.3444 10.5703 15.1836 10.5703C15.0229 10.5703 14.8926 10.7006 14.8926 10.8614C14.8926 11.3861 15.3195 11.813 15.8443 11.813C16.369 11.813 16.7959 11.3861 16.7959 10.8614C16.7959 10.7005 16.6656 10.5703 16.5049 10.5703Z"/>
        <path d="M19.2361 10.6178L18.4169 10.3554C18.312 10.3217 18.2293 10.238 18.1957 10.1313C18.023 9.58234 17.7625 9.06699 17.4213 8.59949C17.2658 8.3864 17.0929 8.18293 16.9039 7.98922C17.0248 7.45902 17.0905 6.85898 17.082 6.34059C17.0698 5.59898 16.9216 5.16402 16.6289 5.01074C16.4713 4.92809 15.9916 4.67699 13.3953 5.86551C13.3338 5.89363 13.2764 5.92828 13.2232 5.96797C13.0482 5.92094 12.8693 5.87742 12.6893 5.83836C12.6676 5.83363 12.6452 5.82945 12.6234 5.82484C12.8338 5.36523 12.9566 4.86605 12.9797 4.35074C12.9869 4.19012 12.8626 4.0541 12.702 4.04695C12.5418 4.03898 12.4053 4.16406 12.3982 4.32469C12.3602 5.17199 12.0088 5.96922 11.4085 6.56949C11.0499 6.92812 10.63 7.18863 10.1824 7.35269C9.40629 7.24379 8.61574 7.24379 7.83961 7.35269C7.39203 7.18863 6.97215 6.92812 6.61352 6.56949C5.97312 5.9291 5.62043 5.07766 5.62043 4.17199C5.62043 3.26629 5.97312 2.41488 6.61352 1.77449C7.25391 1.13406 8.10539 0.781367 9.01102 0.781367C9.91664 0.781367 10.7681 1.13406 11.4085 1.77449C11.6659 2.03184 11.8785 2.32551 12.0406 2.64727C12.1129 2.79086 12.2879 2.84867 12.4315 2.77633C12.5751 2.70406 12.6329 2.52902 12.5605 2.38547C12.3706 2.00816 12.1215 1.66414 11.8202 1.36281C11.0698 0.612461 10.0722 0.199219 9.01105 0.199219C7.94992 0.199219 6.95227 0.612461 6.20191 1.36281C5.45156 2.1132 5.03832 3.11082 5.03832 4.17195C5.03832 5.23309 5.45156 6.23074 6.20191 6.98109C6.41836 7.19754 6.65383 7.38367 6.90289 7.53961C6.90297 7.53961 6.90305 7.53957 6.90312 7.53957C6.72215 7.5866 6.54254 7.63941 6.36492 7.69879C6.21246 7.74976 6.1302 7.91465 6.18117 8.06715C6.23211 8.21961 6.39707 8.30187 6.54949 8.25094C8.13684 7.72027 9.88527 7.72027 11.4726 8.25094C11.5032 8.26117 11.5343 8.26602 11.5649 8.26602C11.6867 8.26602 11.8002 8.18898 11.8409 8.06715C11.8919 7.91469 11.8096 7.74976 11.6572 7.69879C11.4796 7.63941 11.3 7.58656 11.119 7.53957C11.1191 7.53957 11.1191 7.53961 11.1192 7.53961C11.3683 7.38367 11.6037 7.19754 11.8202 6.98109C12.0117 6.78961 12.1807 6.58051 12.3275 6.35828C12.4077 6.37387 12.4873 6.39019 12.5658 6.40723C12.6704 6.42992 12.7744 6.4543 12.8775 6.47988C12.8743 6.49254 12.871 6.50516 12.8683 6.51801C12.7263 7.19164 12.7355 7.78742 12.8957 8.28871C13.0396 8.7393 13.2993 9.10433 13.6675 9.37375C14.1016 9.69125 14.6255 9.8284 15.1002 9.8284C15.4574 9.8284 15.7868 9.75066 16.0286 9.61367C16.3022 9.45871 16.5314 9.13219 16.7129 8.64195C16.7968 8.73984 16.8763 8.84012 16.9512 8.94277C17.255 9.35894 17.4869 9.81762 17.6405 10.306C17.7307 10.5928 17.9546 10.8185 18.2394 10.9098L19.0586 11.1722C19.2736 11.2411 19.418 11.4389 19.418 11.6646V13.023C19.418 13.2487 19.2736 13.4466 19.0586 13.5155L17.7387 13.9382C17.5275 14.0059 17.3488 14.1511 17.2355 14.3469C16.717 15.2431 15.9017 15.9847 14.8122 16.5511C14.6863 16.6166 14.5991 16.7338 14.5729 16.8726L14.1502 19.111C14.1385 19.1727 14.0845 19.2174 14.0217 19.2174H12.6472C12.5844 19.2174 12.5304 19.1727 12.5187 19.111L12.2846 17.8739C12.2385 17.6305 12.0102 17.4689 11.7645 17.5061C11.1724 17.5956 10.5623 17.641 9.95129 17.641C9.49668 17.641 9.04789 17.6156 8.6173 17.5656C8.37922 17.5382 8.15742 17.7005 8.11293 17.9356L7.89043 19.111C7.87875 19.1727 7.82473 19.2174 7.76195 19.2174H6.38746C6.32469 19.2174 6.27066 19.1727 6.25883 19.1101L5.8518 16.9959C5.82559 16.8597 5.74004 16.7439 5.61695 16.6782C3.75977 15.6867 2.77813 14.0303 2.77813 11.8881C2.77813 10.8058 3.01492 9.84871 3.48191 9.0434C3.9177 8.29187 4.55418 7.67051 5.37367 7.19648C5.51281 7.11598 5.56035 6.93793 5.47988 6.79875C5.39941 6.65961 5.22137 6.61215 5.08219 6.69254C3.49316 7.61176 2.53477 9.02988 2.2709 10.8311V10.831C2.24289 10.8285 2.21484 10.8261 2.18691 10.8232C2.19199 10.6288 2.15684 10.4327 2.08027 10.2424C1.91141 9.82266 1.56453 9.51969 1.19652 9.47058C0.906523 9.43176 0.630547 9.55488 0.439023 9.80793C0.161328 10.1749 0.206602 10.4653 0.293438 10.6443C0.440039 10.9463 0.816875 11.16 1.44223 11.2943C1.42504 11.3201 1.40613 11.3459 1.38543 11.3719C1.01594 11.8353 0.580625 11.9378 0.297969 11.9474C0.1325 11.953 0 12.0859 0 12.2514V12.2529C0 12.4162 0.128867 12.5494 0.292031 12.5568C0.31293 12.5578 0.334766 12.5583 0.3575 12.5583C0.715156 12.5583 1.28918 12.4264 1.84066 11.7349C1.92773 11.6257 1.99867 11.5106 2.0532 11.3916C2.10812 11.3978 2.1609 11.4031 2.21145 11.4078C2.21145 11.4077 2.21145 11.4076 2.21148 11.4075C2.20156 11.5652 2.19605 11.7253 2.19605 11.8881C2.19605 13.1002 2.485 14.1808 3.0548 15.1002C3.5802 15.9479 4.33242 16.642 5.29133 17.1639L5.68703 19.2192C5.75066 19.5555 6.04523 19.7995 6.38746 19.7995H7.76195C8.10418 19.7995 8.39875 19.5555 8.46238 19.2192L8.66356 18.1564C9.08137 18.2007 9.51395 18.2231 9.95125 18.2231C10.5512 18.2231 11.1505 18.1813 11.7346 18.0988L11.9467 19.2193C12.0104 19.5555 12.3049 19.7996 12.6471 19.7996H14.0216C14.3638 19.7996 14.6584 19.5555 14.7221 19.2191L15.1337 17.0398C16.2965 16.4249 17.173 15.6172 17.7393 14.6384C17.7801 14.5679 17.843 14.5161 17.9163 14.4927L19.2361 14.0699C19.693 13.9234 20 13.5028 20 13.023V11.6646C20 11.1848 19.693 10.7641 19.2361 10.6178ZM16.4562 7.15851C16.3441 8.11656 16.0436 8.93609 15.7417 9.10711C15.3985 9.30152 14.6061 9.33906 14.0112 8.90387C13.4155 8.46816 13.2173 7.68465 13.4378 6.63801C13.4378 6.63797 13.4378 6.63797 13.4378 6.63797C13.46 6.53285 13.5346 6.44191 13.6376 6.3948C15.0948 5.72777 15.9349 5.50961 16.247 5.50961C16.2941 5.50961 16.3292 5.51457 16.3525 5.52371C16.4463 5.62363 16.5693 6.19164 16.4562 7.15851ZM0.817227 10.3901C0.787109 10.328 0.858203 10.2188 0.903281 10.1592C0.974727 10.0648 1.04055 10.0455 1.09027 10.0455C1.10078 10.0455 1.11059 10.0464 1.11957 10.0476C1.2534 10.0654 1.4409 10.2127 1.54023 10.4596C1.56363 10.5177 1.59402 10.614 1.60113 10.7341C1.1982 10.6506 0.885156 10.5303 0.817227 10.3901Z"/>
        <path d="M9.29387 3.83859V2.79703C9.65305 2.8227 9.78648 2.98688 9.90961 2.98688C10.0636 2.98688 10.1354 2.79191 10.1354 2.69441C10.1354 2.44297 9.64277 2.33523 9.29387 2.32496V2.18637C9.29387 2.1248 9.21687 2.06836 9.13992 2.06836C9.05266 2.06836 8.99109 2.1248 8.99109 2.18637V2.33516C8.50363 2.38648 8.01617 2.64305 8.01617 3.28957C8.01617 3.94637 8.5293 4.13109 8.99109 4.29527V5.50109C8.4677 5.46004 8.32918 5.10086 8.15984 5.10086C8.03156 5.10086 7.92383 5.2702 7.92383 5.39336C7.92383 5.64477 8.35484 5.98855 8.99109 5.99883V6.15789C8.99109 6.21945 9.05269 6.2759 9.13992 6.2759C9.21691 6.2759 9.29387 6.21945 9.29387 6.15789V5.98344C9.84805 5.90645 10.2277 5.55754 10.2277 4.92641C10.2277 4.22859 9.74027 4.00277 9.29387 3.83859ZM9.02187 3.74113C8.74992 3.63852 8.5293 3.53078 8.5293 3.23832C8.5293 2.97148 8.73453 2.8432 9.02187 2.8073V3.74113ZM9.26305 5.49082V4.40816C9.51445 4.5159 9.71457 4.65957 9.71457 4.98281C9.71457 5.27535 9.54012 5.43953 9.26305 5.49082Z"/>
    </symbol>
    <symbol id="home" viewBox="0 0 20 20" xmlns="http://www.w3.org/2000/svg">
        <path d="M18.4373 16.2894C18.4378 16.2761 18.438 16.263 18.438 16.25C18.4377 15.9186 18.3058 15.6009 18.0715 15.3665C17.8372 15.1322 17.5194 15.0004 17.188 15V9.21875L18.313 8.375C18.3521 8.34569 18.3838 8.30764 18.4055 8.26389C18.4272 8.22013 18.4383 8.1719 18.438 8.12306C18.4377 8.07422 18.426 8.02613 18.4037 7.98265C18.3815 7.93917 18.3493 7.90151 18.3099 7.8727L15.6255 5.91102V2.5C15.7084 2.5 15.7879 2.46708 15.8465 2.40847C15.9051 2.34987 15.938 2.27038 15.938 2.1875V0.9375C15.938 0.85462 15.9051 0.775134 15.8465 0.716529C15.7879 0.657924 15.7084 0.625 15.6255 0.625H12.5005C12.4177 0.625 12.3382 0.657924 12.2796 0.716529C12.221 0.775134 12.188 0.85462 12.188 0.9375V2.1875C12.188 2.27038 12.221 2.34987 12.2796 2.40847C12.3382 2.46708 12.4177 2.5 12.5005 2.5V3.62738L10.1849 1.9352C10.1314 1.89609 10.0668 1.87501 10.0005 1.87501C9.93425 1.87501 9.86968 1.89609 9.81616 1.9352L1.69116 7.8727C1.65172 7.90151 1.61959 7.93917 1.59735 7.98265C1.5751 8.02613 1.56335 8.07422 1.56305 8.12306C1.56274 8.1719 1.57389 8.22013 1.5956 8.26389C1.6173 8.30764 1.64896 8.34569 1.68803 8.375L2.81303 9.21875V15C2.48163 15.0004 2.1639 15.1322 1.92956 15.3665C1.69522 15.6009 1.56341 15.9186 1.56303 16.25C1.56303 16.263 1.56327 16.2761 1.56374 16.2894C1.26893 16.3652 1.01191 16.5459 0.840902 16.7978C0.669895 17.0496 0.596654 17.3552 0.634919 17.6571C0.673185 17.9591 0.820327 18.2368 1.04874 18.438C1.27715 18.6392 1.57114 18.7501 1.87553 18.75H18.1255C18.4299 18.7501 18.7239 18.6392 18.9523 18.438C19.1807 18.2368 19.3279 17.9591 19.3661 17.6571C19.4044 17.3552 19.3312 17.0496 19.1602 16.7978C18.9892 16.5459 18.7321 16.3652 18.4373 16.2894ZM12.813 1.25H15.313V1.875H12.813V1.25ZM13.1255 4.0625V2.5H15.0005V5.4543L13.096 4.0625H13.1255ZM10.0005 2.57453L17.6003 8.12828L16.8727 8.67402L10.1844 3.80977C10.1309 3.77091 10.0666 3.74998 10.0005 3.74998C9.93448 3.74998 9.87012 3.77091 9.81671 3.80977L3.12839 8.67402L2.40073 8.12828L10.0005 2.57453ZM1.25053 17.5C1.25071 17.3359 1.31533 17.1785 1.43048 17.0616C1.54563 16.9446 1.70209 16.8777 1.86616 16.875H1.8669C1.88288 16.8772 1.89885 16.8791 1.91514 16.8802C1.96693 16.8835 2.01871 16.8738 2.06582 16.852C2.11293 16.8303 2.15388 16.7971 2.18498 16.7556C2.21608 16.7141 2.23635 16.6654 2.24395 16.6141C2.25156 16.5628 2.24626 16.5104 2.22854 16.4616C2.20268 16.394 2.18897 16.3224 2.18803 16.25C2.18823 16.0843 2.25414 15.9254 2.37131 15.8083C2.48848 15.6911 2.64733 15.6252 2.81303 15.625V18.125H1.87553C1.70983 18.1248 1.55098 18.0589 1.43381 17.9417C1.31664 17.8246 1.25073 17.6657 1.25053 17.5ZM14.688 18.125H10.938V11.25H14.688V18.125ZM15.313 18.125V10.9375C15.313 10.8546 15.2801 10.7751 15.2215 10.7165C15.1629 10.6579 15.0834 10.625 15.0005 10.625H10.6255C10.5427 10.625 10.4632 10.6579 10.4046 10.7165C10.346 10.7751 10.313 10.8546 10.313 10.9375V18.125H3.43803V9.22164L10.0005 4.44891L16.563 9.22164V18.125H15.313ZM18.1255 18.125H17.188V15.625C17.3537 15.6252 17.5126 15.6911 17.6298 15.8083C17.7469 15.9254 17.8128 16.0843 17.813 16.25C17.8121 16.3224 17.7984 16.3941 17.7725 16.4618C17.7548 16.5105 17.7495 16.5629 17.7571 16.6143C17.7647 16.6656 17.785 16.7142 17.8161 16.7558C17.8472 16.7973 17.8881 16.8304 17.9352 16.8522C17.9824 16.8739 18.0341 16.8836 18.0859 16.8804C18.1022 16.8793 18.1182 16.8774 18.1342 16.8752H18.1349C18.3007 16.8764 18.4591 16.9434 18.5755 17.0615C18.6918 17.1796 18.7565 17.3391 18.7552 17.5048C18.754 17.6706 18.6869 17.8291 18.5688 17.9454C18.4508 18.0617 18.2913 18.1264 18.1255 18.1252V18.125Z"/>
        <path d="M8.75 10.625H5C4.91712 10.625 4.83763 10.6579 4.77903 10.7165C4.72042 10.7751 4.6875 10.8546 4.6875 10.9375V15.3125C4.6875 15.3954 4.72042 15.4749 4.77903 15.5335C4.83763 15.5921 4.91712 15.625 5 15.625H8.75C8.83288 15.625 8.91237 15.5921 8.97097 15.5335C9.02958 15.4749 9.0625 15.3954 9.0625 15.3125V10.9375C9.0625 10.8546 9.02958 10.7751 8.97097 10.7165C8.91237 10.6579 8.83288 10.625 8.75 10.625ZM8.4375 12.8125H7.1875V11.25H8.4375V12.8125ZM6.5625 11.25V12.8125H5.3125V11.25H6.5625ZM5.3125 13.4375H6.5625V15H5.3125V13.4375ZM7.1875 15V13.4375H8.4375V15H7.1875Z"/>
        <path d="M12.1638 14.4944C12.2299 14.335 12.1541 14.1522 11.9947 14.0861C11.8352 14.0201 11.6524 14.0958 11.5864 14.2552C11.5203 14.4147 11.5961 14.5975 11.7555 14.6635C11.915 14.7296 12.0978 14.6539 12.1638 14.4944Z"/>
    </symbol>
    <symbol id="piggy-bank" viewBox="0 0 20 20" xmlns="http://www.w3.org/2000/svg">
        <path d="M9.41406 0C8.12145 0 7.07031 1.0902 7.07031 2.38281C7.07031 3.67543 8.12145 4.72656 9.41406 4.72656C10.7067 4.72656 11.7578 3.67543 11.7578 2.38281C11.7578 1.0902 10.7067 0 9.41406 0Z"/>
        <path d="M18.8281 10C18.8281 10.7895 18.2626 11.4512 17.5447 11.6724C17.1867 8.93027 14.7024 6.66586 11.2177 6.0541L11.2136 6.0484C9.30363 5.73141 7.37242 5.9248 5.69301 6.59602C5.2673 5.49102 4.20301 4.72656 2.96875 4.72656H2.38281V9.01582C2.00516 9.50848 1.71563 10.0343 1.51879 10.5859H0V15.2734H2.10531C2.48355 15.8577 2.96934 16.3881 3.55469 16.8573V20H7.07031V18.523C8.58492 18.8766 10.2455 18.876 11.7578 18.5236V20H15.2734V16.8602C16.6098 15.7891 17.4259 14.3697 17.5839 12.8737C18.9355 12.6141 20 11.4261 20 10H18.8281ZM4.72656 11.7578H3.55469V10.5859H4.72656V11.7578ZM12.1005 9.97367C10.4835 9.23496 8.28625 9.24926 6.73098 9.96965L6.23773 8.90648C8.09855 8.04305 10.6632 8.02988 12.5869 8.90707L12.1005 9.97367Z"/>
    </symbol>

</svg>
