<?xml version="1.0" encoding="UTF-8"?>
<!DOCTYPE svg PUBLIC "-//W3C//DTD SVG 1.0//EN" "http://www.w3.org/TR/2001/REC-SVG-20010904/DTD/svg10.dtd">
<!-- Creator: CorelDRAW 2019 (64-Bit) -->
<svg xmlns="http://www.w3.org/2000/svg" viewBox="0 0 3636.63 372.7">
  <path class="fil0" d="M168.83 300.02l-46.56 0 0 -35.2c-36.85,0 -66.5,-9.09 -88.96,-27.26 -22.21,-18.42 -33.31,-44.03 -33.31,-76.84 0,-32.55 11.11,-57.92 33.31,-76.09 22.46,-18.42 52.11,-27.76 88.96,-28.02l0 -27.63 46.56 0 0 27.63c36.59,0.25 66.12,9.72 88.58,28.39 22.46,18.68 33.69,43.91 33.69,75.71 0,32.3 -11.23,57.79 -33.69,76.47 -22.21,17.92 -51.73,27.13 -88.58,27.63l0 35.2zm73.06 -139.3c0,-18.68 -6.31,-33.5 -18.93,-44.48 -12.62,-10.98 -30.66,-16.6 -54.13,-16.85l0 122.65c48.71,-0.25 73.06,-20.7 73.06,-61.32zm-192.68 0c0,19.69 6.31,34.76 18.93,45.24 12.62,10.47 30.66,15.83 54.13,16.09l0 -122.65c-23.22,0.25 -41.2,5.87 -53.94,16.85 -12.75,10.98 -19.12,25.8 -19.12,44.48zm402.39 28.39l-79.49 107.88 -43.53 0 0 -170.34 43.53 0 0 107.88 79.49 -107.88 43.53 0 0 170.34 -43.53 0 0 -107.88zm253.62 107.88l-43.53 0 0 -65.11 -74.58 0 0 65.11 -43.53 0 0 -170.34 43.53 0 0 64.35 74.58 0 0 -64.35 43.53 0 0 170.34zm61.7 -126.43l-10.98 -31.8c18.42,-10.85 38.49,-16.27 60.19,-16.27 23.72,0 41.01,5.8 51.86,17.41 10.85,11.61 16.28,29.4 16.28,53.37l0 103.72 -37.86 0 0 -19.69c-10.1,14.64 -26.87,21.96 -50.35,21.96 -16.15,0 -29.08,-4.73 -38.8,-14.2 -9.72,-9.47 -14.58,-22.14 -14.58,-38.04 0,-17.66 5.68,-31.29 17.03,-40.88 11.36,-9.59 26.37,-14.38 45.05,-14.38 15.39,0 28.27,3.66 38.61,10.98 0.51,-15.14 -1.7,-26.24 -6.63,-33.31 -4.92,-7.06 -13.31,-10.6 -25.17,-10.6 -13.12,0 -28.02,3.91 -44.67,11.73zm43.53 91.99c14.64,0 25.61,-5.17 32.93,-15.52l0 -17.41c-7.07,-5.55 -17.03,-8.32 -29.91,-8.32 -8.07,0 -14.64,1.89 -19.69,5.68 -5.05,3.78 -7.57,8.96 -7.57,15.52 0,6.06 2.27,10.91 6.81,14.58 4.54,3.66 10.35,5.49 17.41,5.49zm280.12 34.45l-43.53 0 0 -65.11 -74.58 0 0 65.11 -43.53 0 0 -170.34 43.53 0 0 64.35 74.58 0 0 -64.35 43.53 0 0 170.34zm177.54 -57.16l20.44 31.8c-14.38,19.69 -36.97,29.53 -67.76,29.53 -27.51,0 -49.84,-8.2 -67,-24.6 -16.91,-16.15 -25.36,-37.73 -25.36,-64.73 0,-25.49 8.33,-46.69 24.98,-63.6 16.65,-17.16 37.73,-25.74 63.22,-25.74 30.29,0 53.12,7.69 68.52,23.09l-20.44 34.45c-11.61,-11.11 -25.74,-16.65 -42.4,-16.65 -12.62,0 -23.72,4.54 -33.31,13.63 -9.34,8.58 -14.01,20.19 -14.01,34.82 0,14.64 4.8,26.5 14.38,35.58 10.1,8.83 21.71,13.25 34.83,13.25 16.91,0 31.54,-6.94 43.91,-20.82zm60.95 36.34c-16.91,-16.9 -25.36,-38.36 -25.36,-64.35 0,-25.99 8.45,-47.32 25.36,-63.98 16.9,-16.91 39.37,-25.36 67.38,-25.36 27.76,0 50.1,8.45 67,25.36 17.16,16.66 25.74,37.98 25.74,63.98 0,25.74 -8.58,47.19 -25.74,64.35 -17.16,16.66 -39.49,24.98 -67,24.98 -28.01,0 -50.47,-8.32 -67.38,-24.98zm34.44 -99.18c-8.83,9.09 -13.25,20.69 -13.25,34.82 0,14.13 4.35,25.8 13.06,35.02 8.7,9.21 19.75,13.82 33.12,13.82 13.63,0 24.8,-4.54 33.5,-13.63 8.71,-9.09 13.06,-20.82 13.06,-35.2 0,-14.13 -4.41,-25.74 -13.25,-34.82 -8.83,-9.09 -19.94,-13.63 -33.31,-13.63 -13.12,0 -24.1,4.54 -32.93,13.63zm163.53 120l0 -170.34c2.27,0 11.92,-0.32 28.96,-0.95 17.03,-0.63 29.71,-0.94 38.04,-0.94 51.48,0 77.22,14.89 77.22,44.66 0,9.59 -3.03,17.98 -9.09,25.18 -6.06,7.19 -13.63,11.42 -22.71,12.68l0 0.76c24.22,5.8 36.34,18.93 36.34,39.37 0,34.32 -27,51.48 -81.01,51.48 -7.82,0 -19.81,-0.38 -35.96,-1.14 -4.04,0 -8.65,-0.06 -13.82,-0.19 -5.17,-0.13 -9.09,-0.25 -11.73,-0.38 -2.65,-0.13 -4.73,-0.19 -6.25,-0.19zm70.78 -72.3l-27.26 0 0 37.85c15.14,1.01 24.73,1.52 28.77,1.52 9.59,0 17.1,-1.77 22.52,-5.3 5.42,-3.54 8.14,-8.33 8.14,-14.39 0,-13.12 -10.73,-19.68 -32.18,-19.68zm0 -64.73c-10.09,0 -19.18,0.25 -27.26,0.76l0 37.48 28.39 0c7.82,0 14.13,-1.77 18.93,-5.3 4.79,-3.54 7.19,-8.33 7.19,-14.39 0,-12.37 -9.09,-18.55 -27.26,-18.55zm180.57 137.03l-61.32 0 0 -170.34 43.53 0 0 46.56 21.2 0c25.49,0 44.35,5.3 56.59,15.9 12.24,10.6 18.36,24.98 18.36,43.15 0,19.43 -6.56,35.08 -19.69,46.94 -13.12,11.86 -32.68,17.79 -58.67,17.79zm146.12 0l-43.53 0 0 -170.34 43.53 0 0 170.34zm-146.5 -88.96l-17.41 0 0 51.1 17.03 0c21.96,0 32.93,-8.45 32.93,-25.36 0,-17.16 -10.85,-25.74 -32.55,-25.74zm317.98 -18.93l-79.49 107.88 -43.53 0 0 -170.34 43.53 0 0 107.88 79.49 -107.88 43.53 0 0 170.34 -43.53 0 0 -107.88zm-97.66 -147.63l39.75 0c0,8.32 1.64,15.01 4.92,20.06 3.28,5.05 8.2,7.57 14.76,7.57 5.8,0 10.28,-2.58 13.44,-7.76 3.15,-5.17 4.73,-11.8 4.73,-19.87l39.75 0c0,17.66 -5.17,31.86 -15.52,42.59 -10.35,10.73 -24.48,16.09 -42.4,16.09 -19.69,0 -34.51,-5.24 -44.48,-15.71 -9.97,-10.47 -14.96,-24.79 -14.96,-42.96zm374.76 183.97l-76.09 0 0 -29.15 75.71 0c-2.78,-11.61 -8.52,-20.51 -17.23,-26.69 -8.7,-6.18 -19.24,-9.28 -31.61,-9.28 -16.15,0 -32.43,5.93 -48.83,17.79l-17.79 -30.29c7.32,-8.07 17.1,-14.32 29.34,-18.74 12.24,-4.42 24.42,-6.62 36.53,-6.62 29.28,0 52.37,8.07 69.27,24.22 17.16,16.4 25.74,38.11 25.74,65.11 0,25.49 -8.2,46.81 -24.61,63.98 -16.15,16.9 -38.23,25.36 -66.24,25.36 -31.04,0 -54.64,-8.45 -70.79,-25.36l20.44 -28.77c12.37,10.85 28.27,16.28 47.7,16.28 13.12,0 23.91,-3.28 32.37,-9.85 8.45,-6.56 13.82,-15.9 16.09,-28.01z"/>
  <path class="fil0" d="M2836.01 239.84l20.44 31.8c-14.38,19.69 -36.97,29.53 -67.76,29.53 -27.51,0 -49.84,-8.2 -67,-24.6 -16.91,-16.15 -25.36,-37.73 -25.36,-64.73 0,-25.49 8.33,-46.69 24.98,-63.6 16.65,-17.16 37.73,-25.74 63.22,-25.74 30.29,0 53.12,7.69 68.52,23.09l-20.44 34.45c-11.61,-11.11 -25.74,-16.65 -42.4,-16.65 -12.62,0 -23.72,4.54 -33.31,13.63 -9.34,8.58 -14.01,20.19 -14.01,34.82 0,14.64 4.8,26.5 14.38,35.58 10.1,8.83 21.71,13.25 34.83,13.25 16.91,0 31.54,-6.94 43.91,-20.82zm215.01 57.16l-43.53 0 0 -129.46 -72.68 0 0 129.46 -43.53 0 0 -170.34 159.74 0 0 170.34zm182.08 -47.7l12.49 30.66c-16.91,14.13 -38.61,21.2 -65.11,21.2 -27.26,0 -49.46,-8.2 -66.62,-24.6 -16.65,-16.15 -24.98,-37.73 -24.98,-64.73 0,-25.24 8.2,-46.44 24.6,-63.6 16.4,-17.16 38.24,-25.74 65.49,-25.74 22.46,0 41.51,7.44 57.16,22.33 15.65,14.89 23.47,33.81 23.47,56.78 0,10.1 -0.89,17.92 -2.65,23.47l-123.03 0c1.77,12.37 7.26,22.08 16.47,29.15 9.21,7.06 20.76,10.6 34.64,10.6 18.93,0 34.95,-5.17 48.08,-15.52zm-56.03 -90.47c-24.73,0 -39.62,12.36 -44.66,37.1l83.66 0c0.25,-10.85 -3.22,-19.75 -10.41,-26.69 -7.19,-6.94 -16.72,-10.41 -28.58,-10.41zm161.26 213.87l-43.53 0 0 -246.05 43.53 0 0 16.28c5.55,-6.06 13.13,-10.98 22.71,-14.76 9.59,-3.79 19.56,-5.68 29.91,-5.68 23.47,0 42.14,8.07 56.03,24.22 14.13,16.4 21.2,37.23 21.2,62.46 0,26.5 -8.32,48.46 -24.98,65.87 -16.65,17.41 -38.36,26.12 -65.11,26.12 -17.16,0 -30.41,-2.78 -39.75,-8.32l0 79.87zm38.99 -209.33c-15.14,0 -28.14,6.18 -38.99,18.55l0 68.9c10.35,6.56 22.34,9.84 35.96,9.84 14.38,0 25.93,-4.67 34.64,-14.01 8.7,-9.34 13.06,-21.45 13.06,-36.34 0,-14.13 -3.97,-25.49 -11.92,-34.07 -7.95,-8.58 -18.86,-12.87 -32.75,-12.87zm160.12 6.81l-56.03 0 0 -43.53 155.21 0 0 43.53 -55.65 0 0 126.81 -43.53 0 0 -126.81z"/>
  <polygon class="fil1" points="2575.08,258.8 2600.44,232.21 2664.71,296.97 2614.23,296.97 "/>
  <polygon class="fil1" points="2527.56,258.8 2502.44,232.21 2437.92,296.97 2488.41,296.97 "/>
  <polygon class="fil2" points="2575.08,205.86 2549.97,232.21 2429.55,108.35 2480.03,108.35 "/>
  <polygon class="fil2" points="2527.56,202.17 2552.92,228.52 2777,0 2726.52,0 "/>
</svg>
