<svg width="177" height="46" viewBox="0 0 177 46" fill="none" xmlns="http://www.w3.org/2000/svg">
<g clip-path="url(#clip0)">
<path d="M62.3786 6.90576C60.9516 6.90576 59.8354 7.93284 59.8354 9.36005V14.224C59.8354 15.7191 60.9516 16.7229 62.4018 16.7229C64.4092 16.7229 65.8147 15.2725 65.8147 11.859C65.8147 8.35618 64.2752 6.90576 62.3786 6.90576V6.90576ZM58.4298 9.36005C58.4298 7.93284 57.3136 6.90576 55.8866 6.90576C53.99 6.90576 52.4505 8.35618 52.4505 11.859C52.4505 15.2743 53.856 16.7229 55.8652 16.7229C57.3154 16.7229 58.4298 15.7191 58.4298 14.224V9.36005V9.36005ZM62.7572 17.9054C61.5088 17.9054 60.3926 17.2588 59.8782 16.3657H59.8336V21.8548L58.428 21.8316V16.3657H58.3834C57.8708 17.2588 56.7546 17.9054 55.5062 17.9054C53.097 17.9054 51.0449 15.7191 51.0449 11.859C51.0449 7.84353 52.7398 5.72326 55.5294 5.72326C56.7778 5.72326 57.8047 6.30201 58.3852 7.28444H58.4298V1.68457H59.8354V7.28444H59.88C60.4604 6.30201 61.4874 5.72326 62.7357 5.72326C65.5254 5.72326 67.2203 7.84353 67.2203 11.859C67.2203 15.7191 65.1682 17.9054 62.759 17.9054H62.7572Z" fill="#1D1D1B"/>
<path d="M77.3016 17.5712V7.754L71.1008 17.5712H69.3613V6.10352H70.7651V15.9189L76.9677 6.10352H78.709V17.5712H77.3016Z" fill="#1D1D1B"/>
<path d="M89.282 17.5712V12.1714H82.7454V17.5712H81.3398V6.10352H82.7454V10.9889H89.282V6.10352H90.6875V17.5712H89.282Z" fill="#1D1D1B"/>
<path d="M97.6031 12.1266C96.153 12.3285 94.1902 12.6625 94.1902 14.5381C94.1902 15.876 95.2171 16.7244 96.8227 16.7244C98.9194 16.7244 100.725 15.3865 100.725 13.1984V11.3246C100.278 11.8141 99.1409 11.9266 97.6014 12.1266H97.6031ZM103.404 17.5032C103.025 17.6372 102.69 17.6819 102.288 17.6819C100.927 17.6819 100.793 16.6333 100.793 15.583C99.8552 17.0781 98.405 17.8819 96.4655 17.8819C94.1241 17.8819 92.7168 16.678 92.7168 14.6685C92.7168 12.5714 94.1456 11.4122 96.9781 11.121C98.7854 10.9424 99.7659 10.8977 100.323 10.519C100.612 10.319 100.725 10.0046 100.725 9.42585C100.725 7.52886 99.5641 6.94833 97.7353 6.94833C95.794 6.94833 94.7903 7.7968 94.6135 9.64913H93.274C93.3847 7.19484 95.0582 5.78906 97.8907 5.78906C100.479 5.78906 102.107 6.9269 102.107 9.09182V15.3383C102.107 16.0296 102.084 16.4994 102.866 16.4994C103.045 16.4994 103.156 16.4994 103.402 16.4333V17.5032H103.404Z" fill="#1D1D1B"/>
<path d="M112.841 17.5712V12.1714H106.304V17.5712H104.898V6.10352H106.304V10.9889H112.841V6.10352H114.246V17.5712H112.841Z" fill="#1D1D1B"/>
<path d="M121.675 17.9051C118.462 17.9051 116.365 15.5615 116.365 11.948C116.365 8.19865 118.483 5.76758 121.72 5.76758C124.373 5.76758 126.113 7.23944 126.425 9.71696H124.999C124.641 7.90928 123.504 6.92864 121.741 6.92864C119.332 6.92864 117.814 8.84706 117.814 11.8372C117.814 14.8274 119.285 16.7458 121.607 16.7458C123.525 16.7458 124.82 15.5401 125.109 13.4663H126.515C126.136 16.076 124.441 17.9069 121.673 17.9069L121.675 17.9051Z" fill="#1D1D1B"/>
<path d="M129.327 11.8372C129.327 14.8488 130.867 16.7458 133.387 16.7458C135.819 16.7458 137.357 14.8488 137.357 11.8587C137.357 8.86849 135.796 6.95007 133.344 6.95007C130.911 6.95007 129.327 8.87028 129.327 11.8372ZM138.764 11.8819C138.764 15.5848 136.689 17.9069 133.365 17.9069C130.018 17.9069 127.898 15.5419 127.898 11.8372C127.898 8.15578 130.042 5.76758 133.365 5.76758C136.667 5.76758 138.764 8.13256 138.764 11.8819V11.8819Z" fill="#1D1D1B"/>
<path d="M146.082 12.1267H142.267V16.3887H146.082C148.044 16.3887 148.959 15.6528 148.959 14.2023C148.959 12.8859 148 12.1267 146.082 12.1267ZM146.082 7.28601H142.267V11.0353H146.082C147.666 11.0353 148.512 10.3441 148.512 9.183C148.512 7.93441 147.71 7.28601 146.082 7.28601V7.28601ZM146.237 17.5712H140.861V6.10352H146.237C148.578 6.10352 149.916 7.06273 149.916 8.82575C149.916 10.1869 149.18 11.1014 147.932 11.4587V11.5033C149.448 11.7713 150.363 12.709 150.363 14.3595C150.363 16.4351 148.891 17.573 146.237 17.573V17.5712Z" fill="#1D1D1B"/>
<path d="M164.73 6.10352V17.5712H163.324V6.10352H164.73ZM157.19 11.7927H153.798V16.3887H157.19C158.797 16.3887 159.754 15.5849 159.754 14.0916C159.754 12.6197 158.795 11.7945 157.19 11.7945V11.7927ZM153.798 6.10352V10.6102H157.524C159.733 10.6102 161.16 11.9267 161.16 14.0916C161.16 16.2565 159.754 17.573 157.524 17.573H152.393V6.1053H153.798V6.10352Z" fill="#1D1D1B"/>
<path d="M171.914 6.95012C169.415 6.95012 168.412 8.89176 168.144 11.0335H175.595C175.439 8.48986 174.055 6.95012 171.916 6.95012H171.914ZM171.982 17.9498C168.792 17.9498 166.717 15.6062 166.717 11.9695C166.717 8.33267 168.881 5.78906 171.96 5.78906C175.352 5.78906 177.002 8.60061 177.002 11.7694V12.1713H168.146C168.146 14.5827 169.262 16.8137 172.028 16.8137C173.857 16.8137 175.084 15.7867 175.53 13.8021H176.891C176.402 16.3458 174.684 17.9516 171.984 17.9516L171.982 17.9498Z" fill="#1D1D1B"/>
<path d="M57.4703 42.0289C54.7485 42.0289 52.7411 40.3998 52.25 37.8116H54.77C55.1272 39.2388 56.0862 40.0194 57.4685 40.0194C59.2081 40.0194 60.3028 38.7922 60.5029 36.7166H56.2202V34.9322H60.4797C60.1903 32.9905 59.0741 31.8312 57.3792 31.8312C56.1076 31.8312 55.2147 32.5225 54.8593 33.7729H52.3161C52.7179 31.3186 54.5699 29.8682 57.4025 29.8682C60.9047 29.8682 63.1354 32.301 63.1354 36.0932C63.1354 39.5746 60.9708 42.0289 57.4685 42.0289H57.4703Z" fill="#4AA7F8"/>
<path d="M72.9496 41.7387L69.3366 36.5836L67.8186 38.168V41.7387H65.2754V30.2246H67.8186V35.3333L72.4138 30.2246H75.516L71.0315 34.842L76.0286 41.7387H72.9496Z" fill="#4AA7F8"/>
<path d="M82.1434 42.0289C78.6411 42.0289 76.4766 39.5746 76.4766 36.0932C76.4766 32.301 78.7072 29.8682 82.2095 29.8682C85.1545 29.8682 87.0512 31.4311 87.3405 34.0855H84.8205C84.5312 32.6351 83.6168 31.833 82.2327 31.833C80.2699 31.833 79.0644 33.3942 79.0644 35.961C79.0644 38.5046 80.2021 40.0212 82.1434 40.0212C83.6597 40.0212 84.6634 39.0852 84.9312 37.3882H87.4298C87.0726 40.2212 85.0205 42.0289 82.1434 42.0289V42.0289Z" fill="#4AA7F8"/>
<path d="M89.3926 41.7387V30.2246H99.5225V41.7387H96.9793V32.2323H91.9358V41.7387H89.3926Z" fill="#4AA7F8"/>
<path d="M107.173 31.7858C105.5 31.7858 104.452 32.879 104.207 34.91H110.118C109.963 32.9683 108.847 31.7858 107.173 31.7858ZM107.284 42.1174C103.737 42.1174 101.619 39.5524 101.619 36.1157C101.619 32.5003 103.962 29.8906 107.197 29.8906C110.565 29.8906 112.662 32.3681 112.662 36.339V36.6069H104.162C104.23 38.9272 105.366 40.2437 107.331 40.2437C108.736 40.2437 109.561 39.6185 110.074 38.1466H112.506C111.926 40.667 109.874 42.1174 107.286 42.1174H107.284Z" fill="#4AA7F8"/>
<path d="M117.079 35.9817C117.079 38.4807 118.285 39.9972 120.314 39.9972C122.255 39.9972 123.459 38.4807 123.459 36.0264C123.459 33.5274 122.232 31.943 120.269 31.943C118.262 31.943 117.077 33.4595 117.077 35.9817H117.079ZM117.036 31.7644C117.838 30.4712 119.288 29.8906 120.783 29.8906C123.973 29.8906 126.027 32.3003 126.027 36.0264C126.027 39.6632 124.019 42.0281 120.919 42.0281C119.356 42.0281 118.085 41.4923 117.17 40.2205V45.999H114.65V30.2247H117.038V31.7626L117.036 31.7644Z" fill="#4AA7F8"/>
<path d="M133.073 32.2323V41.7387H130.532V32.2323H126.738V30.2246H136.866V32.2323H133.073Z" fill="#4AA7F8"/>
<path d="M151.859 30.2246V41.7387H149.315V30.2246H151.859V30.2246ZM143.491 36.3836H140.748V39.7524H143.536C144.697 39.7524 145.186 39.0379 145.186 38.1019C145.186 37.0981 144.584 36.3836 143.491 36.3836ZM143.827 41.7387H138.205V30.2246H140.748V34.3973H143.804C146.324 34.3973 147.73 35.803 147.73 38.0555C147.73 40.3312 146.324 41.7387 143.825 41.7387H143.827Z" fill="#4AA7F8"/>
<path d="M34.8998 15.9869V15.9851C34.8998 14.9437 34.7837 13.9327 34.5926 12.9467C34.5301 12.6216 34.4212 12.3179 34.339 12C34.1729 11.3534 33.9926 10.7139 33.7497 10.1012C33.6086 9.74216 33.4336 9.40635 33.2657 9.05982C33.0085 8.52573 32.737 8.00594 32.4245 7.50757C32.2084 7.16283 31.978 6.83595 31.7369 6.50907C31.4029 6.05893 31.0493 5.63023 30.6707 5.21761C30.3867 4.90859 30.1063 4.60493 29.7991 4.31735C29.3991 3.94224 28.9687 3.60464 28.5311 3.27061C28.1954 3.01518 27.8721 2.75081 27.5149 2.52217C27.0309 2.21137 26.5148 1.95594 25.9986 1.69872C25.6415 1.52009 25.3057 1.31289 24.9342 1.16106C24.068 0.807381 23.1679 0.519796 22.2357 0.319737V0.32331C21.3123 0.126823 20.3551 0.0303661 19.3799 0V0.00893121C19.296 0.00535873 19.2085 0.00535873 19.1245 0.00535873V0H10.0198V0.00357248H0.00238126C-0.00297658 0.173265 0.00238126 0.305447 0.00238126 0.462637C0.00238126 3.47067 2.40091 5.92139 5.38702 6.00713H10.018V6.00892H19.087C20.1979 6.0375 21.2534 6.26971 22.2499 6.62874C23.2001 6.9717 24.0823 7.45399 24.8771 8.04702L24.9628 8.11847C25.7236 8.70078 26.3969 9.3867 26.9631 10.1584L27.0345 10.2441C27.5649 10.9836 27.9685 11.8142 28.2829 12.6877C28.3472 12.8663 28.399 13.0485 28.4525 13.2325C28.7133 14.1167 28.8955 15.0402 28.899 16.0119C28.8972 16.9836 28.7151 17.9071 28.4525 18.7931C28.399 18.9752 28.3472 19.1574 28.2829 19.3379C27.9685 20.2095 27.5649 21.0401 27.0345 21.7796L26.9631 21.8654C26.3969 22.637 25.7218 23.323 24.9628 23.9053L24.8771 23.9767C24.0823 24.5698 23.2001 25.052 22.2499 25.3932C21.1891 25.7755 20.0622 26.0184 18.8709 26.0184V32.0202C19.0406 32.0202 19.3817 32.0202 19.3817 32.0202C20.3568 31.9898 21.3141 31.8933 22.2374 31.6969V31.7004C23.1715 31.5004 24.0698 31.2128 24.936 30.8591C25.3057 30.7073 25.6432 30.5001 26.0004 30.3215C26.5184 30.0625 27.0345 29.8088 27.5167 29.498C27.8721 29.2676 28.1954 29.005 28.5329 28.7496C28.9723 28.4173 29.4009 28.0797 29.8009 27.7046C30.1081 27.417 30.3885 27.1134 30.6725 26.8043C31.0511 26.3917 31.4047 25.9648 31.7387 25.5129C31.9798 25.1878 32.2102 24.8591 32.4263 24.5144C32.7388 24.016 33.0103 23.4962 33.2675 22.9621C33.4353 22.6156 33.6086 22.2798 33.7514 21.9208C33.9943 21.3081 34.1747 20.6686 34.3408 20.022C34.423 19.704 34.5319 19.4004 34.5944 19.0753C34.7837 18.0893 34.9016 17.0783 34.9016 16.0369V16.0351V16.0333V16.0137V15.994V15.9922L34.8998 15.9869Z" fill="#4AA7F8"/>
<path d="M13.5203 11.7107C8.08922 11.9071 4.44767 15.8655 4.3673 21.3099C4.32801 23.9107 4.36016 26.515 4.36016 29.1176C4.35837 30.9681 4.33694 32.8187 4.36373 34.6692L4.36552 34.7907H4.36194C4.36016 34.7246 4.35659 34.6978 4.3548 34.7907H4.34766V45.0866C4.51554 45.092 4.66377 45.0866 4.82808 45.0866C7.98921 45.0866 10.5467 42.5823 10.6378 39.4653L10.6538 38.2417V34.8889C10.6538 34.8889 10.6003 26.9902 10.6431 21.9565C10.6681 18.936 11.7522 17.8982 14.7562 17.8821H14.8812C14.7937 17.8821 14.9151 17.8803 15.0294 17.8786C15.1384 17.8768 15.2402 17.875 15.1455 17.8768L15.642 17.8714C16.3849 17.8732 15.9992 17.8714 16.9154 17.8768V11.6196C16.4421 11.616 15.7813 11.6339 13.5203 11.716V11.7107Z" fill="#F23B78"/>
<path fill-rule="evenodd" clip-rule="evenodd" d="M16.8183 31.961C16.4057 31.961 15.6056 31.9539 14.6984 31.9485C13.7982 31.9414 12.791 31.9342 11.9534 31.9342C11.6301 31.9342 11.3301 31.936 11.0729 31.9378C10.9282 31.9396 10.7836 31.9396 10.6389 31.9414C10.6318 30.3016 10.6246 28.1724 10.6264 26.0682C11.7569 26.0682 12.866 26.07 13.9465 26.07C14.9662 26.07 15.9592 26.07 16.9147 26.0664V31.961C16.8861 31.961 16.854 31.961 16.8183 31.961V31.961ZM4.34878 31.9556C2.89859 31.9539 1.45019 31.9503 0 31.9485V26.0878C1.42876 26.0771 2.88609 26.0718 4.35057 26.0682C4.35414 27.0846 4.3595 28.1009 4.35771 29.1155C4.35771 30.0622 4.35057 31.0089 4.34878 31.9539V31.9556Z" fill="url(#paint0_radial)"/>
<path d="M6.23379 31.9556C5.60513 31.9556 4.97826 31.9556 4.34961 31.9539C4.3514 31.0072 4.35854 30.0622 4.35854 29.1155C4.35854 28.0992 4.35318 27.0828 4.3514 26.0682C5.18543 26.0664 6.02304 26.0664 6.8553 26.0664C8.0626 26.0664 9.26275 26.0682 10.4451 26.0682C10.5058 26.0682 10.5665 26.0682 10.6254 26.0682C10.6236 28.1724 10.6308 30.3016 10.6379 31.9414C9.16988 31.9521 7.70005 31.9556 6.232 31.9556H6.23379Z" fill="#E60E38"/>
<path fill-rule="evenodd" clip-rule="evenodd" d="M18.8711 17.8612V11.6201C20.5892 11.6237 24.7558 11.638 27.8526 11.6433C28.0134 11.9809 28.1545 12.3293 28.283 12.6847C28.3473 12.8633 28.3991 13.0455 28.4527 13.2295C28.7135 14.1137 28.8956 15.0372 28.8992 16.0089C28.8974 16.6448 28.8188 17.2593 28.692 17.8577C27.5758 17.8577 26.4096 17.8577 25.2719 17.8577C22.7002 17.8577 20.2695 17.8577 18.8729 17.8612H18.8711ZM34.9 16.0679C34.9 16.0554 34.9 16.0446 34.9 16.0321C34.9 16.0446 34.9 16.0554 34.9 16.0679Z" fill="url(#paint1_radial)"/>
<path d="M34.7739 17.859C33.6916 17.859 31.327 17.8572 28.691 17.8572C28.8178 17.2588 28.8963 16.6444 28.8981 16.0085C28.8963 15.0367 28.7142 14.1133 28.4516 13.2291C28.3981 13.0451 28.3463 12.8629 28.282 12.6843C28.1552 12.3288 28.0123 11.9805 27.8516 11.6429C28.757 11.6447 29.5732 11.6465 30.209 11.6465C30.8055 11.6465 31.2431 11.6447 31.4502 11.6429C31.9074 11.6393 32.4093 11.6357 32.9183 11.6357C33.3594 11.6357 33.8059 11.6375 34.2363 11.6375C34.2685 11.759 34.306 11.8787 34.3363 12.0001C34.4185 12.3181 34.5274 12.6217 34.5899 12.9468C34.7793 13.9329 34.8971 14.9439 34.8971 15.9852V15.987V15.9888V16.0085V16.0281V16.0299V16.0317C34.8971 16.0442 34.8971 16.0549 34.8971 16.0674C34.8953 16.6747 34.8435 17.2713 34.7721 17.859C34.7703 17.859 34.4917 17.859 34.7703 17.859H34.7739Z" fill="#156DF1"/>
</g>
<defs>
<radialGradient id="paint0_radial" cx="0" cy="0" r="1" gradientUnits="userSpaceOnUse" gradientTransform="translate(16.7583 44.2747) scale(77.0998 77.1141)">
<stop stop-color="#F23B78"/>
<stop offset="0.368627" stop-color="#F23B78"/>
<stop offset="1" stop-color="#E53871"/>
</radialGradient>
<radialGradient id="paint1_radial" cx="0" cy="0" r="1" gradientUnits="userSpaceOnUse" gradientTransform="translate(16.8291 44.2529) scale(77.1112 77.1252)">
<stop stop-color="#4AA7F8"/>
<stop offset="0.368627" stop-color="#4AA7F8"/>
<stop offset="1" stop-color="#469EEA"/>
</radialGradient>
<clipPath id="clip0">
<rect width="177" height="46" fill="white"/>
</clipPath>
</defs>
</svg>
