<svg width="131" height="34" viewBox="0 0 131 34" fill="none" xmlns="http://www.w3.org/2000/svg">
<g clip-path="url(#clip0)">
<path d="M46.1655 5.10425C45.1094 5.10425 44.2833 5.86341 44.2833 6.9183V10.5134C44.2833 11.6184 45.1094 12.3604 46.1827 12.3604C47.6684 12.3604 48.7087 11.2884 48.7087 8.76535C48.7087 6.17631 47.5693 5.10425 46.1655 5.10425V5.10425ZM43.243 6.9183C43.243 5.86341 42.4169 5.10425 41.3608 5.10425C39.957 5.10425 38.8176 6.17631 38.8176 8.76535C38.8176 11.2897 39.8579 12.3604 41.3449 12.3604C42.4182 12.3604 43.243 11.6184 43.243 10.5134V6.9183V6.9183ZM46.4457 13.2344C45.5218 13.2344 44.6957 12.7565 44.315 12.0964H44.2819V16.1536L43.2417 16.1364V12.0964H43.2086C42.8293 12.7565 42.0032 13.2344 41.0792 13.2344C39.2961 13.2344 37.7773 11.6184 37.7773 8.76535C37.7773 5.79739 39.0317 4.23024 41.0964 4.23024C42.0203 4.23024 42.7804 4.658 43.21 5.38415H43.243V1.24512H44.2833V5.38415H44.3163C44.7459 4.658 45.5059 4.23024 46.4299 4.23024C48.4945 4.23024 49.7489 5.79739 49.7489 8.76535C49.7489 11.6184 48.2302 13.2344 46.4471 13.2344H46.4457Z" fill="white"/>
<path d="M57.2107 12.9878V5.73164L52.6214 12.9878H51.334V4.51172H52.3729V11.7666L56.9635 4.51172H58.2523V12.9878H57.2107Z" fill="white"/>
<path d="M66.0792 12.9878V8.99666H61.2414V12.9878H60.2012V4.51172H61.2414V8.12265H66.0792V4.51172H67.1195V12.9878H66.0792Z" fill="white"/>
<path d="M72.2375 8.96262C71.1642 9.11181 69.7116 9.3587 69.7116 10.745C69.7116 11.7339 70.4716 12.361 71.6599 12.361C73.2117 12.361 74.5481 11.3721 74.5481 9.75478V8.36982C74.2176 8.73158 73.3756 8.81475 72.2362 8.96262H72.2375ZM76.5308 12.9366C76.2505 13.0356 76.002 13.0686 75.7046 13.0686C74.6974 13.0686 74.5983 12.2937 74.5983 11.5173C73.9043 12.6224 72.831 13.2165 71.3956 13.2165C69.6627 13.2165 68.6211 12.3267 68.6211 10.8414C68.6211 9.29137 69.6785 8.43452 71.7749 8.21931C73.1126 8.08729 73.8383 8.05428 74.2507 7.77438C74.4648 7.62651 74.5481 7.39415 74.5481 6.96638C74.5481 5.56426 73.6889 5.13517 72.3354 5.13517C70.8986 5.13517 70.1557 5.7623 70.0248 7.13141H69.0335C69.1154 5.31737 70.354 4.27832 72.4504 4.27832C74.3657 4.27832 75.5711 5.11933 75.5711 6.71949V11.3365C75.5711 11.8474 75.554 12.1946 76.1329 12.1946C76.2651 12.1946 76.347 12.1946 76.5294 12.1458V12.9366H76.5308Z" fill="white"/>
<path d="M83.5148 12.9878V8.99666H78.677V12.9878H77.6367V4.51172H78.677V8.12265H83.5148V4.51172H84.555V12.9878H83.5148Z" fill="white"/>
<path d="M90.0528 13.2339C87.6748 13.2339 86.123 11.5017 86.123 8.83081C86.123 6.05958 87.6907 4.2627 90.0858 4.2627C92.05 4.2627 93.3375 5.35059 93.5688 7.1818H92.5126C92.2483 5.84569 91.4063 5.12087 90.1017 5.12087C88.3186 5.12087 87.195 6.53883 87.195 8.74896C87.195 10.9591 88.2842 12.377 90.0025 12.377C91.4222 12.377 92.3805 11.4859 92.5946 9.95304H93.6349C93.3546 11.8819 92.1002 13.2352 90.0515 13.2352L90.0528 13.2339Z" fill="white"/>
<path d="M95.7156 8.74896C95.7156 10.9749 96.855 12.377 98.7201 12.377C100.52 12.377 101.658 10.9749 101.658 8.7648C101.658 6.55468 100.503 5.13671 98.6884 5.13671C96.8881 5.13671 95.7156 6.556 95.7156 8.74896ZM102.7 8.78196C102.7 11.5189 101.164 13.2352 98.7042 13.2352C96.2272 13.2352 94.6582 11.4872 94.6582 8.74896C94.6582 6.02789 96.2444 4.2627 98.7042 4.2627C101.148 4.2627 102.7 6.01073 102.7 8.78196V8.78196Z" fill="white"/>
<path d="M108.116 8.96366H105.292V12.1138H108.116C109.568 12.1138 110.245 11.5699 110.245 10.4978C110.245 9.52477 109.535 8.96366 108.116 8.96366ZM108.116 5.38574H105.292V8.15697H108.116C109.288 8.15697 109.915 7.64603 109.915 6.78786C109.915 5.86499 109.321 5.38574 108.116 5.38574V5.38574ZM108.231 12.9878H104.252V4.51172H108.231C109.963 4.51172 110.953 5.2207 110.953 6.5238C110.953 7.52985 110.409 8.20582 109.485 8.46988V8.50288C110.607 8.70092 111.284 9.39406 111.284 10.614C111.284 12.1481 110.195 12.9891 108.231 12.9891V12.9878Z" fill="white"/>
<path d="M121.92 4.51172V12.9878H120.88V4.51172H121.92ZM116.339 8.71677H113.829V12.1138H116.339C117.529 12.1138 118.238 11.5197 118.238 10.4159C118.238 9.32805 117.528 8.71809 116.339 8.71809V8.71677ZM113.829 4.51172V7.84275H116.587C118.222 7.84275 119.278 8.81579 119.278 10.4159C119.278 12.0161 118.238 12.9891 116.587 12.9891H112.789V4.51304H113.829V4.51172Z" fill="white"/>
<path d="M127.237 5.13649C125.388 5.13649 124.645 6.57162 124.447 8.15462H129.961C129.846 6.27456 128.822 5.13649 127.238 5.13649H127.237ZM127.287 13.2667C124.927 13.2667 123.391 11.5345 123.391 8.84644C123.391 6.15838 124.993 4.27832 127.271 4.27832C129.782 4.27832 131.003 6.35642 131.003 8.69857V8.99563H124.448C124.448 10.778 125.274 12.427 127.322 12.427C128.675 12.427 129.583 11.6678 129.914 10.201H130.921C130.559 12.0811 129.287 13.268 127.289 13.268L127.287 13.2667Z" fill="white"/>
<path d="M42.5336 31.0645C40.5191 31.0645 39.0334 29.8605 38.6699 27.9474H40.535C40.7993 29.0023 41.5092 29.5792 42.5322 29.5792C43.8197 29.5792 44.6299 28.6722 44.778 27.1381H41.6083V25.8191H44.7608C44.5467 24.384 43.7205 23.5271 42.4661 23.5271C41.525 23.5271 40.8641 24.0381 40.6011 24.9623H38.7188C39.0162 23.1482 40.3869 22.0762 42.4833 22.0762C45.0754 22.0762 46.7263 23.8744 46.7263 26.6773C46.7263 29.2505 45.1243 31.0645 42.5322 31.0645H42.5336Z" fill="white"/>
<path d="M53.9923 30.8503L51.3183 27.04L50.1947 28.2111V30.8503H48.3125V22.3398H50.1947V26.1158L53.5957 22.3398H55.8917L52.5727 25.7527L56.2711 30.8503H53.9923Z" fill="white"/>
<path d="M60.7957 31.0645C58.2036 31.0645 56.6016 29.2505 56.6016 26.6773C56.6016 23.8744 58.2525 22.0762 60.8446 22.0762C63.0242 22.0762 64.428 23.2314 64.6421 25.1933H62.777C62.5629 24.1213 61.8861 23.5285 60.8617 23.5285C59.4091 23.5285 58.5169 24.6824 58.5169 26.5796C58.5169 28.4597 59.3588 29.5806 60.7957 29.5806C61.9179 29.5806 62.6607 28.8887 62.859 27.6345H64.7082C64.4438 29.7284 62.9251 31.0645 60.7957 31.0645V31.0645Z" fill="white"/>
<path d="M66.1602 30.8503V22.3398H73.6574V30.8503H71.7752V23.8238H68.0424V30.8503H66.1602Z" fill="white"/>
<path d="M79.3198 23.4936C78.0813 23.4936 77.3054 24.3016 77.1243 25.8027H81.4995C81.3845 24.3676 80.5583 23.4936 79.3198 23.4936ZM79.4017 31.13C76.7766 31.13 75.209 29.2341 75.209 26.6939C75.209 24.0217 76.9432 22.0928 79.337 22.0928C81.8299 22.0928 83.3817 23.924 83.3817 26.8589V27.057H77.0912C77.1415 28.772 77.9821 29.745 79.4361 29.745C80.4764 29.745 81.087 29.2829 81.4664 28.195H83.2667C82.8371 30.0579 81.3184 31.13 79.4031 31.13H79.4017Z" fill="white"/>
<path d="M86.6512 26.5949C86.6512 28.4419 87.5434 29.5628 89.045 29.5628C90.4818 29.5628 91.3727 28.4419 91.3727 26.6279C91.3727 24.7808 90.4646 23.6098 89.0119 23.6098C87.5262 23.6098 86.6498 24.7307 86.6498 26.5949H86.6512ZM86.6194 23.4777C87.2129 22.5219 88.2862 22.0928 89.3926 22.0928C91.7533 22.0928 93.2734 23.8738 93.2734 26.6279C93.2734 29.3159 91.7877 31.064 89.493 31.064C88.3365 31.064 87.3953 30.6679 86.7186 29.7279V33.9989H84.8535V22.3397H86.6208V23.4764L86.6194 23.4777Z" fill="white"/>
<path d="M98.4892 23.8238V30.8503H96.6083V23.8238H93.8008V22.3398H101.297V23.8238H98.4892Z" fill="white"/>
<path d="M112.392 22.3398V30.8503H110.51V22.3398H112.392V22.3398ZM106.2 26.8921H104.169V29.3821H106.233C107.092 29.3821 107.454 28.854 107.454 28.1622C107.454 27.4202 107.009 26.8921 106.2 26.8921ZM106.448 30.8503H102.287V22.3398H104.169V25.424H106.431C108.296 25.424 109.336 26.463 109.336 28.1279C109.336 29.8099 108.296 30.8503 106.447 30.8503H106.448Z" fill="white"/>
<path d="M25.8298 11.8164V11.8151C25.8298 11.0453 25.7439 10.2981 25.6025 9.56929C25.5562 9.329 25.4756 9.10455 25.4148 8.86955C25.2918 8.39161 25.1583 7.91895 24.9786 7.4661C24.8741 7.20073 24.7446 6.95252 24.6204 6.69639C24.43 6.30163 24.2291 5.91743 23.9978 5.54908C23.8378 5.29427 23.6673 5.05266 23.4889 4.81105C23.2417 4.47834 22.98 4.16148 22.6998 3.8565C22.4896 3.62809 22.2821 3.40365 22.0547 3.19108C21.7587 2.91383 21.4401 2.6643 21.1163 2.41741C20.8678 2.22861 20.6285 2.03321 20.3641 1.86422C20.0059 1.63449 19.6239 1.44569 19.2419 1.25557C18.9776 1.12355 18.7291 0.970395 18.4541 0.858173C17.8131 0.59676 17.1469 0.384197 16.4569 0.236328V0.238968C15.7735 0.0937389 15.065 0.0224445 14.3433 0V0.00660133C14.2812 0.0039608 14.2164 0.0039608 14.1543 0.0039608V0H7.41576V0.00264053H0.0017624C-0.00220301 0.128066 0.0017624 0.225765 0.0017624 0.341949C0.0017624 2.56528 1.77694 4.37668 3.987 4.44005H7.41444V4.44137H14.1266C14.9487 4.4625 15.7299 4.63413 16.4675 4.89951C17.1707 5.153 17.8236 5.50947 18.4118 5.9478L18.4753 6.00061C19.0384 6.43101 19.5367 6.938 19.9557 7.50835L20.0086 7.57172C20.4012 8.11831 20.6999 8.73224 20.9325 9.37785C20.9801 9.50987 21.0184 9.64454 21.0581 9.78053C21.2511 10.4341 21.3859 11.1166 21.3885 11.8349C21.3872 12.5531 21.2524 13.2357 21.0581 13.8905C21.0184 14.0252 20.9801 14.1599 20.9325 14.2932C20.6999 14.9375 20.4012 15.5514 20.0086 16.098L19.9557 16.1614C19.5367 16.7317 19.0371 17.2387 18.4753 17.6691L18.4118 17.7219C17.8236 18.1603 17.1707 18.5167 16.4675 18.7689C15.6823 19.0514 14.8483 19.231 13.9666 19.231V23.6671C14.0922 23.6671 14.3447 23.6671 14.3447 23.6671C15.0664 23.6446 15.7748 23.5733 16.4582 23.4281V23.4308C17.1495 23.2829 17.8144 23.0703 18.4555 22.8089C18.7291 22.6967 18.9789 22.5435 19.2433 22.4115C19.6266 22.2201 20.0086 22.0326 20.3655 21.8029C20.6285 21.6326 20.8678 21.4385 21.1176 21.2497C21.4427 21.0041 21.76 20.7546 22.0561 20.4773C22.2834 20.2648 22.4909 20.0403 22.7011 19.8119C22.9813 19.5069 23.243 19.1914 23.4902 18.8574C23.6687 18.6171 23.8392 18.3741 23.9991 18.1193C24.2304 17.751 24.4313 17.3668 24.6217 16.972C24.7459 16.7159 24.8741 16.4677 24.9799 16.2023C25.1596 15.7495 25.2932 15.2768 25.4161 14.7989C25.4769 14.5639 25.5575 14.3394 25.6038 14.0991C25.7439 13.3703 25.8311 12.6231 25.8311 11.8533V11.852V11.8507V11.8362V11.8217V11.8203L25.8298 11.8164Z" fill="white"/>
<path d="M10.0056 8.65554C5.98598 8.80077 3.29082 11.7265 3.23134 15.7506C3.20226 17.673 3.22605 19.5979 3.22605 21.5215C3.22473 22.8893 3.20887 24.2571 3.22869 25.6249L3.23001 25.7147H3.22737C3.22605 25.6658 3.22341 25.646 3.22208 25.7147H3.2168V33.3247C3.34105 33.3287 3.45076 33.3247 3.57236 33.3247C5.91196 33.3247 7.80478 31.4737 7.87219 29.1698L7.88409 28.2654V25.7873C7.88409 25.7873 7.84443 19.9491 7.87616 16.2286C7.89466 13.996 8.697 13.2289 10.9203 13.2171H11.0128C10.948 13.2171 11.0379 13.2157 11.1225 13.2144C11.2031 13.2131 11.2785 13.2118 11.2084 13.2131L11.5759 13.2091C12.1258 13.2105 11.8402 13.2091 12.5183 13.2131V8.5882C12.1681 8.58556 11.679 8.59877 10.0056 8.6595V8.65554Z" fill="white"/>
<path fill-rule="evenodd" clip-rule="evenodd" d="M12.4474 23.6235C12.1421 23.6235 11.5499 23.6182 10.8784 23.6142C10.2123 23.609 9.46676 23.6037 8.84683 23.6037C8.60759 23.6037 8.38552 23.605 8.19518 23.6063C8.08812 23.6076 7.98105 23.6076 7.87398 23.609C7.8687 22.397 7.86341 20.8232 7.86473 19.2679C8.70143 19.2679 9.52227 19.2692 10.322 19.2692C11.0767 19.2692 11.8116 19.2692 12.5188 19.2666V23.6235C12.4977 23.6235 12.4739 23.6235 12.4474 23.6235V23.6235ZM3.21859 23.6195C2.14529 23.6182 1.0733 23.6156 0 23.6142V19.2824C1.05744 19.2745 2.13603 19.2706 3.21991 19.2679C3.22256 20.0192 3.22652 20.7704 3.2252 21.5203C3.2252 22.22 3.21991 22.9198 3.21859 23.6182V23.6195Z" fill="white"/>
<path d="M4.61325 23.6195C4.14798 23.6195 3.68402 23.6195 3.21875 23.6182C3.22007 22.9185 3.22536 22.22 3.22536 21.5203C3.22536 20.7691 3.22139 20.0178 3.22007 19.2679C3.83735 19.2666 4.45728 19.2666 5.07324 19.2666C5.96678 19.2666 6.85503 19.2679 7.73007 19.2679C7.77501 19.2679 7.81995 19.2679 7.86357 19.2679C7.86225 20.8232 7.86753 22.397 7.87282 23.609C6.7863 23.6169 5.69845 23.6195 4.61193 23.6195H4.61325Z" fill="white"/>
<path fill-rule="evenodd" clip-rule="evenodd" d="M13.9668 13.2019V8.58887C15.2384 8.59151 18.3221 8.60207 20.6141 8.60603C20.7331 8.85556 20.8375 9.11301 20.9327 9.37575C20.9803 9.50777 21.0186 9.64244 21.0583 9.77843C21.2513 10.432 21.3861 11.1145 21.3887 11.8328C21.3874 12.3028 21.3292 12.7569 21.2354 13.1992C20.4093 13.1992 19.5461 13.1992 18.7041 13.1992C16.8007 13.1992 15.0018 13.1992 13.9681 13.2019H13.9668ZM25.83 11.8763C25.83 11.8671 25.83 11.8592 25.83 11.8499C25.83 11.8592 25.83 11.8671 25.83 11.8763Z" fill="white"/>
<path d="M25.7366 13.2004C24.9356 13.2004 23.1855 13.1991 21.2345 13.1991C21.3284 12.7568 21.3865 12.3026 21.3879 11.8326C21.3865 11.1144 21.2517 10.4318 21.0574 9.77826C21.0178 9.64228 20.9794 9.50761 20.9318 9.37558C20.838 9.11285 20.7322 8.8554 20.6133 8.60587C21.2834 8.60719 21.8875 8.60851 22.3581 8.60851C22.7995 8.60851 23.1234 8.60719 23.2767 8.60587C23.6151 8.60323 23.9865 8.60059 24.3632 8.60059C24.6897 8.60059 25.0202 8.60191 25.3387 8.60191C25.3625 8.69168 25.3903 8.78014 25.4127 8.86992C25.4736 9.10493 25.5542 9.32937 25.6004 9.56966C25.7406 10.2984 25.8278 11.0457 25.8278 11.8154V11.8168V11.8181V11.8326V11.8471V11.8484V11.8498C25.8278 11.859 25.8278 11.8669 25.8278 11.8762C25.8265 12.3251 25.7881 12.766 25.7353 13.2004C25.7339 13.2004 25.5277 13.2004 25.7339 13.2004H25.7366Z" fill="white"/>
</g>
<defs>
<clipPath id="clip0">
<rect width="131" height="34" fill="white"/>
</clipPath>
</defs>
</svg>
