<?xml version="1.0" encoding="UTF-8"?>
<!DOCTYPE svg PUBLIC "-//W3C//DTD SVG 1.0//EN" "http://www.w3.org/TR/2001/REC-SVG-20010904/DTD/svg10.dtd">
<!-- Creator: CorelDRAW 2019 (64-Bit) -->
<svg xmlns="http://www.w3.org/2000/svg" xml:space="preserve" width="85.9728mm" height="8.3361mm" version="1.0" style="shape-rendering:geometricPrecision; text-rendering:geometricPrecision; image-rendering:optimizeQuality; fill-rule:evenodd; clip-rule:evenodd"
viewBox="0 0 4062.8 393.94"
 xmlns:xlink="http://www.w3.org/1999/xlink"
 xmlns:xodm="http://www.corel.com/coreldraw/odm/2003">
 <defs>
  <style type="text/css">
   <![CDATA[
    .fil2 {fill:#ffffff}
    .fil1 {fill:#ffffff}
    .fil0 {fill:#ffffff;fill-rule:nonzero}
   ]]>
  </style>
 </defs>
 <g id="Слой_x0020_1">
  <metadata id="CorelCorpID_0Corel-Layer"/>
  <path class="fil0" d="M178.45 317.12l-49.21 0 0 -37.21c-38.94,0 -70.29,-9.6 -94.03,-28.81 -23.47,-19.47 -35.21,-46.54 -35.21,-81.22 0,-34.41 11.74,-61.22 35.21,-80.42 23.74,-19.47 55.08,-29.34 94.03,-29.61l0 -29.2 49.21 0 0 29.2c38.68,0.27 69.88,10.27 93.63,30.01 23.74,19.74 35.61,46.42 35.61,80.02 0,34.14 -11.87,61.08 -35.61,80.82 -23.47,18.94 -54.68,28.67 -93.63,29.2l0 37.21zm77.22 -147.24c0,-19.74 -6.67,-35.41 -20.01,-47.01 -13.34,-11.61 -32.41,-17.54 -57.21,-17.81l0 129.64c51.48,-0.27 77.22,-21.88 77.22,-64.82zm-203.66 0c0,20.81 6.67,36.74 20,47.81 13.34,11.07 32.41,16.73 57.22,17l0 -129.64c-24.54,0.26 -43.55,6.2 -57.02,17.81 -13.47,11.6 -20.21,27.27 -20.21,47.01zm425.32 30.01l-84.02 114.03 -46.01 0 0 -180.05 46.01 0 0 114.03 84.02 -114.03 46.01 0 0 180.05 -46.01 0 0 -114.03zm268.07 114.03l-46.01 0 0 -68.82 -78.82 0 0 68.82 -46.01 0 0 -180.05 46.01 0 0 68.02 78.82 0 0 -68.02 46.01 0 0 180.05zm65.22 -133.64l-11.6 -33.61c19.47,-11.47 40.68,-17.2 63.62,-17.2 25.07,0 43.34,6.13 54.81,18.4 11.47,12.27 17.21,31.08 17.21,56.42l0 109.63 -40.01 0 0 -20.81c-10.67,15.47 -28.41,23.21 -53.22,23.21 -17.07,0 -30.74,-5 -41.01,-15 -10.27,-10 -15.41,-23.41 -15.41,-40.21 0,-18.67 6,-33.08 18,-43.21 12,-10.14 27.88,-15.2 47.62,-15.2 16.27,0 29.88,3.87 40.81,11.6 0.53,-16.01 -1.8,-27.74 -7,-35.21 -5.2,-7.47 -14.07,-11.2 -26.61,-11.2 -13.87,0 -29.61,4.13 -47.21,12.4zm46.01 97.23c15.47,0 27.07,-5.47 34.81,-16.4l0 -18.41c-7.47,-5.87 -18,-8.8 -31.61,-8.8 -8.53,0 -15.47,2 -20.81,6 -5.34,4 -8,9.47 -8,16.4 0,6.4 2.4,11.54 7.2,15.41 4.8,3.87 10.94,5.8 18.41,5.8zm296.08 36.41l-46.01 0 0 -68.82 -78.82 0 0 68.82 -46.01 0 0 -180.05 46.01 0 0 68.02 78.82 0 0 -68.02 46.01 0 0 180.05zm187.65 -60.42l21.61 33.61c-15.2,20.81 -39.08,31.21 -71.62,31.21 -29.08,0 -52.68,-8.67 -70.82,-26.01 -17.87,-17.07 -26.81,-39.88 -26.81,-68.42 0,-26.94 8.8,-49.35 26.41,-67.22 17.6,-18.14 39.88,-27.21 66.82,-27.21 32.01,0 56.15,8.13 72.42,24.4l-21.61 36.41c-12.27,-11.74 -27.21,-17.6 -44.81,-17.6 -13.34,0 -25.07,4.8 -35.21,14.4 -9.87,9.07 -14.81,21.34 -14.81,36.81 0,15.47 5.07,28.01 15.2,37.61 10.67,9.33 22.94,14 36.81,14 17.87,0 33.34,-7.33 46.41,-22.01zm64.42 38.41c-17.87,-17.87 -26.81,-40.54 -26.81,-68.02 0,-27.48 8.94,-50.01 26.81,-67.62 17.87,-17.87 41.61,-26.8 71.22,-26.8 29.34,0 52.95,8.93 70.82,26.8 18.14,17.61 27.21,40.14 27.21,67.62 0,27.21 -9.07,49.88 -27.21,68.02 -18.14,17.61 -41.74,26.41 -70.82,26.41 -29.61,0 -53.35,-8.8 -71.22,-26.41zm36.41 -104.83c-9.33,9.6 -14,21.87 -14,36.81 0,14.94 4.6,27.27 13.8,37.01 9.2,9.73 20.87,14.6 35.01,14.6 14.4,0 26.21,-4.8 35.41,-14.4 9.21,-9.6 13.8,-22.01 13.8,-37.21 0,-14.94 -4.66,-27.21 -14,-36.81 -9.33,-9.6 -21.07,-14.4 -35.21,-14.4 -13.87,0 -25.47,4.8 -34.81,14.4zm172.85 126.83l0 -180.05c2.4,0 12.6,-0.34 30.61,-1 18,-0.67 31.41,-1 40.21,-1 54.41,0 81.62,15.74 81.62,47.21 0,10.14 -3.2,19.01 -9.6,26.61 -6.4,7.6 -14.4,12.07 -24.01,13.4l0 0.8c25.6,6.13 38.41,20.01 38.41,41.61 0,36.27 -28.54,54.41 -85.62,54.41 -8.27,0 -20.94,-0.4 -38.01,-1.2 -4.27,0 -9.14,-0.07 -14.61,-0.2 -5.47,-0.13 -9.6,-0.26 -12.4,-0.4 -2.8,-0.13 -5,-0.2 -6.6,-0.2zm74.82 -76.42l-28.81 0 0 40.01c16.01,1.07 26.14,1.6 30.41,1.6 10.14,0 18.07,-1.87 23.81,-5.6 5.73,-3.74 8.6,-8.8 8.6,-15.21 0,-13.87 -11.34,-20.8 -34.01,-20.8zm0 -68.42c-10.67,0 -20.27,0.26 -28.81,0.8l0 39.61 30.01 0c8.27,0 14.94,-1.87 20.01,-5.6 5.07,-3.74 7.6,-8.8 7.6,-15.21 0,-13.07 -9.6,-19.6 -28.81,-19.6zm190.86 144.84l-64.82 0 0 -180.05 46.01 0 0 49.21 22.41 0c26.94,0 46.88,5.6 59.81,16.8 12.94,11.2 19.41,26.41 19.41,45.61 0,20.54 -6.94,37.08 -20.81,49.61 -13.87,12.54 -34.54,18.8 -62.02,18.8zm154.44 0l-46.01 0 0 -180.05 46.01 0 0 180.05zm-154.84 -94.03l-18.41 0 0 54.01 18 0c23.21,0 34.81,-8.94 34.81,-26.8 0,-18.14 -11.47,-27.21 -34.41,-27.21zm347.3 43.61l13.2 32.41c-17.87,14.94 -40.81,22.4 -68.82,22.4 -28.81,0 -52.28,-8.67 -70.42,-26.01 -17.6,-17.07 -26.41,-39.88 -26.41,-68.42 0,-26.68 8.67,-49.08 26.01,-67.22 17.34,-18.14 40.41,-27.21 69.22,-27.21 23.74,0 43.88,7.87 60.41,23.6 16.54,15.74 24.81,35.74 24.81,60.02 0,10.67 -0.94,18.94 -2.8,24.81l-130.04 0c1.87,13.07 7.67,23.34 17.4,30.81 9.74,7.47 21.94,11.2 36.61,11.2 20.01,0 36.95,-5.47 50.82,-16.4zm-59.22 -95.62c-26.14,0 -41.87,13.07 -47.21,39.21l88.42 0c0.27,-11.47 -3.4,-20.87 -11,-28.21 -7.6,-7.33 -17.67,-11 -30.21,-11zm320.08 70.42l-80.42 0 0 -30.81 80.02 0c-2.93,-12.27 -9,-21.68 -18.21,-28.21 -9.2,-6.54 -20.33,-9.81 -33.41,-9.81 -17.07,0 -34.28,6.27 -51.61,18.81l-18.81 -32.01c7.74,-8.53 18.07,-15.14 31.01,-19.81 12.94,-4.67 25.81,-7 38.61,-7 30.94,0 55.35,8.53 73.22,25.6 18.14,17.34 27.21,40.28 27.21,68.82 0,26.94 -8.67,49.48 -26.01,67.62 -17.07,17.87 -40.41,26.8 -70.02,26.8 -32.81,0 -57.75,-8.94 -74.82,-26.8l21.61 -30.41c13.07,11.47 29.88,17.21 50.41,17.21 13.87,0 25.27,-3.47 34.21,-10.41 8.94,-6.93 14.6,-16.8 17,-29.61z"/>
  <path class="fil0" d="M2964.5 253.5l21.61 33.61c-15.2,20.81 -39.08,31.21 -71.62,31.21 -29.08,0 -52.68,-8.67 -70.82,-26.01 -17.87,-17.07 -26.81,-39.88 -26.81,-68.42 0,-26.94 8.8,-49.35 26.41,-67.22 17.6,-18.14 39.88,-27.21 66.82,-27.21 32.01,0 56.15,8.13 72.42,24.4l-21.61 36.41c-12.27,-11.74 -27.21,-17.6 -44.81,-17.6 -13.34,0 -25.07,4.8 -35.21,14.4 -9.87,9.07 -14.81,21.34 -14.81,36.81 0,15.47 5.07,28.01 15.2,37.61 10.67,9.33 22.94,14 36.81,14 17.87,0 33.34,-7.33 46.41,-22.01zm227.26 60.42l-46.01 0 0 -136.84 -76.82 0 0 136.84 -46.01 0 0 -180.05 168.84 0 0 180.05zm192.45 -50.41l13.2 32.41c-17.87,14.94 -40.81,22.4 -68.82,22.4 -28.81,0 -52.28,-8.67 -70.42,-26.01 -17.6,-17.07 -26.41,-39.88 -26.41,-68.42 0,-26.68 8.67,-49.08 26.01,-67.22 17.34,-18.14 40.41,-27.21 69.22,-27.21 23.74,0 43.88,7.87 60.41,23.6 16.54,15.74 24.81,35.74 24.81,60.02 0,10.67 -0.94,18.94 -2.8,24.81l-130.04 0c1.87,13.07 7.67,23.34 17.4,30.81 9.74,7.47 21.94,11.2 36.61,11.2 20.01,0 36.95,-5.47 50.82,-16.4zm-59.22 -95.62c-26.14,0 -41.87,13.07 -47.21,39.21l88.42 0c0.27,-11.47 -3.4,-20.87 -11,-28.21 -7.6,-7.33 -17.67,-11 -30.21,-11zm170.45 226.06l-46.01 0 0 -260.07 46.01 0 0 17.21c5.87,-6.4 13.87,-11.61 24.01,-15.6 10.14,-4 20.67,-6 31.61,-6 24.81,0 44.54,8.53 59.22,25.6 14.94,17.34 22.4,39.35 22.4,66.02 0,28.01 -8.8,51.22 -26.41,69.62 -17.6,18.41 -40.54,27.61 -68.82,27.61 -18.14,0 -32.14,-2.93 -42.01,-8.8l0 84.42zm41.21 -221.26c-16.01,0 -29.74,6.53 -41.21,19.6l0 72.82c10.94,6.93 23.61,10.4 38.01,10.4 15.2,0 27.4,-4.93 36.61,-14.81 9.2,-9.87 13.8,-22.67 13.8,-38.41 0,-14.94 -4.2,-26.94 -12.6,-36.01 -8.4,-9.07 -19.94,-13.6 -34.61,-13.6zm169.25 7.2l-59.22 0 0 -46.01 164.05 0 0 46.01 -58.82 0 0 134.03 -46.01 0 0 -134.03zm202.46 134.03l-64.82 0 0 -180.05 46.01 0 0 49.21 22.41 0c26.94,0 46.88,5.6 59.81,16.8 12.94,11.2 19.41,26.41 19.41,45.61 0,20.54 -6.94,37.08 -20.81,49.61 -13.87,12.54 -34.54,18.8 -62.02,18.8zm154.44 0l-46.01 0 0 -180.05 46.01 0 0 180.05zm-154.84 -94.03l-18.41 0 0 54.01 18 0c23.21,0 34.81,-8.94 34.81,-26.8 0,-18.14 -11.47,-27.21 -34.41,-27.21z"/>
  <polygon class="fil1" points="2688.71,273.55 2715.52,245.44 2783.45,313.89 2730.09,313.89 "/>
  <polygon class="fil1" points="2638.48,273.55 2611.93,245.44 2543.74,313.89 2597.1,313.89 "/>
  <polygon class="fil2" points="2688.71,217.59 2662.16,245.44 2534.89,114.52 2588.24,114.52 "/>
  <polygon class="fil2" points="2638.48,213.69 2665.29,241.53 2902.13,0 2848.78,0 "/>
 </g>
</svg>
