<svg version="1.1" id="Слой_1" xmlns="http://www.w3.org/2000/svg" xmlns:xlink="http://www.w3.org/1999/xlink" x="0px" y="0px" viewBox="0 0 306.8 60.8" enable-background="new 0 0 306.8 60.8" xml:space="preserve">
    <symbol id="main" viewBox="0 0 23 23" xmlns="http://www.w3.org/2000/svg">
        <path d="M3.12707 20.1749C3.12707 20.1749 3.10664 20.689 3.60886 20.689C4.23366 20.689 9.40653 20.6822 9.40653 20.6822L9.41504 15.9316C9.41504 15.9316 9.33332 15.1484 10.0935 15.1484H12.499C13.3979 15.1484 13.3426 15.9316 13.3426 15.9316L13.3324 20.6669C13.3324 20.6669 18.2371 20.6669 19.0075 20.6669C19.645 20.6669 19.6161 20.0268 19.6161 20.0268V11.2686L11.618 4.15405L3.12707 11.2686C3.12707 11.2686 3.12707 20.1749 3.12707 20.1749Z"/>
        <path d="M0 10.6063C0 10.6063 0.720984 11.9351 2.29319 10.6063L11.689 2.65761L20.4983 10.5569C22.3182 11.8695 23 10.5569 23 10.5569L11.689 0.310791L0 10.6063Z"/>
        <path d="M20.2845 2.63892H18.0186L18.0279 5.38666L20.2845 7.30105V2.63892Z"/>
    </symbol>
    <symbol id="about" viewBox="0 0 23 23" xmlns="http://www.w3.org/2000/svg">
        <g clip-path="url(#clip0)">
            <path d="M18.5203 2.90799C16.6451 1.03273 14.1518 0 11.4998 0C8.84783 0 6.35453 1.03273 4.47928 2.90799C2.60402 4.78324 1.57129 7.2765 1.57129 9.92849C1.57129 12.5805 2.60407 15.0737 4.47928 16.949C6.1949 18.6646 8.42785 19.675 10.8263 19.8347V23L11.8897 22.245C12.0771 22.112 16.5024 18.9631 18.6643 16.8013C19.5425 15.9231 20.2293 14.8796 20.7058 13.6997C21.1852 12.5125 21.4283 11.2436 21.4283 9.92849C21.4283 7.2765 20.3956 4.78324 18.5203 2.90799V2.90799ZM11.4998 16.2999C7.98663 16.2999 5.1284 13.4417 5.1284 9.92854C5.1284 6.41534 7.98659 3.55711 11.4998 3.55711C15.013 3.55711 17.8712 6.4153 17.8712 9.92854C17.8712 13.4417 15.013 16.2999 11.4998 16.2999Z"/>
            <path d="M11.4999 4.90405C8.72951 4.90405 6.47559 7.15794 6.47559 9.92839C6.47559 12.6988 8.72946 14.9527 11.4999 14.9527C14.2703 14.9527 16.5242 12.6988 16.5242 9.92839C16.5242 7.15794 14.2703 4.90405 11.4999 4.90405V4.90405ZM12.1785 12.8001H10.8212V8.92825H12.1785V12.8001ZM11.4999 8.49965C10.9999 8.49965 10.6712 8.18533 10.6712 7.77814C10.6712 7.37096 10.9998 7.05663 11.4999 7.05663C12 7.05663 12.3286 7.34954 12.3286 7.75672C12.3286 8.18533 12 8.49965 11.4999 8.49965Z"/>
        </g>
        <defs>
            <clipPath id="clip0">
                <rect width="23" height="23" fill="white"/>
            </clipPath>
        </defs>
    </symbol>
    <symbol id="contacts" viewBox="0 0 23 23" xmlns="http://www.w3.org/2000/svg">
        <path fill-rule="evenodd" clip-rule="evenodd" d="M5.00765 2.20023C4.22824 2.5632 3.93382 3.10338 3.91779 4.19967L3.90846 4.84113L4.86702 4.86513L5.82558 4.88914L5.80005 5.33168L5.77452 5.77422L3.88726 5.79704L2 5.81986V6.75133V7.68281H2.93099H3.86198L3.88522 9.10365L3.90846 10.5245L4.86269 10.5485L5.81693 10.5725V11.0363V11.5H3.90846H2V12.4245V13.349L2.57254 13.3925C2.88739 13.4164 3.29775 13.4299 3.48436 13.4223L3.82364 13.4086L3.84688 14.8294L3.87012 16.2503H4.84352H5.81693V16.7168V17.1834H3.90846H2V18.1589V19.1344H2.93566C3.61168 19.1344 3.87971 19.1638 3.90142 19.2404C3.91796 19.2988 3.97505 19.5069 4.02823 19.7031C4.15919 20.1857 4.49398 20.5606 5.00765 20.7998L5.43523 20.9989L12.3966 20.9997C20.1485 21.0006 19.8477 21.0222 20.4307 20.4248C21.0271 19.8137 20.9998 20.2416 20.9998 11.5C20.9998 2.75839 21.0271 3.18625 20.4307 2.57516C19.8477 1.97781 20.1485 1.99936 12.3966 2.00029L5.43523 2.00114L5.00765 2.20023ZM14.443 6.52086C14.9236 7.00157 15.3168 7.46515 15.3168 7.55108C15.3168 7.63709 14.9279 8.1027 14.4525 8.58579C13.4276 9.62737 13.3482 9.64985 12.7565 9.06701C12.3665 8.68283 12.3479 8.67469 12.1879 8.8194C11.9516 9.03333 11.4555 10.0134 11.2853 10.6023C11.1736 10.9889 11.1492 11.32 11.1788 12.0443C11.2121 12.8594 11.253 13.069 11.4862 13.6207C11.6341 13.9706 11.8859 14.4211 12.0457 14.6219L12.3363 14.9869L12.8141 14.5543C13.1849 14.2184 13.3333 14.1335 13.4773 14.1751C13.7847 14.2636 15.3168 15.8537 15.3168 16.0841C15.3168 16.2231 15.0655 16.5347 14.4852 17.1151C13.356 18.2444 13.4436 18.2548 12.036 16.8229C10.5492 15.3103 10.1362 14.6491 9.79789 13.2389C9.33579 11.3133 9.85701 9.22674 11.1862 7.68103C12.0769 6.64513 13.1497 5.64698 13.3723 5.64698C13.5089 5.64698 13.8366 5.91452 14.443 6.52086Z"/>
    </symbol>
    <symbol id="forexperts" viewBox="0 0 23 23" xmlns="http://www.w3.org/2000/svg">
        <path d="M7.20357 11.3804C8.14981 10.6631 9.28109 10.284 10.4751 10.284H12.3773C13.5714 10.284 14.7027 10.6631 15.6489 11.3804C16.3842 11.9378 16.9683 12.6844 17.3374 13.5258C18.6684 12.0881 19.4833 10.1661 19.4833 8.05705C19.4833 3.61438 15.869 0 11.4262 0C6.98352 0 3.36914 3.61438 3.36914 8.05705C3.36914 10.1661 4.18409 12.0881 5.5151 13.5258C5.88419 12.6844 6.46832 11.9378 7.20357 11.3804ZM11.4262 3.38005C13.3296 3.38005 14.8782 4.92854 14.8782 6.83192C14.8782 8.73531 13.3296 10.2838 11.4262 10.2838C9.52285 10.2838 7.97432 8.73531 7.97432 6.83192C7.97432 4.92854 9.52285 3.38005 11.4262 3.38005V3.38005Z"/>
        <path d="M11.4265 8.93219C12.5845 8.93219 13.5267 7.99 13.5267 6.83192C13.5267 5.67383 12.5845 4.73169 11.4265 4.73169C10.2684 4.73169 9.32617 5.67383 9.32617 6.83192C9.32617 7.99 10.2684 8.93219 11.4265 8.93219Z"/>
        <path d="M12.3781 11.6355H10.4759C8.69997 11.6355 7.11075 12.8109 6.59375 14.4993C7.94111 15.5127 9.61508 16.114 11.427 16.114C13.2389 16.114 14.9129 15.5127 16.2602 14.4993C15.7432 12.8109 14.154 11.6355 12.3781 11.6355Z"/>
        <path d="M5.33744 23L3.5826 22.0799L1.82777 23L2.16045 21.0467L0.743164 19.6621L2.70363 19.3749L3.5826 17.5991L4.46153 19.3749L6.42195 19.6621L5.00471 21.0467L5.33744 23Z"/>
        <path d="M13.2554 23L11.5006 22.0799L9.74573 23L10.0784 21.0467L8.66113 19.6621L10.6216 19.3749L11.5006 17.5991L12.3795 19.3749L14.3399 19.6621L12.9227 21.0467L13.2554 23Z"/>
        <path d="M21.1744 23L19.4195 22.0799L17.6647 23L17.9974 21.0467L16.5801 19.6621L18.5406 19.3749L19.4195 17.5991L20.2984 19.3749L22.2589 19.6621L20.8416 21.0467L21.1744 23Z"/>
    </symbol>
    <symbol id="forpartners" viewBox="0 0 23 23" xmlns="http://www.w3.org/2000/svg">
        <g clip-path="url(#clip0)">
        <path d="M12.7652 13.5756L11.6195 14.1736C10.4421 14.8018 8.95144 14.5028 8.08174 13.4606L7.51824 12.785C7.04099 12.21 7.0798 11.3777 7.6088 10.8501L11.1192 7.33968L10.4278 6.93287C10.3171 6.86818 10.1906 6.83368 10.0626 6.83368H7.45211L7.83018 6.07755C8.00843 5.72248 7.86324 5.29123 7.50818 5.11298L5.35191 4.03484C4.99828 3.85803 4.56703 4.00178 4.38878 4.35685L0.0762446 12.9819C-0.102007 13.337 0.0431818 13.7682 0.398247 13.9465L2.55451 15.0246C2.65658 15.0764 2.76583 15.0994 2.87508 15.0994C3.13958 15.0994 3.39258 14.9527 3.51908 14.7026L3.76346 14.2153L9.33669 18.3366C9.97351 18.8067 10.7325 19.041 11.4901 19.041C12.2606 19.041 13.0282 18.7981 13.665 18.3136L16.1663 16.3931L12.7652 13.5756Z"/>
            <path d="M22.9239 12.9819L18.6114 4.35686C18.4331 4.00036 18.0033 3.85804 17.6468 4.03486L15.4906 5.11299C15.1355 5.29124 14.9917 5.72249 15.1686 6.07756L15.5481 6.83369H13.6577L8.625 11.865L9.18707 12.5406C9.62119 13.061 10.3615 13.2134 10.9495 12.9014L12.949 11.8592L17.3406 15.4976L19.1749 14.0831L19.484 14.7012C19.6105 14.9528 19.8649 15.0979 20.1265 15.0979C20.2343 15.0979 20.3436 15.0735 20.4485 15.0218L22.6048 13.9436C22.9584 13.7682 23.1007 13.337 22.9239 12.9819Z"/>
        </g>
        <defs>
            <clipPath id="clip0">
                <rect width="23" height="23" fill="white"/>
            </clipPath>
        </defs>
    </symbol>
    <symbol id="students" viewBox="0 0 23 23" xmlns="http://www.w3.org/2000/svg">
        <path d="M20.9336 15.543H14.1953C13.0943 15.543 12.115 16.0739 11.5 16.8933C10.885 16.0739 9.90572 15.543 8.80469 15.543H2.06641C1.69445 15.543 1.39258 15.8448 1.39258 16.2168V16.8906H7.0433C8.6197 16.8906 10.188 17.2029 11.5 18.0775C12.8116 17.2031 14.3797 16.8906 15.9567 16.8906H21.6074V16.2168C21.6074 15.8448 21.3055 15.543 20.9336 15.543Z"/>
        <path d="M10.2353 20.4892C9.48853 19.8898 8.4145 19.5859 7.04308 19.5859H0.673828C0.301695 19.5859 0 19.2842 0 18.9121C0 18.54 0.301695 18.2383 0.673828 18.2383H7.04308C8.72895 18.2383 10.0868 18.642 11.0789 19.4382C11.3247 19.6355 11.6752 19.6356 11.9211 19.4382C12.9132 18.642 14.2711 18.2383 15.9569 18.2383H22.3262C22.6983 18.2383 23 18.54 23 18.9121C23 19.2842 22.6983 19.5859 22.3262 19.5859H15.9569C14.5855 19.5859 13.5115 19.8898 12.7646 20.4892C12.0308 21.0782 10.9771 21.0845 10.2353 20.4892Z"/>
        <path d="M16.2168 8.88574V10.8264C16.2168 11.0815 16.0726 11.3151 15.8444 11.4292L12.8643 12.9188C12.5341 13.0841 12.2318 13.2971 11.9658 13.5513C11.7053 13.8002 11.2947 13.8002 11.0342 13.5513C10.7682 13.2971 10.4659 13.0841 10.1357 12.9188L7.15561 11.4292C6.9274 11.3151 6.7832 11.0815 6.7832 10.8264V8.88574L10.9448 10.0748C11.3005 10.1766 11.6866 10.1803 12.0552 10.0748L16.2168 8.88574Z"/>
        <path d="M18.9121 8.11523V12.1735C18.9121 12.5454 18.6102 12.8473 18.2383 12.8473C17.8663 12.8473 17.5645 12.5454 17.5645 12.1735V8.50022L18.9121 8.11523Z"/>
        <path d="M11.3153 8.77879L1.88166 6.08348C1.23272 5.89808 1.23159 4.97341 1.88166 4.78766L11.3153 2.09235C11.4362 2.05776 11.5645 2.05776 11.6855 2.09235L21.119 4.78766C21.768 4.97305 21.7691 5.89772 21.119 6.08348L11.6855 8.77879C11.565 8.8132 11.4367 8.81347 11.3153 8.77879Z"/>
    </symbol>
    <symbol id="faq" viewBox="0 0 23 23" xmlns="http://www.w3.org/2000/svg">
        <path d="M8.5 0C3.81291 0 0 3.81291 0 8.5C0 13.1871 3.81291 17 8.5 17C13.1871 17 17 13.1871 17 8.5C17 3.81291 13.1871 0 8.5 0ZM8.5 13.4583C8.10896 13.4583 7.79171 13.141 7.79171 12.75C7.79171 12.359 8.10896 12.0417 8.5 12.0417C8.89104 12.0417 9.20829 12.359 9.20829 12.75C9.20829 13.141 8.89104 13.4583 8.5 13.4583ZM9.62125 8.95473C9.37054 9.07016 9.20829 9.32307 9.20829 9.59869V9.91671C9.20829 10.3076 8.89169 10.625 8.5 10.625C8.10831 10.625 7.79171 10.3076 7.79171 9.91671V9.59869C7.79171 8.77198 8.27757 8.01414 9.02775 7.66772C9.74953 7.33556 10.2708 6.4536 10.2708 6.02079C10.2708 5.0448 9.47677 4.25 8.5 4.25C7.52323 4.25 6.72921 5.0448 6.72921 6.02079C6.72921 6.41183 6.41248 6.72921 6.02079 6.72921C5.6291 6.72921 5.3125 6.41183 5.3125 6.02079C5.3125 4.26349 6.74257 2.83329 8.5 2.83329C10.2574 2.83329 11.6875 4.26349 11.6875 6.02079C11.6875 6.97784 10.8573 8.38457 9.62125 8.95473Z"/>
    </symbol>
    <symbol id="support" viewBox="0 0 23 23" xmlns="http://www.w3.org/2000/svg">
        <path d="M8.50003 0C4.91604 0 2 2.91604 2 6.50003V12.4999C2 13.3272 2.67288 14 3.49998 14C4.3272 14 5.00008 13.3272 5.00008 12.4999V7.50002C5.00008 6.67292 4.3272 6.00004 3.49998 6.00004C3.33163 6.00004 3.17236 6.03415 3.021 6.08551C3.23435 3.24625 5.6076 0.999985 8.50003 0.999985C11.3909 0.999985 13.7635 3.24418 13.9788 6.08149C13.8284 6.03 13.6682 6.00004 13.5001 6.00004C12.6729 6.00004 12 6.67292 12 7.50002V12.4999C12 13.3272 12.6729 14 13.5001 14C13.6762 14 13.8429 13.964 14.0001 13.908V14.5C14.0001 14.7759 13.7754 15 13.5001 15H9.90792C9.70079 14.4192 9.15099 14 8.50003 14C7.67294 14 7.00005 14.6729 7.00005 15.5C7.00005 16.3271 7.67294 17 8.50003 17C9.15099 17 9.70079 16.5807 9.90792 16H13.5001C14.3272 16 15.0001 15.3271 15.0001 14.5C15.0001 11.4926 15.0001 9.51075 15.0001 6.50003C15.0001 2.91604 12.084 0 8.50003 0V0Z"/>
        <path d="M16 7.0918V12.9075C16.5807 12.7005 17 12.1507 17 11.4996V8.49969C17 7.84872 16.5807 7.29893 16 7.0918Z"/>
        <path d="M0 8.49969V11.4996C0 12.1507 0.419319 12.7005 0.999985 12.9075V7.0918C0.419319 7.29893 0 7.84872 0 8.49969Z"/>
    </symbol>
    <symbol id="experts" viewBox="0 0 23 23" xmlns="http://www.w3.org/2000/svg">
        <path d="M11.5003 12.5455C14.9646 12.5455 17.773 9.73707 17.773 6.27273C17.773 2.8084 14.9646 0 11.5003 0C8.03594 0 5.22754 2.8084 5.22754 6.27273C5.22754 9.73707 8.03594 12.5455 11.5003 12.5455Z"/>
        <path d="M20.4272 15.9482C19.4389 15.4413 17.8646 14.7303 15.982 14.2223C15.7206 14.1488 15.445 14.2943 15.3541 14.5505L13.2115 20.528L12.5628 17.2836L13.5644 14.279C13.6175 14.1197 13.591 13.9441 13.4919 13.8078C13.3939 13.6715 13.2367 13.5908 13.0682 13.5908H9.93184C9.76336 13.5908 9.60615 13.6715 9.50814 13.8078C9.4091 13.9441 9.38254 14.1197 9.43566 14.279L10.4372 17.2836L9.78855 20.528L7.64597 14.5505C7.55511 14.2943 7.27843 14.1493 7.01806 14.2223C5.13541 14.7303 3.5611 15.4413 2.57285 15.9482C0.98624 16.763 0 18.3709 0 20.1438V20.909C0 22.0622 0.938263 23 2.09093 23H9.93184H13.0682H20.9091C22.0618 23 23 22.0622 23 20.909V20.1438C23 18.3709 22.0138 16.763 20.4272 15.9482Z"/>
    </symbol>
    <symbol id="history" viewBox="0 0 23 23" xmlns="http://www.w3.org/2000/svg">
        <path d="M20.8438 3.83327C20.8055 3.83327 20.7671 3.85258 20.7288 3.86205C20.6809 3.85258 20.6425 3.83327 20.6042 3.83327H19.6458V0.958275C19.6458 0.43132 19.2146 0 18.6875 0H4.3125C2.89413 0 1.71545 1.03496 1.4854 2.39577C1.45663 2.47246 1.4375 2.54914 1.4375 2.63548V20.3645C1.4375 21.8213 2.61617 23 4.07298 23H20.8438C21.2366 23 21.5625 22.6741 21.5625 22.2812V4.55202C21.5625 4.15913 21.2366 3.83327 20.8438 3.83327ZM11.5 19.6458C8.06909 19.6458 5.27077 16.8475 5.27077 13.4167C5.27077 9.98582 8.06909 7.1875 11.5 7.1875C14.9309 7.1875 17.7292 9.98582 17.7292 13.4167C17.7292 16.8475 14.9309 19.6458 11.5 19.6458ZM17.7292 3.83327H4.3125C3.78537 3.83327 3.35423 3.40213 3.35423 2.875C3.35423 2.34787 3.78537 1.91673 4.3125 1.91673H17.7292V3.83327Z"/>
        <path d="M12.9368 15.8125C12.6915 15.8125 12.4462 15.7186 12.2593 15.5317L10.8218 14.0942C10.6416 13.9151 10.541 13.6715 10.541 13.4167V10.5417C10.541 10.0118 10.9702 9.58325 11.4993 9.58325C12.0284 9.58325 12.4576 10.0118 12.4576 10.5417V13.02L13.6143 14.1767C13.9891 14.5513 13.9891 15.1569 13.6143 15.5317C13.4274 15.7186 13.1821 15.8125 12.9368 15.8125Z"/>
    </symbol>
    <symbol id="service" viewBox="0 0 23 23" xmlns="http://www.w3.org/2000/svg">
        <path d="M21.0833 4.79204H16.2917V3.83367C16.2917 2.77662 15.4321 1.91699 14.375 1.91699H8.625C7.56794 1.91699 6.70832 2.77657 6.70832 3.83367V4.79199H1.91668C0.85958 4.79204 0 5.65162 0 6.70867V9.58368C0 10.6408 0.85958 11.5004 1.91668 11.5004H9.58336V11.0212C9.58336 10.7563 9.79769 10.542 10.0625 10.542H12.9375C13.2024 10.542 13.4167 10.7563 13.4167 11.0212V11.5004H21.0834C22.1404 11.5004 23 10.6408 23 9.58368V6.70867C23 5.65162 22.1404 4.79204 21.0833 4.79204ZM14.375 4.79204H8.625V3.83367H14.375V4.79204Z"/>
        <path d="M22.7342 12.0174C22.5709 11.9365 22.3758 11.9552 22.2316 12.0647C21.891 12.3225 21.4941 12.4587 21.0833 12.4587H13.4167V13.8962C13.4167 14.161 13.2024 14.3754 12.9375 14.3754H10.0625C9.79764 14.3754 9.58332 14.161 9.58332 13.8962V12.4587H1.91668C1.50583 12.4587 1.10903 12.3225 0.768344 12.0647C0.62374 11.9542 0.429094 11.9355 0.265758 12.0174C0.102961 12.0984 0 12.2645 0 12.4465V19.167C0 20.2241 0.85958 21.0837 1.91668 21.0837H21.0834C22.1404 21.0837 23 20.2241 23 19.167V12.4465C23 12.2645 22.897 12.0984 22.7342 12.0174Z"/>
    </symbol>
    <symbol id="orders" viewBox="0 0 23 23" xmlns="http://www.w3.org/2000/svg">
        <path d="M17.4307 17.0908C15.9588 17.0908 14.7451 18.2787 14.7451 19.7764C14.7451 21.2483 15.933 22.462 17.4307 22.462C18.9026 22.462 20.1163 21.2741 20.1163 19.7764C20.0905 18.3045 18.9026 17.0908 17.4307 17.0908Z"/>
        <path d="M22.1561 4.28241C22.1044 4.28241 22.027 4.25659 21.9495 4.25659H5.68104L5.42281 2.52645C5.26788 1.39024 4.2866 0.538086 3.12457 0.538086H1.03292C0.464813 0.538086 0 1.0029 0 1.571C0 2.13911 0.464813 2.60392 1.03292 2.60392H3.12457C3.25369 2.60392 3.35698 2.70721 3.3828 2.83633L4.98382 13.7336C5.19041 15.1022 6.37826 16.1351 7.7727 16.1351H18.515C19.8578 16.1351 21.0199 15.1797 21.3039 13.8627L22.9824 5.47026C23.0857 4.92798 22.7242 4.3857 22.1561 4.28241Z"/>
        <path d="M10.8453 19.6473C10.7937 18.227 9.60581 17.0908 8.18555 17.0908C6.68782 17.1683 5.55161 18.4078 5.60326 19.8797C5.6549 21.3 6.81693 22.4362 8.23719 22.4362H8.28884C9.76075 22.3587 10.9228 21.1192 10.8453 19.6473Z"/>
    </symbol>
    <symbol id="bills" viewBox="0 0 23 23" xmlns="http://www.w3.org/2000/svg">
        <path d="M15.0938 1.4375H13.5326C13.2365 0.600875 12.4373 0 11.5 0C10.5628 0 9.7635 0.600875 9.46594 1.4375H7.90625C7.5095 1.4375 7.1875 1.7595 7.1875 2.15625V5.03125C7.1875 5.428 7.5095 5.75 7.90625 5.75H15.0938C15.4905 5.75 15.8125 5.428 15.8125 5.03125V2.15625C15.8125 1.7595 15.4905 1.4375 15.0938 1.4375Z"/>
        <path d="M18.6875 2.875H17.25V5.03125C17.25 6.22006 16.2826 7.1875 15.0938 7.1875H7.90625C6.71744 7.1875 5.75 6.22006 5.75 5.03125V2.875H4.3125C3.52044 2.875 2.875 3.52044 2.875 4.3125V21.5625C2.875 22.3689 3.50606 23 4.3125 23H18.6875C19.4939 23 20.125 22.3689 20.125 21.5625V4.3125C20.125 3.50606 19.4939 2.875 18.6875 2.875ZM11.2901 15.6026L8.41512 18.4776C8.27425 18.6171 8.09025 18.6875 7.90625 18.6875C7.72225 18.6875 7.53825 18.6171 7.39738 18.4776L5.95987 17.0401C5.67956 16.7598 5.67956 16.3041 5.95987 16.0238C6.24019 15.7435 6.69588 15.7435 6.97619 16.0238L7.90625 16.9524L10.2724 14.5863C10.5527 14.306 11.0084 14.306 11.2887 14.5863C11.569 14.8666 11.5704 15.3209 11.2901 15.6026ZM11.2901 9.85262L8.41512 12.7276C8.27425 12.8671 8.09025 12.9375 7.90625 12.9375C7.72225 12.9375 7.53825 12.8671 7.39738 12.7276L5.95987 11.2901C5.67956 11.0098 5.67956 10.5541 5.95987 10.2738C6.24019 9.9935 6.69588 9.9935 6.97619 10.2738L7.90625 11.2024L10.2724 8.83631C10.5527 8.556 11.0084 8.556 11.2887 8.83631C11.569 9.11662 11.5704 9.57088 11.2901 9.85262ZM16.5312 17.25H13.6562C13.2595 17.25 12.9375 16.928 12.9375 16.5312C12.9375 16.1345 13.2595 15.8125 13.6562 15.8125H16.5312C16.928 15.8125 17.25 16.1345 17.25 16.5312C17.25 16.928 16.928 17.25 16.5312 17.25ZM16.5312 11.5H13.6562C13.2595 11.5 12.9375 11.178 12.9375 10.7812C12.9375 10.3845 13.2595 10.0625 13.6562 10.0625H16.5312C16.928 10.0625 17.25 10.3845 17.25 10.7812C17.25 11.178 16.928 11.5 16.5312 11.5Z"/>
    </symbol>
    <symbol id="reviews" viewBox="0 0 23 23" xmlns="http://www.w3.org/2000/svg">
        <path d="M13.6195 18.0861C12.19 18.0861 10.8015 17.8356 9.4924 17.3416C8.2198 16.8614 7.07488 16.172 6.08929 15.2928C5.09266 14.4036 4.30846 13.3645 3.75843 12.2042C3.54151 11.7467 3.36501 11.2782 3.22916 10.8008C1.28656 11.9168 0 13.8633 0 16.078C0 17.941 0.910701 19.614 2.3562 20.7628C1.99804 21.3515 1.50713 21.8068 1.09048 22.1226C0.773734 22.3627 0.898258 22.8608 1.29034 22.926C1.58844 22.9755 1.88703 23 2.18239 23C3.23914 23 4.25217 22.687 5.03314 22.0931C5.66627 22.2602 6.33641 22.3503 7.03027 22.3503C10.1262 22.3503 12.7546 20.5649 13.6928 18.0852C13.6684 18.0853 13.6439 18.0861 13.6195 18.0861Z"/>
        <path d="M21.8111 16.628C21.2102 16.2089 20.4132 15.5353 19.8564 14.6201C21.7851 13.0873 23.0002 10.8551 23.0002 8.36922C23.0002 3.74702 18.8005 0 13.6198 0C8.43905 0 4.23926 3.74702 4.23926 8.36922C4.23926 12.9914 8.43905 16.7384 13.6198 16.7384C14.5455 16.7384 15.4398 16.6182 16.2845 16.3953C17.3266 17.1876 18.6782 17.6053 20.0883 17.6053C20.6041 17.6053 21.1275 17.5494 21.6467 17.4356C22.0307 17.3514 22.1336 16.8529 21.8111 16.628ZM14.8325 5.3732C14.8325 5.00106 15.1342 4.69937 15.5063 4.69937C15.8784 4.69937 16.1801 5.00106 16.1801 5.3732V7.06675C16.1801 7.43888 15.8784 7.74058 15.5063 7.74058C15.1342 7.74058 14.8325 7.43888 14.8325 7.06675V5.3732ZM10.7679 5.35204C10.7679 4.9799 11.0696 4.67821 11.4417 4.67821C11.8138 4.67821 12.1155 4.9799 12.1155 5.35204V7.04559C12.1155 7.41772 11.8138 7.71942 11.4417 7.71942C11.0696 7.71942 10.7679 7.41772 10.7679 7.04559V5.35204ZM17.7414 11.7416C16.6295 12.6562 15.1591 13.16 13.601 13.16C12.043 13.16 10.5725 12.6562 9.46066 11.7416C8.31053 10.7956 7.67717 9.52636 7.67717 8.16756C7.67717 7.79543 7.97887 7.49373 8.351 7.49373C8.72313 7.49373 9.02483 7.79543 9.02483 8.16756C9.02483 10.1773 11.0777 11.8123 13.601 11.8123C16.1244 11.8123 18.1772 10.1773 18.1772 8.16756C18.1772 7.79543 18.4789 7.49373 18.851 7.49373C19.2232 7.49373 19.5249 7.79543 19.5249 8.16756C19.5249 9.52631 18.8915 10.7956 17.7414 11.7416Z"/>
    </symbol>
    <symbol id="learning" viewBox="0 0 23 23" xmlns="http://www.w3.org/2000/svg">
        <path d="M3.51807 0.714111C3.51745 0.714111 3.51675 0.714111 3.51613 0.714111C3.2986 0.714111 3.094 0.79891 2.9395 0.953018C2.7833 1.10883 2.69727 1.3163 2.69727 1.53716V13.8786C2.69727 14.3312 3.06689 14.7003 3.52132 14.7014C5.43707 14.706 8.6467 15.1053 10.8609 17.4224V4.50672C10.8609 4.35331 10.8217 4.20919 10.7478 4.08993C8.93045 1.16327 5.43815 0.718603 3.51807 0.714111Z"/>
        <path d="M20.3022 13.8787V1.53716C20.3022 1.31629 20.2162 1.10883 20.06 0.953018C19.9055 0.79891 19.7007 0.714111 19.4834 0.714111C19.4827 0.714111 19.482 0.714111 19.4814 0.714111C17.5614 0.71868 14.0691 1.16335 12.2517 4.09001C12.1778 4.20927 12.1387 4.35339 12.1387 4.5068V17.4224C14.3529 15.1053 17.5625 14.706 19.4783 14.7014C19.9326 14.7002 20.3022 14.3312 20.3022 13.8787Z"/>
        <path d="M22.1766 3.5603H21.5799V13.8787C21.5799 15.0342 20.6384 15.9764 19.4811 15.9793C17.8562 15.9831 15.1768 16.3009 13.2793 18.0968C16.5611 17.2933 20.0207 17.8156 21.9924 18.2649C22.2386 18.321 22.493 18.2631 22.6902 18.1059C22.8868 17.9491 22.9995 17.7146 22.9995 17.463V4.38319C22.9996 3.92947 22.6304 3.5603 22.1766 3.5603Z"/>
        <path d="M1.41965 13.8787V3.5603H0.822892C0.36924 3.5603 0 3.92947 0 4.38319V17.4628C0 17.7145 0.112755 17.9488 0.309301 18.1056C0.506389 18.2628 0.760551 18.3209 1.00712 18.2647C2.97878 17.8153 6.43847 17.2931 9.72013 18.0966C7.82266 16.3007 5.14334 15.9831 3.51839 15.9792C2.36119 15.9764 1.41965 15.0342 1.41965 13.8787Z"/>
    </symbol>
    <symbol id="team" viewBox="0 0 23 23" xmlns="http://www.w3.org/2000/svg">
        <path d="M19.6801 12.2783H17.9014C18.0827 12.7747 18.1817 13.3104 18.1817 13.8687V20.5913C18.1817 20.8241 18.1412 21.0475 18.0675 21.2553H21.0081C22.1066 21.2553 23.0002 20.3617 23.0002 19.2632V15.5985C23.0002 13.7678 21.5108 12.2783 19.6801 12.2783Z"/>
        <path d="M4.81855 13.8687C4.81855 13.3104 4.91761 12.7747 5.09891 12.2783H3.32018C1.48943 12.2783 0 13.7678 0 15.5985V19.2633C0 20.3617 0.893633 21.2554 1.99211 21.2554H4.93279C4.85907 21.0475 4.81855 20.8241 4.81855 20.5913V13.8687Z"/>
        <path d="M13.5331 10.5488H9.46666C7.63591 10.5488 6.14648 12.0383 6.14648 13.869V20.5916C6.14648 20.9583 6.44378 21.2556 6.81052 21.2556H16.1892C16.556 21.2556 16.8533 20.9583 16.8533 20.5916V13.869C16.8533 12.0383 15.3638 10.5488 13.5331 10.5488Z"/>
        <path d="M11.4998 1.74512C9.29805 1.74512 7.50684 3.53634 7.50684 5.7381C7.50684 7.23153 8.33111 8.53584 9.5484 9.22063C10.1258 9.54541 10.7914 9.73103 11.4998 9.73103C12.2081 9.73103 12.8737 9.54541 13.4511 9.22063C14.6685 8.53584 15.4927 7.23148 15.4927 5.7381C15.4927 3.53638 13.7015 1.74512 11.4998 1.74512Z"/>
        <path d="M4.48814 5.4668C2.84153 5.4668 1.50195 6.80637 1.50195 8.45298C1.50195 10.0996 2.84153 11.4392 4.48814 11.4392C4.90582 11.4392 5.30356 11.3527 5.66487 11.1971C6.28956 10.9282 6.80463 10.4521 7.12335 9.85576C7.34706 9.43722 7.47433 8.95975 7.47433 8.45298C7.47433 6.80641 6.13475 5.4668 4.48814 5.4668Z"/>
        <path d="M18.5116 5.4668C16.865 5.4668 15.5254 6.80637 15.5254 8.45298C15.5254 8.95979 15.6527 9.43727 15.8764 9.85576C16.1951 10.4521 16.7102 10.9282 17.3348 11.1971C17.6962 11.3527 18.0939 11.4392 18.5116 11.4392C20.1582 11.4392 21.4978 10.0996 21.4978 8.45298C21.4978 6.80637 20.1582 5.4668 18.5116 5.4668Z"/>
    </symbol>
    <symbol id="news" viewBox="0 0 23 23" xmlns="http://www.w3.org/2000/svg">
        <path d="M20.3047 4.78979C20.3047 3.90872 19.739 3.14435 18.957 2.85938V14.8691H20.3047C20.3047 14.451 20.3047 5.25427 20.3047 4.78979Z"/>
        <path d="M22.3262 6.7832H21.6523V15.543C21.6523 15.9152 21.3507 16.2168 20.9785 16.2168H18.957V18.1937C18.957 19.3443 19.8893 20.2826 21.0199 20.2594C22.1117 20.2375 23 19.3308 23 18.2383V7.45703C23 7.08485 22.6984 6.7832 22.3262 6.7832Z"/>
        <path d="M17.6094 2.74023H2.02148C0.905106 2.74023 0 3.64534 0 4.76172V16.8906C0 18.7514 1.50839 20.2598 3.36914 20.2598H18.3009C17.8571 19.6682 17.6094 18.9386 17.6094 18.1937V2.74023ZM9.52344 16.8906C9.52344 17.2628 9.22179 17.5645 8.84961 17.5645H3.41406C3.04188 17.5645 2.74023 17.2628 2.74023 16.8906V11.5C2.74023 11.1278 3.04188 10.8262 3.41406 10.8262H8.84961C9.22179 10.8262 9.52344 11.1278 9.52344 11.5V16.8906ZM14.2402 17.5645H11.5C11.1278 17.5645 10.8262 17.2628 10.8262 16.8906C10.8262 16.5184 11.1278 16.2168 11.5 16.2168H14.2402C14.6124 16.2168 14.9141 16.5184 14.9141 16.8906C14.9141 17.2628 14.6124 17.5645 14.2402 17.5645ZM14.2402 14.8691H11.5C11.1278 14.8691 10.8262 14.5675 10.8262 14.1953C10.8262 13.8231 11.1278 13.5215 11.5 13.5215H14.2402C14.6124 13.5215 14.9141 13.8231 14.9141 14.1953C14.9141 14.5675 14.6124 14.8691 14.2402 14.8691ZM14.2402 12.1738H11.5C11.1278 12.1738 10.8262 11.8722 10.8262 11.5C10.8262 11.1278 11.1278 10.8262 11.5 10.8262H14.2402C14.6124 10.8262 14.9141 11.1278 14.9141 11.5C14.9141 11.8722 14.6124 12.1738 14.2402 12.1738ZM14.2402 9.47852H3.36914C2.99696 9.47852 2.69531 9.17687 2.69531 8.80469C2.69531 8.4325 2.99696 8.13086 3.36914 8.13086H14.2402C14.6124 8.13086 14.9141 8.4325 14.9141 8.80469C14.9141 9.17687 14.6124 9.47852 14.2402 9.47852ZM14.2402 6.7832H3.36914C2.99696 6.7832 2.69531 6.48156 2.69531 6.10938C2.69531 5.73719 2.99696 5.43555 3.36914 5.43555H14.2402C14.6124 5.43555 14.9141 5.73719 14.9141 6.10938C14.9141 6.48156 14.6124 6.7832 14.2402 6.7832Z"/>
        <path d="M4.08789 12.1738H8.17578V16.2168H4.08789V12.1738Z"/>
    </symbol>
    <symbol id="menu" viewBox="0 0 23 23" xmlns="http://www.w3.org/2000/svg">
        <rect width="23" height="3.53846" rx="1.76923"/>
        <rect y="19.4619" width="23" height="3.53846" rx="1.76923"/>
        <rect y="9.73047" width="14.1538" height="3.53846" rx="1.76923"/>
    </symbol>
    <symbol id="users" viewBox="0 0 23 23" xmlns="http://www.w3.org/2000/svg">
        <path d="M19.6801 12.2783H17.9014C18.0827 12.7747 18.1817 13.3104 18.1817 13.8687V20.5913C18.1817 20.8241 18.1412 21.0475 18.0675 21.2553H21.0081C22.1066 21.2553 23.0002 20.3617 23.0002 19.2632V15.5985C23.0002 13.7678 21.5108 12.2783 19.6801 12.2783Z"/>
        <path d="M4.81855 13.8687C4.81855 13.3104 4.91761 12.7747 5.09891 12.2783H3.32018C1.48943 12.2783 0 13.7678 0 15.5985V19.2633C0 20.3617 0.893633 21.2554 1.99211 21.2554H4.93279C4.85907 21.0475 4.81855 20.8241 4.81855 20.5913V13.8687Z"/>
        <path d="M13.5331 10.5488H9.46666C7.63591 10.5488 6.14648 12.0383 6.14648 13.869V20.5916C6.14648 20.9583 6.44378 21.2556 6.81052 21.2556H16.1892C16.556 21.2556 16.8533 20.9583 16.8533 20.5916V13.869C16.8533 12.0383 15.3638 10.5488 13.5331 10.5488Z"/>
        <path d="M11.4998 1.74512C9.29805 1.74512 7.50684 3.53634 7.50684 5.7381C7.50684 7.23153 8.33111 8.53584 9.5484 9.22063C10.1258 9.54541 10.7914 9.73103 11.4998 9.73103C12.2081 9.73103 12.8737 9.54541 13.4511 9.22063C14.6685 8.53584 15.4927 7.23148 15.4927 5.7381C15.4927 3.53638 13.7015 1.74512 11.4998 1.74512Z"/>
        <path d="M4.48814 5.4668C2.84153 5.4668 1.50195 6.80637 1.50195 8.45298C1.50195 10.0996 2.84153 11.4392 4.48814 11.4392C4.90582 11.4392 5.30356 11.3527 5.66487 11.1971C6.28956 10.9282 6.80463 10.4521 7.12335 9.85576C7.34706 9.43722 7.47433 8.95975 7.47433 8.45298C7.47433 6.80641 6.13475 5.4668 4.48814 5.4668Z"/>
        <path d="M18.5116 5.4668C16.865 5.4668 15.5254 6.80637 15.5254 8.45298C15.5254 8.95979 15.6527 9.43727 15.8764 9.85576C16.1951 10.4521 16.7102 10.9282 17.3348 11.1971C17.6962 11.3527 18.0939 11.4392 18.5116 11.4392C20.1582 11.4392 21.4978 10.0996 21.4978 8.45298C21.4978 6.80637 20.1582 5.4668 18.5116 5.4668Z"/>
    </symbol>
</svg>
