<?xml version="1.0" encoding="utf-8"?>
<svg version="1.1" id="Слой_1" xmlns="http://www.w3.org/2000/svg" xmlns:xlink="http://www.w3.org/1999/xlink" x="0px" y="0px" viewBox="0 0 306.8 60.8" enable-background="new 0 0 306.8 60.8" xml:space="preserve">
	<symbol id="check" viewBox="0 0 16 16" xmlns="http://www.w3.org/2000/svg">
        <path d="M15.7657 2.35921C15.4533 2.04677 14.9468 2.04677 14.6343 2.35921L5.04983 11.9438L1.3657 8.25968C1.0533 7.94724 0.546797 7.94727 0.234328 8.25968C-0.0781094 8.57208 -0.0781094 9.07858 0.234328 9.39102L4.48414 13.6408C4.79645 13.9532 5.30333 13.953 5.61552 13.6408L15.7657 3.49058C16.0781 3.17818 16.0781 2.67164 15.7657 2.35921Z"/>
    </symbol>
	<symbol id="close" viewBox="0 0 13 13" xmlns="http://www.w3.org/2000/svg">
        <path d="M7.26194 6.50378L12.8345 0.931216C13.0496 0.723498 13.0556 0.38077 12.8478 0.165692C12.6401 -0.049385 12.2974 -0.0553488 12.0823 0.152369C12.0778 0.156715 12.0734 0.161156 12.069 0.165692L6.49638 5.73826L0.923805 0.165661C0.708727 -0.0420571 0.365999 -0.0360933 0.15828 0.178984C-0.044362 0.388796 -0.044362 0.721404 0.15828 0.931216L5.73085 6.50378L0.15828 12.0763C-0.0530857 12.2877 -0.0530857 12.6305 0.15828 12.8419C0.369678 13.0532 0.712407 13.0532 0.923805 12.8419L6.49638 7.26931L12.069 12.8419C12.284 13.0496 12.6268 13.0436 12.8345 12.8285C13.0371 12.6187 13.0371 12.2861 12.8345 12.0763L7.26194 6.50378Z"/>
    </symbol>
    <symbol id="warning" viewBox="0 0 36 36" xmlns="http://www.w3.org/2000/svg">
        <path d="M35.2512 25.9502L22.5397 4.65935C21.5788 3.0416 19.8816 2.07544 17.9999 2.07544C16.1182 2.07544 14.421 3.0416 13.46 4.65935L0.749684 25.9502C-0.231878 27.602 -0.250441 29.5858 0.699129 31.2561C1.65088 32.9275 3.36552 33.9245 5.28843 33.9245H30.7113C32.6342 33.9245 34.349 32.9275 35.3006 31.2561C36.2503 29.5858 36.2318 27.602 35.2512 25.9502ZM17.9999 8.58476C19.1662 8.58476 20.1116 9.53011 20.1116 10.6964V19.143C20.1116 20.3092 19.1662 21.2546 17.9999 21.2546C16.8337 21.2546 15.8883 20.3091 15.8883 19.143V10.6964C15.8882 9.53011 16.8337 8.58476 17.9999 8.58476ZM17.9999 29.7012C16.2533 29.7012 14.8324 28.2803 14.8324 26.5337C14.8324 24.7871 16.2533 23.3662 17.9999 23.3662C19.7466 23.3662 21.1674 24.7871 21.1674 26.5337C21.1674 28.2804 19.7466 29.7012 17.9999 29.7012Z"/>
    </symbol>

    <symbol id="service" viewBox="0 0 15 15" xmlns="http://www.w3.org/2000/svg">
        <path d="M13.5038 3.40346H10.2732V2.10168C10.2732 1.48184 9.76891 0.9776 9.14907 0.9776H5.8507C5.23086 0.9776 4.72658 1.48184 4.72658 2.10168V3.40346H1.496C0.673024 3.40346 0.00346605 4.07302 0.00346605 4.89599C0.00346605 5.64353 -0.0730914 6.31488 0.493398 7.06986C0.81391 7.49701 1.25436 7.80172 1.76712 7.951L6.7463 9.40071C7.23924 9.54422 7.76038 9.54428 8.25341 9.40071L13.2326 7.951C13.7453 7.80169 14.1858 7.49701 14.5063 7.06986C15.0754 6.31149 14.9962 5.63324 14.9962 4.89599C14.9963 4.07302 14.3267 3.40346 13.5038 3.40346ZM5.67872 2.10168C5.67872 2.00686 5.75587 1.92973 5.8507 1.92973H9.14907C9.24389 1.92973 9.32105 2.00689 9.32105 2.10168V3.40346H5.67872V2.10168Z"/>
        <path d="M13.4988 8.86514C8.12812 10.4288 8.19766 10.4605 7.49986 10.4605C6.80707 10.4605 6.97143 10.4579 1.50098 8.86517C0.924192 8.6972 0.413372 8.38764 0.003479 7.96088V12.5298C0.003479 13.3528 0.673007 14.0223 1.49601 14.0223H13.5037C14.3267 14.0223 14.9963 13.3528 14.9963 12.5298V7.96088C14.5864 8.38761 14.0755 8.6972 13.4988 8.86514Z"/>
    </symbol>
    <symbol id="profile" viewBox="0 0 15 15" xmlns="http://www.w3.org/2000/svg">
        <path d="M7.5 0C5.31917 0 3.54492 1.77425 3.54492 3.95508C3.54492 6.13591 5.31917 7.91016 7.5 7.91016C9.68083 7.91016 11.4551 6.13591 11.4551 3.95508C11.4551 1.77425 9.68083 0 7.5 0Z"/>
        <path d="M12.4209 10.494C11.3381 9.39454 9.90261 8.78906 8.37891 8.78906H6.62109C5.09742 8.78906 3.66193 9.39454 2.57912 10.494C1.50161 11.5881 0.908203 13.0322 0.908203 14.5605C0.908203 14.8032 1.10496 15 1.34766 15H13.6523C13.895 15 14.0918 14.8032 14.0918 14.5605C14.0918 13.0322 13.4984 11.5881 12.4209 10.494Z"/>
    </symbol>
    <symbol id="setting" viewBox="0 0 15 16" xmlns="http://www.w3.org/2000/svg">
        <path d="M14.5506 9.75334L13.1718 8.60334C13.1893 8.426 13.2043 8.21869 13.2043 7.99934C13.2043 7.78 13.1899 7.57269 13.1718 7.39534L14.5518 6.24469C14.8081 6.02869 14.8781 5.64534 14.7149 5.32603L13.2812 2.68C13.1281 2.38134 12.7924 2.228 12.4518 2.362L10.8249 3.05866C10.5131 2.81866 10.1862 2.616 9.84806 2.454L9.60056 0.613344C9.55993 0.264 9.27493 0 8.93807 0H6.06308C5.7262 0 5.44184 0.264 5.40182 0.608L5.15371 2.45534C4.8262 2.61269 4.50434 2.81269 4.17871 3.06L2.54746 2.36134C2.2418 2.23534 1.87618 2.37666 1.7243 2.674L0.288696 5.32334C0.119331 5.62869 0.189321 6.02534 0.451206 6.24669L1.82995 7.39669C1.80806 7.62134 1.79746 7.81669 1.79746 8.00003C1.79746 8.18338 1.80809 8.37869 1.82995 8.60403L0.449946 9.75469C0.193686 9.97134 0.124311 10.3547 0.287436 10.6733L1.7212 13.3193C1.87433 13.6173 2.20682 13.772 2.55056 13.6373L4.17745 12.9407C4.4887 13.18 4.81556 13.3827 5.15371 13.5453L5.40121 15.3853C5.44181 15.736 5.7262 16 6.0637 16H8.93869C9.27557 16 9.56057 15.736 9.60056 15.392L9.84868 13.5453C10.1762 13.3873 10.4974 13.188 10.8237 12.94L12.4549 13.6387C12.5337 13.6713 12.6156 13.688 12.6999 13.688C12.9424 13.688 13.1656 13.5467 13.2781 13.3267L14.7181 10.6667C14.8781 10.3547 14.8081 9.97134 14.5506 9.75334ZM7.50056 10.6667C6.12182 10.6667 5.00057 9.47066 5.00057 8C5.00057 6.52934 6.12182 5.33334 7.50056 5.33334C8.8793 5.33334 10.0006 6.52934 10.0006 8C10.0006 9.47066 8.8793 10.6667 7.50056 10.6667Z"/>
    </symbol>
    <symbol id="logout" viewBox="0 0 15 15" xmlns="http://www.w3.org/2000/svg">
        <path d="M7.4751 13.7292H1.86876C1.5249 13.7292 1.24585 13.4501 1.24585 13.1063V1.89366C1.24585 1.5498 1.52493 1.27075 1.86876 1.27075H7.4751C7.81957 1.27075 8.09801 0.992313 8.09801 0.647841C8.09801 0.303368 7.81957 0.0248718 7.4751 0.0248718H1.86876C0.838447 0.0248718 0 0.863348 0 1.89366V13.1063C0 14.1366 0.838447 14.975 1.86876 14.975H7.4751C7.81957 14.975 8.09801 14.6966 8.09801 14.3521C8.09801 14.0077 7.81957 13.7292 7.4751 13.7292Z"/>
        <path d="M14.8144 7.05644L11.027 3.31889C10.7828 3.07719 10.3879 3.08033 10.1462 3.32513C9.90448 3.56994 9.90697 3.96424 10.1524 4.20594L12.859 6.87703H5.60631C5.26184 6.87703 4.9834 7.15546 4.9834 7.49994C4.9834 7.84441 5.26184 8.12288 5.60631 8.12288H12.859L10.1524 10.794C9.907 11.0357 9.90513 11.43 10.1462 11.6748C10.2683 11.7981 10.429 11.8604 10.5897 11.8604C10.7479 11.8604 10.9061 11.8006 11.027 11.681L14.8144 7.94343C14.9327 7.82633 15 7.66684 15 7.49991C15 7.33303 14.9334 7.17419 14.8144 7.05644Z"/>
    </symbol>

    <symbol id="arrow" viewBox="0 0 17 14" xmlns="http://www.w3.org/2000/svg">
        <path d="M1.1875 7.81233L14.9028 7.81233L9.65097 12.8146C9.37597 13.0765 9.36531 13.5117 9.62725 13.7867C9.88884 14.0614 10.324 14.0724 10.5994 13.8104L16.5971 8.0973C16.8567 7.83743 17 7.4923 17 7.12483C17 6.75771 16.8567 6.41224 16.5851 6.14102L10.599 0.439582C10.466 0.312738 10.2955 0.249833 10.125 0.249833C9.9435 0.249833 9.762 0.321333 9.6269 0.463301C9.36497 0.738301 9.37562 1.17315 9.65062 1.43508L14.9244 6.43733L1.1875 6.43733C0.807996 6.43733 0.499996 6.74533 0.499996 7.12483C0.499996 7.50433 0.807996 7.81233 1.1875 7.81233Z"/>
    </symbol>

    <symbol id="pdf" xmlns="http://www.w3.org/2000/svg" viewBox="0 0 512 512">
        <path d="M94.68,0c-17.6,0-32,14.4-32,32v448c0,17.6,14.4,32,32,32h322.64c17.6,0,32-14.4,32-32V111.216L338.152,0H94.68z"/>
        <polygon style="fill:#80bdff;" points="338.104,111.2 449.304,111.2 338.152,0 338.104,0 "/>
        <polygon style="fill:#80bdff;" points="62.68,388.576 62.68,310.56 152.792,310.56 	"/>
        <rect x="62.68" y="302.56" style="fill:#80bdff" width="386.56" height="8"/>
        <rect x="62.68" y="435.52" style="fill:#80bdff" width="386.56" height="8"/>
        <path style="fill:#007bff;" d="M161.672,410.352v-74.656h30.08h3.712c10.096,0,16.912,1.76,20.416,5.28
		c3.52,3.52,5.28,10.32,5.28,20.368c0,9.984-1.68,16.624-5.024,19.904s-10.128,4.928-20.336,4.928l-3.28,0.048h-16.672v24.128
		H161.672z M175.832,374.336h16.128c6.416,0,10.496-0.752,12.224-2.224c1.728-1.488,2.608-4.976,2.608-10.464
		c0-6.32-0.72-10.224-2.16-11.728c-1.44-1.52-5.184-2.272-11.232-2.272h-17.552v26.688H175.832z"/>
        <path style="fill:#007bff;" d="M230.184,410.352v-74.656h36.688c10.432,0,17.728,2.288,21.904,6.848s6.272,12.544,6.272,23.952
		c0,18.624-1.68,30.592-5.024,35.904c-3.36,5.296-10.928,7.952-22.704,7.952L230.184,410.352L230.184,410.352z M244.344,398.432
		h20.176c6.784,0,11.168-1.568,13.168-4.672c1.984-3.12,2.976-10,2.976-20.656c0-11.008-0.896-18-2.672-20.992
		c-1.792-2.992-5.984-4.464-12.592-4.464h-21.056V398.432z"/>
        <path style="fill:#007bff;" d="M319.56,347.648v20.128h33.456v11.904H319.56v30.688h-14.176v-74.656h49.44v11.936L319.56,347.648
		L319.56,347.648z"/>
    </symbol>
    <symbol id="logo" xmlns="http://www.w3.org/2000/svg" viewBox="0 0 3636.63 372.7">
        <path class="fil0" d="M168.83 300.02l-46.56 0 0 -35.2c-36.85,0 -66.5,-9.09 -88.96,-27.26 -22.21,-18.42 -33.31,-44.03 -33.31,-76.84 0,-32.55 11.11,-57.92 33.31,-76.09 22.46,-18.42 52.11,-27.76 88.96,-28.02l0 -27.63 46.56 0 0 27.63c36.59,0.25 66.12,9.72 88.58,28.39 22.46,18.68 33.69,43.91 33.69,75.71 0,32.3 -11.23,57.79 -33.69,76.47 -22.21,17.92 -51.73,27.13 -88.58,27.63l0 35.2zm73.06 -139.3c0,-18.68 -6.31,-33.5 -18.93,-44.48 -12.62,-10.98 -30.66,-16.6 -54.13,-16.85l0 122.65c48.71,-0.25 73.06,-20.7 73.06,-61.32zm-192.68 0c0,19.69 6.31,34.76 18.93,45.24 12.62,10.47 30.66,15.83 54.13,16.09l0 -122.65c-23.22,0.25 -41.2,5.87 -53.94,16.85 -12.75,10.98 -19.12,25.8 -19.12,44.48zm402.39 28.39l-79.49 107.88 -43.53 0 0 -170.34 43.53 0 0 107.88 79.49 -107.88 43.53 0 0 170.34 -43.53 0 0 -107.88zm253.62 107.88l-43.53 0 0 -65.11 -74.58 0 0 65.11 -43.53 0 0 -170.34 43.53 0 0 64.35 74.58 0 0 -64.35 43.53 0 0 170.34zm61.7 -126.43l-10.98 -31.8c18.42,-10.85 38.49,-16.27 60.19,-16.27 23.72,0 41.01,5.8 51.86,17.41 10.85,11.61 16.28,29.4 16.28,53.37l0 103.72 -37.86 0 0 -19.69c-10.1,14.64 -26.87,21.96 -50.35,21.96 -16.15,0 -29.08,-4.73 -38.8,-14.2 -9.72,-9.47 -14.58,-22.14 -14.58,-38.04 0,-17.66 5.68,-31.29 17.03,-40.88 11.36,-9.59 26.37,-14.38 45.05,-14.38 15.39,0 28.27,3.66 38.61,10.98 0.51,-15.14 -1.7,-26.24 -6.63,-33.31 -4.92,-7.06 -13.31,-10.6 -25.17,-10.6 -13.12,0 -28.02,3.91 -44.67,11.73zm43.53 91.99c14.64,0 25.61,-5.17 32.93,-15.52l0 -17.41c-7.07,-5.55 -17.03,-8.32 -29.91,-8.32 -8.07,0 -14.64,1.89 -19.69,5.68 -5.05,3.78 -7.57,8.96 -7.57,15.52 0,6.06 2.27,10.91 6.81,14.58 4.54,3.66 10.35,5.49 17.41,5.49zm280.12 34.45l-43.53 0 0 -65.11 -74.58 0 0 65.11 -43.53 0 0 -170.34 43.53 0 0 64.35 74.58 0 0 -64.35 43.53 0 0 170.34zm177.54 -57.16l20.44 31.8c-14.38,19.69 -36.97,29.53 -67.76,29.53 -27.51,0 -49.84,-8.2 -67,-24.6 -16.91,-16.15 -25.36,-37.73 -25.36,-64.73 0,-25.49 8.33,-46.69 24.98,-63.6 16.65,-17.16 37.73,-25.74 63.22,-25.74 30.29,0 53.12,7.69 68.52,23.09l-20.44 34.45c-11.61,-11.11 -25.74,-16.65 -42.4,-16.65 -12.62,0 -23.72,4.54 -33.31,13.63 -9.34,8.58 -14.01,20.19 -14.01,34.82 0,14.64 4.8,26.5 14.38,35.58 10.1,8.83 21.71,13.25 34.83,13.25 16.91,0 31.54,-6.94 43.91,-20.82zm60.95 36.34c-16.91,-16.9 -25.36,-38.36 -25.36,-64.35 0,-25.99 8.45,-47.32 25.36,-63.98 16.9,-16.91 39.37,-25.36 67.38,-25.36 27.76,0 50.1,8.45 67,25.36 17.16,16.66 25.74,37.98 25.74,63.98 0,25.74 -8.58,47.19 -25.74,64.35 -17.16,16.66 -39.49,24.98 -67,24.98 -28.01,0 -50.47,-8.32 -67.38,-24.98zm34.44 -99.18c-8.83,9.09 -13.25,20.69 -13.25,34.82 0,14.13 4.35,25.8 13.06,35.02 8.7,9.21 19.75,13.82 33.12,13.82 13.63,0 24.8,-4.54 33.5,-13.63 8.71,-9.09 13.06,-20.82 13.06,-35.2 0,-14.13 -4.41,-25.74 -13.25,-34.82 -8.83,-9.09 -19.94,-13.63 -33.31,-13.63 -13.12,0 -24.1,4.54 -32.93,13.63zm163.53 120l0 -170.34c2.27,0 11.92,-0.32 28.96,-0.95 17.03,-0.63 29.71,-0.94 38.04,-0.94 51.48,0 77.22,14.89 77.22,44.66 0,9.59 -3.03,17.98 -9.09,25.18 -6.06,7.19 -13.63,11.42 -22.71,12.68l0 0.76c24.22,5.8 36.34,18.93 36.34,39.37 0,34.32 -27,51.48 -81.01,51.48 -7.82,0 -19.81,-0.38 -35.96,-1.14 -4.04,0 -8.65,-0.06 -13.82,-0.19 -5.17,-0.13 -9.09,-0.25 -11.73,-0.38 -2.65,-0.13 -4.73,-0.19 -6.25,-0.19zm70.78 -72.3l-27.26 0 0 37.85c15.14,1.01 24.73,1.52 28.77,1.52 9.59,0 17.1,-1.77 22.52,-5.3 5.42,-3.54 8.14,-8.33 8.14,-14.39 0,-13.12 -10.73,-19.68 -32.18,-19.68zm0 -64.73c-10.09,0 -19.18,0.25 -27.26,0.76l0 37.48 28.39 0c7.82,0 14.13,-1.77 18.93,-5.3 4.79,-3.54 7.19,-8.33 7.19,-14.39 0,-12.37 -9.09,-18.55 -27.26,-18.55zm180.57 137.03l-61.32 0 0 -170.34 43.53 0 0 46.56 21.2 0c25.49,0 44.35,5.3 56.59,15.9 12.24,10.6 18.36,24.98 18.36,43.15 0,19.43 -6.56,35.08 -19.69,46.94 -13.12,11.86 -32.68,17.79 -58.67,17.79zm146.12 0l-43.53 0 0 -170.34 43.53 0 0 170.34zm-146.5 -88.96l-17.41 0 0 51.1 17.03 0c21.96,0 32.93,-8.45 32.93,-25.36 0,-17.16 -10.85,-25.74 -32.55,-25.74zm317.98 -18.93l-79.49 107.88 -43.53 0 0 -170.34 43.53 0 0 107.88 79.49 -107.88 43.53 0 0 170.34 -43.53 0 0 -107.88zm-97.66 -147.63l39.75 0c0,8.32 1.64,15.01 4.92,20.06 3.28,5.05 8.2,7.57 14.76,7.57 5.8,0 10.28,-2.58 13.44,-7.76 3.15,-5.17 4.73,-11.8 4.73,-19.87l39.75 0c0,17.66 -5.17,31.86 -15.52,42.59 -10.35,10.73 -24.48,16.09 -42.4,16.09 -19.69,0 -34.51,-5.24 -44.48,-15.71 -9.97,-10.47 -14.96,-24.79 -14.96,-42.96zm374.76 183.97l-76.09 0 0 -29.15 75.71 0c-2.78,-11.61 -8.52,-20.51 -17.23,-26.69 -8.7,-6.18 -19.24,-9.28 -31.61,-9.28 -16.15,0 -32.43,5.93 -48.83,17.79l-17.79 -30.29c7.32,-8.07 17.1,-14.32 29.34,-18.74 12.24,-4.42 24.42,-6.62 36.53,-6.62 29.28,0 52.37,8.07 69.27,24.22 17.16,16.4 25.74,38.11 25.74,65.11 0,25.49 -8.2,46.81 -24.61,63.98 -16.15,16.9 -38.23,25.36 -66.24,25.36 -31.04,0 -54.64,-8.45 -70.79,-25.36l20.44 -28.77c12.37,10.85 28.27,16.28 47.7,16.28 13.12,0 23.91,-3.28 32.37,-9.85 8.45,-6.56 13.82,-15.9 16.09,-28.01z"/>
        <path class="fil0" d="M2836.01 239.84l20.44 31.8c-14.38,19.69 -36.97,29.53 -67.76,29.53 -27.51,0 -49.84,-8.2 -67,-24.6 -16.91,-16.15 -25.36,-37.73 -25.36,-64.73 0,-25.49 8.33,-46.69 24.98,-63.6 16.65,-17.16 37.73,-25.74 63.22,-25.74 30.29,0 53.12,7.69 68.52,23.09l-20.44 34.45c-11.61,-11.11 -25.74,-16.65 -42.4,-16.65 -12.62,0 -23.72,4.54 -33.31,13.63 -9.34,8.58 -14.01,20.19 -14.01,34.82 0,14.64 4.8,26.5 14.38,35.58 10.1,8.83 21.71,13.25 34.83,13.25 16.91,0 31.54,-6.94 43.91,-20.82zm215.01 57.16l-43.53 0 0 -129.46 -72.68 0 0 129.46 -43.53 0 0 -170.34 159.74 0 0 170.34zm182.08 -47.7l12.49 30.66c-16.91,14.13 -38.61,21.2 -65.11,21.2 -27.26,0 -49.46,-8.2 -66.62,-24.6 -16.65,-16.15 -24.98,-37.73 -24.98,-64.73 0,-25.24 8.2,-46.44 24.6,-63.6 16.4,-17.16 38.24,-25.74 65.49,-25.74 22.46,0 41.51,7.44 57.16,22.33 15.65,14.89 23.47,33.81 23.47,56.78 0,10.1 -0.89,17.92 -2.65,23.47l-123.03 0c1.77,12.37 7.26,22.08 16.47,29.15 9.21,7.06 20.76,10.6 34.64,10.6 18.93,0 34.95,-5.17 48.08,-15.52zm-56.03 -90.47c-24.73,0 -39.62,12.36 -44.66,37.1l83.66 0c0.25,-10.85 -3.22,-19.75 -10.41,-26.69 -7.19,-6.94 -16.72,-10.41 -28.58,-10.41zm161.26 213.87l-43.53 0 0 -246.05 43.53 0 0 16.28c5.55,-6.06 13.13,-10.98 22.71,-14.76 9.59,-3.79 19.56,-5.68 29.91,-5.68 23.47,0 42.14,8.07 56.03,24.22 14.13,16.4 21.2,37.23 21.2,62.46 0,26.5 -8.32,48.46 -24.98,65.87 -16.65,17.41 -38.36,26.12 -65.11,26.12 -17.16,0 -30.41,-2.78 -39.75,-8.32l0 79.87zm38.99 -209.33c-15.14,0 -28.14,6.18 -38.99,18.55l0 68.9c10.35,6.56 22.34,9.84 35.96,9.84 14.38,0 25.93,-4.67 34.64,-14.01 8.7,-9.34 13.06,-21.45 13.06,-36.34 0,-14.13 -3.97,-25.49 -11.92,-34.07 -7.95,-8.58 -18.86,-12.87 -32.75,-12.87zm160.12 6.81l-56.03 0 0 -43.53 155.21 0 0 43.53 -55.65 0 0 126.81 -43.53 0 0 -126.81z"/>
        <polygon class="fil1" points="2575.08,258.8 2600.44,232.21 2664.71,296.97 2614.23,296.97 "/>
        <polygon class="fil1" points="2527.56,258.8 2502.44,232.21 2437.92,296.97 2488.41,296.97 "/>
        <polygon class="fil2" points="2575.08,205.86 2549.97,232.21 2429.55,108.35 2480.03,108.35 "/>
        <polygon class="fil2" points="2527.56,202.17 2552.92,228.52 2777,0 2726.52,0 "/>
    </symbol>

    <symbol id="upload" viewBox="0 0 30 30" xmlns="http://www.w3.org/2000/svg">
        <path d="M10.9753 10.0378L14.0625 6.95063V20.625C14.0625 21.1425 14.4825 21.5625 15 21.5625C15.5175 21.5625 15.9375 21.1425 15.9375 20.625V6.95063L19.0247 10.0378C19.2075 10.2211 19.4475 10.3125 19.6875 10.3125C19.9275 10.3125 20.1675 10.2211 20.3503 10.0378C20.7164 9.67172 20.7164 9.07828 20.3503 8.71219L15.6628 4.02469C15.2972 3.6586 14.7028 3.6586 14.3372 4.02469L9.64969 8.71219C9.2836 9.07828 9.2836 9.67172 9.64969 10.0378C10.0153 10.4039 10.6097 10.4039 10.9753 10.0378Z"/>
        <path d="M23.4375 18.75C22.92 18.75 22.5 19.17 22.5 19.6875V23.4375C22.5 23.9545 22.0795 24.375 21.5625 24.375H8.4375C7.92047 24.375 7.5 23.9545 7.5 23.4375V19.6875C7.5 19.17 7.08 18.75 6.5625 18.75C6.045 18.75 5.625 19.17 5.625 19.6875V23.4375C5.625 24.9886 6.88641 26.25 8.4375 26.25H21.5625C23.1136 26.25 24.375 24.9886 24.375 23.4375V19.6875C24.375 19.17 23.955 18.75 23.4375 18.75Z"/>
    </symbol>
    <symbol id="photo" viewBox="0 0 41 41" xmlns="http://www.w3.org/2000/svg">
        <path d="M20.5 12.5723C14.9806 12.5723 10.4902 17.0626 10.4902 22.582C10.4902 28.1014 14.9806 32.5918 20.5 32.5918C26.0194 32.5918 30.5098 28.1014 30.5098 22.582C30.5098 17.0626 26.0194 12.5723 20.5 12.5723ZM20.5 29.3887C16.7468 29.3887 13.6934 26.3352 13.6934 22.582C13.6934 18.8288 16.7468 15.7754 20.5 15.7754C24.2532 15.7754 27.3066 18.8288 27.3066 22.582C27.3066 26.3352 24.2532 29.3887 20.5 29.3887Z"/>
        <path d="M36.1953 7.76758H30.3036C30.1171 7.76758 29.949 7.6658 29.8625 7.50116L28.2325 4.07598C28.228 4.06661 28.2235 4.05732 28.2188 4.04803C27.5879 2.786 26.3193 2.00195 24.9082 2.00195H16.2059C14.7948 2.00195 13.5262 2.786 12.8953 4.04811C12.8906 4.0574 12.8861 4.06669 12.8816 4.07606L11.2515 7.5014C11.1651 7.6658 10.997 7.76758 10.8105 7.76758H4.80469C2.15538 7.76758 0 9.92296 0 12.5723V34.1934C0 36.8427 2.15538 38.998 4.80469 38.998H36.1953C38.8446 38.998 41 36.8427 41 34.1934V12.5723C41 9.92296 38.8446 7.76758 36.1953 7.76758ZM37.7969 34.1933C37.7969 35.0764 37.0784 35.7948 36.1953 35.7948H4.80469C3.92159 35.7948 3.20312 35.0764 3.20312 34.1933V12.5723C3.20312 11.6892 3.92159 10.9707 4.80469 10.9707H10.8105C12.2215 10.9707 13.4901 10.1867 14.1211 8.92471C14.1259 8.91542 14.1303 8.90605 14.1349 8.89668L15.765 5.47134C15.8514 5.30686 16.0194 5.20508 16.2059 5.20508H24.9082C25.0947 5.20508 25.2627 5.30686 25.3491 5.47126L26.9792 8.8966C26.9838 8.90597 26.9883 8.91534 26.993 8.92463C27.624 10.1867 28.8926 10.9706 30.3036 10.9706H36.1953C37.0784 10.9706 37.7969 11.6891 37.7969 12.5722V34.1933Z"/>
        <path d="M34.5938 14.1738H31.3906V17.377H34.5938V14.1738Z"/>
    </symbol>
    <symbol id="support" viewBox="0 0 15 15" xmlns="http://www.w3.org/2000/svg">
        <path d="M7.49899 0C4.33665 0 1.76367 2.57298 1.76367 5.73532V11.0294C1.76367 11.7593 2.35739 12.353 3.08718 12.353C3.81709 12.353 4.4108 11.7593 4.4108 11.0294V6.61766C4.4108 5.88787 3.81709 5.29415 3.08718 5.29415C2.93864 5.29415 2.7981 5.32425 2.66455 5.36957C2.85281 2.86434 4.94685 0.882339 7.49899 0.882339C10.0498 0.882339 12.1432 2.86251 12.3332 5.36602C12.2005 5.32059 12.0591 5.29415 11.9108 5.29415C11.1809 5.29415 10.5872 5.88787 10.5872 6.61766V11.0294C10.5872 11.7593 11.1809 12.353 11.9108 12.353C12.0662 12.353 12.2133 12.3212 12.352 12.2717V12.7942C12.352 13.0376 12.1538 13.2353 11.9108 13.2353H8.74125C8.55849 12.7229 8.07337 12.353 7.49899 12.353C6.7692 12.353 6.17548 12.9467 6.17548 13.6765C6.17548 14.4063 6.7692 15 7.49899 15C8.07337 15 8.55849 14.63 8.74125 14.1177H11.9108C12.6406 14.1177 13.2343 13.5239 13.2343 12.7942C13.2343 10.1405 13.2343 8.39184 13.2343 5.73532C13.2343 2.57298 10.6613 0 7.49899 0V0Z" fill="white"/>
        <path d="M14.1172 6.25781V11.3893C14.6295 11.2067 14.9995 10.7216 14.9995 10.1471V7.50007C14.9995 6.92569 14.6295 6.44057 14.1172 6.25781Z" fill="white"/>
        <path d="M0 7.50007V10.1471C0 10.7216 0.369987 11.2067 0.882339 11.3893V6.25781C0.369987 6.44057 0 6.92569 0 7.50007Z" fill="white"/>
    </symbol>
    <symbol id="user" viewBox="0 0 12 12" xmlns="http://www.w3.org/2000/svg">
        <path d="M8.1213 0.878692C9.29287 2.05026 9.29287 3.94975 8.1213 5.12132C6.94974 6.29289 5.05024 6.29289 3.87867 5.12132C2.70711 3.94975 2.70711 2.05026 3.87867 0.878692C5.05024 -0.292897 6.94974 -0.292897 8.1213 0.878692Z" fill="white"/>
        <path d="M10.6018 8.16229C7.86694 6.31439 4.13305 6.31439 1.39819 8.16229C0.992418 8.43622 0.75 8.89911 0.75 9.40082V12.0002H11.25V9.40082C11.25 8.89911 11.0075 8.43622 10.6018 8.16229Z" fill="white"/>
    </symbol>
    <symbol id="send" viewBox="0 0 24 24" xmlns="http://www.w3.org/2000/svg">
        <path d="M23.5029 11.2211L1.21769 0.935679C0.862839 0.77454 0.439421 0.870538 0.19257 1.17567C-0.0559956 1.48081 -0.0645668 1.91451 0.171999 2.22822L7.50039 11.9994L0.171999 21.7706C-0.0645668 22.0843 -0.0559956 22.5197 0.190855 22.8231C0.357137 23.0306 0.605702 23.142 0.857696 23.142C0.979408 23.142 1.10112 23.1163 1.21597 23.0631L23.5011 12.7777C23.8063 12.6371 24 12.3337 24 11.9994C24 11.6651 23.8063 11.3617 23.5029 11.2211Z"/>
    </symbol>
    <symbol id="paperclip" viewBox="0 0 20 20" xmlns="http://www.w3.org/2000/svg">
        <path d="M19.1532 7.28396C18.8269 6.95938 18.2992 6.96083 17.9747 7.28712L7.95693 17.359C6.65725 18.6587 4.54638 18.6587 3.24428 17.3573C1.94316 16.0555 1.94316 13.9446 3.24444 12.6433L13.5587 2.2749C14.3701 1.46351 15.6893 1.46351 16.5031 2.27665C17.3166 3.09019 17.3166 4.40924 16.5029 5.22301L7.95849 13.7674C7.95795 13.7679 7.95748 13.7685 7.95693 13.7691C7.63141 14.0928 7.10535 14.0924 6.7805 13.7675C6.4551 13.4421 6.4551 12.9147 6.7805 12.5893L10.9048 8.46414C11.2302 8.13867 11.2302 7.611 10.9047 7.2856C10.5792 6.9602 10.0515 6.96024 9.72615 7.28572L5.60187 11.4108C4.62564 12.387 4.62564 13.9697 5.60195 14.946C6.57823 15.9223 8.16092 15.9223 9.13723 14.946C9.13836 14.9449 9.13926 14.9437 9.14036 14.9425L17.6814 6.40148C19.1461 4.93683 19.1461 2.56248 17.6814 1.09784C16.2166 -0.365946 13.8424 -0.365946 12.3786 1.09784L2.06433 11.4664C0.113739 13.417 0.113739 16.5828 2.06574 18.5358C4.01903 20.4881 7.18496 20.4881 9.13707 18.536L19.1564 8.4625C19.4809 8.13617 19.4795 7.60854 19.1532 7.28396Z"/>
    </symbol>

    <symbol id="document" viewBox="0 0 19 19" xmlns="http://www.w3.org/2000/svg">
        <path d="M16.9852 4.21763C16.9645 4.21763 16.9645 4.19695 16.9439 4.17628C16.9232 4.1556 16.9232 4.13493 16.9025 4.11425L13.3465 0.124048C13.3258 0.103373 13.2845 0.0826986 13.2638 0.0620239C13.2431 0.0620239 13.2431 0.0413493 13.2224 0.0413493C13.1811 0.0206746 13.1191 0 13.057 0H4.33233C3.0505 0 1.99609 1.05441 1.99609 2.33624V16.6638C1.99609 17.9456 3.0505 19 4.33233 19H14.6697C15.9515 19 17.0059 17.9456 17.0059 16.6638V4.36235C17.0059 4.321 16.9852 4.25898 16.9852 4.21763ZM13.4498 1.40588L15.7447 3.99021H13.4498V1.40588ZM16.2203 16.6431C16.2203 17.5114 15.538 18.2144 14.6697 18.2144H4.33233C3.46399 18.2144 2.78173 17.5114 2.78173 16.6638V2.31556C2.78173 1.44723 3.48467 0.764962 4.33233 0.764962H12.6642V4.36235C12.6642 4.5691 12.8296 4.75517 13.057 4.75517H16.2203V16.6431Z" fill="#5CA8D0"/>
        <path d="M4.78735 4.75536H8.24002C8.44676 4.75536 8.63283 4.58997 8.63283 4.36255C8.63283 4.13512 8.46744 3.96973 8.24002 3.96973H4.78735C4.5806 3.96973 4.39453 4.13512 4.39453 4.36255C4.39453 4.58997 4.5806 4.75536 4.78735 4.75536Z" fill="#5CA8D0"/>
        <path d="M8.24002 14.2446H4.78735C4.5806 14.2446 4.39453 14.41 4.39453 14.6374C4.39453 14.8442 4.55993 15.0303 4.78735 15.0303H8.24002C8.44676 15.0303 8.63283 14.8649 8.63283 14.6374C8.63283 14.4307 8.44676 14.2446 8.24002 14.2446Z" fill="#5CA8D0"/>
        <path d="M4.39453 6.96753C4.39453 7.17427 4.55993 7.36034 4.78735 7.36034H14.0082C14.215 7.36034 14.4011 7.19495 14.4011 6.96753C14.4011 6.76078 14.2357 6.57471 14.0082 6.57471H4.78735C4.5806 6.57471 4.39453 6.7401 4.39453 6.96753Z" fill="#5CA8D0"/>
        <path d="M14.0082 8.51807H4.78735C4.5806 8.51807 4.39453 8.68346 4.39453 8.91088C4.39453 9.11763 4.55993 9.3037 4.78735 9.3037H14.0082C14.215 9.3037 14.4011 9.1383 14.4011 8.91088C14.4011 8.68346 14.2357 8.51807 14.0082 8.51807Z" fill="#5CA8D0"/>
        <path d="M14.0082 10.4409H4.78735C4.5806 10.4409 4.39453 10.6063 4.39453 10.8337C4.39453 11.0405 4.55993 11.2266 4.78735 11.2266H14.0082C14.215 11.2266 14.4011 11.0612 14.4011 10.8337C14.4011 10.6063 14.2357 10.4409 14.0082 10.4409Z" fill="#5CA8D0"/>
        <path d="M14.0082 12.3633H4.78735C4.5806 12.3633 4.39453 12.5287 4.39453 12.7561C4.39453 12.9628 4.55993 13.1489 4.78735 13.1489H14.0082C14.215 13.1489 14.4011 12.9835 14.4011 12.7561C14.4011 12.5494 14.2357 12.3633 14.0082 12.3633Z" fill="#5CA8D0"/>
    </symbol>
    <symbol id="zoom" viewBox="0 0 20 20" xmlns="http://www.w3.org/2000/svg">
        <path d="M19.7556 18.5783L14.0682 12.8909C15.1699 11.53 15.8332 9.80088 15.8332 7.91758C15.8332 3.55262 12.2815 0.000976562 7.91656 0.000976562C3.55161 0.000976562 0 3.55258 0 7.91754C0 12.2825 3.55165 15.8341 7.9166 15.8341C9.7999 15.8341 11.5291 15.1708 12.8899 14.0692L18.5773 19.7566C18.7398 19.9191 18.9531 20.0008 19.1665 20.0008C19.3798 20.0008 19.5932 19.9191 19.7557 19.7566C20.0815 19.4308 20.0815 18.9041 19.7556 18.5783ZM7.9166 14.1675C4.46996 14.1675 1.66666 11.3642 1.66666 7.91754C1.66666 4.47089 4.46996 1.6676 7.9166 1.6676C11.3632 1.6676 14.1665 4.47089 14.1665 7.91754C14.1665 11.3642 11.3632 14.1675 7.9166 14.1675Z"/>
    </symbol>
    <symbol id="file-pdf" viewBox="0 0 25 25" xmlns="http://www.w3.org/2000/svg">
        <path d="M15.4785 0H3.66211V25H21.3379V5.85938L17.1875 4.39453L15.4785 0Z" fill="#F3EEE9"/>
        <path d="M15.4785 0H12.5V25H21.3379V5.85938L17.1875 4.39453L15.4785 0Z" fill="#E9DFDA"/>
        <path d="M15.4785 5.85938H21.3379L15.4785 0V5.85938Z" fill="#DAD0CB"/>
        <path d="M1.95312 9.52148H23.0469V20.5566H1.95312V9.52148Z" fill="#FF4B00"/>
        <path d="M12.5 9.52148H23.0469V20.5566H12.5V9.52148Z" fill="#DD3400"/>
        <path d="M6.95801 11.8164H4.78516V18.457H6.25V16.2598H6.95801C8.1831 16.2598 9.17969 15.2632 9.17969 14.0381C9.17969 12.813 8.1831 11.8164 6.95801 11.8164ZM6.95801 14.7949H6.25V13.2812H6.95801C7.37534 13.2812 7.71484 13.6208 7.71484 14.0381C7.71484 14.4554 7.37534 14.7949 6.95801 14.7949Z" fill="#FFF3F3"/>
        <path d="M12.1094 11.8164H10.6445V18.457H12.1094C13.7249 18.457 15.0391 17.1429 15.0391 15.5273V14.7461C15.0391 13.1306 13.7249 11.8164 12.1094 11.8164ZM13.5742 15.5273C13.5742 16.3351 12.9171 16.9922 12.1094 16.9922V13.2812C12.9171 13.2812 13.5742 13.9383 13.5742 14.7461V15.5273Z" fill="#FFF3F3"/>
        <path d="M12.5 11.8433V13.3344C13.1186 13.5059 13.5742 14.0735 13.5742 14.7461V15.5273C13.5742 16.1996 13.1186 16.7673 12.5 16.9387V18.4301C13.9313 18.2384 15.0391 17.0101 15.0391 15.5271V14.7459C15.0391 13.2631 13.9313 12.035 12.5 11.8433Z" fill="#E9DFDA"/>
        <path d="M20.2637 13.2812V11.8164H16.6016V18.457H18.0664V16.4307H19.5312V14.9658H18.0664V13.2812H20.2637Z" fill="#E9DFDA"/>
    </symbol>
    <symbol id="menu" viewBox="0 0 25 25" xmlns="http://www.w3.org/2000/svg">
        <path d="M22.8027 2.97852H8.05664C6.84473 2.97852 5.85938 3.96436 5.85938 5.17578C5.85938 6.3877 6.84473 7.37305 8.05664 7.37305H22.8027C24.0142 7.37305 25 6.3877 25 5.17578C25 3.96436 24.0142 2.97852 22.8027 2.97852Z"/>
        <path d="M22.8027 10.3027H8.05664C6.84473 10.3027 5.85938 11.2886 5.85938 12.5C5.85938 13.7119 6.84473 14.6973 8.05664 14.6973H22.8027C24.0142 14.6973 25 13.7119 25 12.5C25 11.2886 24.0142 10.3027 22.8027 10.3027Z"/>
        <path d="M22.8027 17.627H8.05664C6.84473 17.627 5.85938 18.6128 5.85938 19.8242C5.85938 21.0361 6.84473 22.0215 8.05664 22.0215H22.8027C24.0142 22.0215 25 21.0361 25 19.8242C25 18.6128 24.0142 17.627 22.8027 17.627Z"/>
        <path d="M2.19727 2.97852C0.985352 2.97852 0 3.96436 0 5.17578C0 6.3877 0.985352 7.37305 2.19727 7.37305C3.40869 7.37305 4.39453 6.3877 4.39453 5.17578C4.39453 3.96436 3.40869 2.97852 2.19727 2.97852Z"/>
        <path d="M2.19727 10.3027C0.985352 10.3027 0 11.2886 0 12.5C0 13.7119 0.985352 14.6973 2.19727 14.6973C3.40869 14.6973 4.39453 13.7119 4.39453 12.5C4.39453 11.2886 3.40869 10.3027 2.19727 10.3027Z"/>
        <path d="M2.19727 17.627C0.985352 17.627 0 18.6128 0 19.8242C0 21.0361 0.985352 22.0215 2.19727 22.0215C3.40869 22.0215 4.39453 21.0361 4.39453 19.8242C4.39453 18.6128 3.40869 17.627 2.19727 17.627Z"/>
    </symbol>
    <symbol id="comment" viewBox="0 0 30 30" xmlns="http://www.w3.org/2000/svg">
        <path d="M25.1812 2.02173H4.78952C2.65749 2.02173 0.922852 3.75637 0.922852 5.8884V18.3677C0.922852 20.4956 2.64994 22.2271 4.77579 22.2343V27.8976L12.9137 22.2348H25.1812C27.3132 22.2348 29.0478 20.5002 29.0478 18.3677V5.8884C29.0478 3.75637 27.3132 2.02173 25.1812 2.02173ZM21.5202 16.5242H8.45054V14.8762H21.5202V16.5242ZM21.5202 13.0086H8.45054V11.3606H21.5202V13.0086ZM21.5202 9.49294H8.45054V7.845H21.5202V9.49294Z"/>
    </symbol>
    <symbol id="chat" viewBox="0 0 15 15" xmlns="http://www.w3.org/2000/svg">
        <path d="M12.8601 0.570679H2.13993C0.959941 0.570679 0 1.53065 0 2.71061V9.9458C0 11.1258 0.959941 12.0857 2.13993 12.0857H2.97967L2.9961 13.9749C2.99757 14.149 3.09756 14.3072 3.25418 14.3833C3.31784 14.4143 3.38637 14.4295 3.45457 14.4295C3.55415 14.4295 3.653 14.3971 3.7348 14.3339L6.64764 12.0857H12.8601C14.0401 12.0857 15 11.1258 15 9.9458V2.71061C15 1.53065 14.0401 0.570679 12.8601 0.570679ZM14.0829 9.94582C14.0829 10.6201 13.5343 11.1686 12.8601 11.1686H6.49128C6.38991 11.1686 6.29139 11.2022 6.21111 11.2642L3.90513 13.044L3.89276 11.6232C3.8906 11.3715 3.68593 11.1686 3.43424 11.1686H2.13993C1.46566 11.1686 0.917109 10.6201 0.917109 9.94582V2.71061C0.917109 2.03634 1.46566 1.48779 2.13993 1.48779H12.8601C13.5344 1.48779 14.0829 2.03634 14.0829 2.71061V9.94582H14.0829Z"/>
    </symbol>
    <symbol id="clock" viewBox="0 0 16 16" xmlns="http://www.w3.org/2000/svg">
        <path d="M14.3164 4.20996C13.985 4.37028 13.8464 4.76904 14.0067 5.10026C14.4447 6.00505 14.6667 6.98031 14.6667 8C14.6667 11.6759 11.6759 14.6667 8 14.6667C4.32406 14.6667 1.33333 11.6759 1.33333 8C1.33333 4.32406 4.32406 1.33333 8 1.33333C9.52328 1.33333 10.9543 1.83073 12.1387 2.77165C12.4259 3.00098 12.846 2.95296 13.0754 2.66471C13.3047 2.37663 13.2567 1.95703 12.9683 1.72803C11.5661 0.613607 9.8016 0 8 0C3.58903 0 0 3.58903 0 8C0 12.411 3.58903 16 8 16C12.411 16 16 12.411 16 8C16 6.77767 15.7331 5.60628 15.2067 4.51969C15.0467 4.18766 14.6466 4.04932 14.3164 4.20996Z"/>
        <path d="M7.99967 2.66663C7.63167 2.66663 7.33301 2.96529 7.33301 3.33329V7.99996C7.33301 8.36796 7.63167 8.66663 7.99967 8.66663H11.333C11.701 8.66663 11.9997 8.36796 11.9997 7.99996C11.9997 7.63196 11.701 7.33329 11.333 7.33329H8.66634V3.33329C8.66634 2.96529 8.36768 2.66663 7.99967 2.66663Z"/>
    </symbol>
    <symbol id="prev" viewBox="0 0 12 12" xmlns="http://www.w3.org/2000/svg">
        <path d="M3.88313 6.00277L9.0978 0.788109C9.27807 0.607806 9.27807 0.31549 9.0978 0.135187C8.91747 -0.0450622 8.62518 -0.0450622 8.44487 0.135187L2.90374 5.67631C2.72349 5.85661 2.72349 6.14893 2.90374 6.32923L8.44487 11.8704C8.62831 12.0475 8.92063 12.0424 9.0978 11.859C9.27061 11.68 9.27061 11.3964 9.0978 11.2174L3.88313 6.00277Z"/>
    </symbol>
    <symbol id="next" viewBox="0 0 12 12" xmlns="http://www.w3.org/2000/svg">
        <path d="M8.11687 5.99723L2.9022 11.2119C2.72193 11.3922 2.72193 11.6845 2.9022 11.8648C3.08253 12.0451 3.37482 12.0451 3.55513 11.8648L9.09626 6.32369C9.27651 6.14339 9.27651 5.85107 9.09626 5.67077L3.55513 0.129643C3.37169 -0.0475221 3.07937 -0.0424352 2.9022 0.141007C2.7294 0.319957 2.7294 0.603642 2.9022 0.782565L8.11687 5.99723Z"/>
    </symbol>
    <symbol id="edit" viewBox="0 0 18 18" xmlns="http://www.w3.org/2000/svg">
        <path d="M16.9452 1.0549C16.2649 0.374625 15.3605 0 14.3986 0C13.4366 0 12.5321 0.374625 11.8519 1.05486L1.78684 11.12C1.7012 11.2056 1.63915 11.3119 1.60667 11.4286L0.0257606 17.1083C-0.0424073 17.3533 0.0269559 17.616 0.207272 17.7954C0.340866 17.9282 0.519882 18 0.703187 18C0.767241 18 0.831858 17.9912 0.895245 17.9732L6.57498 16.3599C6.81461 16.2918 7.00038 16.102 7.06323 15.8609C7.12609 15.6199 7.0567 15.3635 6.88081 15.1871L3.30007 11.5955L11.6432 3.25234L14.746 6.35516L8.35902 12.7247C8.08407 12.999 8.08347 13.4441 8.35769 13.7191C8.63187 13.9941 9.07713 13.9946 9.35205 13.7205L16.9451 6.14809C17.6254 5.46785 18 4.56346 18 3.60148C18 2.6395 17.6254 1.7351 16.9452 1.0549ZM5.04122 15.3337L1.71657 16.278L2.64768 12.9329L5.04122 15.3337ZM15.9514 5.15303L15.7417 5.36217L12.6376 2.25798L12.8463 2.04922C13.2609 1.63459 13.8122 1.40625 14.3986 1.40625C14.9849 1.40625 15.5361 1.63459 15.9508 2.04926C16.3654 2.46386 16.5937 3.01511 16.5937 3.60148C16.5937 4.18785 16.3654 4.7391 15.9514 5.15303Z"/>
    </symbol>
    <symbol id="warning" viewBox="0 0 14 14" xmlns="http://www.w3.org/2000/svg">
        <path d="M13.7201 10.2014L8.81534 1.70589C8.01421 0.302464 5.98832 0.302464 5.19006 1.70589L0.282393 10.2014C-0.518741 11.6048 0.478354 13.3483 2.09503 13.3483H11.8902C13.5069 13.3483 14.5213 11.5875 13.7201 10.2014ZM6.99982 11.4636C6.57332 11.4636 6.21886 11.1091 6.21886 10.6826C6.21886 10.2561 6.57332 9.90167 6.99982 9.90167C7.42632 9.90167 7.78078 10.2561 7.76349 10.7028C7.78366 11.1091 7.40903 11.4636 6.99982 11.4636ZM7.71162 6.41472C7.67704 7.01989 7.63958 7.62218 7.60499 8.22736C7.5877 8.42332 7.5877 8.60199 7.5877 8.79507C7.57041 9.11494 7.3197 9.36278 6.99982 9.36278C6.67994 9.36278 6.43211 9.13223 6.41194 8.81236C6.36007 7.87002 6.30531 6.94496 6.25344 6.00262C6.23615 5.75479 6.21886 5.50408 6.19869 5.25624C6.19869 4.84703 6.42923 4.50986 6.80386 4.40324C7.17849 4.3139 7.55024 4.49257 7.71162 4.84703C7.76637 4.97095 7.78366 5.09486 7.78366 5.23895C7.76637 5.63376 7.72891 6.02568 7.71162 6.41472Z" fill="#909FBD"/>
    </symbol>



    <symbol id="visa" viewBox="0 0 51 51" xmlns="http://www.w3.org/2000/svg">
        <path d="M20.42 17.9111L17.8281 33.1214H21.9735L24.5675 17.9111H20.42Z"/>
        <path d="M14.3526 17.928L10.2925 28.3009L9.85967 26.7347C9.05897 24.8476 6.78585 22.1373 4.11719 20.4293L7.82965 33.1137L12.2159 33.1062L18.7442 17.9248L14.3526 17.928Z"/>
        <path d="M8.28641 19.017C8.04545 18.0904 7.3471 17.8143 6.48029 17.7812H0.0533094L0 18.084C5.00148 19.2974 8.31093 22.2209 9.68418 25.7361L8.28641 19.017Z"/>
        <path d="M32.9699 20.8267C34.3261 20.8053 35.3091 21.1017 36.0725 21.4088L36.4467 21.5847L37.0076 18.2881C36.1866 17.9799 34.8997 17.6494 33.294 17.6494C29.1977 17.6494 26.3105 19.7125 26.2881 22.669C26.2615 24.8536 28.3448 26.0734 29.9185 26.8016C31.5338 27.5479 32.0754 28.0224 32.0679 28.6887C32.0551 29.7069 30.78 30.1739 29.589 30.1739C27.929 30.1739 27.0472 29.9447 25.6857 29.3775L25.1516 29.1344L24.5684 32.5387C25.5386 32.9641 27.3287 33.3298 29.1871 33.349C33.5446 33.349 36.3764 31.3105 36.4062 28.1514C36.4244 26.4231 35.3187 25.1042 32.923 24.022C31.473 23.3162 30.5859 22.8471 30.5944 22.1349C30.5944 21.5026 31.3472 20.8267 32.9699 20.8267Z"/>
        <path d="M47.645 17.9277H44.4422C43.4474 17.9277 42.7075 18.1985 42.2703 19.1901L36.1152 33.1294H40.4685C40.4685 33.1294 41.1786 31.2551 41.3395 30.8446C41.8161 30.8446 46.0457 30.851 46.6481 30.851C46.7718 31.3819 47.1535 33.1294 47.1535 33.1294H50.9992L47.645 17.9277ZM42.5326 27.7313C42.8738 26.8581 44.1841 23.4804 44.1841 23.4804C44.1617 23.522 44.5221 22.6008 44.7364 22.0283L45.0158 23.3397C45.0158 23.3397 45.8101 26.9711 45.9764 27.7313H42.5326Z"/>
    </symbol>
    <symbol id="info" viewBox="0 0 15 15" xmlns="http://www.w3.org/2000/svg">
        <path d="M7.5 0C3.35478 0 0 3.3544 0 7.5C0 11.6452 3.3544 15 7.5 15C11.6452 15 15 11.6456 15 7.5C15 3.35478 11.6456 0 7.5 0ZM7.5 14C3.91591 14 0.99999 11.0841 0.99999 7.5C0.99999 3.91588 3.91591 0.99999 7.5 0.99999C11.0841 0.99999 14 3.91591 14 7.5C14 11.0841 11.0841 14 7.5 14Z"/>
        <path d="M7.50001 6.14551C7.22389 6.14551 7 6.36936 7 6.64552V10.8634C7 11.1395 7.22386 11.3634 7.50001 11.3634C7.77616 11.3634 8.00002 11.1395 8.00002 10.8634V6.64549C7.99999 6.36934 7.77613 6.14551 7.50001 6.14551Z"/>
        <path d="M7.49999 3.63672C6.94859 3.63672 6.5 4.08531 6.5 4.63671C6.5 5.18811 6.94859 5.6367 7.49999 5.6367C8.05139 5.6367 8.49998 5.18811 8.49998 4.63671C8.49998 4.08531 8.05139 3.63672 7.49999 3.63672Z"/>
    </symbol>

</svg>
