<?xml version="1.0" encoding="utf-8"?>
<!-- Generator: Adobe Illustrator 14.0.0, SVG Export Plug-In . SVG Version: 6.00 Build 43363)  -->
<!DOCTYPE svg PUBLIC "-//W3C//DTD SVG 1.1//EN" "http://www.w3.org/Graphics/SVG/1.1/DTD/svg11.dtd">
<svg version="1.1" id="Layer_1" xmlns="http://www.w3.org/2000/svg" xmlns:xlink="http://www.w3.org/1999/xlink" x="0px" y="0px"
	 width="572.204px" height="506.048px" viewBox="64.895 41.976 572.204 506.048"
	 enable-background="new 64.895 41.976 572.204 506.048" xml:space="preserve">
<g opacity="0.7">
	<path fill="#E7F0FC" d="M597.233,488.559c0,13.396-119.161,24.246-266.169,24.246c-147.008,0-266.169-10.85-266.169-24.246
		c0-13.396,119.161-24.246,266.169-24.246C478.072,464.313,597.233,475.163,597.233,488.559z"/>
	<path fill="#E7F0FC" d="M474.945,525.959c0,12.184-64.409,22.064-143.881,22.064c-79.471,0-143.88-9.881-143.88-22.064
		s64.409-22.064,143.88-22.064C410.536,503.925,474.945,513.806,474.945,525.959z"/>
	<path fill="#0056A7" d="M538.229,82.77c1.487,3.697-0.273,8.577,1.275,11.88c1.609,3.334,5.86,3.516,7.439,6.607
		c5.375,10.486-0.698,12.669-0.03,20.64c0.759,8.91,10.021,13.456,2.156,22.761c-6.469,7.667-19.557,6.425-22.502-3.698
		c0.213-0.303,0.213-0.273,0.029,0c-15.214,10.002-27.057-16.76-8.806-22.094c-6.681-4.728-9.626-14.821-2.035-20.67
		c-7.227-4.97-6.771-14.851,0.396-19.397c1.153-0.727-3.614-10.244,5.922-11.062C528.937,67.13,536.134,77.587,538.229,82.77z"/>
	<path fill="#E59375" d="M537.319,131.534c7.408-0.212,13.604,5.607,13.787,13.032c0.212,7.395-3.827,26.489-9.476,21.67
		c-11.084-9.426-16.641-15.093-16.854-22.488C524.565,136.322,529.879,131.746,537.319,131.534z"/>
	<path fill="#E59375" d="M546.915,139.262l-12.846,4.273l-2.308,13.699c0,0,28.271,34.309,37.474,39.097
		c9.808,5.092,7.166-3.818,6.528-7.516C575.764,188.785,554.173,143.929,546.915,139.262z"/>
	<path fill="#E59375" d="M574.913,197.423c0,0,23.96-11.911,39.417-25.277c0,0,1.458-4.667-2.612-3.637
		c-3.917,1-42.604,11.032-45.095,14.214C564.133,185.936,574.913,197.423,574.913,197.423z"/>
	<path fill="#E59375" d="M631.245,168.995l-3.704,1.697c0,0,7.531-1.576,8.624-4.819c0,0,0.395-0.606-0.85-0.97
		c0,0-6.014,2.728-8.989,3.274c0,0,6.559-1.486,10.507-3.971c0,0,1.093-1.879-1.154-1.97c1.063-1.182-0.485-1.485-0.485-1.485
		s-1.519-0.091-4.737,0.424c0,0-4.98,0.758-10.902,0.94c0,0,2.612-4.425,0.152-5.758l-4.403,6.061l-3.675,6.122l1.093,4.001
		l7.531,1.121c0,0,6.529-0.485,9.688-1.909C629.909,171.783,638.625,167.085,631.245,168.995z"/>
	<path fill="#4B9EBF" d="M540.354,131.534c0,0,10.355,1.849,11.691,11.911c0,0,30.064,42.249,24.507,54.22
		c-2.369,0.909-14.029,7.698-50.289-44.007C526.264,153.658,516.577,127.836,540.354,131.534z"/>
	<path fill="#4B9EBF" d="M566.137,179.692c0,0,15.64-6.698,44.093-12.699c0,0,4.89,4.88,4.403,8.123c0,0-34.192,23.124-39.204,22.7
		C575.399,197.816,564.011,189.785,566.137,179.692z"/>
	<path fill="#E59375" d="M512.934,475.466c6.377,2.94,13.361,2.546,13.361,2.546l-5.83-5.97c0,0-5.041-11.184-5.557-14.791
		c-0.335-2.303,1.245-9.092,1.245-9.092l-8.717-1.818l-1.336,4.788l-5.102,6.426c0,0-1.214,3.364,4.829,5.729
		C505.828,463.313,508.864,469.405,512.934,475.466z"/>
	<path d="M520.464,472.042c-2.611,0.454-6.741-0.364-8.26-3.062c-6.164-10.851-6.073-17.852-6.073-17.852
		c-5.588,3.546-5.526,7.789-5.526,7.789l-0.121,1.698l-0.973,13.214l0.911,0.182l5.254-9.699l3.34,11.215
		c13.727,5.728,18.19,2.818,18.19,2.818L520.464,472.042z"/>
	<path fill="#010814" d="M552.654,352.538c0,0-35.165,97.227-37.262,101.198c0,0-10.385-1.638-9.626-4.031
		c1.792-5.819,5.162-48.978,7.106-58.313c3.128-15.003,5.921-24.276,19.04-42.036C531.913,349.356,551.834,340.506,552.654,352.538z
		"/>
	<path fill="#F7A483" d="M537.501,236.034c0,0,5.405,18.973,7.804,31.005c4.282,21.246,5.982,76.012,5.982,76.012
		s-17.886,9.668-20.346,5.152c-11.995-21.821-13.423-15.82-30.095-89.68L537.501,236.034z"/>
	<path fill="#010814" d="M501.849,260.827c0,0,6.772,55.948,28.425,87.68c0,0,6.528,17.245,22.381,4.062
		c0,0,1.973-91.135-13.423-119.321C539.231,233.247,495.259,231.065,501.849,260.827z"/>
	<path fill="#E79675" d="M522.499,199.059c1.7-0.303,8.715,3.304,8.715,3.304s8.776,28.095,9.141,32.368
		c0.364,4.274-29.062,26.398-61.948,13.79c0,0,15.214-39.581,16.154-49.31C495.472,189.482,522.499,199.059,522.499,199.059z"/>
	<path fill="#09111C" d="M531.215,202.363c0,0,8.412,25.338,9.142,32.369c2.611,24.883-31.126,35.339-64.015,22.731
		c0,0-2.126-34.218,18.22-58.252C494.562,199.242,499.968,204.152,531.215,202.363z"/>
	<path fill="#09111C" d="M500.119,275.95l-23.778-13.033c0,0,3.857,75.103,6.863,96.197c0,0,13.301,3.696,17.431,0.97
		c12.329-28.883,19.496-91.59,19.496-91.59L500.119,275.95z"/>
	<path fill="#09111C" d="M485.694,240.944c0,0-11.418,3.274-9.05,24.398c2.309,20.609,40.298,22.579,43.851,1.424
		C524.321,244.036,505.828,231.973,485.694,240.944z"/>
	<path fill="#F7A483" d="M501.728,130.048h22.897c-1.033-3.334-3.189-11.941,0.152-17.79l-23.141-15.154
		C501.637,97.104,505.767,122.532,501.728,130.048z"/>
	<path fill="#E1876F" d="M522.985,120.077c-0.062-2.546,0.363-5.304,1.792-7.819l-23.141-15.154c0,0,1.67,10.365,1.853,19.821
		C511.84,119.562,515.272,120.592,522.985,120.077z"/>
	<path fill="#F7A483" d="M486.027,132.019c-10.294,5.031-4.585,17.124-4.585,17.124l13.938,50.584c0,0,12.997,5.303,35.833,2.636
		c3.158-4.515,9.688-23.518,11.874-38.006c1.791-11.941,7.379-23.7,1.305-30.338c-2.338-2.545-20.103-5.091-20.193-5.516h-21.378
		L486.027,132.019z"/>
	<path fill="#F7A483" d="M528.33,114.319l1.396-3.364l3.462-9.941c0.485-1.576,0.789-3.758,0.334-5.365
		c-0.576-1.909-0.911-5.001-0.03-8.395c2.338-9.092-1.488-14.093-1.488-14.093c-4.95-8.729-17.613-9.335-17.613-9.335
		c-15.729,0.03-17.765,15.093-17.765,15.093c-3.036,9.941,4.586,18.73,4.616,18.761c0.972,1.122,1.002,2.819,1.427,4.183
		c0.456,1.424,1.186,2.758,2.096,3.94c2.065,2.636,4.828,5.182,7.713,6.849c2.733,1.576,8.078,3.304,11.935,3.455
		C525.961,116.168,527.54,116.259,528.33,114.319z"/>
	<path fill="#0056A7" d="M502.669,103.621c0.273-7.153,0.425-6.698,0.425-6.698c0.273-2.091,4.16,2.637,4.191-0.091
		c0.243-12.457,5.071-18.154,6.893-19.034c4.95-2.364,10.052-2.849,14.061-1.939c6.256,1.424,5.588,9.82,5.588,9.82
		c6.923-30.399-27.847-22.337-27.847-22.337c-16.915,3.516-16.005,19.336-16.005,19.336c-2.915,16.76,13.241,27.307,13.241,27.307
		L502.669,103.621z"/>
	<path fill="#F8A07D" d="M503.884,101.226c-0.577,0.394-1.306,0.606-2.217,0.546c-2.429-0.152-4.342-2.516-4.251-5.274
		c0.091-2.758,2.126-4.879,4.525-4.698c1.153,0.061,2.186,0.637,2.944,1.516c1.094,1.273,1.033,3.516,0.668,5.062
		C505.281,99.59,504.734,100.62,503.884,101.226z"/>
	<path fill="#E98B6F" d="M502.821,94.406c-0.061-1.455-3.067-0.212-2.672,0.606c0.242,0.485,0.729,0.849,1.124,1.212
		c0.516,0.485,0.788,0.909,0.819,1.637c0,0.091,0,0.333-0.061,0.394c-0.396,0.242-1.579-1.243-1.822-1.546
		c-0.516-0.606-0.516-1.606-0.243-2.334c0.304-0.757,0.851-1.091,1.67-1c0.668,0.061,1.336,0.151,1.245,0.97
		C502.852,94.346,502.821,94.467,502.821,94.406z"/>
	<path fill="#E98B6F" d="M501.788,95.861c0.334-0.303,0.607-0.03,0.911,0.212c0.273,0.243,0.425,0.546,0.485,0.879
		c0.122,0.758-0.029,1.758-0.485,2.395c-0.364,0.515-0.972,0.818-1.609,0.757c-0.881-0.06-1.093-0.848-1.093-1.606
		c0-0.212,0-0.667,0.212-0.788c0.213-0.121,0.365,0.212,0.486,0.364c0.182,0.182,0.485,0.272,0.729,0.333
		c0.486,0.061,1.002-0.152,1.336-0.516c0.062-0.061,0.122-0.151,0.152-0.212c-0.03,0.485-0.062,0.606-0.091,0.333
		c-0.031-0.122-0.091-0.243-0.152-0.364c-0.182-0.333-0.516-0.606-0.729-0.939C501.819,96.558,501.637,96.013,501.788,95.861z"/>
	<path fill="#FFFFFF" d="M503.975,101.742c-0.029,0.818-0.728,1.455-1.548,1.394c-0.819-0.03-1.458-0.727-1.396-1.545
		c0.029-0.819,0.729-1.455,1.548-1.425C503.368,100.227,504.006,100.924,503.975,101.742z"/>
	<path fill="#4FA6C9" d="M530.455,129.746l9.869,1.758c0,0,7.196,1.576,7.439,7.728c0,0,0.396,11.638-5.952,32.732
		C541.843,171.964,531.335,139.656,530.455,129.746z"/>
	<path fill="#4FA6C9" d="M527.965,129.382l4.464,0.697c0,0,8.624,16.67,10.689,34.309c-2.187,14.487-6.56,36.43-11.873,38.006
		c-18.008,5.303-36.775-3.031-36.775-3.031l-8.594-34.309c23.109-8.971,11.448-35.338,11.448-35.338l4.858-1.152l20.438,20.609
		L527.965,129.382z"/>
	<path fill="#4FA6C9" d="M537.075,140.748c0,0,9.05,12.487,10.599,18.912c1.032,4.213-6.347,13.76-12.299,15.427
		C532.126,176.026,532.034,141.597,537.075,140.748z"/>
	<path fill="#4592B1" d="M519.464,134.261l-0.243,11.578l-4.281-4.183L519.464,134.261z"/>
	<path fill="#7AD0E2" d="M519.463,133.988c0,0-12.936-5.303-16.155-10.547l-6.043,6.244l15.7,15.214l6.498-10.638"/>
	<path fill="#7AD0E2" d="M531.002,134.596c0,0-1.245-4.849-7.41-8.941l0.79,16.7C524.382,142.355,527.813,133.808,531.002,134.596z"
		/>
	<path fill="#4592B1" d="M531.549,142.354l-0.547-7.759c-1.883-0.455-3.553,2.152-4.919,4.304L531.549,142.354z"/>
	<path fill="#F7A483" d="M495.807,480.133c6.832,1.576,13.604-0.242,13.604-0.242l-6.924-4.638c0,0-7.228-9.91-8.473-13.335
		c-0.79-2.182-0.638-9.153-0.638-9.153h-8.896l-0.305,4.972l-3.674,7.334c0,0-0.517,3.546,5.891,4.637
		C486.362,469.677,490.614,475.011,495.807,480.133z"/>
	<path d="M502.488,475.253c-2.46,0.97-6.682,1.03-8.716-1.303c-8.261-9.365-9.627-16.245-9.627-16.245
		c-4.736,4.607-3.796,8.759-3.796,8.759l0.243,1.697l1.762,13.123h0.91l3.158-10.577l5.559,10.304
		c14.637,2.819,18.371-0.969,18.371-0.969L502.488,475.253z"/>
	<path fill="#09111C" d="M482.262,351.295l19.436,5.729c0,0-6.682,93.074-7.562,97.469c0,0-10.416,1.394-10.386-1.121
		c0.061-6.063-7.106-44.037-7.774-53.554C474.792,383.482,470.358,372.511,482.262,351.295z"/>
	<path fill="#E59375" d="M490.978,131.534c-7.409-0.213-13.573,5.606-13.786,13.032c-0.214,7.395,3.825,26.489,9.475,21.67
		c11.084-9.426,16.641-15.093,16.853-22.488C503.702,136.322,498.387,131.746,490.978,131.534z"/>
	<path fill="#E59375" d="M481.382,139.262l12.845,4.273l2.309,13.699c0,0-28.272,34.309-37.474,39.097
		c-9.809,5.092-7.167-3.819-6.528-7.516C452.533,188.785,474.094,143.929,481.382,139.262z"/>
	<path fill="#E59375" d="M453.353,197.422c0,0-23.96-11.91-39.417-25.276c0,0-1.457-4.667,2.612-3.637
		c3.917,1,42.605,11.032,45.095,14.214C464.133,185.936,453.353,197.422,453.353,197.422z"/>
	<path fill="#E59375" d="M397.052,168.995l3.705,1.697c0,0-7.53-1.576-8.624-4.819c0,0-0.395-0.606,0.85-0.97
		c0,0,6.014,2.728,8.99,3.273c0,0-6.561-1.485-10.509-3.97c0,0-1.093-1.879,1.124-1.97c-1.063-1.182,0.486-1.485,0.486-1.485
		s1.518-0.091,4.736,0.424c0,0,4.98,0.758,10.902,0.94c0,0-2.611-4.425-0.152-5.759l4.403,6.062l3.675,6.122l-1.093,4.001
		l-7.53,1.121c0,0-6.529-0.485-9.688-1.909C398.389,171.783,389.673,167.085,397.052,168.995z"/>
	<path fill="#4FA6C9" d="M502.002,153.659c-36.259,51.705-47.95,44.946-50.289,44.006c-5.526-11.971,23.474-55.311,23.474-55.311
		c4.678-10.062,12.756-10.82,12.756-10.82l9.321-1.849l5.983,7.607C503.216,137.292,507.012,145.294,502.002,153.659z"/>
	<path fill="#4B9EBF" d="M462.159,179.693c0,0-15.64-6.698-44.093-12.698c0,0-4.89,4.879-4.403,8.122c0,0,34.193,23.125,39.204,22.7
		C452.897,197.817,464.255,189.786,462.159,179.693z"/>
	<path fill="#0056A7" d="M483.72,82.77c-1.487,3.697,0.273,8.577-1.275,11.88c-1.609,3.334-5.86,3.516-7.44,6.607
		c-5.375,10.486,0.699,12.669,0.031,20.64c-0.759,8.91-10.021,13.456-2.156,22.761c6.468,7.667,19.556,6.425,22.502-3.698
		c-0.213-0.303-0.213-0.273-0.031,0c15.215,10.002,27.059-16.76,8.808-22.094c6.681-4.728,9.626-14.821,2.035-20.67
		c7.227-4.97,6.771-14.851-0.396-19.397c-1.154-0.727,3.613-10.244-5.922-11.062C493.012,67.13,485.815,77.587,483.72,82.77z"/>
	<path fill="#4FA6C9" d="M538.807,182.906c0,0-2.034,37.884,13.24,57.797c0,0-41.967,18.305-81.414,0.545
		c3.674-11.547,2.854-11.517,15.184-38.127c0,0,6.194-13.457,4.494-20.215H538.807z"/>
	<path fill="#963222" d="M157.697,70.89c0,0-13.513,0-11.145-15.306c0,0,8.139,7.668,16.824,4.486
		C163.376,60.07,164.044,70.374,157.697,70.89z"/>
	<path fill="#E59375" d="M133.22,143.172l-4.282,0.94c0,0-11.752,50.402-7.318,62.373c4.403,11.972,11.509,0.121,13.726-0.97
		c2.217-1.091,21.834-56.554,21.834-56.554L133.22,143.172z"/>
	<path fill="#001940" d="M118.432,200.182l7.713-58.555c4.585-15.396,21.561-9.728,21.561-9.728
		c12.724,4.697,10.689,14.699,10.689,14.699l-17.431,60.161c0,0-3.31,9.122-15.396,7.91
		C125.598,214.669,116.792,212.578,118.432,200.182z"/>
	<path fill="#2C080D" d="M139.204,457.373c0,0-2.278,8.85-5.072,11.244c-2.794,2.394-13.483,5.939-13.483,5.939l-5.921,0.85
		c0,0-4.1,2.939,7.166,6.031c11.297,3.092,31.096-6.243,31.096-6.243l-4.464-18.095L139.204,457.373z"/>
	<path fill="#2C080D" d="M198.754,476.618c2.004-3.091,6.165-20.003,6.165-20.003l9.231-0.272l5.77,18.608
		c0,0,0.941,3.122-0.972,4.273c0,0-11.509,4-21.318-0.182C197.661,479.043,197.752,478.225,198.754,476.618z"/>
	<path fill="#F7A483" d="M141.572,220.154l-11.782-71.859c0,0-4.07-10.79,4.069-16.215l30.944-14.517h21.834l37.17,21.942
		l-24.385,80.619h-57.85V220.154z"/>
	<path fill="#00264E" d="M199.422,220.155c0,0,6.681,15.214,8.29,50.22c0,0-50.288,15.729-66.049,0l-0.091-50.22H199.422
		L199.422,220.155z"/>
	<path fill="#00264E" d="M166.443,270.224c-0.091,11.759,9.08,21.336,20.467,21.427c11.388,0.091,20.711-9.365,20.802-21.124
		c0.091-11.76-9.08-21.337-20.468-21.428C175.857,249.039,166.534,258.495,166.443,270.224z"/>
	<path fill="#00264E" d="M207.712,273.133l5.466,100.046c0,0-9.687,12.669-26.814-1.637l-18.616-92.014
		C167.718,279.528,176.768,248.584,207.712,273.133z"/>
	<path fill="#00264E" d="M208.896,361.48c0,0,9.414,17.882,7.896,47.129l1.518,54.675l-15.548,0.454l-16.338-91.923
		C186.424,371.815,195.079,340.932,208.896,361.48z"/>
	<path fill="#00264E" d="M141.755,270.436c-1.185,11.698,2.976,21.67,14.333,22.821c11.327,1.152,21.5-7.395,22.684-19.063
		c1.185-11.699-7.014-22.095-18.372-23.246C149.073,249.796,142.939,258.737,141.755,270.436z"/>
	<path fill="#00264E" d="M173.914,285.831l-11.631,91.438c0,0-20.589,2.728-24.598-11.244c0,0-0.243-64.525,4.039-95.561
		C141.755,270.435,169.632,256.887,173.914,285.831z"/>
	<path fill="#00264E" d="M161.007,369.147c0,0,3.705,13.698,0.303,35.763l-8.442,61.767l-16.641-1.182l1.488-99.5
		C137.715,365.995,146.856,352.175,161.007,369.147z"/>
	<path fill="#F7A483" d="M220.557,148.356l4.252,1.122c0,0,6.62,50.674,1.639,62.434c-4.95,11.759-9.626,0.09-11.782-1.092
		c-2.156-1.182-18.312-57.766-18.312-57.766L220.557,148.356z"/>
	<path fill="#001940" d="M209.169,210.366l-13.908-59.676c2.855-16.123,18.251-15.002,18.251-15.002
		c13.513,1.212,14.181,11.396,14.181,11.396l0.881,60.706c0,0,0.881,10.365-6.954,9.82
		C221.65,217.579,210.445,215.852,209.169,210.366z"/>
	<path fill="#F7A483" d="M186.728,101.712v23.276H162.07c0,0,6.073-9.213,3.036-23.276H186.728z"/>
	<path fill="#E1876F" d="M174.217,121.472c-2.217,1.425-6.954,4.456-9.657,2.698c-0.729-0.485-1.063-1.122-1.154-1.819
		c1.579-3.697,3.766-11.032,1.701-20.639h21.621v2.121C184.026,110.622,180.564,117.381,174.217,121.472z"/>
	<path fill="#F8A07D" d="M187.304,102.016c0,0,4.191-1.819,8.959-12.184c0,0,10.324-12.275,3.006-26.186
		c0,0-4.312-11.759-25.266-8.486C174.003,55.19,172.121,86.741,187.304,102.016z"/>
	<path fill="#F7A483" d="M161.523,108.321l-1.397-3.637l-3.857-13.578c-0.486-1.697-0.516-4-0.212-5.759
		c0.334-1.909,0.546-3.909,0.06-5.91c-2.429-9.759,2.582-15.306,2.582-15.306c5.526-9.213,19.131-9.517,19.131-9.517
		c16.854,0.424,18.645,16.639,18.645,16.639c2.976,10.729-5.435,19.942-5.435,19.973c-0.668,0.728-0.243,4.273-0.425,5.304
		c-0.79,4.334-4.859,7.092-8.473,9.002c-3.978,2.091-8.806,4.334-13.301,4.849C167.141,110.564,162.312,110.412,161.523,108.321z"/>
	<path fill="#FFFFFF" d="M203.43,218.185c-0.061,2.394,3.583,27.428,2.065,27.761c0,0-41.633,9.578-63.832,0l-0.091-25.822
		l-11.782-71.859c0,0-4.07-10.79,4.069-16.215l30.944-14.517l-2.095,6.273l4.464,12.699l19.435-18.972l37.2,21.973
		c-2.065,6.88-4.13,13.759-6.226,20.639c-3.826,12.669-7.561,25.398-11.509,38.036C206.072,198.181,202.792,211.881,203.43,218.185z
		"/>
	<path fill="#A5C6C7" d="M169.844,122.11l0.273,11.547l4.282-4.152L169.844,122.11z"/>
	<path fill="#CFEAE6" d="M164.409,140.748c0,0.91,0.729,1.637,1.64,1.637c0.911,0,1.64-0.727,1.64-1.637
		c0-0.909-0.729-1.636-1.64-1.636C165.168,139.112,164.409,139.839,164.409,140.748z"/>
	<path fill="#CFEAE6" d="M164.409,170.723c0,0.909,0.729,1.636,1.64,1.636c0.911,0,1.64-0.727,1.64-1.636
		c0-0.91-0.729-1.637-1.64-1.637C165.168,169.086,164.409,169.813,164.409,170.723z"/>
	<path fill="#CFEAE6" d="M164.409,200.697c0,0.909,0.729,1.667,1.64,1.667c0.911,0,1.64-0.729,1.64-1.667
		c0-0.909-0.729-1.637-1.64-1.637C165.168,199.06,164.409,199.788,164.409,200.697z"/>
	<path fill="#CFEAE6" d="M164.409,230.672c0,0.91,0.729,1.637,1.64,1.637c0.911,0,1.64-0.727,1.64-1.637
		c0-0.909-0.729-1.636-1.64-1.636C165.168,229.036,164.409,229.763,164.409,230.672z"/>
	<path fill="none" stroke="#CFEAE6" stroke-width="2.9481" stroke-miterlimit="10" d="M169.844,134.991v113.744"/>
	<path fill="#471F08" d="M141.906,248.342c0,0,21.257,9.94,64.774-0.213c0.728-0.181,0.425-2.03,0.425-2.03l-0.425-4.183
		c-0.183-1.333-0.942-1.273-0.942-1.273s-41.633,9.578-63.832,0c0,0-0.88-0.151-0.941,1.182v5.213
		C140.995,247.038,140.995,248.069,141.906,248.342z"/>
	<path fill="none" stroke="#BCBEC0" stroke-width="4.8231" stroke-miterlimit="10" d="M163.498,251.493
		c0,0.667,0.516,1.213,1.184,1.213h8.472c0.638,0,1.185-0.546,1.185-1.213v-6.091c0-0.667-0.516-1.213-1.185-1.213h-8.472
		c-0.638,0-1.184,0.546-1.184,1.213V251.493z"/>
	<path fill="none" stroke="#BCBEC0" stroke-width="4.8231" stroke-miterlimit="10" d="M174.339,248.068h-4.495"/>
	<path fill="#BFE5E5" d="M169.844,121.836c0,0,13.665-5.303,16.854-10.547l4.039,7.668l-14.394,13.76l-6.499-10.638"/>
	<path fill="#963222" d="M158.183,64.828c0.607-4.425,15.093-2.061,18.889-1.364c2.277,0.424,4.949,1.122,6.194,3.364
		c0.456,0.818,2.278,6.607,0.031,9.486c2.004,6.213,2.46,11.032,2.46,11.032l1.154,0.061c2.277,5.819,2.702,12.85,2.702,12.85
		s8.442-3.636,14.303-19.033c5.952-19.609-8.654-28.247-8.654-28.247c-13.392-5.789-26.754-4.213-26.754-4.213
		s-13.453,1.243-16.52-6.789C152.019,41.945,143.485,60.373,158.183,64.828z"/>
	<path fill="#F7A483" d="M188.52,92.802c0.607,0.515,1.366,0.818,2.368,0.848c2.673,0.091,5.041-2.303,5.224-5.364
		c0.212-3.031-1.792-5.577-4.495-5.667c-1.275-0.03-2.459,0.485-3.401,1.364c-1.336,1.273-1.518,3.758-1.275,5.486
		C187.123,90.832,187.609,92.044,188.52,92.802z"/>
	<path fill="#E98B6F" d="M190.402,85.406c0.243-1.606,3.401,0.091,2.855,0.97c-0.304,0.515-0.881,0.849-1.367,1.212
		c-0.638,0.485-0.941,0.91-1.063,1.698c-0.03,0.091-0.06,0.363,0.031,0.424c0.394,0.303,1.852-1.182,2.186-1.515
		c0.607-0.606,0.759-1.728,0.516-2.546c-0.273-0.879-0.789-1.303-1.731-1.273c-0.728,0-1.488,0.03-1.457,0.939
		C190.372,85.346,190.402,85.498,190.402,85.406z"/>
	<path fill="#E98B6F" d="M191.374,87.104c-0.303-0.363-0.668-0.091-1.002,0.152c-0.334,0.212-0.516,0.545-0.637,0.909
		c-0.213,0.818-0.152,1.939,0.273,2.697c0.364,0.606,1.002,1,1.7,1c0.972,0,1.306-0.819,1.397-1.667
		c0.031-0.212,0.061-0.728-0.152-0.879c-0.212-0.152-0.394,0.182-0.577,0.333c-0.212,0.212-0.546,0.273-0.85,0.273
		c-0.546,0.03-1.093-0.273-1.427-0.728c-0.061-0.061-0.121-0.182-0.121-0.272c-0.031,0.545,0,0.667,0.06,0.364
		c0.061-0.152,0.122-0.273,0.213-0.364c0.243-0.364,0.638-0.606,0.911-0.939C191.283,87.862,191.526,87.286,191.374,87.104z"/>
	<path fill="#001940" d="M192.802,121.231l-16.55,58.009l2.46,105.38c0,0,28.393,2.122,39.629-8.032l-10.629-65.252l16.095-71.829
		L192.802,121.231z"/>
	<path fill="#001940" d="M156.148,121.624l-18.828,8.85c0,0-10.719,2.818-8.533,13.911l6.195,61.434l-10.264,70.768
		c0,0,8.806,10.547,26.359,4.365l7.713-103.289L156.148,121.624z"/>
	<path fill="#BFE5E5" d="M158.335,122.413c0,0,1.245-4.85,7.41-8.941l-0.79,16.7C164.925,130.202,161.524,121.655,158.335,122.413z"
		/>
	<path fill="#A5C6C7" d="M157.758,130.202l0.547-7.759c1.883-0.454,3.553,2.152,4.919,4.304L157.758,130.202z"/>
	<path fill="#F23B78" d="M171.212,126.292l0.486-0.939l3.431,5.243l-2.945,1.061L171.212,126.292z"/>
	<path fill="#F23B78" d="M163.255,126.746l-0.972-1.485c0,0-3.674,3.062,0.182,6.365
		C162.465,131.656,162.465,128.928,163.255,126.746z"/>
	<path fill="#F23B78" d="M171.211,126.292c0,0-2.915,2.576-7.956,0.455c-1.093,1.394-1.093,3.182-0.79,4.909l2.612,5.365h3.644
		l3.462-5.365C172.183,131.656,172.547,130.474,171.211,126.292z"/>
	<path fill="#F23B78" d="M168.721,137.021l2.946,76.769l-6.135,11.941l-5.01-11.88l4.555-76.83H168.721z"/>
	<path fill="#F7A483" d="M189.067,185.665l7.561-5.971c0,0,11.388-1.667,17.067-0.94c0,0,1.882,2.607-12.481,3.001
		c0,0,10.082,3.213,13.301,5.607c0,0,0.516,2.97-8.685-1.334l-4.191-0.303l9.748,4.849c0,0-0.365,1.849-9.262-0.545l-8.898,0.97
		L189.067,185.665z"/>
	<path fill="#00153B" d="M140.63,186.786l48.74-5.819c2.429,2.97,4.798,8.365,3.735,14.002l-62.253,19.7
		c0,0-16.459,2.91-12.116-16.851C118.736,197.818,125.69,187.726,140.63,186.786z"/>
	<path fill="#F7A483" d="M140.632,186.786c0,0,8.745,4.728,12.055,5.091l5.102-8.789l-6.954-4.516l-4.768-1.091
		c0,0-7.865-2.03-9.93,8.729L140.632,186.786z"/>
	<path fill="#002952" d="M227.785,203.788c2.946,17.791-10.021,13.275-10.021,13.275l-66.049-23.701
		c1.852-10.213,6.043-11.82,6.043-11.82l56.483,10.76C214.272,192.302,224.9,195.635,227.785,203.788z"/>
	<path fill="#370900" d="M262.07,98.317c0,0,7.865,7.244,7.015,30.763v71.193c0,0,0.455,7.304,6.528,12.123
		c0,0-51.715,15.153-56.149-7.971v-73.86c0,0-2.399-31.065,9.596-36.642C229.06,93.923,250.287,85.194,262.07,98.317z"/>
	<path fill="#F7A483" d="M267.839,159.357c10.72,5.122,4.981,17.185,4.981,17.185l-13.939,50.583c0,0-12.997,5.304-35.833,2.667
		c-3.158-4.516-9.687-23.519-11.874-38.006c-1.792-11.941-7.379-23.7-1.306-30.338c2.339-2.546,20.103-5.091,20.195-5.516
		l20.983-0.091L267.839,159.357z"/>
	<path fill="#E59375" d="M252.382,288.256c0,0-6.772,55.948-28.423,87.68c0,0-10.082,16.942-22.381,4.062
		c0,0-1.974-91.135,13.422-119.321C215,260.645,259.002,258.494,252.382,288.256z"/>
	<path fill="#E59375" d="M220.618,157.477c-7.409-0.212-17.248,7.092-17.461,14.488c-0.212,7.395,3.826,26.489,9.475,21.67
		c11.084-9.426,16.641-15.094,16.854-22.489C229.668,163.751,228.028,157.69,220.618,157.477z"/>
	<path fill="#E59375" d="M207.044,168.813l13.544-0.606l7.075,11.972c0,0-14.151,42.127-21.044,49.856
		c-7.349,8.244-8.078-1-8.807-4.698C197.782,225.367,201.912,175.784,207.044,168.813z"/>
	<path fill="#E59375" d="M207.592,505.835c-6.924,1.182-13.574-1.061-13.574-1.061l7.197-4.214c0,0,7.804-9.455,9.262-12.819
		c0.941-2.152,1.184-9.092,1.184-9.092l8.867,0.515l0.031,4.97l3.219,7.547c0,0,0.303,3.546-6.165,4.273
		C217.643,495.954,213.088,501.046,207.592,505.835z"/>
	<path fill="#09111C" d="M201.214,500.563c2.399,1.12,6.59,1.394,8.776-0.788c8.807-8.851,10.568-15.64,10.568-15.64
		c4.464,4.88,3.28,8.972,3.28,8.972l-0.334,1.696l-2.551,13.003l-0.911-0.061l-2.521-10.729l-6.164,9.941
		c-14.759,1.94-18.281-2.061-18.281-2.061L201.214,500.563z"/>
	<path fill="#E59375" d="M201.579,379.967c0,0,9.11,94.287,10.082,98.683c0,0,8.958,3.03,8.867,0.515
		c-0.213-6.063,8.655-44.916,9.232-54.463c0.911-15.305-1.58-25.458-9.536-46.037C220.224,378.694,205.587,368.571,201.579,379.967z
		"/>
	<path fill="#E79675" d="M231.764,226.489c-1.701-0.303-8.716,3.304-8.716,3.304s-8.776,28.095-9.14,32.368
		c-0.365,4.274,29.061,26.398,61.949,13.79c0,0-15.214-39.581-16.155-49.31C258.76,216.912,231.764,226.489,231.764,226.489z"/>
	<path fill="#101B26" d="M223.048,229.792c0,0-8.411,25.338-9.14,32.369c-2.612,24.883,31.126,35.339,64.014,22.731
		c0,0,2.126-34.218-18.22-58.252C259.702,226.64,254.296,231.58,223.048,229.792z"/>
	<path fill="#F7A483" d="M254.144,303.379l23.777-13.032c0,0-3.856,75.103-6.863,96.197c0,0-13.3,3.697-17.43,0.97
		c-12.329-28.884-19.496-91.59-19.496-91.59L254.144,303.379z"/>
	<path fill="#F7A483" d="M268.538,268.373c0,0,11.418,3.273,9.05,24.398c-2.308,20.609-40.297,22.579-43.85,1.424
		C229.942,271.434,248.435,259.402,268.538,268.373z"/>
	<path fill="#F7A483" d="M252.504,157.478h-22.897c1.033-3.334,3.189-11.941-0.152-17.791l23.14-15.154
		C252.595,124.503,248.496,149.962,252.504,157.478z"/>
	<path fill="#E1876F" d="M231.277,147.475c0.061-2.545-0.364-5.303-1.792-7.819l23.14-15.154c0,0-1.67,10.365-1.852,19.821
		C242.422,146.99,238.96,148.021,231.277,147.475z"/>
	<path fill="#F7A483" d="M225.933,141.748l-1.397-3.364l-3.462-9.941c-0.485-1.576-0.789-3.758-0.334-5.365
		c0.577-1.909,0.911-5,0.031-8.395c-2.339-9.092,1.488-14.093,1.488-14.093c4.95-8.728,17.613-9.334,17.613-9.334
		c15.73,0.03,17.765,15.094,17.765,15.094c3.036,9.941-4.586,18.73-4.616,18.73c-0.972,1.121-1.002,2.818-1.427,4.182
		c-0.456,1.425-1.185,2.758-2.096,3.94c-2.065,2.637-4.828,5.183-7.713,6.85c-2.733,1.576-8.078,3.303-11.934,3.455
		C228.302,143.597,226.723,143.688,225.933,141.748z"/>
	<path fill="#370900" d="M251.593,131.019c-0.273-7.153-0.456-6.698-0.456-6.698c-0.273-2.091-4.16,2.637-4.19-0.091
		c-0.243-12.456-5.072-18.154-6.894-19.033c-4.949-2.364-10.051-2.849-14.06-1.94c-6.255,1.425-5.587,9.82-5.587,9.82
		c-6.924-30.399,27.847-22.337,27.847-22.337c16.914,3.516,16.003,19.336,16.003,19.336c2.915,16.761-13.24,27.308-13.24,27.308
		L251.593,131.019z"/>
	<path fill="#F8A07D" d="M250.378,128.655c0.577,0.394,1.306,0.606,2.217,0.545c2.429-0.151,4.312-2.515,4.251-5.303
		c-0.091-2.758-2.125-4.88-4.524-4.698c-1.154,0.061-2.187,0.636-2.946,1.515c-1.093,1.273-1.033,3.516-0.668,5.062
		C248.951,127.018,249.497,128.049,250.378,128.655z"/>
	<path fill="#E98B6F" d="M251.442,121.836c0.06-1.455,3.067-0.212,2.672,0.606c-0.243,0.485-0.729,0.849-1.124,1.213
		c-0.546,0.485-0.789,0.909-0.82,1.636c0,0.091,0,0.334,0.091,0.394c0.395,0.243,1.58-1.242,1.823-1.545
		c0.516-0.607,0.516-1.607,0.242-2.334c-0.303-0.758-0.85-1.091-1.67-1c-0.668,0.06-1.336,0.151-1.245,0.97
		C251.411,121.776,251.442,121.897,251.442,121.836z"/>
	<path fill="#E98B6F" d="M252.443,123.291c-0.334-0.303-0.607-0.03-0.911,0.212c-0.273,0.243-0.425,0.546-0.486,0.879
		c-0.121,0.758,0.031,1.758,0.486,2.394c0.365,0.516,0.972,0.819,1.61,0.758c0.88-0.061,1.093-0.849,1.093-1.606
		c0-0.212,0-0.667-0.213-0.788c-0.212-0.121-0.364,0.212-0.485,0.363c-0.183,0.182-0.486,0.273-0.729,0.334
		c-0.517,0.06-1.002-0.152-1.336-0.515c-0.061-0.061-0.122-0.152-0.152-0.213c0.03,0.485,0.06,0.607,0.091,0.334
		c0.03-0.121,0.091-0.243,0.152-0.364c0.182-0.333,0.516-0.606,0.728-0.939C252.443,123.958,252.625,123.412,252.443,123.291z"/>
	<path fill="#FFFFFF" d="M250.287,129.17c0.03,0.818,0.729,1.454,1.549,1.394c0.82-0.03,1.457-0.728,1.397-1.546
		c-0.031-0.818-0.729-1.455-1.549-1.394C250.864,127.654,250.257,128.351,250.287,129.17z"/>
	<path fill="#0EC6A5" d="M226.297,156.781l-4.464,0.697c0,0-8.624,16.669-10.689,34.308c2.187,14.487,6.56,36.43,11.874,38.006
		c18.008,5.304,36.775-3.031,36.775-3.031l8.654-34.308c-23.109-8.971-11.448-35.369-11.448-35.369l-4.859-1.152
		C252.14,155.932,234.982,168.51,226.297,156.781z"/>
	<path fill="#0EC6A5" d="M217.157,168.177c0,0-9.02,12.486-10.599,18.912c-1.032,4.212,6.347,13.759,12.329,15.426
		C222.137,203.424,222.198,168.995,217.157,168.177z"/>
	<path fill="#F7A483" d="M258.426,507.563c-6.833,1.575-13.605-0.243-13.605-0.243l6.924-4.638c0,0,7.227-9.909,8.472-13.335
		c0.79-2.182,0.638-9.152,0.638-9.152h8.898l0.303,4.971l3.675,7.334c0,0,0.516,3.546-5.891,4.637
		C267.9,497.106,263.649,502.44,258.426,507.563z"/>
	<path fill="#09111C" d="M251.745,502.682c2.46,0.971,6.681,1.03,8.715-1.303c8.26-9.365,9.627-16.245,9.627-16.245
		c4.737,4.606,3.796,8.759,3.796,8.759l-0.243,1.697l-1.762,13.123h-0.911l-3.158-10.577l-5.587,10.305
		c-14.637,2.818-18.373-0.97-18.373-0.97L251.745,502.682z"/>
	<path fill="#F7A483" d="M271.969,378.694l-19.435,5.758c0,0,7.47,91.287,8.351,95.712c0,0,8.928,2.516,8.897,0
		c-0.06-6.062,7.805-43.401,8.473-52.917C279.439,410.911,283.903,399.94,271.969,378.694z"/>
	<path fill="#101B26" d="M277.588,275.254l3.826,90.286c0,0-49.286,11.396-83.48-4.213c0,0,3.128-77.224,17.036-102.834
		C214.97,258.463,274.794,252.917,277.588,275.254z"/>
	<path fill="#F7A483" d="M255.086,164.63c-4.191,6.122-1.822,12.032,1.548,18.488c3.432,6.546,24.385,11.093,23.414,3.758
		c-1.944-14.426-3.432-22.64-9.87-26.307C264.712,157.478,259.276,158.538,255.086,164.63z"/>
	<path fill="#F7A483" d="M254.418,176.752l10.537-8.486l12.785,5.456c0,0,13.635,42.279,12.693,52.614
		c-1.002,11.002-7.106,3.97-9.869,1.424C280.594,227.76,254.448,185.39,254.418,176.752z"/>
	<path fill="#F7A483" d="M290.22,225.488c0,0,1.67,29.763-2.885,49.644c0,0-5.77,3.425-6.226-0.757
		c-0.759-7.092-6.741-42.067-5.223-54.463C276.342,215.881,290.22,225.488,290.22,225.488z"/>
	<path fill="#F7A483" d="M284.632,299.47c0,0-1.548,0.757-0.516-2.88l1.215-5.667c0,0-1.245,9.456-4.464,11.244
		c0,0-0.577,0.515-1.215-0.727c0,0,2.733-8.063,2.733-11.335c0,0-0.698,9.85-4.373,12.668c0,0-1.852,0.787-1.822-1.152
		c0,0,2.794-6.97,3.067-12.517c0,0-2.186,9.608-4.19,12.275c0,0-2.065,0.424-1.61-1.849c0,0,1.579-5.758,2.764-12.396
		c0,0-3.766,3.183-6.621,1.698l8.503-12.396l2.976-2.092l6.226,0.758l0.728,7.365c0,0,0.456,7.698-1.852,14.942
		C286.181,297.409,285.604,299.257,284.632,299.47z"/>
	<path fill="#D2E7F2" d="M215.274,199.969l18.494,40.613l-37.625-3.486l-16.976-39.824L215.274,199.969z"/>
	<path fill="#E59375" d="M185.15,209.849c0.729,1.304,1.488,2.516,2.642,3.425c1.306,1.031,3.492,0.728,4.343,1.485
		c1.457,1.304,0.425,4.88-2.673,8.456c-2.702,3.092-4.676-0.97-5.587-3.455c-1.336-3.697-1.245-5.334,0.273-8.304L185.15,209.849z"
		/>
	<path fill="#C4A17E" d="M460.064,164.843l1.336-50.159c0.941-11.729-3.645-15.973-3.645-15.973
		c-19.617-7.334-29.486,2.577-29.486,2.577v51.25C436.773,160.479,448.859,165.722,460.064,164.843z"/>
	<path fill="#F7A483" d="M407.043,159.447c-10.294,5.031-4.585,17.124-4.585,17.124l13.938,50.584c0,0,12.997,5.303,35.834,2.667
		c3.157-4.516,9.687-23.52,11.872-38.006c1.792-11.941,7.381-23.701,1.307-30.338c-2.338-2.546-20.104-5.092-20.194-5.516h-21.379
		L407.043,159.447z"/>
	<path fill="#D7B089" d="M454.265,114.683l-1.337,49.947c2.369,0.334,4.769,0.394,7.106,0.212l1.337-50.159
		c0.94-11.729-3.646-15.972-3.646-15.972c-6.983-2.606-12.723-3.031-17.248-2.485c3.007,0.333,6.407,1.091,10.112,2.485
		C450.621,98.711,455.236,102.954,454.265,114.683z"/>
	<path fill="#E59375" d="M463.799,160.449c6.62,3.334,7.684,11.032,6.59,18.003c-1.153,7.304-14.241,22.67-17.461,16.002
		c-6.316-13.093-9.262-23.064-6.469-29.883C449.284,157.721,453.201,155.115,463.799,160.449z"/>
	<path fill="#E59375" d="M470.632,171.329l-15.396-0.697l-7.684,11.578c0,0,11.935,42.794,18.402,50.886
		c6.894,8.638,8.108-0.606,9.02-4.212C475.005,228.884,473.031,181.028,470.632,171.329z"/>
	<path fill="#CA8268" d="M474.275,296.984l0.941,6.365l-3.705,8.426c0,0,1.579,1.394,3.311-1.364l3.31-6.94l-0.455-7.152
		L474.275,296.984z"/>
	<path fill="#CA8268" d="M475.976,299.137l1.307,6.305l-3.219,8.638c0,0,1.639,1.303,3.219-1.546l2.915-7.122l-0.881-7.123
		L475.976,299.137z"/>
	<path fill="#E59375" d="M483.083,300.531l-1.154-7.396l-1.275-9.183l-5.739-0.788l-1.974,9.668l-0.486,5.062l-0.577,6.94
		l-0.304,2.242c0,0,1.792,0.576,3.188-2.97l1.458-6.547l2.49,5.152l-2.096,9.032c0,0,0.547,4.697,1.943,2.939l4.769-12.669
		L483.083,300.531z"/>
	<path fill="#E59375" d="M460.732,222.7c0,0,7.439,35.157,14.181,60.495c0,0,4.95,5.849,5.74,0.788
		c1.608-10.093-3.735-64.859-6.317-69.041C471.755,210.759,460.732,222.7,460.732,222.7z"/>
	<path fill="#E59375" d="M447.643,507.138c6.925,1.183,13.574-1.06,13.574-1.06l-7.197-4.213c0,0-7.804-9.456-9.262-12.82
		c-0.94-2.152-1.184-9.093-1.184-9.093l-8.867,0.516l-0.031,4.97l-3.219,7.548c0,0-0.303,3.546,6.165,4.272
		C437.591,497.288,442.146,502.35,447.643,507.138z"/>
	<path fill="#C93232" d="M454.02,501.896c-2.398,1.12-6.589,1.425-8.775-0.788c-8.806-8.851-10.568-15.64-10.568-15.64
		c-4.464,4.88-3.278,8.972-3.278,8.972l0.334,1.697l2.551,13.002l0.911-0.061l2.52-10.729l6.165,9.941
		c14.758,1.94,18.281-2.061,18.281-2.061L454.02,501.896z"/>
	<path fill="#E59375" d="M453.656,381.27c0,0-9.11,94.287-10.082,98.683c0,0-8.958,3.031-8.867,0.515
		c0.213-6.061-8.654-44.916-9.231-54.463c-0.91-15.305,1.579-25.458,9.535-46.037C435.011,380.027,449.678,369.874,453.656,381.27z"
		/>
	<path fill="#E59375" d="M419.979,284.528c0,0-3.4,56.251,12.178,91.347c0,0,6.893,18.458,21.288,8.002
		c0,0,18.341-89.287,8.259-119.776C461.703,264.07,418.825,254.069,419.979,284.528z"/>
	<path fill="#E79675" d="M443.545,226.489c1.7-0.303,8.715,3.303,8.715,3.303s8.776,28.095,9.142,32.369
		c0.363,4.273-29.063,26.398-61.949,13.79c0,0,15.214-39.582,16.155-49.311C416.518,216.911,443.545,226.489,443.545,226.489z"/>
	<path fill="#00A8FF" d="M452.26,229.792c0,0,8.411,25.337,9.141,32.369c2.611,24.882-31.126,35.339-64.015,22.731
		c0,0-2.126-34.218,18.22-58.252C415.576,226.64,421.012,231.58,452.26,229.792z"/>
	<path fill="#F7A483" d="M421.165,303.379l-23.778-13.032c0,0,3.857,75.102,6.863,96.196c0,0,13.301,3.698,17.431,0.97
		c12.329-28.883,19.496-91.59,19.496-91.59L421.165,303.379z"/>
	<path fill="#F7A483" d="M406.74,268.374c0,0-11.418,3.273-9.049,24.398c2.308,20.609,40.297,22.579,43.85,1.424
		C445.337,271.435,426.874,259.403,406.74,268.374z"/>
	<path fill="#F7A483" d="M422.773,157.479h22.896c-1.033-3.334-3.188-11.942,0.152-17.791l-23.141-15.154
		C422.682,124.504,426.781,149.962,422.773,157.479z"/>
	<path fill="#E1876F" d="M444.03,147.476c-0.062-2.546,0.364-5.304,1.792-7.819l-23.141-15.154c0,0,1.67,10.365,1.853,19.821
		C432.885,146.991,436.317,148.022,444.03,147.476z"/>
	<path fill="#F7A483" d="M449.376,141.748l1.397-3.364l3.462-9.941c0.484-1.576,0.789-3.758,0.334-5.364
		c-0.577-1.91-0.911-5.001-0.031-8.396c2.339-9.092-1.488-14.093-1.488-14.093c-4.95-8.728-17.613-9.334-17.613-9.334
		c-15.729,0.03-17.765,15.094-17.765,15.094c-3.036,9.941,4.586,18.73,4.616,18.73c0.972,1.121,0.972,2.818,1.427,4.182
		c0.456,1.425,1.186,2.758,2.096,3.94c2.065,2.637,4.828,5.183,7.714,6.85c2.732,1.576,8.077,3.303,11.934,3.455
		C447.007,143.597,448.586,143.688,449.376,141.748z"/>
	<path fill="#C4A17E" d="M423.685,131.019c0.273-7.152,0.455-6.698,0.455-6.698c0.273-2.091,4.16,2.637,4.191-0.091
		c0.243-12.456,5.071-18.154,6.893-19.033c4.95-2.364,10.053-2.849,14.061-1.94c6.256,1.425,5.588,9.82,5.588,9.82
		c6.924-30.399-27.847-22.337-27.847-22.337c-16.916,3.516-16.004,19.337-16.004,19.337c-2.916,16.76,13.24,27.307,13.24,27.307
		L423.685,131.019z"/>
	<path fill="#F8A07D" d="M424.93,128.655c-0.577,0.394-1.306,0.606-2.217,0.545c-2.429-0.151-4.313-2.515-4.251-5.303
		c0.091-2.758,2.126-4.88,4.525-4.698c1.153,0.061,2.186,0.636,2.944,1.515c1.094,1.273,1.033,3.516,0.668,5.062
		C426.327,127.018,425.78,128.049,424.93,128.655z"/>
	<path fill="#E98B6F" d="M423.867,121.836c-0.062-1.455-3.067-0.212-2.672,0.606c0.242,0.485,0.729,0.849,1.123,1.213
		c0.547,0.485,0.79,0.909,0.819,1.636c0,0.091,0,0.334-0.091,0.394c-0.395,0.243-1.579-1.242-1.822-1.545
		c-0.516-0.607-0.516-1.607-0.242-2.334c0.304-0.758,0.851-1.091,1.67-1c0.669,0.06,1.337,0.151,1.246,0.97
		C423.898,121.776,423.867,121.897,423.867,121.836z"/>
	<path fill="#E98B6F" d="M422.834,123.291c0.334-0.303,0.608-0.03,0.911,0.212c0.273,0.243,0.426,0.546,0.486,0.879
		c0.121,0.758-0.03,1.758-0.486,2.394c-0.364,0.516-0.971,0.819-1.609,0.758c-0.881-0.061-1.093-0.849-1.093-1.606
		c0-0.212,0-0.667,0.212-0.788c0.213-0.121,0.365,0.212,0.486,0.363c0.182,0.182,0.485,0.273,0.729,0.334
		c0.517,0.06,1.002-0.152,1.336-0.515c0.062-0.061,0.122-0.152,0.152-0.213c-0.03,0.485-0.061,0.607-0.091,0.334
		c-0.03-0.121-0.091-0.243-0.152-0.364c-0.182-0.333-0.516-0.606-0.729-0.939C422.865,123.958,422.683,123.412,422.834,123.291z"/>
	<path fill="#FFFFFF" d="M425.022,129.17c-0.031,0.818-0.729,1.454-1.55,1.394c-0.819-0.03-1.458-0.728-1.396-1.546
		c0.03-0.818,0.729-1.455,1.549-1.394C424.414,127.654,425.052,128.351,425.022,129.17z"/>
	<path fill="#4FA6C9" d="M458.121,168.177c0,0,9.019,12.487,10.598,18.912c1.033,4.213-6.346,13.76-12.329,15.427
		C453.171,203.425,453.08,168.995,458.121,168.177z"/>
	<path fill="#00A8FF" d="M458.121,168.177c0,0,9.019,12.487,10.598,18.912c1.033,4.213-6.346,13.76-12.329,15.427
		C453.171,203.425,453.08,168.995,458.121,168.177z"/>
	<path fill="#00A8FF" d="M448.981,156.781l5.132,0.697c0,0,8.229,16.76,10.264,34.429c-2.186,14.487-6.833,36.339-12.146,37.885
		c-18.009,5.304-36.775-3.031-36.775-3.031l-8.594-34.308c23.109-8.971,11.449-35.369,11.449-35.369l4.858-1.152
		C423.138,155.932,439.02,170.177,448.981,156.781z"/>
	<path fill="#F7A483" d="M416.852,507.563c6.832,1.575,13.604-0.242,13.604-0.242l-6.924-4.639c0,0-7.228-9.909-8.472-13.335
		c-0.791-2.182-0.639-9.152-0.639-9.152h-8.898l-0.303,4.971l-3.675,7.334c0,0-0.517,3.546,5.892,4.637
		C407.407,497.106,411.628,502.44,416.852,507.563z"/>
	<path fill="#C93232" d="M423.533,502.682c-2.46,0.971-6.682,1.03-8.717-1.303c-8.258-9.365-9.625-16.245-9.625-16.245
		c-4.737,4.607-3.797,8.759-3.797,8.759l0.244,1.697l1.76,13.123h0.912l3.158-10.577l5.588,10.305
		c14.637,2.818,18.371-0.97,18.371-0.97L423.533,502.682z"/>
	<path fill="#F7A483" d="M403.309,378.693l19.435,5.759c0,0-7.47,91.287-8.351,95.712c0,0-8.929,2.515-8.898,0
		c0.061-6.063-7.805-43.401-8.473-52.918C395.838,410.91,391.404,399.939,403.309,378.693z"/>
	<path fill="#F7A483" d="M420.678,170.207c0.456,7.396-3.4,14.639-10.81,15.094c-7.41,0.454-26.663-2.91-22.048-8.699
		c9.08-11.395,14.547-17.093,21.957-17.578C417.186,158.569,420.223,162.812,420.678,170.207z"/>
	<path fill="#F7A483" d="M415.029,180.937l-4.706-12.668l-13.787-1.849c0,0-33.404,29.368-37.868,38.733
		c-4.768,9.971,4.068,7.031,7.744,6.274C366.412,211.396,410.596,188.363,415.029,180.937z"/>
	<path fill="#F7A483" d="M357.909,211.546c0,0,16.641,23.368,32.129,36.673c0,0,6.68-0.667,4.555-4.304
		c-3.584-6.183-18.403-35.066-22.047-41.279C370.511,199.151,357.909,211.546,357.909,211.546z"/>
	<path fill="#F7A483" d="M394.593,243.916l3.644-0.091l8.595-3.879c-0.03,4.819,0.456,9.728,0.456,9.728
		c4.373,4.637,7.015,8.274,7.015,8.274c1.7,1.576-0.183,2.455-0.183,2.455c-3.219-0.939-9.262-5.667-9.262-5.667
		c3.037,3.122,8.807,7.577,8.807,7.577c1.184,1.545-0.79,2-0.79,2c-4.615-0.121-9.96-6.94-9.96-6.94
		c1.943,2.636,7.439,7.213,7.439,7.213c0.244,1.394-0.547,1.303-0.547,1.303c-3.674,0.455-8.775-6.122-8.775-6.122l1.974,2.425
		c3.006,3.061,0.243,3.394,0.243,3.394l-1.822-1.364c-5.496-4.243-7.592-9.668-7.592-9.668l-3.796-6.334L394.593,243.916z"/>
	<path fill="#D7B089" d="M447.461,102.955l-12.086-13.184c14.364-4.879,22.958,9.638,22.958,9.638l-2.733,3.546
		C455.6,102.955,450.437,91.256,447.461,102.955z"/>
	<path fill="#00A8FF" d="M463.769,327.353c2.035-24.095,2.703-53.189-3.613-68.919c0,0-57.181,3.758-62.617,16.79
		c0,0-2.763,15.094-0.456,52.129C397.082,327.353,436.894,336.9,463.769,327.353z"/>
	<path fill="#DDBE90" d="M404.462,146.931c0,8.213,16.095,15.184,26.693,17.639c-0.455-9.668-0.486-16.942-0.486-16.942
		c-1.032-18.518-0.455-25.398,1.215-38.218c1.307-10.002,8.594-14.033,15.548-6.425c-0.272-0.303-0.334-1.364-0.485-1.788
		c-0.212-0.637-0.455-1.273-0.76-1.879c-2.429-5.122-7.409-8.729-12.784-10.274c-1.943-0.545-3.796-0.727-5.801-0.515
		c-6.619,0.728-14.818,5.395-18.158,11.184c-3.25,5.698-3.979,12.851-4.525,19.275c-0.304,3.637-0.547,7.335-0.486,10.972
		C404.493,129.959,404.645,136.869,404.462,146.931z"/>
	<path fill="#3C2415" d="M307.651,139.385c1.518,1.515,2.095,3.818,2.855,5.849c5.709-7.516,9.93-22.307,1.791-29.065
		C300.059,105.985,299.816,131.565,307.651,139.385z"/>
	<path fill="#CA8268" d="M281.442,341.628l-0.941,6.365l3.705,8.425c0,0-1.579,1.395-3.31-1.363l-3.31-6.94l0.455-7.153
		L281.442,341.628z"/>
	<path fill="#CA8268" d="M279.742,343.779l-1.306,6.304l3.219,8.638c0,0-1.64,1.304-3.219-1.546l-2.915-7.122l0.85-7.122
		L279.742,343.779z"/>
	<path fill="#E59375" d="M272.606,345.204l1.154-7.396l1.275-9.183l5.74-0.788l1.974,9.668l0.485,5.092l0.577,6.94l0.304,2.243
		c0,0-1.792,0.576-3.188-2.971l-1.458-6.547l-2.49,5.153l2.095,9.031c0,0-0.546,4.698-1.943,2.939l-4.768-12.669L272.606,345.204z"
		/>
	<path fill="#E59375" d="M294.743,266.192c0,0-12.723,50.039-13.938,61.646c0,0-4.95,5.85-5.74,0.788
		c-1.609-10.093,0.669-63.01,3.28-67.192C280.896,257.251,294.743,266.192,294.743,266.192z"/>
	<path fill="#E59375" d="M284.418,205.91l-4.19,1.364c0,0-6.62,51.341-1.033,62.798c5.588,11.456,12.026-0.061,14.121-1.364
		c2.095-1.303,15.487-59.434,15.487-59.434L284.418,205.91z"/>
	<path fill="#010C18" d="M275.43,264.101l2.672-64.313c3.037-15.79,19.223-11.092,19.223-11.092
		c13.118,3.424,12.511,18.093,12.511,18.093l-11.327,61.616c0,0-2.369,9.426-14.516,9.426
		C283.993,277.8,275.035,276.588,275.43,264.101z"/>
	<path fill="#FFFFFF" d="M272.979,329.104l-0.201,5.847l10.197,0.35l0.201-5.846L272.979,329.104z"/>
	<path fill="#010C18" d="M297.386,270.557c0,0-5.649,37.793-13.726,60.949c0,0-6.924,0.636-10.872-0.364
		c0,0-0.607-54.189,3.857-71.738C276.675,259.404,298.995,259.858,297.386,270.557z"/>
	<path fill="#2C080D" d="M289.187,509.654c0,0-2.277,8.85-5.071,11.244c-2.794,2.395-13.483,5.94-13.483,5.94l-5.922,0.849
		c0,0-4.099,2.939,7.167,6.03c11.297,3.092,31.096-6.243,31.096-6.243l-4.464-18.094L289.187,509.654z"/>
	<path fill="#2C080D" d="M349.527,533.991c2.004-3.091,6.165-20.003,6.165-20.003l9.231-0.273l5.771,18.609
		c0,0,0.94,3.122-0.973,4.273c0,0-11.509,3.971-21.318-0.182C348.403,536.416,348.494,535.597,349.527,533.991z"/>
	<path fill="#F7A483" d="M292.315,277.527l-11.783-71.859c0,0-4.069-10.79,4.069-16.215l30.945-14.517h21.834l37.2,21.943
		l-24.385,80.618h-57.88V277.527z"/>
	<path fill="#353535" d="M350.196,277.527c0,0,6.68,15.215,8.291,50.22c0,0-50.288,15.729-66.049,0l-0.091-50.22H350.196z"/>
	<path fill="#353535" d="M317.216,327.596c-0.092,11.76,9.079,21.336,20.467,21.428c11.388,0.091,20.711-9.365,20.801-21.124
		c0.092-11.761-9.08-21.337-20.467-21.429C326.599,306.41,317.307,315.866,317.216,327.596z"/>
	<path fill="#353535" d="M358.455,330.505l5.466,89.438c0,0-9.687,23.275-26.814,8.971L318.491,336.9
		C318.491,336.9,327.511,305.956,358.455,330.505z"/>
	<path fill="#353535" d="M363.921,419.944c0,0,5.163,16.79,3.614,46.037l1.518,54.675l-18.979,0.363l-12.907-91.832
		C337.198,429.188,350.104,399.425,363.921,419.944z"/>
	<path fill="#353535" d="M292.498,327.807c-1.184,11.699,3.006,21.67,14.333,22.822s21.5-7.395,22.685-19.063
		c1.184-11.698-7.015-22.095-18.373-23.246C299.816,307.168,293.713,316.139,292.498,327.807z"/>
	<path fill="#353535" d="M324.687,343.203l-10.416,82.407c0,0-22.594,10.001-26.602-4.001c0,0,0.516-62.768,4.828-93.803
		C292.497,327.807,320.374,314.259,324.687,343.203z"/>
	<path fill="#353535" d="M314.27,422.247c0,0,3.158,12.093-0.243,34.157l-7.835,62.464l-20.012-1.062l1.488-99.5
		C287.668,418.307,300.119,405.274,314.27,422.247z"/>
	<path fill="#F7A483" d="M369.782,271.133c4.251,42.552,2.52,45.371,2.065,62.435c0,0,2.276,6.001,6.133,2.637
		s10.021-60.04,8.078-64.556C383.174,264.92,369.782,271.133,369.782,271.133z"/>
	<path fill="#F7A483" d="M372.453,331.869l-6.012,5.971l-5.103,7.455c2.521,1.697,5.163-2.485,5.163-2.485
		c-1.641,6.577-4.859,12.365-4.859,12.365c-0.759,2.364,1.457,2.184,1.457,2.184c2.49-2.546,5.68-10.063,5.68-10.063
		c-1.184,4.485-4.252,11.607-4.252,11.607c-0.273,2.061,1.762,1.455,1.762,1.455c4.221-2.485,5.648-11.608,5.648-11.608
		c-0.426,3.455-3.158,10.578-3.158,10.578c0.486,1.394,1.184,0.938,1.184,0.938c3.645-1.454,4.98-10.243,4.98-10.243l-0.576,3.272
		c-1.186,4.425,1.548,3.274,1.548,3.274l0.972-2.213c2.885-6.789,2.004-12.911,2.004-12.911l-0.029-7.94L372.453,331.869z"/>
	<path fill="#F7A483" d="M360.338,198.212c14.363-3.273,19.253,9.971,19.253,9.971s7.228,44.098,7.136,62.98
		c-0.061,12.759-15.639,2.485-16.672,0.242c-2.246-4.94-18.645-58.069-18.645-58.069S350.559,200.879,360.338,198.212z"/>
	<path fill="#091420" d="M367.625,272.163l-18.615-60.252c0.425-14.972,15.094-17.215,15.094-17.215
		c13.816-1.333,16.822,10.547,16.822,10.547l6.682,60.343c0,0,2.277,13.548-5.588,13.76
		C382.02,279.315,368.87,280.74,367.625,272.163z"/>
	<path fill="#FFFFFF" d="M380.926,329.99l-1.154,5.759l-9.989-2.001l1.122-5.758L380.926,329.99z"/>
	<path fill="#091420" d="M366.471,268.525c0,0,2.399,50.614,3.28,60.979l11.327,2.364c0,0,10.234-50.735,6.529-66.313
		C387.607,265.555,372.818,257.493,366.471,268.525z"/>
	<path fill="#F7A483" d="M337.47,159.085v23.276h-24.658c0,0,6.074-9.214,3.037-23.276H337.47z"/>
	<path fill="#E1876F" d="M324.96,178.845c-2.217,1.425-6.954,4.455-9.657,2.698c-0.728-0.485-1.063-1.122-1.184-1.819
		c1.579-3.697,3.766-11.032,1.701-20.639h21.621v2.121C334.769,167.995,331.307,174.754,324.96,178.845z"/>
	<path fill="#F8A07D" d="M338.047,159.418c0,0,4.19-1.818,8.958-12.183c0,0,10.325-12.275,3.006-26.186
		c0,0-4.312-11.76-25.265-8.486C324.746,112.563,322.863,144.113,338.047,159.418z"/>
	<path fill="#F7A483" d="M312.266,165.692l-1.397-3.637l-3.857-13.578c-0.485-1.697-0.516-4.001-0.212-5.758
		c0.334-1.91,0.546-3.91,0.061-5.91c-2.43-9.76,2.581-15.306,2.581-15.306c5.527-9.213,19.131-9.516,19.131-9.516
		c16.854,0.424,18.646,16.638,18.646,16.638c2.976,10.729-5.436,19.943-5.436,19.973c-0.668,0.728-0.243,4.274-0.425,5.304
		c-0.79,4.334-4.859,7.092-8.473,9.001c-3.978,2.092-8.806,4.334-13.301,4.85C317.884,167.935,313.086,167.783,312.266,165.692z"/>
	<path fill="#FFFFFF" d="M354.173,275.558c-0.062,2.394,3.583,27.428,2.065,27.762c0,0-41.634,9.577-63.832,0l-0.091-25.823
		l-11.783-71.859c0,0-4.069-10.79,4.069-16.215l30.945-14.517l-2.096,6.274l4.464,12.698l19.435-18.972l37.2,21.943
		c-2.064,6.879-4.13,13.759-6.225,20.639c-3.826,12.669-7.563,25.398-11.51,38.036C356.814,255.555,353.564,269.254,354.173,275.558
		z"/>
	<path fill="#D1D3D4" d="M320.618,179.482l0.243,11.547l4.281-4.152L320.618,179.482z"/>
	<path fill="#E6E7E8" d="M315.182,198.121c0,0.909,0.729,1.637,1.64,1.637c0.911,0,1.64-0.728,1.64-1.637
		c0-0.909-0.729-1.637-1.64-1.637C315.911,196.484,315.182,197.212,315.182,198.121z"/>
	<path fill="#E6E7E8" d="M315.182,228.095c0,0.91,0.729,1.637,1.64,1.637c0.911,0,1.64-0.727,1.64-1.637
		c0-0.909-0.729-1.636-1.64-1.636C315.911,226.459,315.182,227.186,315.182,228.095z"/>
	<path fill="#E6E7E8" d="M315.182,258.069c0,0.91,0.729,1.667,1.64,1.667c0.911,0,1.64-0.727,1.64-1.667
		c0-0.909-0.729-1.636-1.64-1.636C315.911,256.433,315.182,257.16,315.182,258.069z"/>
	<path fill="#E6E7E8" d="M317.458,289.561c0.837-0.346,1.234-1.303,0.888-2.138c-0.347-0.836-1.306-1.232-2.143-0.886
		c-0.837,0.346-1.234,1.303-0.887,2.138C315.662,289.51,316.622,289.907,317.458,289.561z"/>
	<path fill="none" stroke="#E6E7E8" stroke-width="2.9481" stroke-miterlimit="10" d="M320.618,192.363v113.746"/>
	<path fill="#471F08" d="M292.68,305.714c0,0,21.257,9.941,64.773-0.212c0.729-0.182,0.425-2.031,0.425-2.031l-0.425-4.182
		c-0.182-1.333-0.941-1.273-0.941-1.273s-41.634,9.577-63.832,0c0,0-0.911-0.15-0.942,1.183v5.213
		C291.738,304.411,291.738,305.441,292.68,305.714z"/>
	<path fill="none" stroke="#BCBEC0" stroke-width="4.8231" stroke-miterlimit="10" d="M314.271,308.866
		c0,0.667,0.516,1.212,1.184,1.212h8.473c0.638,0,1.184-0.545,1.184-1.212v-6.092c0-0.667-0.516-1.212-1.184-1.212h-8.473
		c-0.637,0-1.184,0.545-1.184,1.212V308.866z"/>
	<path fill="none" stroke="#BCBEC0" stroke-width="4.8231" stroke-miterlimit="10" d="M325.082,305.441h-4.494"/>
	<path fill="#E6E7E8" d="M320.618,179.209c0,0,13.635-5.304,16.854-10.547l4.038,7.668l-14.394,13.759l-6.498-10.638"/>
	<path fill="#3C2415" d="M334.01,124.17c0.455,0.819,2.277,6.607,0.03,9.487c4.768,3.637,2.46,11.032,2.46,11.032l1.154,0.06
		c6.681-1.727,4.434,10.881,4.434,10.881c0.06-0.303,1.154-1,1.396-1.213c1.306-1.242,4.039-5.728,4.92-7.304
		c4.708-8.577,4.25-9.031,5.528-14.093c0.85-3.455,0.485-12.85-4.556-17.548C349.345,115.472,343.454,115.472,334.01,124.17z"/>
	<path fill="#F7A483" d="M339.263,150.173c0.607,0.516,1.366,0.819,2.368,0.849c2.673,0.091,5.011-2.303,5.223-5.364
		c0.213-3.031-1.791-5.577-4.494-5.668c-1.275-0.03-2.46,0.485-3.401,1.364c-1.336,1.273-1.518,3.758-1.275,5.486
		C337.896,148.203,338.382,149.416,339.263,150.173z"/>
	<path fill="#E98B6F" d="M341.176,142.778c0.243-1.606,3.401,0.091,2.885,0.97c-0.304,0.515-0.881,0.848-1.367,1.212
		c-0.637,0.485-0.941,0.909-1.063,1.697c-0.03,0.091-0.03,0.364,0.031,0.455c0.395,0.303,1.852-1.182,2.156-1.515
		c0.607-0.607,0.759-1.728,0.516-2.546c-0.273-0.879-0.82-1.303-1.731-1.273c-0.729,0-1.488,0.03-1.457,0.939
		C341.146,142.717,341.146,142.869,341.176,142.778z"/>
	<path fill="#E98B6F" d="M342.117,144.476c-0.334-0.364-0.668-0.091-1.002,0.151c-0.334,0.212-0.517,0.546-0.638,0.909
		c-0.213,0.819-0.152,1.94,0.273,2.698c0.365,0.606,0.972,1,1.701,1c0.971,0,1.306-0.818,1.397-1.667
		c0.03-0.212,0.06-0.727-0.152-0.879c-0.213-0.151-0.395,0.182-0.577,0.333c-0.213,0.213-0.547,0.273-0.85,0.273
		c-0.547,0.031-1.094-0.273-1.428-0.727c-0.06-0.061-0.121-0.182-0.121-0.243c-0.031,0.546,0,0.667,0.061,0.364
		c0.06-0.121,0.121-0.273,0.212-0.364c0.243-0.363,0.638-0.606,0.911-0.939C342.026,145.233,342.299,144.657,342.117,144.476z"/>
	<path fill="#091420" d="M343.545,178.603l-16.55,58.009l2.46,105.38c0,0,25.721-1.576,36.957-11.729l-7.926-61.555l16.095-71.829
		L343.545,178.603z"/>
	<path fill="#1F3038" d="M343.545,178.603l-16.55,58.009l0.061,2.758l20.832-21.276c0,0,2.186-3.697-0.79-5.88l-4.919-4.697
		l3.522-2.516c0,0,4.92-2.394,4.343-6.849l-1.397-16.791L343.545,178.603z"/>
	<path fill="#091420" d="M306.892,178.997l-18.828,8.85c0,0-10.719,2.819-8.533,13.911l6.195,61.434l-3.098,65.101
		c0,0-2.642,12.093,19.193,10.032l7.743-103.289L306.892,178.997z"/>
	<path fill="#E6E7E8" d="M309.078,179.784c0,0,1.245-4.849,7.41-8.94l-0.82,16.699C315.698,187.573,312.267,179.027,309.078,179.784
		z"/>
	<path fill="#D1D3D4" d="M308.531,187.574l0.547-7.758c1.883-0.455,3.553,2.151,4.92,4.303L308.531,187.574z"/>
	<path fill="#1F3038" d="M306.891,178.997l-4.859,2.273l-3.523,16.184c0,0-1.761,4.183,0.79,5.274l4.585,2.667l-6.437,4.061
		c0,0-3.402,2.122-1.306,5.244l12.936,25.216l0.395-4.304L306.891,178.997z"/>
	<path fill="#B1775F" d="M339.445,152.598l-1.792-7.849l-1.154-0.061c0,0-1.154,5.213-7.409,6.122c0,0-2.703,0.394-3.857,0.546
		c-0.152,0.03-1.822-1.607-2.035-1.758c-1.852-1.213-4.069-1.516-6.225-1.697c-2.186-0.182-4.555-0.394-6.65,0.424
		c-0.274,0.121-2.976,1.455-3.067,1.091c0,0,2.854,12.578,4.858,16.184c0,0,0.881,2.758,7.349,2.091c0,0,11.115-0.969,19.739-9.001
		C340.69,157.599,339.445,152.598,339.445,152.598z M310.444,152.083c0.243-1.303,0.304-2.122,1.427-2.334
		c2.217-0.394,4.647-0.03,6.863,0.243c1.792,0.212,4.009,0.454,4.738,2.394c0.637,1.729,0.182,4.213-0.729,5.789
		c-1.518,2.637-6.468,4-8.958,2.303C311.598,158.993,309.958,154.538,310.444,152.083z"/>
	<path fill="#0088CE" d="M321.954,183.665l0.516-0.94l3.431,5.243l-2.976,1.061L321.954,183.665z"/>
	<path fill="#0088CE" d="M314.027,184.119l-0.972-1.485c0,0-3.674,3.061,0.182,6.364
		C313.237,189.029,313.237,186.301,314.027,184.119z"/>
	<path fill="#0088CE" d="M321.953,183.664c0,0-2.915,2.577-7.926,0.455c-1.093,1.394-1.093,3.182-0.79,4.91l2.612,5.364h3.644
		l3.462-5.364C322.925,189.029,323.289,187.847,321.953,183.664z"/>
	<path fill="#0071AC" d="M319.493,194.393l2.915,76.769l-6.134,11.942l-5.01-11.881l4.585-76.83H319.493z"/>
	<path fill="#3C2415" d="M333.037,123.11l5.618-2.789l10.689-4.879c0,0,0-7.304-13.483-10.123c0,0-16.52-2.606-29.669,4.334
		c0,0-3.583,1.94-6.407,0.212C299.815,109.896,304.37,128.959,333.037,123.11z"/>
</g>
</svg>
