<?xml version="1.0" encoding="utf-8"?>
<!-- Generator: Adobe Illustrator 14.0.0, SVG Export Plug-In . SVG Version: 6.00 Build 43363)  -->
<!DOCTYPE svg PUBLIC "-//W3C//DTD SVG 1.1//EN" "http://www.w3.org/Graphics/SVG/1.1/DTD/svg11.dtd">
<svg version="1.1" id="Layer_1" xmlns="http://www.w3.org/2000/svg" xmlns:xlink="http://www.w3.org/1999/xlink" x="0px" y="0px"
	 width="634px" height="402.618px" viewBox="0 0 634 402.618" enable-background="new 0 0 634 402.618" xml:space="preserve">
<path fill="#DCA86E" d="M537.558,312.328l41.859,90.29h4.708l-36.134-96.141L537.558,312.328z"/>
<path fill="#DCA86E" d="M494.299,314.235l-41.732,88.383h-4.707l36.134-90.29L494.299,314.235z"/>
<linearGradient id="SVGID_1_" gradientUnits="userSpaceOnUse" x1="372.2227" y1="99.9766" x2="401.8394" y2="78.2228" gradientTransform="matrix(1 0 0 -1 -20.96 471.3398)">
	<stop  offset="0" style="stop-color:#343A44"/>
	<stop  offset="0.3009" style="stop-color:#232D3E"/>
	<stop  offset="0.6391" style="stop-color:#182439"/>
	<stop  offset="1" style="stop-color:#142138"/>
</linearGradient>
<path fill="url(#SVGID_1_)" d="M388.059,383.288l-21.248,18.567l-25.063-17.678c0,0,8.524-2.798,23.155,1.019l15.014-12.59
	L388.059,383.288z"/>
<path fill="#1C80B4" d="M511.093,280.79c0,0-46.949,24.035-63.616,31.283c-16.541,7.249-73.031,63.712-73.031,63.712
	s7.252,14.752,10.814,12.081c31.936-22.764,61.199-43.11,80.156-50.232c37.407-14.116,47.84-17.168,57.382-28.23
	C522.798,309.403,517.2,296.05,511.093,280.79z"/>
<linearGradient id="SVGID_2_" gradientUnits="userSpaceOnUse" x1="422.124" y1="85.1265" x2="458.8936" y2="85.1265" gradientTransform="matrix(1 0 0 -1 -20.96 471.3398)">
	<stop  offset="0" style="stop-color:#343A44"/>
	<stop  offset="0.3009" style="stop-color:#232D3E"/>
	<stop  offset="0.6391" style="stop-color:#182439"/>
	<stop  offset="1" style="stop-color:#142138"/>
</linearGradient>
<path fill="url(#SVGID_2_)" d="M437.934,373.877l-6.106,27.596l-30.663,0.637c0,0,5.216-7.376,19.212-12.845l4.58-18.947
	L437.934,373.877z"/>
<path fill="#00A8FF" d="M512.238,274.686c0,0-43.642,4.705-59.672,13.226c-15.904,8.521-28.627,87.238-28.627,87.238
	s12.341,6.739,13.867,2.544c12.343-33.573,26.083-60.024,26.083-60.024c15.649-2.925,52.038,14.878,78.375-11.063
	C542.265,306.732,519.618,289.311,512.238,274.686z"/>
<path fill="#FEC4AD" d="M587.56,221.656c0,0-3.181,5.214-5.089,11.699l-17.939-1.653c0,0,9.288-13.988,8.523-22.509L587.56,221.656z
	"/>
<path fill="#FEC4AD" d="M583.616,192.534c-1.019-0.254-4.835-1.271-5.6-1.017c-1.017,0.381,0.129,1.907-0.636,2.67
	c-1.271,1.399-3.688,1.399-5.216,2.289c-1.909,1.018-3.436,2.417-4.199,3.943c-1.398,2.543,3.817,8.266,4.708,12.589
	c1.781,9.029,13.105,10.301,22.394,7.631c3.308-1.018,6.36-3.943,8.142-6.868c2.163-3.433,0.891-9.029-0.89-12.462
	c-1.019-2.035-3.182-3.815-4.962-5.087c-1.654-1.144-2.163-5.977-4.072-6.231C593.158,190.118,585.906,193.17,583.616,192.534z"/>
<linearGradient id="SVGID_3_" gradientUnits="userSpaceOnUse" x1="629.6084" y1="252.0459" x2="603.4276" y2="282.0691" gradientTransform="matrix(1 0 0 -1 -20.96 471.3398)">
	<stop  offset="0" style="stop-color:#343A44"/>
	<stop  offset="0.3009" style="stop-color:#232D3E"/>
	<stop  offset="0.6391" style="stop-color:#182439"/>
	<stop  offset="1" style="stop-color:#142138"/>
</linearGradient>
<path fill="url(#SVGID_3_)" d="M609.444,216.696c0,0-0.255-1.526,2.29-3.942c8.651-8.139-0.637-24.035-10.052-26.705
	c-4.835-1.399-7.889,0.127-9.543-4.706c0.127,0.382-1.907,1.272-2.163,1.399c-1.145,0.89-1.653,1.653-1.653,3.179
	c-0.127,6.995,6.106,13.353,10.688,17.804c2.163,1.908-3.054,0.636-5.217,1.017c-1.398,0.255-4.962,3.943-5.725,4.579
	c1.907,2.416,3.689,0.254,6.36,1.398c2.418,1.146,0.892,4.197-1.398,4.578c-3.563,0.509-4.962-1.78-4.962-1.78
	c-1.654,0.89-1.909,6.104-3.182,7.503c1.781,1.017,12.087,2.798,14.504,2.798C604.609,223.691,607.79,220.893,609.444,216.696z"/>
<path fill="#F23B78" d="M586.923,224.454c3.817,41.965-44.658,82.278-44.658,82.278s-31.554,1.145-30.026-32.047
	c0,0,2.417-5.977,22.011-23.781c13.105-11.826,22.266-29.502,31.427-29.121C590.868,222.673,586.923,224.454,586.923,224.454z"/>
<linearGradient id="SVGID_4_" gradientUnits="userSpaceOnUse" x1="490.5752" y1="199.7339" x2="612.4639" y2="199.7339" gradientTransform="matrix(1 0 0 -1 -20.96 471.3398)">
	<stop  offset="0" style="stop-color:#343A44"/>
	<stop  offset="0.3009" style="stop-color:#232D3E"/>
	<stop  offset="0.6391" style="stop-color:#182439"/>
	<stop  offset="1" style="stop-color:#142138"/>
</linearGradient>
<path fill="url(#SVGID_4_)" d="M469.615,309.021c0,0,29.137,10.81,67.942-3.815c38.806-14.751,49.493-83.423,49.493-83.423
	l4.453,2.289c0,0-4.326,75.92-55.473,92.325c-39.062,12.59-66.416-2.416-66.416-2.416V309.021L469.615,309.021z"/>
<path fill="#F8D2A1" d="M582.216,266.292c0,0,4.708,16.151,4.962,24.162c0.255,8.012-3.181,35.354-3.181,35.354l7.38,0.891
	c0,0,6.616-32.556,6.743-43.111c0.127-10.555-5.98-27.851-5.98-27.851L582.216,266.292z"/>
<path fill="#F23B78" d="M581.834,267.055c5.344,23.527,3.181,54.938,3.181,54.938l8.017,0.509
	c8.778-18.438,8.015-59.261,3.308-76.429c-2.799-10.047-4.326-20.219-11.197-21.873c-4.325-1.017-13.104,2.162-14.25,6.359
	C568.348,239.841,579.162,255.482,581.834,267.055z"/>
<path fill="#F8D2A1" d="M580.689,329.877c-1.781,3.433-2.546,5.85-1.527,6.74c0.764,0.636,1.909-2.671,3.308-3.815
	c0.382,1.399,0.51,3.942-0.381,6.104c-1.018,2.416-0.891,4.451,0.891,4.705c1.908,0.127,4.835,0,5.471-1.526
	s2.163-7.884,3.054-10.046c0.763-2.162-0.255-4.578,0-5.85c0.254-1.272-5.471-3.307-5.471-3.307
	c-0.255,0.508-2.036,2.925-2.036,2.925s-1.527,1.78-2.036,2.161C581.452,328.224,580.689,329.877,580.689,329.877z"/>
<path fill="none" stroke="#D4DBE2" stroke-width="0.25" stroke-miterlimit="10" d="M536.794,0v55.955"/>
<path fill="#FFBA01" d="M546.719,77.446c-0.382,5.341-5.09,9.41-10.561,9.029c-5.343-0.381-9.415-5.087-9.033-10.555
	c0.381-5.341,5.089-9.41,10.56-9.029C543.156,67.4,547.228,72.105,546.719,77.446z"/>
<path fill="#E6EEF5" d="M583.234,80.879h-92.752l40.587-29.503h11.578L583.234,80.879z"/>
<path fill="none" stroke="#D4DBE2" stroke-width="0.25" stroke-miterlimit="10" d="M100.387,0v55.955"/>
<path fill="#FFBA01" d="M110.311,77.446c-0.382,5.341-5.089,9.41-10.561,9.029c-5.344-0.381-9.415-5.087-9.033-10.555
	c0.381-5.341,5.089-9.41,10.56-9.029C106.621,67.4,110.693,72.105,110.311,77.446z"/>
<path fill="#E6EEF5" d="M146.699,80.879H53.947l40.587-29.503h11.578L146.699,80.879z"/>
<path fill="none" stroke="#A6AEBA" stroke-width="0.5" stroke-miterlimit="10" d="M0,402.236h634"/>
<path fill="#50CC85" d="M230.418,207.54c0,0,1.909-4.832,5.471-9.029c3.563-4.324,8.906-11.318,8.906-11.318
	s-2.544,5.087-6.107,10.809C235.253,203.598,230.418,207.54,230.418,207.54z"/>
<path fill="#50CC85" d="M234.108,199.274c0,0,3.944-3.052,6.234-9.665c2.418-6.485,4.454-11.572,4.454-11.572
	s-5.09,7.249-7.253,12.335C235.508,195.459,234.108,199.274,234.108,199.274z"/>
<path fill="#50CC85" d="M230.8,206.65c0,0,2.036-7.503,2.417-13.48c0.382-5.977,0.382-9.665,0.382-9.665s-2.545,10.81-3.435,15.388
	C229.4,203.471,230.8,206.65,230.8,206.65z"/>
<path fill="#50CC85" d="M229.019,211.61c0,0,0.636-7.758-1.527-14.625c-2.163-6.867-2.29-11.318-2.29-11.318
	s-1.018,7.249,0.254,13.48C226.601,205.378,229.019,211.61,229.019,211.61z"/>
<path fill="#50CC85" d="M229.655,209.829c0,0,5.471-4.705,8.27-5.722c2.799-1.145,6.616-4.324,6.616-4.324s-4.708,6.104-7.379,7.248
	C234.362,208.303,229.655,209.829,229.655,209.829z"/>
<path fill="#50CC85" d="M227.746,216.442c0,0,0.509-4.197-1.908-10.174c-2.418-5.977-3.054-8.901-3.054-8.901
	s-0.127,8.138,1.527,11.19C225.838,211.482,227.746,216.442,227.746,216.442z"/>
<path fill="#50CC85" d="M228.255,213.39c0,0,3.181-2.162,6.235-2.543c3.053-0.382,3.817-0.891,3.817-0.891s-1.527,2.798-5.217,3.307
	C229.273,213.771,228.255,213.39,228.255,213.39z"/>
<path fill="#50CC85" d="M226.219,220.384c0.636-2.67,1.527-6.74,2.418-9.41c2.035-5.977,6.743-13.862,6.743-13.862
	c-2.926,6.359-4.962,10.047-6.489,15.515c-0.636,2.162-1.527,5.214-2.163,7.249C226.728,220.511,226.219,220.893,226.219,220.384z"
	/>
<path fill="#77E6A6" d="M227.618,209.702c0,0-0.254-5.468-2.417-11.064c-2.036-5.468-4.962-14.497-4.962-14.497
	s0.891,5.977,2.417,12.971C224.183,204.107,227.618,209.702,227.618,209.702z"/>
<path fill="#77E6A6" d="M226.728,200.037c0,0-2.926-4.451-3.054-11.827c-0.127-7.375-0.508-13.098-0.508-13.098
	s2.544,9.156,3.053,14.879C226.728,195.841,226.728,200.037,226.728,200.037z"/>
<path fill="#77E6A6" d="M227.619,208.685c0,0,0.509-8.266,2.163-14.37c1.654-6.105,3.053-9.92,3.053-9.92s-1.145,11.827-1.908,16.66
	C230.036,206.014,227.619,208.685,227.619,208.685z"/>
<path fill="#77E6A6" d="M227.746,214.28c0,0,2.036-8.012,6.616-14.116c4.58-6.231,6.234-10.555,6.234-10.555
	s-1.399,7.63-4.835,13.48C232.199,208.812,227.746,214.28,227.746,214.28z"/>
<path fill="#77E6A6" d="M227.619,212.373c0,0-3.945-6.613-6.235-8.648c-2.417-2.035-5.216-6.613-5.216-6.613
	s2.672,7.758,4.962,9.919C223.42,209.066,227.619,212.373,227.619,212.373z"/>
<path fill="#77E6A6" d="M227.237,219.621c0,0,0.89-4.451,5.471-9.537c4.58-5.087,6.107-7.885,6.107-7.885s-2.672,8.139-5.344,10.682
	C230.799,215.297,227.237,219.621,227.237,219.621z"/>
<path fill="#77E6A6" d="M227.873,216.315c0,0-2.417-3.179-5.344-4.705c-2.926-1.526-3.562-2.162-3.562-2.162
	s0.509,3.306,4.198,5.086C226.728,216.315,227.873,216.315,227.873,216.315z"/>
<path fill="#50CC85" d="M227.492,224.199c0.254-2.925,0.763-7.248,0.763-10.428c0.127-6.74-2.036-16.15-2.036-16.15
	c0.636,7.503,1.527,11.827,1.145,17.931c-0.127,2.416-0.254,5.85-0.381,8.011C226.855,224.072,227.11,224.581,227.492,224.199z"/>
<path fill="#50CC85" d="M223.42,210.847c0,0-1.908-4.833-5.471-9.029c-3.562-4.324-8.906-11.319-8.906-11.319
	s2.545,5.087,6.107,10.81C218.713,206.904,223.42,210.847,223.42,210.847z"/>
<path fill="#50CC85" d="M219.73,202.453c0,0-3.944-3.052-6.234-9.664c-2.417-6.486-4.453-11.573-4.453-11.573
	s5.089,7.249,7.252,12.336C218.458,198.765,219.73,202.453,219.73,202.453z"/>
<path fill="#50CC85" d="M223.166,209.956c0,0-2.036-7.503-2.418-13.48c-0.381-5.977-0.381-9.664-0.381-9.664
	s2.544,10.809,3.435,15.387C224.438,206.777,223.166,209.956,223.166,209.956z"/>
<path fill="#50CC85" d="M224.947,214.916c0,0-0.636-7.757,1.527-14.624c2.163-6.868,2.29-11.319,2.29-11.319
	s1.018,7.249-0.254,13.48C227.237,208.685,224.947,214.916,224.947,214.916z"/>
<path fill="#50CC85" d="M224.311,213.136c0,0-5.471-4.706-8.27-5.723c-2.799-1.145-6.616-4.324-6.616-4.324s4.707,6.104,7.379,7.249
	C219.476,211.61,224.311,213.136,224.311,213.136z"/>
<path fill="#50CC85" d="M226.219,219.748c0,0-0.509-4.196,1.909-10.173c2.417-5.977,3.053-8.902,3.053-8.902
	s0.128,8.139-1.526,11.191C228,214.789,226.219,219.748,226.219,219.748z"/>
<path fill="#50CC85" d="M225.71,216.696c0,0-3.181-2.162-6.234-2.543c-3.054-0.382-3.817-0.89-3.817-0.89s1.527,2.797,5.216,3.306
	C224.692,217.078,225.71,216.696,225.71,216.696z"/>
<path fill="#50CC85" d="M227.746,223.691c-0.636-2.671-1.527-6.74-2.417-9.411c-2.036-5.977-6.744-13.861-6.744-13.861
	c2.927,6.358,4.962,10.046,6.489,15.514c0.636,2.162,1.527,5.214,2.163,7.249C227.237,223.818,227.619,224.199,227.746,223.691z"/>
<path fill="#E6EEF5" d="M234.617,242.257h-14.759l-4.581-26.197h24.556L234.617,242.257z"/>
<path fill="#DCA86E" d="M404.218,249.379l24.557,152.984h4.707l-19.339-152.984H404.218z"/>
<path fill="#DCA86E" d="M235.508,249.506l-31.936,153.112h-6.361l25.064-153.112H235.508z"/>
<path fill="#DCA86E" d="M448.622,240.477H185.251v11.828h263.371V240.477z"/>
<path fill="#F3BA7A" d="M461.345,240.477H172.654v7.885h288.691V240.477z"/>
<path fill="#A6AEBA" d="M380.68,236.279h-10.306l-10.306-65.364h7.888L380.68,236.279z"/>
<path fill="#E6EEF5" d="M377.626,236.279h-39.951l-10.179-65.364h39.951L377.626,236.279z"/>
<path fill="#E6EEF5" d="M380.68,234.882h-43.514v4.832h43.514V234.882z"/>
<path fill="#A6AEBA" d="M435.517,234.882H380.68v4.832h54.837V234.882z"/>
<path fill="#A6AEBA" d="M355.742,206.777c1.145,4.96,0.382,10.428-1.781,12.081s-4.835-1.017-5.98-6.104
	c-1.145-4.96-0.381-10.428,1.781-12.081C351.925,199.147,354.598,201.817,355.742,206.777z"/>
<path fill="#A6AEBA" d="M293.525,239.46H287.8c-2.29,0-4.326-1.653-4.708-4.069l-2.29-14.625h19.594l-2.29,14.625
	C297.851,237.807,295.816,239.46,293.525,239.46z"/>
<path fill="#A6AEBA" d="M298.742,236.408c-0.255,0-0.382,0-0.636,0h-0.255l-0.254-0.129c-0.127-0.127-3.435-2.669-3.435-6.357
	c0-3.815,2.544-6.867,5.598-6.867c1.908,0,3.562,0.763,4.58,1.907c0.764,0.89,1.527,2.544,1.018,5.087
	C304.722,233.991,302.304,236.408,298.742,236.408z M298.615,234.627c3.562,0.127,4.707-2.67,5.089-4.959
	c0.254-1.526,0-2.798-0.636-3.688c-0.636-0.891-1.909-1.272-3.181-1.272c-2.163,0-3.817,2.289-3.817,5.087
	C295.943,232.084,297.979,233.991,298.615,234.627z"/>
<path fill="#E6EEF5" d="M278.894,240.73h24.81l4.072-4.322H274.95L278.894,240.73z"/>
<path fill="#B6BFCC" d="M147.335,145.354H28.5v256.882h118.835V145.354z"/>
<path fill="#E6EEF5" d="M133.594,156.672h-91.48v26.96h91.48V156.672z"/>
<path fill="#FFFFFF" d="M98.86,173.332H76.976c-0.509,0-1.018-0.509-1.018-1.018v-4.451c0-0.508,0.509-1.017,1.018-1.017H98.86
	c0.509,0,1.018,0.509,1.018,1.017v4.451C99.878,172.95,99.369,173.332,98.86,173.332z"/>
<path fill="#E6EEF5" d="M133.594,190.881h-91.48v26.96h91.48V190.881z"/>
<path fill="#FFFFFF" d="M98.86,207.667H76.976c-0.509,0-1.018-0.508-1.018-1.017v-4.451c0-0.509,0.509-1.017,1.018-1.017H98.86
	c0.509,0,1.018,0.508,1.018,1.017v4.451C99.878,207.159,99.369,207.667,98.86,207.667z"/>
<path fill="#E6EEF5" d="M133.594,225.217h-91.48v26.96h91.48V225.217z"/>
<path fill="#FFFFFF" d="M98.86,241.876H76.976c-0.509,0-1.018-0.509-1.018-1.019v-4.449c0-0.51,0.509-1.018,1.018-1.018H98.86
	c0.509,0,1.018,0.508,1.018,1.018v4.449C99.878,241.494,99.369,241.876,98.86,241.876z"/>
<path fill="#E6EEF5" d="M133.594,259.807h-91.48v132.001h91.48V259.807z"/>
<path fill="#FFFFFF" d="M98.86,276.593H76.976c-0.509,0-1.018-0.509-1.018-1.017v-4.451c0-0.509,0.509-1.018,1.018-1.018H98.86
	c0.509,0,1.018,0.509,1.018,1.018v4.451C99.878,276.084,99.369,276.593,98.86,276.593z"/>
</svg>
