<?xml version="1.0" encoding="UTF-8"?>
<!DOCTYPE svg PUBLIC "-//W3C//DTD SVG 1.0//EN" "http://www.w3.org/TR/2001/REC-SVG-20010904/DTD/svg10.dtd">
<!-- Creator: CorelDRAW 2019 (64-Bit) -->
<svg xmlns="http://www.w3.org/2000/svg" xml:space="preserve" width="155.042mm" height="30.833mm" version="1.0" style="shape-rendering:geometricPrecision; text-rendering:geometricPrecision; image-rendering:optimizeQuality; fill-rule:evenodd; clip-rule:evenodd"
viewBox="0 0 17427.85 3465.86"
 xmlns:xlink="http://www.w3.org/1999/xlink"
 xmlns:xodm="http://www.corel.com/coreldraw/odm/2003">
 <defs>
  <style type="text/css">
   <![CDATA[
    .fil5 {fill:#156DF1;fill-rule:nonzero}
    .fil6 {fill:#2B2A29;fill-rule:nonzero}
    .fil0 {fill:#4AA7F8;fill-rule:nonzero}
    .fil3 {fill:#E60E38;fill-rule:nonzero}
    .fil1 {fill:#F23B78;fill-rule:nonzero}
    .fil2 {fill:url(#id0)}
    .fil4 {fill:url(#id1)}
   ]]>
  </style>
  <radialGradient id="id0" gradientUnits="userSpaceOnUse" gradientTransform="matrix(3.52477 -0 -0 3.5253 -3217 -6765)" cx="1274.18" cy="2678.78" r="650.07" fx="1274.18" fy="2678.78">
   <stop offset="0" style="stop-opacity:1; stop-color:#F23B78"/>
   <stop offset="0.368627" style="stop-opacity:1; stop-color:#F23B78"/>
   <stop offset="1" style="stop-opacity:1; stop-color:#E53871"/>
  </radialGradient>
  <radialGradient id="id1" gradientUnits="userSpaceOnUse" gradientTransform="matrix(3.71812 -0 -0 3.71899 -3541 -4372)" cx="1302.68" cy="1607.97" r="616.04" fx="1302.68" fy="1607.97">
   <stop offset="0" style="stop-opacity:1; stop-color:#4AA7F8"/>
   <stop offset="0.368627" style="stop-opacity:1; stop-color:#4AA7F8"/>
   <stop offset="1" style="stop-opacity:1; stop-color:#469EEA"/>
  </radialGradient>
 </defs>
 <g id="Слой_x0020_1">
  <metadata id="CorelCorpID_0Corel-Layer"/>
  <g id="_2431368101872">
   <path class="fil0" d="M2682.58 1228.86l0 -0.15c0,-80.03 -8.93,-157.75 -23.59,-233.55 -4.82,-24.99 -13.19,-48.31 -19.49,-72.77 -12.78,-49.68 -26.64,-98.84 -45.29,-145.96 -10.87,-27.56 -24.31,-53.39 -37.22,-80.03 -19.78,-41.05 -40.65,-81 -64.67,-119.32 -16.61,-26.49 -34.31,-51.62 -52.84,-76.75 -25.69,-34.6 -52.84,-67.55 -81.96,-99.27 -21.82,-23.74 -43.38,-47.09 -66.99,-69.2 -30.73,-28.82 -63.82,-54.76 -97.47,-80.45 -25.8,-19.64 -50.66,-39.94 -78.12,-57.52 -37.18,-23.91 -76.86,-43.52 -116.52,-63.31 -27.45,-13.74 -53.28,-29.65 -81.84,-41.33 -66.58,-27.17 -135.75,-49.28 -207.43,-64.68l0 0.29c-70.97,-15.11 -144.53,-22.52 -219.51,-24.86l0 0.7c-6.45,-0.26 -13.16,-0.26 -19.62,-0.26l0 -0.44 -699.86 0 0 0.29 -769.98 0c-0.4,13.04 0,23.21 0,35.3 0,231.19 184.36,419.59 413.9,426.16l355.95 0 0 0.15 697.09 0c85.41,2.2 166.52,20.04 243.13,47.65 73.04,26.35 140.85,63.41 201.94,109.02l6.6 5.5c58.47,44.74 110.22,97.47 153.74,156.79l5.49 6.6c40.79,56.82 71.82,120.68 95.96,187.82 4.93,13.71 8.93,27.74 13.05,41.86 20.04,67.98 34.05,138.96 34.31,213.64 -0.12,74.69 -14.12,145.7 -34.31,213.8 -4.13,13.99 -8.12,28 -13.05,41.86 -24.15,67.02 -55.17,130.84 -95.96,187.7l-5.49 6.6c-43.52,59.29 -95.4,112.03 -153.74,156.8l-6.6 5.49c-61.09,45.58 -128.9,82.65 -201.94,108.89 -81.54,29.37 -168.15,48.05 -259.72,48.05l0 461.31c13.04,0 39.25,0 39.25,0 74.95,-2.33 148.54,-9.73 219.51,-24.84l0 0.29c71.78,-15.4 140.85,-37.51 207.43,-64.67 28.42,-11.68 54.36,-27.6 81.81,-41.34 39.84,-19.9 79.48,-39.4 116.56,-63.31 27.32,-17.69 52.18,-37.88 78.12,-57.52 33.76,-25.54 66.7,-51.48 97.47,-80.33 23.59,-22.11 45.14,-45.44 66.99,-69.2 29.08,-31.7 56.27,-64.52 81.96,-99.28 18.54,-24.98 36.23,-50.22 52.84,-76.75 24.02,-38.29 44.88,-78.24 64.67,-119.29 12.9,-26.64 26.2,-52.46 37.18,-80.07 18.68,-47.09 32.54,-96.24 45.29,-145.95 6.34,-24.44 14.7,-47.76 19.5,-72.77 14.55,-75.77 23.62,-153.48 23.62,-233.55l0 -0.11 0 -0.15 0 -1.52 0 -1.51 0 -0.15 -0.15 -0.4z"/>
   <path class="fil1" d="M1039.22 900.2c-417.48,15.09 -697.39,319.37 -703.58,737.85 -3.02,199.91 -0.55,400.08 -0.55,600.12 -0.11,142.27 -1.78,284.5 0.29,426.74l0.15 9.35 -0.29 0c-0.15,-5.08 -0.4,-7.14 -0.55,0l-0.55 0 0 791.4c12.93,0.4 24.31,0 36.93,0 242.98,0 439.58,-192.5 446.58,-432.09l1.25 -94.06 0 -257.72c0,0 -4.13,-607.12 -0.84,-994.06 1.91,-232.16 85.24,-311.93 316.17,-313.18l9.59 0c-6.71,0 2.61,-0.15 11.39,-0.26 8.4,-0.15 16.21,-0.29 8.95,-0.15l38.14 -0.4c57.11,0.15 27.46,0 97.88,0.4l0 -480.96c-36.38,-0.28 -87.16,1.08 -260.94,7.41l0 -0.4z"/>
   <path class="fil2" d="M1292.78 2456.77c-31.72,0 -93.2,-0.55 -162.95,-0.96 -69.21,-0.55 -146.6,-1.1 -211.01,-1.1 -24.83,0 -47.9,0.11 -67.66,0.26 -11.13,0.15 -22.26,0.15 -33.35,0.29 -0.55,-126.05 -1.1,-289.71 -0.99,-451.46 86.92,0 172.16,0.15 255.22,0.15 78.38,0 154.7,0 228.14,-0.27l0 453.09c-2.18,0 -4.64,0 -7.41,0l0 0zm-958.46 -0.44c-111.46,-0.11 -222.79,-0.4 -334.27,-0.52l0 -450.51c109.81,-0.81 221.84,-1.21 334.41,-1.51 0.26,78.11 0.67,156.24 0.55,234.23 0,72.78 -0.55,145.56 -0.7,218.18l0 0.11z"/>
   <path class="fil3" d="M479.16 2456.33c-48.31,0 -96.51,0 -144.83,-0.11 0.15,-72.77 0.66,-145.4 0.66,-218.18 0,-78.11 -0.4,-156.24 -0.52,-234.23 64.08,-0.12 128.46,-0.12 192.43,-0.12 92.83,0 185.07,0.12 275.94,0.12 4.68,0 9.35,0 13.86,0 -0.11,161.75 0.44,325.41 0.99,451.46 -112.87,0.81 -225.83,1.07 -338.68,1.07l0.15 0z"/>
   <path class="fil4" d="M1450.53 1372.9l0 -479.73c132.07,0.26 452.34,1.36 690.38,1.8 12.34,25.94 23.21,52.7 33.09,80.03 4.93,13.71 8.91,27.75 13.04,41.87 20.04,67.97 34.03,138.95 34.31,213.64 -0.15,48.9 -6.18,96.11 -15.92,142.12 -85.82,0 -175.45,0 -262.89,0 -197.7,0 -384.52,0 -491.87,0.27l-0.15 0zm1232.08 -137.86c0,-0.96 0,-1.76 0,-2.73 0,0.97 0,1.78 0,2.73z"/>
   <path class="fil5" d="M2672.85 1372.78c-83.2,0 -264.96,-0.15 -467.58,-0.15 9.76,-45.99 15.8,-93.22 15.94,-142.12 -0.13,-74.69 -14.14,-145.67 -34.33,-213.64 -4.13,-14.12 -8.1,-28.16 -13.05,-41.87 -9.73,-27.34 -20.72,-54.09 -33.09,-80.03 69.61,0.11 132.36,0.26 181.23,0.26 45.84,0 79.48,-0.15 95.4,-0.26 35.15,-0.29 73.71,-0.55 112.83,-0.55 33.9,0 68.24,0.15 101.34,0.15 2.47,9.33 5.34,18.5 7.67,27.85 6.31,24.44 14.7,47.8 19.49,72.78 14.56,75.76 23.63,153.48 23.63,233.54l0 0.15 0 0.12 0 1.51 0 1.51 0 0.15 0 0.15c0,0.97 0,1.78 0,2.73 -0.15,46.69 -4.13,92.56 -9.62,137.73 -0.15,0 -21.56,0 -0.15,0l0.29 0z"/>
  </g>
  <path class="fil6" d="M3681.39 1134.15l-144.94 0 0 -879.86 729.81 0 0 879.86 -144.94 0 0 -751.97 -439.93 0 0 751.97zm1582.39 -115.95l0 112.54c-29.56,11.36 -62.53,17.05 -98.91,17.05 -82.98,0 -125.6,-43.2 -127.89,-129.59 -82.98,93.21 -189.27,139.82 -318.87,139.82 -86.39,0 -154.87,-22.17 -205.47,-66.5 -50.58,-44.33 -75.88,-105.16 -75.88,-182.46 0,-156.86 104.01,-248.38 312.04,-274.52 13.65,-2.28 33.53,-4.55 59.68,-6.82 98.91,-11.36 159.72,-24.44 182.46,-39.22 26.15,-18.19 39.21,-49.45 39.21,-93.78 0,-96.63 -66.5,-144.94 -199.5,-144.94 -68.2,0 -119.93,13.93 -155.17,41.77 -35.24,27.85 -56.27,73.6 -63.09,137.27l-141.52 0c2.27,-94.35 35.8,-167.68 100.6,-219.97 64.79,-52.29 154.03,-78.44 267.71,-78.44 123.91,0 215.98,28.42 276.23,85.26 19.32,18.19 33.54,42.06 42.64,71.61 9.09,29.55 14.21,53.71 15.34,72.47 1.14,18.76 1.7,46.9 1.7,84.41 0,43.2 -1.14,108.56 -3.41,196.09 -2.27,87.53 -3.41,152.9 -3.41,196.08 0,31.83 4.26,54.28 12.78,67.35 8.53,13.07 24.16,19.62 46.9,19.62 9.09,0 21.03,-1.71 35.81,-5.11zm-233.62 -341.03c-10.23,7.96 -21.02,14.78 -32.4,20.46 -11.36,5.69 -25.85,10.23 -43.48,13.65 -17.61,3.41 -29.55,5.97 -35.8,7.68 -6.26,1.7 -21.32,3.97 -45.19,6.81 -23.88,2.84 -36.38,4.27 -37.52,4.27 -35.24,4.54 -58.25,7.67 -69.05,9.37 -10.8,1.71 -31.26,6.53 -61.39,14.49 -30.13,7.96 -51.44,17.05 -63.95,27.28 -12.5,10.24 -24.72,25.29 -36.66,45.19 -11.94,19.9 -17.91,43.48 -17.91,70.77 0,45.47 15.64,81.27 46.9,107.42 31.26,26.15 74.17,39.22 128.74,39.22 69.33,0 131.29,-20.46 185.85,-61.39 54.56,-40.92 81.84,-89.23 81.84,-144.94l0 -160.28zm514.96 456.98l-144.94 0 0 -879.86 144.94 0 0 349.55 439.93 0 0 -349.55 144.94 0 0 879.86 -144.94 0 0 -402.42 -439.93 0 0 402.42zm1555.1 -277.94c-44.33,204.62 -172.22,306.93 -383.66,306.93 -129.58,0 -231.04,-40.35 -304.37,-121.06 -73.32,-80.72 -109.98,-192.69 -109.98,-335.92 0,-142.09 37.79,-257.2 113.39,-345.29 75.59,-88.1 174.21,-132.16 295.85,-132.16 135.28,0 235.59,45.76 300.96,137.27 65.36,91.51 98.05,207.18 98.05,347l0 20.46 -661.61 0 -1.7 10.23c0,93.22 24.44,166.54 73.32,219.97 48.87,53.43 115.95,80.14 201.2,80.14 63.67,0 113.97,-14.77 150.91,-44.33 36.95,-29.55 65.66,-77.3 86.12,-143.23l141.52 0zm-139.81 -240.43c-6.82,-84.13 -32.41,-149.77 -76.74,-196.95 -44.33,-47.18 -102.88,-70.76 -175.63,-70.76 -70.48,0 -129.02,23.88 -175.64,71.61 -46.6,47.75 -74.46,113.12 -83.55,196.09l511.56 0zm1006.04 -361.49l0 879.86 -144.94 0 0 -751.97 -313.75 0 -11.94 388.77c-3.41,134.14 -27.84,231.33 -73.32,291.58 -45.47,60.25 -102.3,90.38 -170.51,90.38 -42.06,0 -76.73,-6.26 -104.01,-18.76l0 -117.66c14.77,7.96 40.35,11.94 76.73,11.94 34.1,0 63.38,-18.47 87.81,-55.42 24.44,-36.95 37.8,-99.19 40.07,-186.72l15.34 -532 598.51 0zm876.45 408.39c52.29,48.31 78.44,113.96 78.44,196.94 0,82.99 -25.3,149.49 -75.89,199.5 -50.58,50.02 -118.51,75.03 -203.76,75.03l-465.51 0 0 -879.86 144.94 0 0 335.92 313.75 0c86.4,0 155.74,24.16 208.03,72.47zm-254.07 52l-267.71 0 0 291.58 267.71 0c59.12,0 104.3,-12.79 135.56,-38.36 31.26,-25.58 46.9,-61.67 46.9,-108.28 0,-96.63 -60.82,-144.94 -182.46,-144.94z"/>
  <path class="fil0" d="M4386.82 2676.7l-245.54 0c-7.96,-22.74 -13.65,-51.16 -17.05,-85.26 -73.9,73.9 -168.81,110.83 -284.76,110.83 -97.76,0 -174.5,-23.58 -230.2,-70.76 -55.7,-47.18 -83.55,-112.25 -83.55,-195.24 0,-37.51 4.83,-70.48 14.5,-98.9 9.66,-28.42 25.57,-52.29 47.74,-71.61 22.17,-19.32 43.2,-35.24 63.09,-47.75 19.88,-12.5 47.46,-22.73 82.7,-30.69 35.24,-7.96 63.66,-13.93 85.25,-17.91 21.6,-3.98 51.73,-8.24 90.38,-12.79 85.26,-11.36 142.39,-23.3 171.38,-35.8 28.98,-12.51 43.48,-35.81 43.48,-69.92 0,-78.44 -52.87,-117.66 -158.58,-117.66 -55.7,0 -96.63,9.95 -122.77,29.84 -26.15,19.9 -43.2,54.85 -51.16,104.86l-226.78 0c13.65,-197.79 149.49,-296.7 407.53,-296.7 255.77,0 383.66,95.49 383.66,286.47l0 380.25c0,111.41 10.23,190.98 30.7,238.72zm-264.3 -427.99c-28.42,17.05 -85.26,32.4 -170.51,46.04 -71.63,11.36 -118.23,25.57 -139.82,42.62 -25.01,21.59 -37.52,51.16 -37.52,88.67 0,36.38 11.66,65.08 34.96,86.12 23.3,21.02 55.99,31.54 98.05,31.54 64.79,0 116.8,-17.33 156.02,-52.01 39.22,-34.67 58.82,-82.7 58.82,-144.08l0 -98.9zm1377.76 687.17l-226.78 0 0 -259.18 -579.75 0 0 259.18 -226.78 0 0 -445.04 105.72 0c28.42,-54.56 54,-134.14 76.73,-238.72 22.74,-104.58 34.1,-205.19 34.1,-301.81l0 -153.46 702.52 0 0 693.99 114.24 0 0 445.04zm-354.67 -445.04l0 -514.95 -237.01 0 0 22.17c0,85.25 -10.52,175.34 -31.55,270.26 -21.03,94.93 -43.48,169.09 -67.35,222.52l335.92 0zm1515.88 185.87l-228.49 0 0 -668.42 -5.11 0 -172.22 668.42 -228.49 0 -172.22 -668.42 -5.11 0 0 668.42 -228.49 0 0 -879.86 351.26 0 165.4 639.43 6.82 0 165.4 -639.43 351.26 0 0 879.86zm1011.16 0l-231.91 0 0 -595.1 -313.74 595.1 -274.53 0 0 -879.86 231.9 0 0 595.1 313.75 -595.1 274.53 0 0 879.86zm1011.16 0l-240.43 0 0 -370.02 -339.32 0 0 370.02 -240.43 0 0 -879.86 240.43 0 0 318.87 339.32 0 0 -318.87 240.43 0 0 879.86zm1011.16 0l-231.91 0 0 -595.1 -313.74 595.1 -274.53 0 0 -879.86 231.9 0 0 595.1 313.75 -595.1 274.53 0 0 879.86zm1026.5 -339.32c-14.78,113.68 -59.4,202.34 -133.85,266 -74.46,63.66 -170.23,95.49 -287.31,95.49 -135.28,0 -243.85,-41.49 -325.69,-124.48 -81.84,-82.98 -122.77,-193.25 -122.77,-330.79 0,-142.09 41.21,-256.35 123.63,-342.74 82.42,-86.4 191.82,-129.59 328.24,-129.59 117.08,0 212.57,29.84 286.46,89.52 73.9,59.69 115.96,140.68 126.19,242.99l-237.02 0c-18.19,-101.18 -76.16,-151.76 -173.92,-151.76 -65.94,0 -117.38,25.29 -154.32,75.88 -36.94,50.59 -55.42,120.78 -55.42,210.6 0,87.53 17.91,155.45 53.72,203.76 35.8,48.31 86.1,72.47 150.91,72.47 105.72,0 168.24,-59.12 187.56,-177.33l233.61 0zm854.29 -354.67l-289.88 0 0 693.99 -240.43 0 0 -693.99 -289.88 0 0 -185.87 820.18 0 0 185.87zm335.91 -185.87l0 109.13c63.67,-88.67 154.61,-133 272.84,-133 118.22,0 213.14,42.64 284.75,127.89 71.63,85.26 107.43,198.94 107.43,341.03 0,137.55 -34.96,248.11 -104.86,331.66 -69.92,83.55 -162.27,125.32 -277.08,125.32 -118.23,0 -208.61,-43.76 -271.13,-131.29l0 421.17 -240.43 0 0 -1191.9 228.49 0zm213.15 170.51c-65.93,0 -117.36,23.88 -154.31,71.61 -36.95,47.75 -55.42,114.25 -55.42,199.51 0,85.25 18.75,151.75 56.27,199.5 37.51,47.74 89.23,71.61 155.17,71.61 64.79,0 115.67,-23.88 152.62,-71.61 36.94,-47.75 55.42,-113.12 55.42,-196.09 0,-85.26 -18.76,-152.32 -56.27,-201.21 -37.52,-48.87 -88.67,-73.32 -153.47,-73.32zm1418.69 709.35l-245.54 0c-7.96,-22.74 -13.65,-51.16 -17.05,-85.26 -73.9,73.9 -168.81,110.83 -284.76,110.83 -97.76,0 -174.5,-23.58 -230.2,-70.76 -55.7,-47.18 -83.55,-112.25 -83.55,-195.24 0,-37.51 4.83,-70.48 14.5,-98.9 9.66,-28.42 25.57,-52.29 47.74,-71.61 22.17,-19.32 43.2,-35.24 63.09,-47.75 19.88,-12.5 47.46,-22.73 82.7,-30.69 35.24,-7.96 63.66,-13.93 85.25,-17.91 21.6,-3.98 51.73,-8.24 90.38,-12.79 85.26,-11.36 142.39,-23.3 171.38,-35.8 28.98,-12.51 43.48,-35.81 43.48,-69.92 0,-78.44 -52.87,-117.66 -158.58,-117.66 -55.7,0 -96.63,9.95 -122.77,29.84 -26.15,19.9 -43.2,54.85 -51.16,104.86l-226.78 0c13.65,-197.79 149.49,-296.7 407.53,-296.7 255.77,0 383.66,95.49 383.66,286.47l0 380.25c0,111.41 10.23,190.98 30.7,238.72zm-264.3 -427.99c-28.42,17.05 -85.26,32.4 -170.51,46.04 -71.63,11.36 -118.23,25.57 -139.82,42.62 -25.01,21.59 -37.52,51.16 -37.52,88.67 0,36.38 11.66,65.08 34.96,86.12 23.3,21.02 55.99,31.54 98.05,31.54 64.79,0 116.8,-17.33 156.02,-52.01 39.22,-34.67 58.82,-82.7 58.82,-144.08l0 -98.9zm1169.73 -266l-289.88 0 0 693.99 -240.43 0 0 -693.99 -289.88 0 0 -185.87 820.18 0 0 185.87zm960 254.06c0,140.96 -41.21,254.06 -123.63,339.32 -82.42,85.26 -192.4,127.89 -329.95,127.89 -137.54,0 -247.81,-42.62 -330.79,-127.89 -82.99,-85.26 -124.48,-198.37 -124.48,-339.32 0,-139.82 42.06,-252.37 126.18,-337.62 84.13,-85.26 194.96,-127.9 332.51,-127.9 135.27,0 244.12,42.64 326.53,127.9 82.42,85.25 123.63,197.79 123.63,337.62zm-242.14 -1.71c0,-87.53 -19.03,-156.02 -57.11,-205.47 -38.08,-49.45 -90.66,-74.18 -157.73,-74.18 -64.79,0 -115.95,25.01 -153.46,75.03 -37.52,50.02 -56.27,118.79 -56.27,206.32 0,89.8 18.75,159.72 56.27,209.73 37.51,50.02 89.8,75.03 156.86,75.03 67.07,0 119.08,-25.29 156.02,-75.89 36.95,-50.58 55.42,-120.78 55.42,-210.58zm629.2 -438.22l0 109.13c63.67,-88.67 154.61,-133 272.84,-133 118.22,0 213.14,42.64 284.75,127.89 71.63,85.26 107.43,198.94 107.43,341.03 0,137.55 -34.96,248.11 -104.86,331.66 -69.92,83.55 -162.27,125.32 -277.08,125.32 -118.23,0 -208.61,-43.76 -271.13,-131.29l0 421.17 -240.43 0 0 -1191.9 228.49 0zm213.15 170.51c-65.93,0 -117.36,23.88 -154.31,71.61 -36.95,47.75 -55.42,114.25 -55.42,199.51 0,85.25 18.75,151.75 56.27,199.5 37.51,47.74 89.23,71.61 155.17,71.61 64.79,0 115.67,-23.88 152.62,-71.61 36.94,-47.75 55.42,-113.12 55.42,-196.09 0,-85.26 -18.76,-152.32 -56.27,-201.21 -37.52,-48.87 -88.67,-73.32 -153.47,-73.32zm1418.69 709.35l-245.54 0c-7.96,-22.74 -13.65,-51.16 -17.05,-85.26 -73.9,73.9 -168.81,110.83 -284.76,110.83 -97.76,0 -174.5,-23.58 -230.2,-70.76 -55.7,-47.18 -83.55,-112.25 -83.55,-195.24 0,-37.51 4.83,-70.48 14.5,-98.9 9.66,-28.42 25.57,-52.29 47.74,-71.61 22.17,-19.32 43.2,-35.24 63.09,-47.75 19.88,-12.5 47.46,-22.73 82.7,-30.69 35.24,-7.96 63.66,-13.93 85.25,-17.91 21.6,-3.98 51.73,-8.24 90.38,-12.79 85.26,-11.36 142.39,-23.3 171.38,-35.8 28.98,-12.51 43.48,-35.81 43.48,-69.92 0,-78.44 -52.87,-117.66 -158.58,-117.66 -55.7,0 -96.63,9.95 -122.77,29.84 -26.15,19.9 -43.2,54.85 -51.16,104.86l-226.78 0c13.65,-197.79 149.49,-296.7 407.53,-296.7 255.77,0 383.66,95.49 383.66,286.47l0 380.25c0,111.41 10.23,190.98 30.7,238.72zm-264.3 -427.99c-28.42,17.05 -85.26,32.4 -170.51,46.04 -71.63,11.36 -118.23,25.57 -139.82,42.62 -25.01,21.59 -37.52,51.16 -37.52,88.67 0,36.38 11.66,65.08 34.96,86.12 23.3,21.02 55.99,31.54 98.05,31.54 64.79,0 116.8,-17.33 156.02,-52.01 39.22,-34.67 58.82,-82.7 58.82,-144.08l0 -98.9z"/>
 </g>
</svg>
