<svg width="11" height="11" viewBox="0 0 11 11" fill="none" xmlns="http://www.w3.org/2000/svg">
<path d="M6.50778 5.51135L10.791 1.22803C11.0697 0.949417 11.0697 0.498939 10.791 0.220327C10.5124 -0.0582853 10.0619 -0.0582853 9.78327 0.220327L5.49995 4.50365L1.21676 0.220327C0.938016 -0.0582853 0.487669 -0.0582853 0.209057 0.220327C-0.0696857 0.498939 -0.0696857 0.949417 0.209057 1.22803L4.49225 5.51135L0.209057 9.79467C-0.0696857 10.0733 -0.0696857 10.5238 0.209057 10.8024C0.347906 10.9414 0.530472 11.0112 0.712908 11.0112C0.895343 11.0112 1.07778 10.9414 1.21676 10.8024L5.49995 6.51905L9.78327 10.8024C9.92225 10.9414 10.1047 11.0112 10.2871 11.0112C10.4696 11.0112 10.652 10.9414 10.791 10.8024C11.0697 10.5238 11.0697 10.0733 10.791 9.79467L6.50778 5.51135Z" fill="white"/>
</svg>
