<svg width="17" height="17" viewBox="0 0 17 17" fill="none" xmlns="http://www.w3.org/2000/svg">
<g clip-path="url(#clip0)">
<path d="M15.4025 3.79981L15.0272 2.67467C14.8842 2.24614 14.4846 1.95821 14.033 1.95821H10.8783V0.931114C10.8783 0.417763 10.461 0 9.94773 0H7.0588C6.54571 0 6.12821 0.417763 6.12821 0.931114V1.95821H2.97365C2.52191 1.95821 2.1223 2.24614 1.97937 2.67467L1.60402 3.79981C1.51855 4.05597 1.56187 4.33962 1.71971 4.55869C1.87756 4.77775 2.13294 4.90862 2.40297 4.90862H2.79531L3.65885 15.5869C3.72306 16.3793 4.39542 17 5.18983 17H11.9919C12.7862 17 13.4587 16.3793 13.5228 15.5868L14.3863 4.90862H14.6036C14.8736 4.90862 15.129 4.77775 15.2868 4.55882C15.4447 4.33975 15.488 4.05597 15.4025 3.79981ZM7.1243 0.996094H9.88224V1.95821H7.1243V0.996094ZM12.5299 15.5065C12.5074 15.7855 12.271 16.0039 11.9919 16.0039H5.18983C4.91072 16.0039 4.6744 15.7855 4.65184 15.5065L3.79465 4.90862H13.387L12.5299 15.5065ZM2.61659 3.91252L2.92437 2.98984C2.93137 2.96857 2.95121 2.9543 2.97365 2.9543H14.033C14.0555 2.9543 14.0752 2.96857 14.0823 2.98984L14.3901 3.91252H2.61659Z" fill="#A1BCDC"/>
<path d="M10.9409 15.4712C10.9497 15.4717 10.9584 15.4719 10.9672 15.4719C11.2304 15.4719 11.4504 15.2656 11.4641 14.9997L11.9318 6.02168C11.9461 5.74697 11.7349 5.5126 11.4603 5.49834C11.185 5.48368 10.9514 5.69509 10.937 5.9698L10.4694 14.9479C10.4552 15.2226 10.6662 15.4569 10.9409 15.4712Z" fill="#A1BCDC"/>
<path d="M5.56373 15.0009C5.57826 15.2664 5.79797 15.4718 6.06061 15.4718C6.06969 15.4718 6.07903 15.4716 6.08823 15.4711C6.36281 15.4562 6.57331 15.2214 6.55839 14.9467L6.06852 5.96862C6.05361 5.69391 5.81885 5.48341 5.54415 5.49845C5.26957 5.51337 5.05907 5.74813 5.07399 6.02283L5.56373 15.0009Z" fill="#A1BCDC"/>
<path d="M8.50842 15.4719C8.78352 15.4719 9.00647 15.2489 9.00647 14.9738V5.99576C9.00647 5.72066 8.78352 5.49771 8.50842 5.49771C8.23333 5.49771 8.01038 5.72066 8.01038 5.99576V14.9738C8.01038 15.2489 8.23333 15.4719 8.50842 15.4719Z" fill="#A1BCDC"/>
</g>
<defs>
<clipPath id="clip0">
<rect width="17" height="17" fill="white"/>
</clipPath>
</defs>
</svg>
