<svg width="17" height="17" viewBox="0 0 17 17" fill="none" xmlns="http://www.w3.org/2000/svg">
<g clip-path="url(#clip0)">
<path d="M15.0078 3.98438H14.0117V1.99219H13.0156V0H8.93073L8.26667 0.996094H3.98438V2.98828H2.98828V4.98047H1.99219V6.32377L0 9.31205V17H17V9.31205L15.0078 6.32377V3.98438ZM4.98047 1.99219H8.79974L9.4638 0.996094H12.0195V1.99219H9.92683L9.26276 2.98828H4.98047V1.99219ZM3.98438 3.98438H9.79583L10.4599 2.98828H13.0156V3.98438H10.9229L10.2589 4.98047H3.98438V3.98438ZM2.98828 5.97656H10.7919L11.456 4.98047H14.0117V8.96484H10.4984L10.1664 9.96094H6.83362L6.50159 8.96484H2.98828V5.97656ZM1.99219 8.11959V8.96484H1.42864L1.99219 8.11959ZM16.0039 16.0039H0.996094V9.96094H5.78357L6.1156 10.957H10.8844L11.2164 9.96094H16.0039V16.0039ZM15.5714 8.96484H15.0078V8.11959L15.5714 8.96484Z" fill="#A1BCDC"/>
<path d="M5.97656 11.9531H11.0234V12.9492H5.97656V11.9531Z" fill="#A1BCDC"/>
</g>
<defs>
<clipPath id="clip0">
<rect width="17" height="17" fill="white"/>
</clipPath>
</defs>
</svg>
