<svg viewBox="0 0 223 201" xmlns="http://www.w3.org/2000/svg">
<circle cx="6.74167" cy="6.48386" r="6.48386" fill="#F1F6FC"/>
<circle cx="34.5307" cy="6.48386" r="6.48386" fill="#F1F6FC"/>
<circle cx="62.3198" cy="6.48386" r="6.48386" fill="#F1F6FC"/>
<circle cx="90.1049" cy="6.48386" r="6.48386" fill="#F1F6FC"/>
<circle cx="117.894" cy="6.48386" r="6.48386" fill="#F1F6FC"/>
<circle cx="145.679" cy="6.48386" r="6.48386" fill="#F1F6FC"/>
<circle cx="173.468" cy="6.48386" r="6.48386" fill="#F1F6FC"/>
<circle cx="201.257" cy="6.48386" r="6.48386" fill="#F1F6FC"/>
<circle cx="6.74167" cy="33.3452" r="6.48386" fill="#F1F6FC"/>
<circle cx="34.5307" cy="33.3452" r="6.48386" fill="#F1F6FC"/>
<circle cx="62.3198" cy="33.3452" r="6.48386" fill="#F1F6FC"/>
<circle cx="90.1049" cy="33.3452" r="6.48386" fill="#F1F6FC"/>
<circle cx="117.894" cy="33.3452" r="6.48386" fill="#F1F6FC"/>
<circle cx="145.679" cy="33.3452" r="6.48386" fill="#F1F6FC"/>
<circle cx="173.468" cy="33.3452" r="6.48386" fill="#F1F6FC"/>
<circle cx="201.257" cy="33.3452" r="6.48386" fill="#F1F6FC"/>
<circle cx="6.74167" cy="60.2068" r="6.48386" fill="#F1F6FC"/>
<circle cx="34.5307" cy="60.2068" r="6.48386" fill="#F1F6FC"/>
<circle cx="62.3198" cy="60.2068" r="6.48386" fill="#F1F6FC"/>
<circle cx="90.1049" cy="60.2068" r="6.48386" fill="#F1F6FC"/>
<circle cx="117.894" cy="60.2068" r="6.48386" fill="#F1F6FC"/>
<circle cx="145.679" cy="60.2068" r="6.48386" fill="#F1F6FC"/>
<circle cx="173.468" cy="60.2068" r="6.48386" fill="#F1F6FC"/>
<circle cx="201.257" cy="60.2068" r="6.48386" fill="#F1F6FC"/>
<circle cx="6.74167" cy="87.0691" r="6.48386" fill="#F1F6FC"/>
<circle cx="34.5307" cy="87.0691" r="6.48386" fill="#F1F6FC"/>
<circle cx="62.3198" cy="87.0691" r="6.48386" fill="#F1F6FC"/>
<circle cx="90.1049" cy="87.0691" r="6.48386" fill="#F1F6FC"/>
<circle cx="117.894" cy="87.0691" r="6.48386" fill="#F1F6FC"/>
<circle cx="145.679" cy="87.0691" r="6.48386" fill="#F1F6FC"/>
<circle cx="173.468" cy="87.0691" r="6.48386" fill="#F1F6FC"/>
<circle cx="201.257" cy="87.0691" r="6.48386" fill="#F1F6FC"/>
<circle cx="6.74167" cy="113.93" r="6.48386" fill="#F1F6FC"/>
<circle cx="34.5307" cy="113.93" r="6.48386" fill="#F1F6FC"/>
<circle cx="62.3198" cy="113.93" r="6.48386" fill="#F1F6FC"/>
<circle cx="90.1049" cy="113.93" r="6.48386" fill="#F1F6FC"/>
<circle cx="117.894" cy="113.93" r="6.48386" fill="#F1F6FC"/>
<circle cx="145.679" cy="113.93" r="6.48386" fill="#F1F6FC"/>
<circle cx="173.468" cy="113.93" r="6.48386" fill="#F1F6FC"/>
<circle cx="201.257" cy="113.93" r="6.48386" fill="#F1F6FC"/>
<circle cx="6.74167" cy="140.792" r="6.48386" fill="#F1F6FC"/>
<circle cx="34.5307" cy="140.792" r="6.48386" fill="#F1F6FC"/>
<circle cx="62.3198" cy="140.792" r="6.48386" fill="#F1F6FC"/>
<circle cx="90.1049" cy="140.792" r="6.48386" fill="#F1F6FC"/>
<circle cx="117.894" cy="140.792" r="6.48386" fill="#F1F6FC"/>
<circle cx="145.679" cy="140.792" r="6.48386" fill="#F1F6FC"/>
<circle cx="173.468" cy="140.792" r="6.48386" fill="#F1F6FC"/>
<circle cx="201.257" cy="140.792" r="6.48386" fill="#F1F6FC"/>
<circle cx="6.74167" cy="167.653" r="6.48386" fill="#F1F6FC"/>
<circle cx="34.5307" cy="167.653" r="6.48386" fill="#F1F6FC"/>
<circle cx="62.3198" cy="167.653" r="6.48386" fill="#F1F6FC"/>
<circle cx="90.1049" cy="167.653" r="6.48386" fill="#F1F6FC"/>
<circle cx="117.894" cy="167.653" r="6.48386" fill="#F1F6FC"/>
<circle cx="145.679" cy="167.653" r="6.48386" fill="#F1F6FC"/>
<circle cx="173.468" cy="167.653" r="6.48386" fill="#F1F6FC"/>
<circle cx="201.257" cy="167.653" r="6.48386" fill="#F1F6FC"/>
<circle cx="6.74167" cy="194.516" r="6.48386" fill="#F1F6FC"/>
<circle cx="34.5307" cy="194.516" r="6.48386" fill="#F1F6FC"/>
<circle cx="62.3198" cy="194.516" r="6.48386" fill="#F1F6FC"/>
<circle cx="90.1049" cy="194.516" r="6.48386" fill="#F1F6FC"/>
<circle cx="117.894" cy="194.516" r="6.48386" fill="#F1F6FC"/>
<circle cx="145.679" cy="194.516" r="6.48386" fill="#F1F6FC"/>
<circle cx="173.468" cy="194.516" r="6.48386" fill="#F1F6FC"/>
<circle cx="201.257" cy="194.516" r="6.48386" fill="#F1F6FC"/>
</svg>
