<svg width="15" height="15" viewBox="0 0 15 15" fill="none" xmlns="http://www.w3.org/2000/svg">
<g clip-path="url(#clip0)">
<path d="M9.15245 5.84658C8.97477 5.66784 8.77775 5.5094 8.56507 5.37416C8.00173 5.01344 7.34683 4.82175 6.6779 4.82175C5.74944 4.82002 4.85871 5.18892 4.20334 5.84658L1.02391 9.0285C0.369656 9.68402 0.00192933 10.5722 0.0013435 11.4983C0.00011325 13.431 1.56581 14.9987 3.49847 14.9999C4.42549 15.0031 5.3154 14.636 5.97053 13.9801L8.59506 11.3556C8.64275 11.3083 8.66938 11.2438 8.66899 11.1767C8.6682 11.0386 8.55564 10.9274 8.41758 10.9281H8.31761C7.76927 10.9301 7.22583 10.8248 6.71791 10.6182C6.62432 10.5797 6.51676 10.6014 6.44547 10.6732L4.5583 12.5629C3.97229 13.1489 3.02219 13.1489 2.43618 12.5629C1.85017 11.9768 1.85017 11.0267 2.43618 10.4407L5.62812 7.25132C6.21365 6.66651 7.16221 6.66651 7.74775 7.25132C8.14236 7.62271 8.7579 7.62271 9.15248 7.25132C9.32226 7.0814 9.42519 6.85603 9.44244 6.61642C9.46069 6.3301 9.35509 6.04969 9.15245 5.84658Z" fill="#7B8B99"/>
<path d="M13.9751 1.02489C12.6084 -0.341771 10.3926 -0.341771 9.02597 1.02489L6.40393 3.64441C6.33193 3.71676 6.31117 3.82558 6.35144 3.91937C6.39125 4.01342 6.48428 4.07379 6.58639 4.07183H6.67886C7.22656 4.07083 7.76913 4.17696 8.27608 4.38428C8.36966 4.4228 8.47722 4.40107 8.54852 4.3293L10.4307 2.44963C11.0167 1.86362 11.9668 1.86362 12.5528 2.44963C13.1388 3.03564 13.1388 3.98574 12.5528 4.57175L10.2082 6.91382L10.1882 6.93632L9.36836 7.75118C8.78282 8.33599 7.83427 8.33599 7.24873 7.75118C6.85411 7.37979 6.23858 7.37979 5.84399 7.75118C5.67314 7.92239 5.57012 8.14972 5.55404 8.39105C5.53576 8.67738 5.64135 8.95779 5.84399 9.16093C6.13331 9.45147 6.4718 9.68841 6.8438 9.86079C6.89629 9.88578 6.94879 9.90578 7.00128 9.92828C7.05377 9.95077 7.10875 9.96826 7.16124 9.98827C7.21373 10.0083 7.26871 10.0258 7.3212 10.0408L7.46868 10.0807C7.56865 10.1057 7.66866 10.1257 7.77112 10.1432C7.89455 10.1616 8.01887 10.1732 8.14356 10.1782H8.31852H8.33352L8.48349 10.1607C8.53847 10.1582 8.59597 10.1457 8.66097 10.1457H8.74594L8.91841 10.1208L8.99841 10.1058L9.14337 10.0758H9.17088C9.78486 9.92154 10.3455 9.60364 10.7931 9.15592L13.975 5.974C15.3417 4.60734 15.3417 2.39155 13.9751 1.02489Z" fill="#7B8B99"/>
</g>
<defs>
<clipPath id="clip0">
<rect width="15" height="15" fill="white"/>
</clipPath>
</defs>
</svg>
