<svg version="1.1" id="Слой_1" xmlns="http://www.w3.org/2000/svg" xmlns:xlink="http://www.w3.org/1999/xlink" x="0px" y="0px" viewBox="0 0 306.8 60.8" enable-background="new 0 0 306.8 60.8" xml:space="preserve">
    <symbol id="quotes" viewBox="0 0 30 30" xmlns="http://www.w3.org/2000/svg">
        <path d="M26.2499 3H21.7499C19.6815 3 18 4.68311 18 6.75018V11.2502C18 13.317 19.6815 15.0001 21.7499 15.0001H26.2499C26.5064 15.0001 26.7569 14.9732 27 14.9235V18.0002C27 21.309 24.3089 24.0001 21.0001 24.0001H19.4999C18.6704 24.0001 18 24.6722 18 25.5C18 26.3281 18.6704 27.0002 19.4999 27.0002H21.0001C25.9634 27.0002 30.0001 22.9635 30.0001 18.0002V6.75018C30.0001 4.68311 28.3186 3 26.2499 3Z"/>
        <path d="M8.24991 3H3.74991C1.68146 3 0 4.68311 0 6.75018V11.2502C0 13.317 1.68146 15.0001 3.74991 15.0001H8.24991C8.50644 15.0001 8.75693 14.9732 9 14.9235V18.0002C9 21.309 6.3089 24.0001 3.00009 24.0001H1.49991C0.670441 24.0001 0 24.6722 0 25.5C0 26.3281 0.670441 27.0002 1.49991 27.0002H3.00009C7.96344 27.0002 12.0001 22.9635 12.0001 18.0002V6.75018C12.0001 4.68311 10.3186 3 8.24991 3Z"/>
    </symbol>
    <symbol id="clock" viewBox="0 0 16 16" xmlns="http://www.w3.org/2000/svg">
        <path d="M14.3164 4.20996C13.985 4.37028 13.8464 4.76904 14.0067 5.10026C14.4447 6.00505 14.6667 6.98031 14.6667 8C14.6667 11.6759 11.6759 14.6667 8 14.6667C4.32406 14.6667 1.33333 11.6759 1.33333 8C1.33333 4.32406 4.32406 1.33333 8 1.33333C9.52328 1.33333 10.9543 1.83073 12.1387 2.77165C12.4259 3.00098 12.846 2.95296 13.0754 2.66471C13.3047 2.37663 13.2567 1.95703 12.9683 1.72803C11.5661 0.613607 9.8016 0 8 0C3.58903 0 0 3.58903 0 8C0 12.411 3.58903 16 8 16C12.411 16 16 12.411 16 8C16 6.77767 15.7331 5.60628 15.2067 4.51969C15.0467 4.18766 14.6466 4.04932 14.3164 4.20996Z"/>
        <path d="M7.99967 2.66663C7.63167 2.66663 7.33301 2.96529 7.33301 3.33329V7.99996C7.33301 8.36796 7.63167 8.66663 7.99967 8.66663H11.333C11.701 8.66663 11.9997 8.36796 11.9997 7.99996C11.9997 7.63196 11.701 7.33329 11.333 7.33329H8.66634V3.33329C8.66634 2.96529 8.36768 2.66663 7.99967 2.66663Z"/>
    </symbol>
    <symbol id="close" viewBox="0 0 10 10" xmlns="http://www.w3.org/2000/svg">
        <path d="M5.91616 5.00827L9.80997 1.11435C10.0634 0.861071 10.0634 0.451547 9.80997 0.198263C9.55668 -0.0550201 9.14716 -0.0550201 8.89387 0.198263L4.99995 4.09218L1.10614 0.198263C0.852741 -0.0550201 0.443335 -0.0550201 0.190052 0.198263C-0.0633506 0.451547 -0.0633506 0.861071 0.190052 1.11435L4.08386 5.00827L0.190052 8.90219C-0.0633506 9.15548 -0.0633506 9.565 0.190052 9.81829C0.316278 9.94463 0.482247 10.0081 0.648098 10.0081C0.813948 10.0081 0.979798 9.94463 1.10614 9.81829L4.99995 5.92437L8.89387 9.81829C9.02022 9.94463 9.18607 10.0081 9.35192 10.0081C9.51777 10.0081 9.68362 9.94463 9.80997 9.81829C10.0634 9.565 10.0634 9.15548 9.80997 8.90219L5.91616 5.00827Z"/>
    </symbol>
    <symbol id="edit" viewBox="0 0 12 12" xmlns="http://www.w3.org/2000/svg">
        <path d="M11.2968 0.703266C10.8433 0.24975 10.2404 0 9.59903 0C8.95771 0 8.35476 0.24975 7.90127 0.703242L1.19123 7.4133C1.13413 7.4704 1.09277 7.54127 1.07111 7.61906L0.0171738 11.4056C-0.0282716 11.5689 0.0179706 11.744 0.138182 11.8636C0.227244 11.9522 0.346588 12 0.468791 12C0.511494 12 0.554572 11.9941 0.59683 11.9821L4.38332 10.9066C4.54307 10.8612 4.66692 10.7347 4.70882 10.5739C4.75073 10.4132 4.70446 10.2424 4.58721 10.1247L2.20005 7.73032L7.76212 2.16823L9.83067 4.23677L5.57268 8.48316C5.38938 8.66597 5.38898 8.96276 5.57179 9.14606C5.75458 9.32939 6.05142 9.32977 6.2347 9.14698L11.2967 4.09873C11.7502 3.64523 12 3.0423 12 2.40098C12 1.75966 11.7502 1.15673 11.2968 0.703266ZM3.36081 10.2225L1.14438 10.852L1.76512 8.62191L3.36081 10.2225ZM10.6343 3.43535L10.4945 3.57478L8.42505 1.50532L8.56422 1.36615C8.84062 1.08973 9.20812 0.9375 9.59903 0.9375C9.98995 0.9375 10.3574 1.08973 10.6338 1.36617C10.9103 1.64257 11.0625 2.01007 11.0625 2.40098C11.0625 2.7919 10.9103 3.1594 10.6343 3.43535Z"/>
    </symbol>
    <symbol id="return" viewBox="0 0 16 16" xmlns="http://www.w3.org/2000/svg">
        <path d="M12.7812 4.45903C11.5043 3.18216 9.80655 2.47894 8.00076 2.47894H7.00961L8.60045 0.884188L7.71408 0L4.61577 3.10591L7.67364 6.21491L8.56623 5.337L6.98652 3.73088H8.00076C11.0382 3.73088 13.5094 6.202 13.5094 9.23947C13.5094 12.2769 11.0382 14.7481 8.00076 14.7481C4.96333 14.7481 2.49217 12.2769 2.49217 9.23934V8.61337L1.24023 8.6135V9.23947C1.24023 11.0453 1.94345 12.743 3.22036 14.0199C4.49723 15.2968 6.19498 16 8.00076 16C9.80655 16 11.5043 15.2968 12.7812 14.0199C14.0581 12.743 14.7613 11.0452 14.7613 9.23947C14.7613 7.43369 14.0581 5.73594 12.7812 4.45903Z"/>
    </symbol>


    <symbol id="arrow-down" viewBox="0 0 11 11" xmlns="http://www.w3.org/2000/svg">
        <path d="M5.50254 7.44022L0.722432 2.66011C0.557155 2.49486 0.289199 2.49486 0.123921 2.66011C-0.0413073 2.82541 -0.0413073 3.09334 0.123921 3.25862L5.20328 8.33799C5.36856 8.50322 5.63652 8.50322 5.8018 8.33799L10.8812 3.25862C11.0436 3.09047 11.0389 2.82251 10.8707 2.66011C10.7067 2.5017 10.4467 2.5017 10.2826 2.66011L5.50254 7.44022Z"/>
    </symbol>
    <symbol id="arrow-right" viewBox="0 0 10 10" xmlns="http://www.w3.org/2000/svg">
        <path d="M7.57907 4.72562L2.96146 0.108013C2.80859 -0.0396239 2.565 -0.0353851 2.41736 0.117483C2.27333 0.266608 2.27333 0.503012 2.41736 0.652115L6.76291 4.99767L2.41736 9.34322C2.26713 9.49347 2.26713 9.73707 2.41736 9.88733C2.56764 10.0376 2.81121 10.0376 2.96146 9.88733L7.57907 5.26972C7.7293 5.11944 7.7293 4.87587 7.57907 4.72562Z"/>
    </symbol>
    <symbol id="slider-left" viewBox="0 0 15 15" xmlns="http://www.w3.org/2000/svg">
        <path d="M3.33315 8.0853L10.0083 14.7604C10.1627 14.9149 10.3688 15 10.5886 15C10.8083 15 11.0144 14.9149 11.1688 14.7604L11.6604 14.2689C11.9803 13.9487 11.9803 13.4282 11.6604 13.1084L6.05508 7.50311L11.6666 1.89157C11.821 1.73706 11.9063 1.53108 11.9063 1.31145C11.9063 1.09157 11.821 0.8856 11.6666 0.730968L11.175 0.23963C11.0205 0.0851182 10.8146 -2.00279e-06 10.5948 -2.022e-06C10.375 -2.04121e-06 10.1689 0.0851181 10.0146 0.23963L3.33315 6.9208C3.1784 7.07579 3.0934 7.28274 3.09389 7.50274C3.0934 7.72359 3.1784 7.93042 3.33315 8.0853Z"/>
    </symbol>
    <symbol id="slider-right" viewBox="0 0 15 15" xmlns="http://www.w3.org/2000/svg">
        <path d="M11.6668 6.9147L4.99166 0.239632C4.83727 0.0851213 4.63118 0 4.41142 0C4.19167 0 3.98557 0.0851213 3.83118 0.239632L3.3396 0.731092C3.01973 1.05133 3.01973 1.57182 3.3396 1.89157L8.94492 7.49689L3.33338 13.1084C3.17899 13.2629 3.09375 13.4689 3.09375 13.6885C3.09375 13.9084 3.17899 14.1144 3.33338 14.269L3.82496 14.7604C3.97947 14.9149 4.18545 15 4.4052 15C4.62496 15 4.83105 14.9149 4.98544 14.7604L11.6668 8.0792C11.8216 7.9242 11.9066 7.71726 11.9061 7.49726C11.9066 7.27641 11.8216 7.06958 11.6668 6.9147Z"/>
    </symbol>
    <symbol id="check" viewBox="0 0 7 7" xmlns="http://www.w3.org/2000/svg">
        <path d="M2.68043 6.11584C2.61361 6.18305 2.52244 6.22055 2.42774 6.22055C2.33305 6.22055 2.24188 6.18305 2.17506 6.11584L0.157068 4.09752C-0.0523559 3.88809 -0.0523559 3.5485 0.157068 3.33947L0.40975 3.08672C0.61924 2.8773 0.95844 2.8773 1.16786 3.08672L2.42774 4.34667L5.83212 0.942224C6.04161 0.7328 6.38114 0.7328 6.59024 0.942224L6.84292 1.19497C7.05234 1.4044 7.05234 1.74392 6.84292 1.95302L2.68043 6.11584Z"/>
    </symbol>



    <symbol id="star" viewBox="0 0 13 13" xmlns="http://www.w3.org/2000/svg">
        <path d="M3.01933 8.32116L2.33304 12.5283C2.27833 12.8625 2.63529 13.1133 2.9305 12.9492L6.50008 10.9764L10.0697 12.9497C10.3622 13.1122 10.7224 12.8663 10.6671 12.5288L9.98083 8.3217L12.8842 5.34579C13.1144 5.11016 12.9822 4.71041 12.655 4.66058L8.65862 4.05012L6.86733 0.234623C6.73354 -0.0502941 6.26608 -0.0502941 6.13229 0.234623L4.34154 4.04958L0.345123 4.66004C0.0168725 4.71041 -0.114211 5.10962 0.115997 5.34525L3.01933 8.32116Z"/>
    </symbol>

    <symbol id="interface" viewBox="0 0 15 15" xmlns="http://www.w3.org/2000/svg">
        <path d="M12.5901 1.01068H2.39427C1.32826 1.01068 0.460938 1.878 0.460938 2.94402V9.18365C0.460938 10.2476 1.32448 11.1134 2.38741 11.117V13.9486L6.45638 11.1172H12.5901C13.6561 11.1172 14.5234 10.2499 14.5234 9.18365V2.94402C14.5234 1.878 13.6561 1.01068 12.5901 1.01068ZM10.7596 8.26191H4.22478V7.43794H10.7596V8.26191ZM10.7596 6.5041H4.22478V5.68013H10.7596V6.5041ZM10.7596 4.74629H4.22478V3.92232H10.7596V4.74629Z"/>
    </symbol>
    <symbol id="like" viewBox="0 0 20 20" xmlns="http://www.w3.org/2000/svg">
        <path d="M18.3644 2.45457C17.33 1.34265 15.8804 0.709981 14.3617 0.707636C12.8417 0.709395 11.3906 1.34173 10.3546 2.45386L10.0015 2.82698L9.64836 2.45386C7.59251 0.241198 4.13215 0.114128 1.91953 2.16998C1.82148 2.26112 1.72679 2.35577 1.63565 2.45386C-0.545218 4.80619 -0.545218 8.44162 1.63565 10.794L9.48255 19.069C9.75403 19.3556 10.2064 19.3679 10.493 19.0964C10.5024 19.0875 10.5115 19.0784 10.5204 19.069L18.3645 10.794C20.5452 8.44187 20.5452 4.80665 18.3644 2.45457ZM17.3302 9.80969H17.3294L10.0015 17.5386L2.67282 9.80969C1.00676 8.01229 1.00676 5.23481 2.67282 3.43741C4.1858 1.79757 6.74172 1.69475 8.38156 3.20773C8.46118 3.28119 8.53778 3.35779 8.61124 3.43741L9.48255 4.35663C9.76969 4.64193 10.2333 4.64193 10.5204 4.35663L11.3917 3.43812C12.9047 1.79828 15.4606 1.69546 17.1005 3.20844C17.1801 3.2819 17.2567 3.3585 17.3302 3.43812C19.0107 5.23837 19.023 8.02092 17.3302 9.80969Z"/>
    </symbol>
    <symbol id="eye" viewBox="0 0 20 20" xmlns="http://www.w3.org/2000/svg">
        <path d="M19.8729 9.61108C19.6942 9.36667 15.4371 3.62646 9.9999 3.62646C4.56274 3.62646 0.305391 9.36667 0.126914 9.61085C-0.0423048 9.84273 -0.0423048 10.1572 0.126914 10.3891C0.305391 10.6335 4.56274 16.3737 9.9999 16.3737C15.4371 16.3737 19.6942 10.6335 19.8729 10.3893C20.0423 10.1575 20.0423 9.84273 19.8729 9.61108ZM9.9999 15.055C5.99486 15.055 2.52606 11.2452 1.49922 9.99964C2.52473 8.75304 5.98626 4.94514 9.9999 4.94514C14.0048 4.94514 17.4733 8.75436 18.5006 10.0005C17.4751 11.2471 14.0135 15.055 9.9999 15.055Z"/>
        <path d="M9.99903 6.04395C7.8177 6.04395 6.04297 7.81867 6.04297 10C6.04297 12.1813 7.8177 13.9561 9.99903 13.9561C12.1804 13.9561 13.9551 12.1813 13.9551 10C13.9551 7.81867 12.1804 6.04395 9.99903 6.04395ZM9.99903 12.6374C8.54473 12.6374 7.36168 11.4543 7.36168 10C7.36168 8.54575 8.54477 7.36266 9.99903 7.36266C11.4533 7.36266 12.6364 8.54575 12.6364 10C12.6364 11.4543 11.4533 12.6374 9.99903 12.6374Z"/>
    </symbol>

    <symbol id="plus" viewBox="0 0 20 20" xmlns="http://www.w3.org/2000/svg">
        <path d="M18.905 8.43854H18.9062H11.5624V1.10862C11.5624 0.505367 11.074 0.000976562 10.4707 0.000976562H9.53106C8.92797 0.000976562 8.4374 0.505367 8.4374 1.10862V8.43854H1.09382C0.490894 8.43854 0 8.92634 0 9.52976V10.4748C0 11.0777 0.490732 11.5634 1.09382 11.5634H8.43756V18.9198C8.43756 19.5228 8.92797 20.0008 9.53122 20.0008H10.4709C11.0741 20.0008 11.5626 19.5226 11.5626 18.9198V11.5634H18.905C19.5083 11.5634 20 11.0776 20 10.4748V9.52976C20 8.92634 19.5083 8.43854 18.905 8.43854Z"/>
    </symbol>
    <symbol id="minus" viewBox="0 0 18 5" xmlns="http://www.w3.org/2000/svg">
        <rect y="0.12207" width="18" height="3.92529" rx="1.96265"/>
    </symbol>

    <symbol id="quotes" viewBox="0 0 60 60" xmlns="http://www.w3.org/2000/svg">
        <path d="M52.4998 6.00098H43.4998C39.3629 6.00098 36 9.36719 36 13.5013V22.5013C36 26.6349 39.3629 30.0012 43.4998 30.0012H52.4998C53.0129 30.0012 53.5139 29.9473 54 29.8479V36.0013C54 42.619 48.6178 48.0012 42.0002 48.0012H38.9998C37.3409 48.0012 36 49.3453 36 51.001C36 52.6572 37.3409 54.0013 38.9998 54.0013H42.0002C51.9269 54.0013 60.0002 45.928 60.0002 36.0013V13.5013C60.0002 9.36719 56.6373 6.00098 52.4998 6.00098Z"/>
        <path d="M16.4998 6.00098H7.49982C3.36291 6.00098 0 9.36719 0 13.5013V22.5013C0 26.6349 3.36291 30.0012 7.49982 30.0012H16.4998C17.0129 30.0012 17.5139 29.9473 18 29.8479V36.0013C18 42.619 12.6178 48.0012 6.00018 48.0012H2.99982C1.34088 48.0012 0 49.3453 0 51.001C0 52.6572 1.34088 54.0013 2.99982 54.0013H6.00018C15.9269 54.0013 24.0002 45.928 24.0002 36.0013V13.5013C24.0002 9.36719 20.6373 6.00098 16.4998 6.00098Z"/>
    </symbol>

    <symbol id="phone" viewBox="0 0 13 13" xmlns="http://www.w3.org/2000/svg">
        <path d="M11.9569 8.53301C11.161 8.53301 10.3795 8.40853 9.63892 8.1638C9.27604 8.04003 8.82995 8.15357 8.60847 8.38104L7.14675 9.48448C5.45157 8.57959 4.40737 7.53573 3.51484 5.85328L4.58582 4.42965C4.86407 4.15177 4.96387 3.74586 4.84429 3.365C4.59851 2.62055 4.47366 1.83943 4.47366 1.04318C4.47369 0.467966 4.00573 0 3.43054 0H1.04315C0.467966 0 0 0.467966 0 1.04315C0 7.63625 5.36379 13 11.9569 13C12.5321 13 13 12.532 13 11.9569V9.57613C13 9.00098 12.532 8.53301 11.9569 8.53301Z"/>
    </symbol>
    <symbol id="mail" viewBox="0 0 13 13" xmlns="http://www.w3.org/2000/svg">
        <path d="M1.24774 4.541C1.41219 4.65705 1.9079 5.0017 2.73489 5.57478C3.56191 6.14786 4.19546 6.58911 4.63558 6.89857C4.68393 6.93249 4.78666 7.00623 4.94381 7.11988C5.101 7.23362 5.2316 7.32552 5.33552 7.39563C5.43952 7.4657 5.56525 7.54432 5.71282 7.63135C5.86035 7.7183 5.99941 7.7837 6.12999 7.827C6.26059 7.87065 6.38149 7.89227 6.49271 7.89227H6.5H6.50732C6.61853 7.89227 6.73948 7.87062 6.87008 7.827C7.00061 7.7837 7.1398 7.71822 7.2872 7.63135C7.43468 7.54422 7.5604 7.46568 7.6644 7.39563C7.7684 7.32552 7.8989 7.23362 8.05613 7.11988C8.21326 7.00613 8.31612 6.93249 8.36448 6.89857C8.80934 6.58911 9.94114 5.80318 11.7595 4.54085C12.1126 4.29431 12.4075 3.99682 12.6444 3.64858C12.8816 3.3005 13 2.93535 13 2.55332C13 2.23408 12.8851 1.9608 12.6553 1.73352C12.4256 1.50618 12.1535 1.39258 11.8393 1.39258H1.16067C0.788295 1.39258 0.50173 1.5183 0.301023 1.76975C0.100341 2.02125 0 2.33561 0 2.71281C0 3.0175 0.133042 3.34766 0.399 3.70311C0.664933 4.05859 0.94794 4.33791 1.24774 4.541Z"/>
        <path d="M12.2744 5.31715C10.6883 6.39071 9.48391 7.22505 8.66185 7.81998C8.38619 8.02302 8.16256 8.18153 7.99082 8.29511C7.81908 8.40876 7.59068 8.52483 7.30528 8.64326C7.01999 8.76187 6.75411 8.821 6.50741 8.821H6.50001H6.49272C6.24608 8.821 5.98004 8.76187 5.69475 8.64326C5.40945 8.52483 5.1809 8.40876 5.00921 8.29511C4.83757 8.18153 4.61387 8.02302 4.33823 7.81998C3.68529 7.34122 2.48349 6.50683 0.732774 5.31715C0.457034 5.13349 0.212802 4.92298 0 4.68604V10.4459C0 10.7653 0.113604 11.0384 0.34094 11.2657C0.568225 11.4931 0.841525 11.6068 1.16074 11.6068H11.8393C12.1585 11.6068 12.4318 11.4931 12.6591 11.2657C12.8864 11.0384 13 10.7653 13 10.4459V4.68604C12.792 4.91807 12.5503 5.12859 12.2744 5.31715Z"/>
    </symbol>

    <symbol id="good" viewBox="0 0 16 16" xmlns="http://www.w3.org/2000/svg">
        <path d="M1.66666 7C0.748 7 0 7.748 0 8.66666V14C0 14.9187 0.748 15.6667 1.66666 15.6667H3.66666C4.042 15.6667 4.38731 15.54 4.66666 15.3293V7H1.66666Z"/>
        <path d="M15.9987 9.49967C15.9987 9.09901 15.84 8.72567 15.5647 8.45032C15.876 8.10966 16.0347 7.65298 15.9913 7.17766C15.9133 6.33032 15.15 5.66632 14.2527 5.66632H10.1347C10.3387 5.04698 10.6653 3.91166 10.6653 2.99966C10.6653 1.55366 9.43669 0.333008 8.66534 0.333008C7.97269 0.333008 7.478 0.723008 7.45669 0.739008C7.37803 0.802352 7.33203 0.898352 7.33203 0.999664V3.26032L5.41203 7.41967L5.33203 7.46032V14.6057C5.87469 14.8617 6.56134 14.9997 6.99869 14.9997H13.118C13.844 14.9997 14.4794 14.5103 14.6287 13.835C14.7053 13.4877 14.6607 13.1377 14.508 12.8337C15.0007 12.5857 15.332 12.0783 15.332 11.4997C15.332 11.2637 15.278 11.0377 15.1754 10.833C15.668 10.585 15.9987 10.0777 15.9987 9.49967Z"/>
    </symbol>
    <symbol id="bad" viewBox="0 0 16 16" xmlns="http://www.w3.org/2000/svg">
        <path d="M14.3333 9C15.252 9 16 8.252 16 7.33334L16 2C16 1.08134 15.252 0.333343 14.3333 0.333343L12.3333 0.333343C11.958 0.333343 11.6127 0.46 11.3333 0.670687L11.3333 9L14.3333 9Z"/>
        <path d="M0.00131306 6.50033C0.00131302 6.90099 0.159969 7.27433 0.435313 7.54968C0.123969 7.89033 -0.0346874 8.34702 0.00865615 8.82233C0.0866561 9.66968 0.850001 10.3337 1.74731 10.3337L5.86531 10.3337C5.66131 10.953 5.33466 12.0883 5.33466 13.0003C5.33466 14.4463 6.56331 15.667 7.33466 15.667C8.02731 15.667 8.522 15.277 8.54331 15.261C8.62197 15.1976 8.66797 15.1016 8.66797 15.0003L8.66797 12.7397L10.588 8.58033L10.668 8.53968L10.668 1.39433C10.1253 1.13833 9.43866 1.00033 9.00131 1.00033L2.88197 1.00033C2.15597 1.00033 1.52063 1.48968 1.37131 2.16499C1.29466 2.51233 1.33931 2.86233 1.49197 3.16633C0.999313 3.41433 0.66797 3.92168 0.66797 4.50033C0.66797 4.73633 0.72197 4.96233 0.824626 5.16699C0.331969 5.41499 0.00131311 5.92233 0.00131306 6.50033Z"/>
    </symbol>
    <symbol id="search" viewBox="0 0 17 17" xmlns="http://www.w3.org/2000/svg">
        <path d="M16.8962 15.8946L11.9579 10.9563C12.8945 9.79989 13.4583 8.32978 13.4583 6.72919C13.4583 3.01873 10.4396 0 6.72916 0C3.0187 0 0 3.01873 0 6.72919C0 10.4396 3.01873 13.4584 6.72919 13.4584C8.32978 13.4584 9.79989 12.8945 10.9563 11.9579L15.8946 16.8963C16.033 17.0346 16.2572 17.0346 16.3955 16.8963L16.8963 16.3955C17.0346 16.2572 17.0346 16.0329 16.8962 15.8946ZM6.72919 12.0417C3.79971 12.0417 1.41668 9.65868 1.41668 6.72919C1.41668 3.79971 3.79971 1.41668 6.72919 1.41668C9.65868 1.41668 12.0417 3.79971 12.0417 6.72919C12.0417 9.65868 9.65868 12.0417 6.72919 12.0417Z"/>
    </symbol>
    <symbol id="message" viewBox="0 0 18 18" xmlns="http://www.w3.org/2000/svg">
        <path d="M16.0714 0.000946045H1.92857C0.863449 0.000946045 0 0.864396 0 1.92952V12.2152C0 13.2804 0.863449 14.1438 1.92857 14.1438H4.21072L3.86102 17.2874C3.82203 17.6403 4.07651 17.9579 4.42942 17.9969C4.61166 18.017 4.79381 17.9584 4.9301 17.8357L9.03279 14.1438H16.0714C17.1365 14.1438 18 13.2804 18 12.2152V1.92952C18 0.864396 17.1365 0.000946045 16.0714 0.000946045ZM16.7143 12.2152C16.7143 12.5703 16.4264 12.8581 16.0714 12.8581H8.78592C8.62707 12.8581 8.47388 12.917 8.35583 13.0233L5.32541 15.751L5.56777 13.5723C5.60717 13.2195 5.3531 12.9015 5.00023 12.8621C4.9765 12.8594 4.95266 12.8581 4.92878 12.8581H1.92857C1.57352 12.8581 1.2857 12.5703 1.2857 12.2152V1.92952C1.2857 1.57446 1.57352 1.28665 1.92857 1.28665H16.0714C16.4265 1.28665 16.7143 1.57446 16.7143 1.92952V12.2152H16.7143Z"/>
    </symbol>
    <symbol id="dots" viewBox="0 0 52 10" xmlns="http://www.w3.org/2000/svg">
        <circle cx="5" cy="5" r="5"/>
        <circle cx="26" cy="5" r="5"/>
        <circle cx="47" cy="5" r="5"/>
    </symbol>
</svg>
