<svg width="18" height="17" viewBox="0 0 18 17" fill="none" xmlns="http://www.w3.org/2000/svg">
<path fill-rule="evenodd" clip-rule="evenodd" d="M0.00058789 6.05639C0.00058789 2.71687 3.33691 0 7.43826 0C11.5385 0 14.8759 2.71687 14.8759 6.05639C14.8759 9.3959 11.5385 12.1128 7.43826 12.1128C6.84855 12.1128 6.2716 12.0575 5.72015 11.946C3.31354 13.1944 1.19274 13.2826 0.643415 13.2826C0.588412 13.2826 0.549337 13.2815 0.527375 13.2809C0.518791 13.2807 0.512821 13.2805 0.509537 13.2805C0.244968 13.2688 0.029276 13.0659 0.00271294 12.8024C-0.0238502 12.5399 0.147216 12.2977 0.403284 12.2339C1.21293 12.0341 1.85469 11.25 2.35089 10.4754C0.850607 9.33427 0.00058789 7.74792 0.00058789 6.05639ZM7.71132 4.1617C7.83276 4.27707 7.89348 4.40761 7.89348 4.55334C7.89348 4.68692 7.85705 4.81747 7.78419 4.94498C7.7174 5.06642 7.64757 5.16357 7.57471 5.23643C7.50184 5.30322 7.38951 5.39733 7.23771 5.51877C7.09199 5.64021 6.9918 5.72522 6.93716 5.77379C6.61534 6.05917 6.48783 6.46599 6.55463 6.99425H7.79329C7.77508 6.87281 7.79633 6.75137 7.85705 6.62993C7.92384 6.50849 7.99367 6.41438 8.06653 6.34759C8.13939 6.27472 8.2578 6.16847 8.42174 6.02881C8.59175 5.88309 8.70712 5.7829 8.76784 5.72825C9.16251 5.36394 9.35985 4.87211 9.35985 4.25278C9.35985 3.79131 9.17769 3.40575 8.81338 3.09608C8.4612 2.78034 7.97849 2.62247 7.36522 2.62247C6.95841 2.62247 6.59106 2.70748 6.26317 2.87749C5.94136 3.04751 5.69545 3.2752 5.52544 3.56058L6.32693 4.48048C6.47265 4.29832 6.61534 4.17081 6.755 4.09795C6.89465 4.02508 7.07377 3.98865 7.29236 3.98865C7.4563 3.98865 7.59596 4.04633 7.71132 4.1617ZM6.58195 7.6409C6.40586 7.81092 6.31782 8.00826 6.31782 8.23292C6.31782 8.49401 6.40283 8.71563 6.57284 8.89779C6.74893 9.07388 6.97359 9.16192 7.24682 9.16192C7.49577 9.16192 7.69918 9.07084 7.85705 8.88868C8.02099 8.70652 8.10296 8.48794 8.10296 8.23292C8.10296 8.00826 8.01795 7.81092 7.84794 7.6409C7.684 7.46482 7.48363 7.37678 7.24682 7.37678C6.97966 7.37678 6.75803 7.46482 6.58195 7.6409Z" fill="white"/>
<path d="M16.5987 15.9126C15.9219 15.7458 15.4098 15.2506 15.0517 14.7598C16.298 13.7833 17.0025 12.4403 17.0025 11.009C17.0025 9.81052 16.4988 8.70868 15.6626 7.82785C14.718 10.8975 11.3955 13.1745 7.43976 13.1745C6.91169 13.1745 6.38999 13.1341 5.88316 13.0544C5.58141 13.2 5.28603 13.3285 4.99596 13.4433C6.06804 15.0902 8.18884 16.2154 10.6273 16.2154C11.1257 16.2154 11.6091 16.1697 12.0681 16.0805C13.5928 16.8572 14.9837 17.0006 15.8018 16.9996C16.2502 16.9996 16.5265 16.9571 16.5573 16.9517C16.8059 16.9114 16.9918 16.701 17.0025 16.4492C17.012 16.1974 16.8442 15.9721 16.5987 15.9126Z" fill="white"/>
</svg>
