<svg width="14" height="20" viewBox="0 0 14 20" fill="none" xmlns="http://www.w3.org/2000/svg">
<path d="M7 20C3.55334 20 0.75 17.1967 0.75 13.75V5C0.75 4.53918 1.12338 4.16672 1.58328 4.16672C2.04333 4.16672 2.41672 4.53918 2.41672 5V13.75C2.41672 16.2767 4.47253 18.3333 7 18.3333C9.52747 18.3333 11.5833 16.2767 11.5833 13.75V4.58328C11.5833 2.97501 10.275 1.66672 8.66672 1.66672C7.05829 1.66672 5.75 2.97501 5.75 4.58328V12.9167C5.75 13.6058 6.31076 14.1667 7 14.1667C7.68924 14.1667 8.25 13.6058 8.25 12.9167V5C8.25 4.53918 8.62338 4.16672 9.08328 4.16672C9.54333 4.16672 9.91672 4.53918 9.91672 5V12.9167C9.91672 14.525 8.60828 15.8333 7 15.8333C5.39172 15.8333 4.08328 14.525 4.08328 12.9167V4.58328C4.08328 2.05673 6.1391 0 8.66672 0C11.1942 0 13.25 2.05673 13.25 4.58328V13.75C13.25 17.1967 10.4467 20 7 20Z" fill="#E6EEF5"/>
</svg>
