<svg version="1.1" id="Слой_1" xmlns="http://www.w3.org/2000/svg" xmlns:xlink="http://www.w3.org/1999/xlink" x="0px" y="0px" viewBox="0 0 306.8 60.8" enable-background="new 0 0 306.8 60.8" xml:space="preserve">

    <symbol id="icon-1" viewBox="0 0 67 67" xmlns="http://www.w3.org/2000/svg">
        <path d="M33.4987 61.4166C18.1445 61.4166 5.58203 48.8541 5.58203 33.4999C5.58203 18.1458 18.1445 5.58325 33.4987 5.58325C48.8529 5.58325 61.4154 18.1458 61.4154 33.4999C61.4154 48.8541 48.8529 61.4166 33.4987 61.4166ZM33.4987 8.37492C19.5404 8.37492 8.3737 19.5416 8.3737 33.4999C8.3737 47.4583 19.5404 58.6249 33.4987 58.6249C47.457 58.6249 58.6237 47.4583 58.6237 33.4999C58.6237 19.5416 47.457 8.37492 33.4987 8.37492Z"/>
        <path d="M33.5013 13.9583C32.6638 13.9583 32.1055 13.4 32.1055 12.5625V1.39583C32.1055 0.558333 32.6638 0 33.5013 0C34.3388 0 34.8971 0.558333 34.8971 1.39583V12.5625C34.8971 13.4 34.3388 13.9583 33.5013 13.9583Z"/>
        <path d="M33.5013 13.9583C32.6638 13.9583 32.1055 13.4 32.1055 12.5625V1.39583C32.1055 0.558333 32.6638 0 33.5013 0C34.3388 0 34.8971 0.558333 34.8971 1.39583V12.5625C34.8971 13.4 34.3388 13.9583 33.5013 13.9583Z"/>
        <path d="M65.6055 34.8959H54.4388C53.6013 34.8959 53.043 34.3376 53.043 33.5001C53.043 32.6626 53.6013 32.1042 54.4388 32.1042H65.6055C66.443 32.1042 67.0013 32.6626 67.0013 33.5001C67.0013 34.3376 66.443 34.8959 65.6055 34.8959Z"/>
        <path d="M33.5013 67.0001C32.6638 67.0001 32.1055 66.4417 32.1055 65.6042V54.4376C32.1055 53.6001 32.6638 53.0417 33.5013 53.0417C34.3388 53.0417 34.8971 53.6001 34.8971 54.4376V65.6042C34.8971 66.4417 34.3388 67.0001 33.5013 67.0001Z"/>
        <path d="M12.5625 34.8959H1.39583C0.558333 34.8959 0 34.3376 0 33.5001C0 32.6626 0.558333 32.1042 1.39583 32.1042H12.5625C13.4 32.1042 13.9583 32.6626 13.9583 33.5001C13.9583 34.3376 13.4 34.8959 12.5625 34.8959Z"/>
        <path d="M33.5 41.875C28.7542 41.875 25.125 38.2458 25.125 33.5C25.125 28.7542 28.7542 25.125 33.5 25.125C38.2458 25.125 41.875 28.7542 41.875 33.5C41.875 38.2458 38.2458 41.875 33.5 41.875ZM33.5 27.9167C30.4292 27.9167 27.9167 30.4292 27.9167 33.5C27.9167 36.5708 30.4292 39.0833 33.5 39.0833C36.5708 39.0833 39.0833 36.5708 39.0833 33.5C39.0833 30.4292 36.5708 27.9167 33.5 27.9167Z"/>
    </symbol>
    <symbol id="icon-2" viewBox="0 0 67 67" xmlns="http://www.w3.org/2000/svg">
        <path d="M27.9167 67.0001C12.5625 67.0001 0 54.4376 0 39.0834C0 23.7292 12.5625 11.1667 27.9167 11.1667C43.2708 11.1667 55.8333 23.7292 55.8333 39.0834C55.8333 54.4376 43.2708 67.0001 27.9167 67.0001ZM27.9167 13.9584C13.9583 13.9584 2.79167 25.1251 2.79167 39.0834C2.79167 53.0417 13.9583 64.2084 27.9167 64.2084C41.875 64.2084 53.0417 53.0417 53.0417 39.0834C53.0417 25.1251 41.875 13.9584 27.9167 13.9584Z"/>
        <path d="M27.9154 57.2292C17.8654 57.2292 9.76953 49.1333 9.76953 39.0833C9.76953 29.0333 17.8654 20.9375 27.9154 20.9375C37.9654 20.9375 46.0612 29.0333 46.0612 39.0833C46.0612 49.1333 37.9654 57.2292 27.9154 57.2292ZM27.9154 23.7292C19.5404 23.7292 12.5612 30.7083 12.5612 39.0833C12.5612 47.4583 19.5404 54.4375 27.9154 54.4375C36.2904 54.4375 43.2695 47.4583 43.2695 39.0833C43.2695 30.7083 36.2904 23.7292 27.9154 23.7292Z"/>
        <path d="M27.918 47.4583C23.1721 47.4583 19.543 43.8291 19.543 39.0833C19.543 34.3374 23.1721 30.7083 27.918 30.7083C32.6638 30.7083 36.293 34.3374 36.293 39.0833C36.293 43.8291 32.6638 47.4583 27.918 47.4583ZM27.918 33.4999C24.8471 33.4999 22.3346 36.0124 22.3346 39.0833C22.3346 42.1541 24.8471 44.6666 27.918 44.6666C30.9888 44.6666 33.5013 42.1541 33.5013 39.0833C33.5013 36.0124 30.9888 33.4999 27.918 33.4999Z"/>
        <path d="M27.9182 40.4791C27.6391 40.4791 27.0807 40.4791 26.8016 40.1999C26.2432 39.6416 26.2432 38.8041 26.8016 38.2458L47.7391 17.3083C48.2974 16.7499 49.1349 16.7499 49.6932 17.3083C50.2516 17.8666 50.2516 18.7041 49.6932 19.2624L28.7557 40.1999C28.7557 40.4791 28.1974 40.4791 27.9182 40.4791Z"/>
        <path d="M55.832 19.5417H48.8529C48.0154 19.5417 47.457 18.9833 47.457 18.1458V11.1667C47.457 10.8875 47.7362 10.3292 47.7362 10.05L57.507 0.279167C58.0654 0 58.6237 0 59.182 0C59.7404 0.279167 60.0195 0.8375 60.0195 1.39583V6.97917H65.6029C66.1612 6.97917 66.7195 7.25833 66.9987 7.81667C66.9987 8.375 66.9987 8.93333 66.7195 9.49167L56.9487 19.2625C56.6695 19.2625 56.1112 19.5417 55.832 19.5417ZM50.2487 16.75H55.2737L62.2529 9.77083H58.6237C57.7862 9.77083 57.2279 9.2125 57.2279 8.375V4.74583L50.2487 11.725V16.75Z"/>
    </symbol>
    <symbol id="icon-3" viewBox="0 0 65 65" xmlns="http://www.w3.org/2000/svg">
        <path d="M62.8324 30.0713L59.077 33.8268C58.839 34.0649 58.7052 34.3878 58.7052 34.7244C58.7052 37.4137 57.658 39.9419 55.7564 41.8434L35.6972 61.9027C34.9528 62.6469 33.7417 62.647 32.9974 61.9027C32.6368 61.5421 32.4381 61.0627 32.4381 60.5527C32.4381 60.1088 32.5889 59.6881 32.8657 59.3489L44.4815 47.7331C44.9772 47.2374 44.9772 46.4335 44.4815 45.9376C44.4803 45.9364 44.4789 45.9355 44.4777 45.9342C44.4765 45.9329 44.4755 45.9317 44.4742 45.9304C43.9784 45.4349 43.1746 45.4349 42.6787 45.9304L28.6723 59.9514C28.3118 60.3121 27.8323 60.5106 27.3225 60.5106C26.8126 60.5106 26.3331 60.3119 25.9726 59.9514C25.2752 59.2541 25.2313 58.1473 25.8404 57.3981L39.9936 43.245C40.4893 42.7492 40.4893 41.9454 39.9936 41.4495C39.4978 40.9539 38.694 40.9539 38.1981 41.4495L21.7223 57.9252C21.3618 58.2859 20.8823 58.4845 20.3724 58.4845C19.8625 58.4845 19.3831 58.2858 19.0224 57.9252C18.6619 57.5647 18.4633 57.0853 18.4633 56.5754C18.4633 56.0654 18.6619 55.5859 19.0224 55.2253L35.5096 38.7528C36.0054 38.257 36.0054 37.4532 35.5096 36.9573C35.0137 36.4618 34.21 36.4618 33.7143 36.9573L18.9972 51.6599C18.248 52.2686 17.1414 52.2248 16.4442 51.5276C16.0835 51.1671 15.8849 50.6876 15.8849 50.1776C15.8849 49.6676 16.0836 49.1883 16.4442 48.8277L21.2611 44.0106C21.7569 43.5149 21.7569 42.711 21.261 42.2151C20.7652 41.7195 19.9614 41.7195 19.4656 42.2151L17.0015 44.6794L12.107 39.7848C9.02557 36.7034 6.81495 32.8462 5.71402 28.6301C5.65701 28.4117 5.54288 28.2127 5.38343 28.0531L2.16722 24.8369C1.67134 24.3414 0.867608 24.3413 0.371859 24.8369C-0.12389 25.3326 -0.124017 26.1365 0.371859 26.6324L3.3475 29.608C4.59061 34.1289 6.99369 38.2622 10.3115 41.5802L15.2061 46.4749L14.6488 47.0322C13.8086 47.8723 13.3459 48.9893 13.3459 50.1775C13.3459 51.3656 13.8086 52.4827 14.6488 53.3228C15.1777 53.8517 15.808 54.2184 16.4775 54.4247C16.1169 55.0755 15.9242 55.8103 15.9242 56.5752C15.9242 57.7634 16.3868 58.8804 17.2269 59.7205C18.0671 60.5606 19.1842 61.0234 20.3723 61.0234C21.3835 61.0234 22.3425 60.6872 23.1239 60.0695C23.3372 60.6825 23.6881 61.2577 24.177 61.7468C25.0171 62.5869 26.1342 63.0497 27.3223 63.0497C28.3669 63.0497 29.3564 62.6918 30.1511 62.0344C30.3691 62.6532 30.7243 63.2204 31.2019 63.698C32.0691 64.5651 33.2081 64.9986 34.3471 64.9986C35.4863 64.9986 36.6253 64.5651 37.4925 63.698L39.1167 62.0738L40.2526 63.2096C41.1198 64.0767 42.2588 64.5103 43.3978 64.5103C44.5368 64.5103 45.676 64.0767 46.5432 63.2096C47.2505 62.5023 47.6889 61.5984 47.8103 60.6212C48.0597 60.6637 48.3119 60.6863 48.5644 60.6863C49.7035 60.6863 50.8425 60.2528 51.7098 59.3857C52.5499 58.5455 53.0127 57.4285 53.0127 56.2403C53.0127 56.2234 53.0116 56.2068 53.0114 56.1899C53.0275 56.1901 53.0435 56.1911 53.0596 56.1911C54.1988 56.1911 55.3378 55.7575 56.205 54.8904C57.0452 54.0503 57.5078 52.9332 57.5078 51.7451C57.5078 51.5296 57.4922 51.3167 57.4622 51.1071C58.4716 51.0011 59.4071 50.5573 60.1347 49.8296C60.9749 48.9896 61.4376 47.8725 61.4376 46.6844C61.4376 45.4962 60.9749 44.3792 60.1347 43.539L58.7918 42.1961C60.2778 40.1853 61.1276 37.7906 61.2328 35.2616L64.6277 31.8669C65.1234 31.3711 65.1234 30.5673 64.6275 30.0715C64.132 29.5756 63.3282 29.5756 62.8324 30.0713ZM44.7481 61.4141C44.0036 62.1582 42.7925 62.1585 42.0482 61.4141L40.9244 60.2904L43.6243 57.5905L44.2673 58.2334L44.7483 58.7144C45.1087 59.0748 45.3073 59.5542 45.3073 60.064C45.3072 60.5742 45.1085 61.0537 44.7481 61.4141ZM50.4737 56.2403C50.4737 56.7503 50.2752 57.2298 49.9145 57.5903C49.1702 58.3345 47.9591 58.3348 47.2146 57.5903L46.5438 56.9195C46.5437 56.9193 46.5435 56.9191 46.5433 56.919L45.4195 55.7952L48.1193 53.0953L49.9144 54.8904C50.2752 55.251 50.4737 55.7304 50.4737 56.2403ZM54.4098 53.095C53.6653 53.8392 52.4541 53.8393 51.7099 53.095L49.9148 51.2999L52.6147 48.6L54.4098 50.3951C54.7703 50.7556 54.9689 51.235 54.9689 51.7449C54.969 52.255 54.7703 52.7344 54.4098 53.095ZM58.3396 48.0341C57.979 48.3948 57.4995 48.5934 56.9897 48.5934C56.4799 48.5934 56.0004 48.3948 55.6397 48.0341L54.4102 46.8046L57.1101 44.1047L58.3396 45.3342C58.7001 45.6948 58.8988 46.1742 58.8988 46.6842C58.8987 47.1942 58.7001 47.6736 58.3396 48.0341Z"/>
        <path d="M15.064 16.8606C15.302 17.0987 15.625 17.2325 15.9617 17.2325H22.514C27.2508 17.2325 31.8844 18.877 35.5612 21.8633L45.8771 30.2413C43.3547 32.0029 39.9675 32.2437 37.2037 30.7468L30.1844 26.9458C29.8867 26.7846 29.5366 26.7489 29.2122 26.8472C24.7788 28.1885 20.0882 28.2008 15.6475 26.882L15.5229 26.8452C14.8506 26.6459 14.1442 27.0291 13.9449 27.7013C13.7456 28.3736 14.129 29.08 14.8012 29.2794L14.9254 29.3162C19.6719 30.7255 24.6765 30.762 29.4343 29.427L31.2635 30.4176L27.542 34.1391C27.0463 34.6348 27.0463 35.4387 27.5422 35.9346C27.7901 36.1824 28.115 36.3064 28.4398 36.3064C28.7647 36.3064 29.0897 36.1824 29.3375 35.9346L33.593 31.679L35.9949 32.9796C37.5879 33.8423 39.3327 34.2837 41.1141 34.2837C41.6368 34.2837 42.1629 34.2456 42.689 34.1692C45.0078 33.8316 47.1091 32.7774 48.7661 31.1204C49.0202 30.8661 49.1547 30.5161 49.1361 30.1571C49.1175 29.7982 48.9477 29.4638 48.6686 29.2372L38.4226 20.9161C41.4776 19.0245 44.9676 18.014 48.5801 17.9895C48.9137 17.9872 49.2332 17.8536 49.4691 17.6176L64.6283 2.45876C65.124 1.96301 65.124 1.15915 64.6283 0.663273C64.1324 0.167777 63.3286 0.167777 62.8328 0.663273L48.036 15.4602C43.8415 15.5874 39.8097 16.8925 36.3289 19.2474C32.3452 16.3041 27.4802 14.6934 22.5141 14.6934H16.4877L2.1673 0.373059C1.67155 -0.122563 0.867688 -0.122563 0.371812 0.373059C-0.123937 0.868808 -0.123937 1.67267 0.371812 2.16855L15.064 16.8606Z"/>
        <path d="M23.4996 38.1782C23.2635 38.4144 23.1289 38.7419 23.1289 39.0758C23.1289 39.411 23.2635 39.7372 23.4996 39.9732C23.737 40.2094 24.0646 40.3453 24.3984 40.3453C24.7323 40.3453 25.0586 40.2095 25.296 39.9732C25.5321 39.7372 25.668 39.4108 25.668 39.0758C25.668 38.7419 25.5321 38.4144 25.296 38.1782C25.0599 37.9421 24.7323 37.8063 24.3984 37.8063C24.0634 37.8063 23.737 37.9421 23.4996 38.1782Z"/>
    </symbol>
    <symbol id="icon-4" viewBox="0 0 67 67" xmlns="http://www.w3.org/2000/svg">
        <path d="M37.6862 66.9999H29.3112C27.357 66.9999 25.1237 65.3249 25.1237 61.9749V56.1124C25.1237 53.3207 23.7279 50.8082 21.4945 48.8541C16.4695 44.9457 13.957 39.3624 13.957 33.2207C14.2362 22.6124 22.8904 14.2374 33.2195 13.9583C38.5237 13.9583 43.5487 15.9124 47.1779 19.5416C50.807 23.1707 53.0404 28.1957 53.0404 33.4999C53.0404 39.3624 50.5279 44.9457 45.782 48.5749C43.2695 50.5291 41.8737 53.5999 41.8737 56.3916V62.8124C41.8737 65.0457 39.9195 66.9999 37.6862 66.9999ZM33.4987 16.7499C24.5654 16.7499 17.0279 24.2874 16.7487 33.2207C16.7487 38.5249 18.982 43.5499 23.1695 46.6207C26.2404 49.1332 27.9154 52.4832 27.9154 56.1124V61.9749C27.9154 62.5332 27.9154 64.2082 29.3112 64.2082H37.6862C38.5237 64.2082 39.082 63.6499 39.082 62.8124V56.3916C39.082 52.7624 41.0362 48.8541 44.107 46.3416C48.0154 43.2707 50.2487 38.5249 50.2487 33.4999C50.2487 29.0332 48.5737 24.8457 45.2237 21.4957C42.1529 18.4249 37.9654 16.7499 33.4987 16.7499Z"/>
        <path d="M40.4792 58.6249H26.5208C25.6833 58.6249 25.125 58.0666 25.125 57.2291C25.125 56.3916 25.6833 55.8333 26.5208 55.8333H40.4792C41.3167 55.8333 41.875 56.3916 41.875 57.2291C41.875 58.0666 41.3167 58.6249 40.4792 58.6249Z"/>
        <path d="M33.5013 8.375C32.6638 8.375 32.1055 7.81667 32.1055 6.97917V1.39583C32.1055 0.558333 32.6638 0 33.5013 0C34.3388 0 34.8971 0.558333 34.8971 1.39583V6.97917C34.8971 7.81667 34.3388 8.375 33.5013 8.375Z"/>
        <path d="M52.2034 16.1916C51.9242 16.1916 51.3659 16.1916 51.0867 15.9125C50.5284 15.3541 50.5284 14.5166 51.0867 13.9583L54.9951 10.05C55.5534 9.49164 56.3909 9.49164 56.9492 10.05C57.5075 10.6083 57.5075 11.4458 56.9492 12.0041L53.0409 15.9125C53.0409 15.9125 52.4826 16.1916 52.2034 16.1916Z"/>
        <path d="M65.6042 34.8959H60.0208C59.1833 34.8959 58.625 34.3376 58.625 33.5001C58.625 32.6626 59.1833 32.1042 60.0208 32.1042H65.6042C66.4417 32.1042 67 32.6626 67 33.5001C67 34.3376 66.4417 34.8959 65.6042 34.8959Z"/>
        <path d="M56.1117 57.5084C55.8326 57.5084 55.2742 57.5084 54.9951 57.2292L51.0867 53.3209C50.5284 52.7626 50.5284 51.9251 51.0867 51.3667C51.6451 50.8084 52.4826 50.8084 53.0409 51.3667L56.9492 55.2751C57.5075 55.8334 57.5075 56.6709 56.9492 57.2292C56.9492 57.5084 56.6701 57.5084 56.1117 57.5084Z"/>
        <path d="M10.887 57.5084C10.6078 57.5084 10.0495 57.5084 9.77031 57.2292C9.21198 56.6709 9.21198 55.8334 9.77031 55.2751L13.6786 51.3667C14.237 50.8084 15.0745 50.8084 15.6328 51.3667C16.1911 51.9251 16.1911 52.7626 15.6328 53.3209L11.7245 57.2292C11.4453 57.5084 11.1661 57.5084 10.887 57.5084Z"/>
        <path d="M6.97917 34.8959H1.39583C0.558333 34.8959 0 34.3376 0 33.5001C0 32.6626 0.558333 32.1042 1.39583 32.1042H6.97917C7.81667 32.1042 8.375 32.6626 8.375 33.5001C8.375 34.3376 7.81667 34.8959 6.97917 34.8959Z"/>
        <path d="M14.7953 16.1916C14.5161 16.1916 13.9578 16.1916 13.6786 15.9125L9.77031 11.725C9.21198 11.1666 9.21198 10.3291 9.77031 9.7708C10.3286 9.21247 11.1661 9.21247 11.7245 9.7708L15.6328 13.6791C16.1911 14.2375 16.1911 15.075 15.6328 15.6333C15.3536 15.9125 15.0745 16.1916 14.7953 16.1916Z"/>
        <path d="M44.668 34.8958C43.8305 34.8958 43.2721 34.3375 43.2721 33.5C43.2721 28.1958 38.8055 23.7292 33.5013 23.7292C32.6638 23.7292 32.1055 23.1708 32.1055 22.3333C32.1055 21.4958 32.6638 20.9375 33.5013 20.9375C40.4805 20.9375 46.0638 26.5208 46.0638 33.5C46.0638 34.3375 45.5055 34.8958 44.668 34.8958Z"/>
    </symbol>
    <symbol id="icon-5" viewBox="0 0 50 50" xmlns="http://www.w3.org/2000/svg">
        <path d="M46.5553 13.0778H33.2565V11.412C33.2565 4.31814 26.5278 4.73458 26.5278 4.73458H23.3468C16.2545 4.73458 16.6213 11.4617 16.6213 11.4617V13.0778H3.2712C-0.121183 13.0778 0.000545792 16.4173 0.000545792 16.4173V22.9362C0.000545792 22.9362 14.238 28.1161 24.8956 28.1161C36.5415 28.1161 49.9957 22.8849 49.9957 22.8849V16.4173C49.9973 12.9192 46.5553 13.0778 46.5553 13.0778ZM21.1108 11.2727C21.1108 7.93316 25.0302 7.8835 25.0302 7.8835C29.0056 7.8835 28.8838 11.3239 28.8838 11.3239V12.9945H21.1108V11.2727ZM29.1337 26.878L20.8626 26.8844V23.6954H29.1337V26.878Z"/>
        <path d="M49.9968 41.9291V25.2923C49.9968 25.2923 39.1662 30.28 24.8246 30.28C11.6315 30.28 0 25.137 0 25.137V41.9275C0 45.3183 3.2162 45.2686 3.2162 45.2686H46.6092C50.2066 45.2702 49.9968 41.9291 49.9968 41.9291ZM29.1332 33.131C29.1332 34.2762 28.2106 35.2004 27.0686 35.2004H22.9298C21.7878 35.2004 20.862 34.2762 20.862 33.131V30.9976H29.1332V33.131Z"/>
    </symbol>
    <symbol id="icon-6" viewBox="0 0 50 50" xmlns="http://www.w3.org/2000/svg">
        <path d="M42.7848 26.6914H38.918C39.3121 27.7705 39.5274 28.9351 39.5274 30.1488V44.7631C39.5274 45.2692 39.4394 45.7549 39.2791 46.2067H45.6718C48.0598 46.2067 50.0025 44.2639 50.0025 41.876V33.9091C50.0026 29.9293 46.7647 26.6914 42.7848 26.6914Z"/>
        <path d="M10.4751 30.1491C10.4751 28.9352 10.6905 27.7708 11.0846 26.6917H7.21779C3.2379 26.6917 0 29.9295 0 33.9094V41.8763C0 44.2642 1.94268 46.207 4.33067 46.207H10.7235C10.5632 45.7551 10.4751 45.2694 10.4751 44.7634V30.1491Z"/>
        <path d="M29.4211 22.9312H20.5811C16.6012 22.9312 13.3633 26.169 13.3633 30.1489V44.7632C13.3633 45.5604 14.0096 46.2068 14.8068 46.2068H35.1953C35.9926 46.2068 36.6389 45.5605 36.6389 44.7632V30.1489C36.6389 26.169 33.401 22.9312 29.4211 22.9312Z"/>
        <path d="M25.0006 3.79297C20.2143 3.79297 16.3203 7.68692 16.3203 12.4734C16.3203 15.7199 18.1122 18.5554 20.7585 20.0441C22.0137 20.7501 23.4607 21.1536 25.0006 21.1536C26.5404 21.1536 27.9875 20.7501 29.2427 20.0441C31.8891 18.5554 33.6809 15.7198 33.6809 12.4734C33.6809 7.68702 29.7869 3.79297 25.0006 3.79297Z"/>
        <path d="M9.75734 11.8838C6.17774 11.8838 3.26562 14.7959 3.26562 18.3755C3.26562 21.9551 6.17774 24.8672 9.75734 24.8672C10.6653 24.8672 11.53 24.6791 12.3154 24.341C13.6735 23.7564 14.7932 22.7214 15.4861 21.425C15.9724 20.5152 16.249 19.4772 16.249 18.3755C16.249 14.796 13.3369 11.8838 9.75734 11.8838Z"/>
        <path d="M40.2456 11.8838C36.666 11.8838 33.7539 14.7959 33.7539 18.3755C33.7539 19.4773 34.0306 20.5153 34.5169 21.425C35.2098 22.7215 36.3295 23.7565 37.6875 24.341C38.473 24.6791 39.3376 24.8672 40.2456 24.8672C43.8252 24.8672 46.7373 21.9551 46.7373 18.3755C46.7373 14.7959 43.8252 11.8838 40.2456 11.8838Z"/>
    </symbol>
    <symbol id="icon-7" viewBox="0 0 55 55" xmlns="http://www.w3.org/2000/svg">
        <path d="M43.5475 8.3516L40.791 11.057C40.791 11.057 39.8684 10.8491 39.2275 10.5371L34.9084 8.43573C34.3838 8.1805 33.7372 8.05762 33.0784 8.05762C32.1302 8.05762 31.1537 8.31285 30.4693 8.79684L23.789 13.4817C22.6281 14.3032 22.371 15.9092 23.218 17.0521L23.6141 17.5871C24.1576 18.3188 25.0462 18.7186 25.9348 18.7186C26.4348 18.7186 26.9339 18.5929 27.3726 18.3282L30.5421 16.3053C31.1027 15.9678 31.8145 15.8015 32.5339 15.8015C33.378 15.8015 34.2316 16.0312 34.8565 16.4802L39.4572 20.6952C40.6123 21.5262 42.4084 22.9999 43.452 23.9669L47.6302 27.8502L54.9988 19.3123L43.5475 8.3516Z"/>
        <path d="M46.3449 30.982L39.3526 24.4831C38.7447 23.9896 37.3901 22.9527 37.3901 22.9527L33.0078 18.9389C32.9151 18.904 32.745 18.8633 32.5351 18.8633C32.3167 18.8633 32.1721 18.9077 32.1352 18.9238L28.9572 20.9496C28.0554 21.4941 27.0108 21.7805 25.9379 21.7805C24.0464 21.7805 22.2588 20.8947 21.1566 19.4087L20.7615 18.8765C19.8559 17.6552 19.4891 16.1588 19.7292 14.6615C19.9684 13.1651 20.7842 11.8568 22.0338 10.9739L22.7532 10.4701C21.7153 10.3434 20.5639 10.454 19.7217 10.8141C19.7217 10.8141 18.3103 11.4343 17.8575 11.6261C16.8083 12.0714 15.3374 12.0648 15.3374 12.0648L11.8852 8.84888L0 20.6546L4.46935 25.1495L5.48459 24.0861C6.54332 22.9753 8.03405 22.3373 9.57393 22.3373C11.0344 22.3373 12.4193 22.8912 13.4733 23.8961L13.9544 24.3545C14.5736 24.9453 15.0302 25.6411 15.3223 26.3916C16.2458 26.6289 17.0966 27.0978 17.8037 27.7718L18.282 28.2293C19.3728 29.2672 19.9948 30.67 20.0317 32.1806C20.3626 32.3848 20.6764 32.6258 20.9628 32.9L21.4468 33.3613C22.1246 34.0079 22.6067 34.783 22.8903 35.6139C23.7467 35.8635 24.536 36.3144 25.194 36.9411L25.6836 37.4062C27.6517 39.2835 27.9646 42.2527 26.5845 44.477L26.9513 44.8192C27.993 45.7881 29.6378 45.7285 30.6067 44.6868L31.0595 44.1981C32.0076 43.1772 31.9604 41.5853 30.9773 40.6126L34.3302 43.7226C35.3738 44.6897 37.0186 44.6292 37.9876 43.5856L38.4404 43.0987C39.4027 42.0627 39.3459 40.4321 38.3213 39.4613L39.1834 40.2629C40.226 41.2308 41.8699 41.1694 42.8379 40.1277L43.2916 39.6399C44.2596 38.5963 44.1981 36.9515 43.1564 35.9826L42.4285 35.3076C43.475 36.2208 45.0744 36.1508 46.0244 35.1271L46.4801 34.6384C47.4481 33.5938 47.3885 31.949 46.3449 30.982Z"/>
        <path d="M23.5702 39.6219L23.0862 39.1615C22.5871 38.6861 21.9443 38.4497 21.3015 38.4497C20.619 38.4497 19.9365 38.7173 19.4298 39.2485L19.4213 39.2343C20.4016 38.2049 20.3629 36.5592 19.3334 35.5779L18.8504 35.1176C18.3532 34.6449 17.717 34.4105 17.078 34.4105C16.4323 34.4105 15.7886 34.6497 15.2895 35.1214L16.2584 34.1061C17.2405 33.0767 17.2027 31.43 16.1714 30.4488L15.6893 29.9884C15.1921 29.5139 14.5512 29.2795 13.9112 29.2795C13.2467 29.2795 12.584 29.5318 12.0811 30.0319C12.8894 28.9996 12.809 27.4966 11.841 26.5731L11.3599 26.1137C10.8608 25.6382 10.2161 25.4019 9.57422 25.4019C8.88983 25.4009 8.20827 25.6694 7.7016 26.2006L2.84373 31.2939C1.86252 32.3224 1.90128 33.9691 2.93354 34.9493L3.41375 35.4087C3.91002 35.8814 4.54715 36.113 5.18333 36.113C5.77036 36.113 6.35644 35.9154 6.83287 35.526L5.55294 36.8664C4.57267 37.8967 4.61143 39.5416 5.63991 40.5237L6.12485 40.9841C6.62396 41.4596 7.26771 41.6959 7.90861 41.6959C8.59301 41.6959 9.27456 41.4284 9.78124 40.8971L10.7804 39.8488C9.89089 40.882 9.95045 42.4521 10.9477 43.4021L11.4327 43.8625C11.9308 44.337 12.5746 44.5734 13.2174 44.5734C13.9008 44.5734 14.5833 44.3058 15.0891 43.7746L16.6951 42.1128C15.713 43.1431 15.7508 44.7879 16.7821 45.7701L17.2661 46.2304C17.7633 46.7059 18.4061 46.9423 19.0489 46.9423C19.7323 46.9423 20.4148 46.6747 20.9206 46.1435L23.6572 43.2755C24.6394 42.2489 24.5987 40.6041 23.5702 39.6219Z"/>
    </symbol>
</svg>
