<svg version="1.1" id="Слой_1" xmlns="http://www.w3.org/2000/svg" xmlns:xlink="http://www.w3.org/1999/xlink" x="0px" y="0px" viewBox="0 0 306.8 60.8" enable-background="new 0 0 306.8 60.8" xml:space="preserve">
    <symbol id="status-arrow" viewBox="0 0 8 8" xmlns="http://www.w3.org/2000/svg">
        <path d="M3.99989 5.27992C3.85651 5.27992 3.71315 5.22518 3.60384 5.11592L0.164022 1.67606C-0.0547959 1.45725 -0.0547959 1.10247 0.164022 0.883743C0.38275 0.665014 0.737455 0.665014 0.95629 0.883743L3.99989 3.92752L7.0435 0.883849C7.26232 0.66512 7.61699 0.66512 7.8357 0.883849C8.05462 1.10258 8.05462 1.45735 7.8357 1.67617L4.39593 5.11603C4.28657 5.2253 4.14321 5.27992 3.99989 5.27992Z" fill="#0DA589"/>
    </symbol>
    <symbol id="dialog-arrow-down" viewBox="0 0 10 6" xmlns="http://www.w3.org/2000/svg">
        <path d="M4.99988 5.85006C4.82066 5.85006 4.64146 5.78163 4.50482 5.64506L0.20505 1.34524C-0.068472 1.07172 -0.068472 0.62825 0.20505 0.354839C0.478461 0.0814275 0.921841 0.0814275 1.19539 0.354839L4.99988 4.15956L8.8044 0.354972C9.07792 0.0815604 9.52126 0.0815604 9.79465 0.354972C10.0683 0.628383 10.0683 1.07185 9.79465 1.34537L5.49494 5.64519C5.35823 5.78179 5.17904 5.85006 4.99988 5.85006Z"/>
    </symbol>
    <symbol id="paperclip" viewBox="0 0 14 20" xmlns="http://www.w3.org/2000/svg">
        <path d="M7 20C3.55334 20 0.75 17.1967 0.75 13.75V5C0.75 4.53918 1.12338 4.16672 1.58328 4.16672C2.04333 4.16672 2.41672 4.53918 2.41672 5V13.75C2.41672 16.2767 4.47253 18.3333 7 18.3333C9.52747 18.3333 11.5833 16.2767 11.5833 13.75V4.58328C11.5833 2.97501 10.275 1.66672 8.66672 1.66672C7.05829 1.66672 5.75 2.97501 5.75 4.58328V12.9167C5.75 13.6058 6.31076 14.1667 7 14.1667C7.68924 14.1667 8.25 13.6058 8.25 12.9167V5C8.25 4.53918 8.62338 4.16672 9.08328 4.16672C9.54333 4.16672 9.91672 4.53918 9.91672 5V12.9167C9.91672 14.525 8.60828 15.8333 7 15.8333C5.39172 15.8333 4.08328 14.525 4.08328 12.9167V4.58328C4.08328 2.05673 6.1391 0 8.66672 0C11.1942 0 13.25 2.05673 13.25 4.58328V13.75C13.25 17.1967 10.4467 20 7 20Z" fill="#E6EEF5"/>
    </symbol>
    <symbol id="send" viewBox="0 0 22 22" xmlns="http://www.w3.org/2000/svg">
        <path d="M21.5445 10.2865L1.11643 0.858194C0.791149 0.710483 0.403016 0.798481 0.176736 1.07819C-0.0511157 1.3579 -0.0589726 1.75546 0.157879 2.04302L6.87557 10.9999L0.157879 19.9569C-0.0589726 20.2444 -0.0511157 20.6436 0.175164 20.9217C0.327589 21.1118 0.555441 21.214 0.786435 21.214C0.898004 21.214 1.00957 21.1904 1.11486 21.1417L21.5429 11.7134C21.8226 11.5845 22.0002 11.3064 22.0002 10.9999C22.0002 10.6935 21.8226 10.4154 21.5445 10.2865Z"/>
    </symbol>
    <symbol id="chat-close" viewBox="0 0 11 11" xmlns="http://www.w3.org/2000/svg">
        <path d="M6.50778 5.51135L10.791 1.22803C11.0697 0.949417 11.0697 0.498939 10.791 0.220327C10.5124 -0.0582853 10.0619 -0.0582853 9.78327 0.220327L5.49995 4.50365L1.21676 0.220327C0.938016 -0.0582853 0.487669 -0.0582853 0.209057 0.220327C-0.0696857 0.498939 -0.0696857 0.949417 0.209057 1.22803L4.49225 5.51135L0.209057 9.79467C-0.0696857 10.0733 -0.0696857 10.5238 0.209057 10.8024C0.347906 10.9414 0.530472 11.0112 0.712908 11.0112C0.895343 11.0112 1.07778 10.9414 1.21676 10.8024L5.49995 6.51905L9.78327 10.8024C9.92225 10.9414 10.1047 11.0112 10.2871 11.0112C10.4696 11.0112 10.652 10.9414 10.791 10.8024C11.0697 10.5238 11.0697 10.0733 10.791 9.79467L6.50778 5.51135Z"/>
    </symbol>
    <symbol id="chat" viewBox="0 0 18 17" xmlns="http://www.w3.org/2000/svg">
        <path fill-rule="evenodd" clip-rule="evenodd" d="M0.00058789 6.05639C0.00058789 2.71687 3.33691 0 7.43826 0C11.5385 0 14.8759 2.71687 14.8759 6.05639C14.8759 9.3959 11.5385 12.1128 7.43826 12.1128C6.84855 12.1128 6.2716 12.0575 5.72015 11.946C3.31354 13.1944 1.19274 13.2826 0.643415 13.2826C0.588412 13.2826 0.549337 13.2815 0.527375 13.2809C0.518791 13.2807 0.512821 13.2805 0.509537 13.2805C0.244968 13.2688 0.029276 13.0659 0.00271294 12.8024C-0.0238502 12.5399 0.147216 12.2977 0.403284 12.2339C1.21293 12.0341 1.85469 11.25 2.35089 10.4754C0.850607 9.33427 0.00058789 7.74792 0.00058789 6.05639ZM7.71132 4.1617C7.83276 4.27707 7.89348 4.40761 7.89348 4.55334C7.89348 4.68692 7.85705 4.81747 7.78419 4.94498C7.7174 5.06642 7.64757 5.16357 7.57471 5.23643C7.50184 5.30322 7.38951 5.39733 7.23771 5.51877C7.09199 5.64021 6.9918 5.72522 6.93716 5.77379C6.61534 6.05917 6.48783 6.46599 6.55463 6.99425H7.79329C7.77508 6.87281 7.79633 6.75137 7.85705 6.62993C7.92384 6.50849 7.99367 6.41438 8.06653 6.34759C8.13939 6.27472 8.2578 6.16847 8.42174 6.02881C8.59175 5.88309 8.70712 5.7829 8.76784 5.72825C9.16251 5.36394 9.35985 4.87211 9.35985 4.25278C9.35985 3.79131 9.17769 3.40575 8.81338 3.09608C8.4612 2.78034 7.97849 2.62247 7.36522 2.62247C6.95841 2.62247 6.59106 2.70748 6.26317 2.87749C5.94136 3.04751 5.69545 3.2752 5.52544 3.56058L6.32693 4.48048C6.47265 4.29832 6.61534 4.17081 6.755 4.09795C6.89465 4.02508 7.07377 3.98865 7.29236 3.98865C7.4563 3.98865 7.59596 4.04633 7.71132 4.1617ZM6.58195 7.6409C6.40586 7.81092 6.31782 8.00826 6.31782 8.23292C6.31782 8.49401 6.40283 8.71563 6.57284 8.89779C6.74893 9.07388 6.97359 9.16192 7.24682 9.16192C7.49577 9.16192 7.69918 9.07084 7.85705 8.88868C8.02099 8.70652 8.10296 8.48794 8.10296 8.23292C8.10296 8.00826 8.01795 7.81092 7.84794 7.6409C7.684 7.46482 7.48363 7.37678 7.24682 7.37678C6.97966 7.37678 6.75803 7.46482 6.58195 7.6409Z"/>
        <path d="M16.5987 15.9126C15.9219 15.7458 15.4098 15.2506 15.0517 14.7598C16.298 13.7833 17.0025 12.4403 17.0025 11.009C17.0025 9.81052 16.4988 8.70868 15.6626 7.82785C14.718 10.8975 11.3955 13.1745 7.43976 13.1745C6.91169 13.1745 6.38999 13.1341 5.88316 13.0544C5.58141 13.2 5.28603 13.3285 4.99596 13.4433C6.06804 15.0902 8.18884 16.2154 10.6273 16.2154C11.1257 16.2154 11.6091 16.1697 12.0681 16.0805C13.5928 16.8572 14.9837 17.0006 15.8018 16.9996C16.2502 16.9996 16.5265 16.9571 16.5573 16.9517C16.8059 16.9114 16.9918 16.701 17.0025 16.4492C17.012 16.1974 16.8442 15.9721 16.5987 15.9126Z"/>
    </symbol>
</svg>
